<svg width="249" height="52" viewBox="0 0 249 52" fill="none" xmlns="http://www.w3.org/2000/svg">
<rect width="249" height="52" rx="20" fill="#ED5656"/>
<path d="M51.82 33.14C50.7933 33.14 49.8733 32.9733 49.06 32.64C48.2467 32.3067 47.5933 31.8133 47.1 31.16C46.62 30.5067 46.3667 29.72 46.34 28.8H49.98C50.0333 29.32 50.2133 29.72 50.52 30C50.8267 30.2667 51.2267 30.4 51.72 30.4C52.2267 30.4 52.6267 30.2867 52.92 30.06C53.2133 29.82 53.36 29.4933 53.36 29.08C53.36 28.7333 53.24 28.4467 53 28.22C52.7733 27.9933 52.4867 27.8067 52.14 27.66C51.8067 27.5133 51.3267 27.3467 50.7 27.16C49.7933 26.88 49.0533 26.6 48.48 26.32C47.9067 26.04 47.4133 25.6267 47 25.08C46.5867 24.5333 46.38 23.82 46.38 22.94C46.38 21.6333 46.8533 20.6133 47.8 19.88C48.7467 19.1333 49.98 18.76 51.5 18.76C53.0467 18.76 54.2933 19.1333 55.24 19.88C56.1867 20.6133 56.6933 21.64 56.76 22.96H53.06C53.0333 22.5067 52.8667 22.1533 52.56 21.9C52.2533 21.6333 51.86 21.5 51.38 21.5C50.9667 21.5 50.6333 21.6133 50.38 21.84C50.1267 22.0533 50 22.3667 50 22.78C50 23.2333 50.2133 23.5867 50.64 23.84C51.0667 24.0933 51.7333 24.3667 52.64 24.66C53.5467 24.9667 54.28 25.26 54.84 25.54C55.4133 25.82 55.9067 26.2267 56.32 26.76C56.7333 27.2933 56.94 27.98 56.94 28.82C56.94 29.62 56.7333 30.3467 56.32 31C55.92 31.6533 55.3333 32.1733 54.56 32.56C53.7867 32.9467 52.8733 33.14 51.82 33.14ZM65.2647 30.1V33H63.5247C62.2847 33 61.318 32.7 60.6247 32.1C59.9314 31.4867 59.5847 30.4933 59.5847 29.12V24.68H58.2247V21.84H59.5847V19.12H63.0047V21.84H65.2447V24.68H63.0047V29.16C63.0047 29.4933 63.0847 29.7333 63.2447 29.88C63.4047 30.0267 63.6714 30.1 64.0447 30.1H65.2647ZM66.4897 27.4C66.4897 26.2533 66.703 25.2467 67.1297 24.38C67.5697 23.5133 68.163 22.8467 68.9097 22.38C69.6564 21.9133 70.4897 21.68 71.4097 21.68C72.1964 21.68 72.883 21.84 73.4697 22.16C74.0697 22.48 74.5297 22.9 74.8497 23.42V21.84H78.2697V33H74.8497V31.42C74.5164 31.94 74.0497 32.36 73.4497 32.68C72.863 33 72.1764 33.16 71.3897 33.16C70.483 33.16 69.6564 32.9267 68.9097 32.46C68.163 31.98 67.5697 31.3067 67.1297 30.44C66.703 29.56 66.4897 28.5467 66.4897 27.4ZM74.8497 27.42C74.8497 26.5667 74.6097 25.8933 74.1297 25.4C73.663 24.9067 73.0897 24.66 72.4097 24.66C71.7297 24.66 71.1497 24.9067 70.6697 25.4C70.203 25.88 69.9697 26.5467 69.9697 27.4C69.9697 28.2533 70.203 28.9333 70.6697 29.44C71.1497 29.9333 71.7297 30.18 72.4097 30.18C73.0897 30.18 73.663 29.9333 74.1297 29.44C74.6097 28.9467 74.8497 28.2733 74.8497 27.42ZM84.1639 23.7C84.5639 23.0867 85.0639 22.6067 85.6639 22.26C86.2639 21.9 86.9306 21.72 87.6639 21.72V25.34H86.7239C85.8706 25.34 85.2306 25.5267 84.8039 25.9C84.3772 26.26 84.1639 26.9 84.1639 27.82V33H80.7439V21.84H84.1639V23.7ZM95.5186 30.1V33H93.7786C92.5386 33 91.5719 32.7 90.8786 32.1C90.1853 31.4867 89.8386 30.4933 89.8386 29.12V24.68H88.4786V21.84H89.8386V19.12H93.2586V21.84H95.4986V24.68H93.2586V29.16C93.2586 29.4933 93.3386 29.7333 93.4986 29.88C93.6586 30.0267 93.9253 30.1 94.2986 30.1H95.5186ZM100.982 27.4C100.982 26.2533 101.195 25.2467 101.622 24.38C102.062 23.5133 102.655 22.8467 103.402 22.38C104.149 21.9133 104.982 21.68 105.902 21.68C106.689 21.68 107.375 21.84 107.962 22.16C108.562 22.48 109.022 22.9 109.342 23.42V21.84H112.762V33H109.342V31.42C109.009 31.94 108.542 32.36 107.942 32.68C107.355 33 106.669 33.16 105.882 33.16C104.975 33.16 104.149 32.9267 103.402 32.46C102.655 31.98 102.062 31.3067 101.622 30.44C101.195 29.56 100.982 28.5467 100.982 27.4ZM109.342 27.42C109.342 26.5667 109.102 25.8933 108.622 25.4C108.155 24.9067 107.582 24.66 106.902 24.66C106.222 24.66 105.642 24.9067 105.162 25.4C104.695 25.88 104.462 26.5467 104.462 27.4C104.462 28.2533 104.695 28.9333 105.162 29.44C105.642 29.9333 106.222 30.18 106.902 30.18C107.582 30.18 108.155 29.9333 108.622 29.44C109.102 28.9467 109.342 28.2733 109.342 27.42ZM128.274 18.96V28.52C128.274 30 127.854 31.14 127.014 31.94C126.188 32.74 125.068 33.14 123.654 33.14C122.174 33.14 120.988 32.72 120.094 31.88C119.201 31.04 118.754 29.8467 118.754 28.3H122.154C122.154 28.8867 122.274 29.3333 122.514 29.64C122.754 29.9333 123.101 30.08 123.554 30.08C123.968 30.08 124.288 29.9467 124.514 29.68C124.741 29.4133 124.854 29.0267 124.854 28.52V18.96H128.274ZM136.117 33.16C135.024 33.16 134.037 32.9267 133.157 32.46C132.29 31.9933 131.604 31.3267 131.097 30.46C130.604 29.5933 130.357 28.58 130.357 27.42C130.357 26.2733 130.61 25.2667 131.117 24.4C131.624 23.52 132.317 22.8467 133.197 22.38C134.077 21.9133 135.064 21.68 136.157 21.68C137.25 21.68 138.237 21.9133 139.117 22.38C139.997 22.8467 140.69 23.52 141.197 24.4C141.704 25.2667 141.957 26.2733 141.957 27.42C141.957 28.5667 141.697 29.58 141.177 30.46C140.67 31.3267 139.97 31.9933 139.077 32.46C138.197 32.9267 137.21 33.16 136.117 33.16ZM136.117 30.2C136.77 30.2 137.324 29.96 137.777 29.48C138.244 29 138.477 28.3133 138.477 27.42C138.477 26.5267 138.25 25.84 137.797 25.36C137.357 24.88 136.81 24.64 136.157 24.64C135.49 24.64 134.937 24.88 134.497 25.36C134.057 25.8267 133.837 26.5133 133.837 27.42C133.837 28.3133 134.05 29 134.477 29.48C134.917 29.96 135.464 30.2 136.117 30.2ZM154.791 21.84V33H151.371V31.48C151.025 31.9733 150.551 32.3733 149.951 32.68C149.365 32.9733 148.711 33.12 147.991 33.12C147.138 33.12 146.385 32.9333 145.731 32.56C145.078 32.1733 144.571 31.62 144.211 30.9C143.851 30.18 143.671 29.3333 143.671 28.36V21.84H147.071V27.9C147.071 28.6467 147.265 29.2267 147.651 29.64C148.038 30.0533 148.558 30.26 149.211 30.26C149.878 30.26 150.405 30.0533 150.791 29.64C151.178 29.2267 151.371 28.6467 151.371 27.9V21.84H154.791ZM160.668 23.7C161.068 23.0867 161.568 22.6067 162.168 22.26C162.768 21.9 163.434 21.72 164.168 21.72V25.34H163.228C162.374 25.34 161.734 25.5267 161.308 25.9C160.881 26.26 160.668 26.9 160.668 27.82V33H157.248V21.84H160.668V23.7ZM172.603 21.72C173.909 21.72 174.949 22.1467 175.723 23C176.509 23.84 176.903 25 176.903 26.48V33H173.503V26.94C173.503 26.1933 173.309 25.6133 172.923 25.2C172.536 24.7867 172.016 24.58 171.363 24.58C170.709 24.58 170.189 24.7867 169.803 25.2C169.416 25.6133 169.223 26.1933 169.223 26.94V33H165.803V21.84H169.223V23.32C169.569 22.8267 170.036 22.44 170.623 22.16C171.209 21.8667 171.869 21.72 172.603 21.72ZM189.799 27.24C189.799 27.56 189.779 27.8933 189.739 28.24H181.999C182.052 28.9333 182.272 29.4667 182.659 29.84C183.059 30.2 183.546 30.38 184.119 30.38C184.972 30.38 185.566 30.02 185.899 29.3H189.539C189.352 30.0333 189.012 30.6933 188.519 31.28C188.039 31.8667 187.432 32.3267 186.699 32.66C185.966 32.9933 185.146 33.16 184.239 33.16C183.146 33.16 182.172 32.9267 181.319 32.46C180.466 31.9933 179.799 31.3267 179.319 30.46C178.839 29.5933 178.599 28.58 178.599 27.42C178.599 26.26 178.832 25.2467 179.299 24.38C179.779 23.5133 180.446 22.8467 181.299 22.38C182.152 21.9133 183.132 21.68 184.239 21.68C185.319 21.68 186.279 21.9067 187.119 22.36C187.959 22.8133 188.612 23.46 189.079 24.3C189.559 25.14 189.799 26.12 189.799 27.24ZM186.299 26.34C186.299 25.7533 186.099 25.2867 185.699 24.94C185.299 24.5933 184.799 24.42 184.199 24.42C183.626 24.42 183.139 24.5867 182.739 24.92C182.352 25.2533 182.112 25.7267 182.019 26.34H186.299ZM203.003 21.84L196.003 38.3H192.323L194.883 32.62L190.343 21.84H194.163L196.743 28.82L199.303 21.84H203.003Z" fill="#FAFAFA"/>
</svg>
