<svg width="425" height="155" viewBox="0 0 425 155" fill="none" xmlns="http://www.w3.org/2000/svg">
<path d="M372.09 99.4734C374.062 97.7054 374.491 94.781 373.109 92.5213L368.145 84.4055C366.289 81.3712 362.082 80.8759 359.572 83.3963L347.245 95.7761C344.964 98.0666 345.146 101.822 347.638 103.881L354.159 109.27C356.253 111 359.297 110.939 361.319 109.126L372.09 99.4734Z" fill="#E95755"/>
<rect x="346.789" y="99.4196" width="2.05855" height="4.11711" rx="1.02928" transform="rotate(37.6622 346.789 99.4196)" fill="#762B2B"/>
<rect x="350.048" y="101.935" width="2.05855" height="4.11711" rx="1.02928" transform="rotate(37.6622 350.048 101.935)" fill="#762B2B"/>
<rect x="353.307" y="104.451" width="2.05855" height="4.11711" rx="1.02928" transform="rotate(37.6622 353.307 104.451)" fill="#762B2B"/>
<g filter="url(#filter0_d_8857_3873)">
<circle cx="5.83257" cy="5.83257" r="5.83257" transform="matrix(-1 0 0 1 25.6648 60.9434)" fill="#E95755"/>
</g>
<circle cx="5.83257" cy="5.83257" r="5.83257" transform="matrix(-1 0 0 1 91.6648 29.9434)" fill="#E95755"/>
<path d="M85.7367 32.0019C83.5997 32.0019 81.8666 33.735 81.8666 35.872C81.8668 38.0088 83.5998 39.7412 85.7367 39.7412C87.8734 39.741 89.6056 38.0087 89.6058 35.872C89.6058 33.7351 87.8736 32.0021 85.7367 32.0019Z" fill="#C93B3B"/>
<path d="M52.7008 99.4734C50.7282 97.7054 50.2994 94.781 51.6815 92.5213L56.6452 84.4055C58.501 81.3712 62.7083 80.8759 65.2181 83.3963L77.5457 95.7761C79.8265 98.0666 79.6444 101.822 77.1526 103.881L70.6314 109.27C68.5377 111 65.4934 110.939 63.4708 109.126L52.7008 99.4734Z" fill="#E95755"/>
<rect width="2.05855" height="4.11711" rx="1.02928" transform="matrix(-0.791627 0.611004 0.611004 0.791627 78.0012 99.4196)" fill="#762B2B"/>
<rect width="2.05855" height="4.11711" rx="1.02928" transform="matrix(-0.791627 0.611004 0.611004 0.791627 74.7421 101.935)" fill="#762B2B"/>
<rect width="2.05855" height="4.11711" rx="1.02928" transform="matrix(-0.791627 0.611004 0.611004 0.791627 71.4828 104.451)" fill="#762B2B"/>
<g filter="url(#filter1_d_8857_3873)">
<path fill-rule="evenodd" clip-rule="evenodd" d="M46.1416 10.2448C45.1496 7.61875 41.4531 7.54785 40.3641 10.1339L38.534 14.4787C37.857 16.0868 38.0729 17.9318 39.103 19.3423L39.9183 20.4577C40.0736 20.6702 40.0073 20.969 39.7944 21.1238C37.8632 22.5275 37.4394 25.228 38.8477 27.1559L39.8775 28.5653C40.0978 28.8668 40.0304 29.2854 39.7788 29.5614C38.6127 30.8406 38.4665 32.8024 39.5279 34.2557L41.9682 37.5975C43.1824 39.2598 45.5166 39.6259 47.1818 38.4158C48.2268 37.6562 48.7601 36.4563 48.7123 35.257C48.6998 34.9418 48.8572 34.6367 49.1257 34.4712C49.2209 34.4125 49.3146 34.3498 49.4065 34.283C50.9095 33.1904 51.4988 31.3123 51.0224 29.6243C50.9085 29.2208 51.0974 28.7687 51.4735 28.5832C51.7486 28.4475 52.016 28.2867 52.2725 28.1003C54.7156 26.3245 55.252 22.9071 53.4704 20.4681L46.5396 10.9792C46.3747 10.7534 46.2404 10.5062 46.1416 10.2448Z" fill="white"/>
</g>
<rect width="61.0704" height="80.2836" rx="30.5352" transform="matrix(-0.836524 -0.547931 -0.547931 0.836524 102.665 43.2155)" fill="#E95755"/>
<path d="M78.2181 78.7144C81.174 72.9125 77.3481 65.9574 70.8651 65.3479L70.5219 65.3156C68.3115 65.1078 66.2738 64.0321 64.8553 62.3243C61.0044 57.6881 53.6665 58.5057 50.9306 63.8758L47.6664 70.2825C44.377 76.7389 46.9444 84.6395 53.4008 87.9289L57.4642 89.9991C64.0433 93.351 72.0938 90.7349 75.4457 84.1559L78.2181 78.7144Z" fill="#F08988"/>
<rect width="16.4684" height="30.8783" rx="8.23422" transform="matrix(0.713988 -0.700158 -0.700158 -0.713988 85.0818 96.0428)" fill="#E95755"/>
<rect x="84.6489" y="90.701" width="2.05855" height="4.11711" rx="1.02928" transform="rotate(-44.4397 84.6489 90.701)" fill="#762B2B"/>
<rect x="87.5885" y="87.8184" width="2.05855" height="4.11711" rx="1.02928" transform="rotate(-44.4397 87.5885 87.8184)" fill="#762B2B"/>
<rect x="90.528" y="84.9358" width="2.05855" height="4.11711" rx="1.02928" transform="rotate(-44.4397 90.528 84.9358)" fill="#762B2B"/>
<g filter="url(#filter2_d_8857_3873)">
<circle cx="404.958" cy="66.7759" r="5.83257" fill="#E95755"/>
</g>
<circle cx="338.958" cy="35.7759" r="5.83257" fill="#E95755"/>
<path d="M339.054 32.0019C341.191 32.0019 342.924 33.735 342.924 35.872C342.923 38.0088 341.19 39.7412 339.054 39.7412C336.917 39.741 335.185 38.0087 335.184 35.872C335.184 33.7351 336.917 32.0021 339.054 32.0019Z" fill="#C93B3B"/>
<g filter="url(#filter3_d_8857_3873)">
<path fill-rule="evenodd" clip-rule="evenodd" d="M378.649 10.2448C379.641 7.61875 383.337 7.54785 384.426 10.1339L386.256 14.4787C386.933 16.0868 386.717 17.9318 385.687 19.3423L384.872 20.4577C384.717 20.6702 384.783 20.969 384.996 21.1238C386.927 22.5275 387.351 25.228 385.943 27.1559L384.913 28.5653C384.692 28.8668 384.76 29.2854 385.011 29.5614C386.178 30.8406 386.324 32.8024 385.262 34.2557L382.822 37.5975C381.608 39.2598 379.274 39.6259 377.608 38.4158C376.563 37.6562 376.03 36.4563 376.078 35.257C376.091 34.9418 375.933 34.6367 375.665 34.4712C375.569 34.4125 375.476 34.3498 375.384 34.283C373.881 33.1904 373.291 31.3123 373.768 29.6243C373.882 29.2208 373.693 28.7687 373.317 28.5832C373.042 28.4475 372.774 28.2867 372.518 28.1003C370.075 26.3245 369.538 22.9071 371.32 20.4681L378.251 10.9792C378.416 10.7534 378.55 10.5062 378.649 10.2448Z" fill="white"/>
</g>
<rect x="322.125" y="43.2155" width="61.0704" height="80.2836" rx="30.5352" transform="rotate(-33.2252 322.125 43.2155)" fill="#E95755"/>
<path d="M346.572 78.7144C343.616 72.9125 347.442 65.9574 353.925 65.3479L354.268 65.3156C356.479 65.1078 358.516 64.0321 359.935 62.3243C363.786 57.6881 371.124 58.5057 373.86 63.8758L377.124 70.2825C380.413 76.7389 377.846 84.6395 371.389 87.9289L367.326 89.9991C360.747 93.351 352.696 90.7349 349.345 84.1559L346.572 78.7144Z" fill="#F08988"/>
<rect x="339.708" y="96.0428" width="16.4684" height="30.8783" rx="8.23422" transform="rotate(-135.56 339.708 96.0428)" fill="#E95755"/>
<rect width="2.05855" height="4.11711" rx="1.02928" transform="matrix(-0.713988 -0.700158 -0.700158 0.713988 340.141 90.701)" fill="#762B2B"/>
<rect width="2.05855" height="4.11711" rx="1.02928" transform="matrix(-0.713988 -0.700158 -0.700158 0.713988 337.202 87.8184)" fill="#762B2B"/>
<rect width="2.05855" height="4.11711" rx="1.02928" transform="matrix(-0.713988 -0.700158 -0.700158 0.713988 334.262 84.9358)" fill="#762B2B"/>
<g filter="url(#filter4_dd_8857_3873)">
<path fill-rule="evenodd" clip-rule="evenodd" d="M101.746 66.9434C105.06 66.9434 107.746 69.6297 107.746 72.9434C107.746 75.6803 110.689 77.4904 113.339 76.8041C115.507 76.2424 117.782 75.9434 120.126 75.9434H308.126C310.389 75.9434 312.586 76.2222 314.687 76.7469C317.279 77.3947 320.126 75.6154 320.126 72.9434C320.126 69.6297 322.812 66.9434 326.126 66.9434H361.735C367.494 66.9434 369.945 74.2694 365.346 77.7354L356.772 84.1953C353.586 86.5958 353.586 91.3789 356.772 93.7793L364.336 99.4785C368.936 102.944 366.485 110.27 360.726 110.271H348.512C340 110.271 332.937 116.574 326.786 122.458C321.938 127.095 315.365 129.943 308.126 129.943H120.126C112.888 129.943 106.315 127.095 101.467 122.457C95.3157 116.574 88.2523 110.271 79.7405 110.271H67.1466C61.3873 110.27 58.9365 102.944 63.5363 99.4785L71.0998 93.7793C74.2856 91.3789 74.2855 86.5958 71.0998 84.1953L62.5265 77.7354C57.927 74.2695 60.3786 66.9434 66.1379 66.9434H101.746Z" fill="#FEFEFE"/>
</g>
<path d="M126.71 110.111C125.478 110.111 124.374 109.911 123.398 109.511C122.422 109.111 121.638 108.519 121.046 107.735C120.47 106.951 120.166 106.007 120.134 104.903H124.502C124.566 105.527 124.782 106.007 125.15 106.343C125.518 106.663 125.998 106.823 126.59 106.823C127.198 106.823 127.678 106.687 128.03 106.415C128.382 106.127 128.558 105.735 128.558 105.239C128.558 104.823 128.414 104.479 128.126 104.207C127.854 103.935 127.51 103.711 127.094 103.535C126.694 103.359 126.118 103.159 125.366 102.935C124.278 102.599 123.39 102.263 122.702 101.927C122.014 101.591 121.422 101.095 120.926 100.439C120.43 99.7834 120.182 98.9274 120.182 97.8714C120.182 96.3034 120.75 95.0794 121.886 94.1994C123.022 93.3034 124.502 92.8554 126.326 92.8554C128.182 92.8554 129.678 93.3034 130.814 94.1994C131.95 95.0794 132.558 96.3114 132.638 97.8954H128.198C128.166 97.3514 127.966 96.9274 127.598 96.6234C127.23 96.3034 126.758 96.1434 126.182 96.1434C125.686 96.1434 125.286 96.2794 124.982 96.5514C124.678 96.8074 124.526 97.1834 124.526 97.6794C124.526 98.2234 124.782 98.6474 125.294 98.9514C125.806 99.2554 126.606 99.5834 127.694 99.9354C128.782 100.303 129.662 100.655 130.334 100.991C131.022 101.327 131.614 101.815 132.11 102.455C132.606 103.095 132.854 103.919 132.854 104.927C132.854 105.887 132.606 106.759 132.11 107.543C131.63 108.327 130.926 108.951 129.998 109.415C129.07 109.879 127.974 110.111 126.71 110.111ZM148.219 98.5194C148.219 99.4954 147.995 100.391 147.547 101.207C147.099 102.007 146.411 102.655 145.483 103.151C144.555 103.647 143.403 103.895 142.027 103.895H139.483V109.943H135.379V93.0954H142.027C143.371 93.0954 144.507 93.3274 145.435 93.7914C146.363 94.2554 147.059 94.8954 147.523 95.7114C147.987 96.5274 148.219 97.4634 148.219 98.5194ZM141.715 100.631C142.499 100.631 143.083 100.447 143.467 100.079C143.851 99.7114 144.043 99.1914 144.043 98.5194C144.043 97.8474 143.851 97.3274 143.467 96.9594C143.083 96.5914 142.499 96.4074 141.715 96.4074H139.483V100.631H141.715ZM154.46 93.0954V109.943H150.356V93.0954H154.46ZM172.506 109.943H168.402L161.538 99.5514V109.943H157.434V93.0954H161.538L168.402 103.535V93.0954H172.506V109.943ZM192.687 93.0954V96.3834H188.223V109.943H184.119V96.3834H179.655V93.0954H192.687ZM209.339 93.0954V109.943H205.235V103.007H198.851V109.943H194.747V93.0954H198.851V99.6954H205.235V93.0954H209.339ZM216.405 96.3834V99.7914H221.901V102.959H216.405V106.655H222.621V109.943H212.301V93.0954H222.621V96.3834H216.405ZM253.556 93.0954L249.164 109.943H244.196L241.508 98.8554L238.724 109.943H233.756L229.484 93.0954H233.876L236.3 105.359L239.3 93.0954H243.812L246.692 105.359L249.14 93.0954H253.556ZM270.206 93.0954V109.943H266.102V103.007H259.718V109.943H255.614V93.0954H259.718V99.6954H266.102V93.0954H270.206ZM277.273 96.3834V99.7914H282.769V102.959H277.273V106.655H283.489V109.943H273.169V93.0954H283.489V96.3834H277.273ZM290.257 96.3834V99.7914H295.753V102.959H290.257V106.655H296.473V109.943H286.153V93.0954H296.473V96.3834H290.257ZM303.241 106.775H308.617V109.943H299.137V93.0954H303.241V106.775Z" fill="#2E2E2E"/>
<rect x="340.125" y="53.7655" width="19.0138" height="11.1293" rx="5.56467" transform="rotate(-27.277 340.125 53.7655)" fill="#F08988"/>
<rect x="344.18" y="51.6748" width="7.36019" height="3.17981" rx="1.5899" transform="rotate(-27.277 344.18 51.6748)" fill="#1E1E1E"/>
<rect x="347.392" y="51.2114" width="1.2267" height="4.23975" transform="rotate(-27.277 347.392 51.2114)" fill="#1E1E1E"/>
<path d="M345.728 56.0156C345.533 55.6368 345.76 55.1772 346.18 55.1023L349.446 54.5189C349.649 54.4825 349.837 54.3856 349.985 54.2407L352.355 51.9183C352.659 51.62 353.165 51.7015 353.36 52.0802C353.488 52.3271 353.439 52.628 353.241 52.8224L350.592 55.4183C350.445 55.5632 350.257 55.6601 350.053 55.6965L346.402 56.3486C346.129 56.3974 345.856 56.2624 345.728 56.0156Z" fill="#1E1E1E"/>
<circle cx="353.443" cy="43.9789" r="2.74474" transform="rotate(-25.6938 353.443 43.9789)" fill="#1E1E1E"/>
<circle cx="352.66" cy="42.4516" r="1.02928" transform="rotate(-25.6938 352.66 42.4516)" fill="white"/>
<circle cx="341.906" cy="48.9209" r="2.74474" transform="rotate(-25.6938 341.906 48.9209)" fill="#1E1E1E"/>
<circle cx="341.124" cy="47.3936" r="1.02928" transform="rotate(-25.6938 341.124 47.3936)" fill="white"/>
<path d="M402.447 80.487C403.155 78.0568 402.103 75.4832 399.899 74.2564L387.471 67.338C384.289 65.5663 380.242 67.34 379.372 70.888L371.016 104.952C370.215 108.216 372.526 111.382 375.89 111.63L388.491 112.558C391.113 112.752 393.531 111.077 394.264 108.561L402.447 80.487Z" fill="#E95755"/>
<rect x="371.948" y="108.653" width="2.03161" height="3.88958" rx="1.01581" transform="rotate(5.3526 371.948 108.653)" fill="#762B2B"/>
<rect x="375.994" y="109.033" width="2.03161" height="3.88958" rx="1.01581" transform="rotate(5.3526 375.994 109.033)" fill="#762B2B"/>
<rect x="380.039" y="109.412" width="2.03161" height="3.88958" rx="1.01581" transform="rotate(5.3526 380.039 109.412)" fill="#762B2B"/>
<circle cx="400.544" cy="25.0685" r="5.83257" fill="#E95755"/>
<path d="M360.64 21.2944C362.777 21.2944 364.51 23.0268 364.51 25.1636C364.51 27.3006 362.777 29.0337 360.64 29.0337C358.503 29.0336 356.771 27.3005 356.771 25.1636C356.771 23.0269 358.503 21.2946 360.64 21.2944Z" fill="#C93B3B"/>
<rect width="16.4684" height="33.9334" rx="8.23422" transform="matrix(0.282913 0.959146 0.959146 -0.282913 348.536 70.6934)" fill="#E95755"/>
<rect x="353.846" y="72.7041" width="2.05855" height="4.52446" rx="1.02928" transform="rotate(73.5659 353.846 72.7041)" fill="#762B2B"/>
<rect x="355.011" y="76.653" width="2.05855" height="4.52446" rx="1.02928" transform="rotate(73.5659 355.011 76.653)" fill="#762B2B"/>
<rect x="356.176" y="80.6019" width="2.05855" height="4.52446" rx="1.02928" transform="rotate(73.5659 356.176 80.6019)" fill="#762B2B"/>
<g filter="url(#filter5_d_8857_3873)">
<path fill-rule="evenodd" clip-rule="evenodd" d="M406.532 14.6339C409.895 11.9594 414.73 15.094 413.66 19.2554L411.928 25.9917C411.25 28.6279 409.068 30.6075 406.378 31.0266L403.39 31.4922C402.974 31.5571 402.717 31.978 402.796 32.3915C402.808 32.4545 402.819 32.5178 402.829 32.5816C403.431 36.355 400.671 39.8336 396.86 40.1063L393.786 40.3264C393.437 40.3514 393.167 40.637 393.109 40.9824C392.806 42.7806 391.477 44.3207 389.596 44.8016L387.859 45.2457C385.314 45.8963 382.723 44.3599 382.073 41.8147C381.477 39.4834 382.715 37.1139 384.883 36.232C384.974 36.1949 385.024 36.0961 384.999 36.0007C384.271 33.152 385.71 30.2583 388.283 29.0624C388.65 28.8918 388.845 28.4664 388.729 28.0784C388.676 27.8974 388.629 27.7125 388.591 27.5241C387.951 24.3983 389.671 21.2696 392.653 20.1358L405.335 15.3151C405.767 15.1511 406.171 14.9212 406.532 14.6339Z" fill="white"/>
</g>
<path d="M355.039 17.7032C356.55 20.332 351.914 25.83 344.684 29.9833C337.455 34.1365 330.37 35.3724 328.86 32.7436C327.35 30.1148 331.986 24.6168 339.215 20.4635C346.444 16.3103 353.529 15.0744 355.039 17.7032ZM333.425 30.1213C334.408 31.8334 339.022 31.0285 343.731 28.3235C348.439 25.6185 351.459 22.0377 350.475 20.3256C349.491 18.6134 344.877 19.4183 340.169 22.1233C335.46 24.8283 332.441 28.4091 333.425 30.1213Z" fill="#FFC737"/>
<rect width="19.0138" height="11.1293" rx="5.56467" transform="matrix(-0.888801 -0.458293 -0.458293 0.888801 84.6648 53.7655)" fill="#F08988"/>
<rect width="7.36019" height="3.17981" rx="1.5899" transform="matrix(-0.888801 -0.458293 -0.458293 0.888801 80.6102 51.6748)" fill="#1E1E1E"/>
<rect width="1.2267" height="4.23975" transform="matrix(-0.888801 -0.458293 -0.458293 0.888801 77.3986 51.2114)" fill="#1E1E1E"/>
<path d="M79.062 56.0156C79.2572 55.6368 79.0301 55.1772 78.6106 55.1023L75.3445 54.5189C75.1408 54.4825 74.9528 54.3856 74.805 54.2407L72.4356 51.9183C72.1313 51.62 71.6252 51.7015 71.4299 52.0802C71.3027 52.3271 71.3511 52.628 71.5494 52.8224L74.1978 55.4183C74.3456 55.5632 74.5336 55.6601 74.7373 55.6965L78.388 56.3486C78.6614 56.3974 78.9347 56.2624 79.062 56.0156Z" fill="#1E1E1E"/>
<circle cx="2.74474" cy="2.74474" r="2.74474" transform="matrix(-0.901124 -0.433561 -0.433561 0.901124 75.011 42.6955)" fill="#1E1E1E"/>
<circle cx="1.02928" cy="1.02928" r="1.02928" transform="matrix(-0.901124 -0.433561 -0.433561 0.901124 73.5037 41.9703)" fill="white"/>
<circle cx="2.74474" cy="2.74474" r="2.74474" transform="matrix(-0.901124 -0.433561 -0.433561 0.901124 86.5472 47.6376)" fill="#1E1E1E"/>
<circle cx="1.02928" cy="1.02928" r="1.02928" transform="matrix(-0.901124 -0.433561 -0.433561 0.901124 85.0398 46.9124)" fill="white"/>
<path d="M22.3433 80.487C21.635 78.0568 22.6874 75.4832 24.8911 74.2564L37.319 67.338C40.5015 65.5663 44.5484 67.34 45.4187 70.888L53.7747 104.952C54.5755 108.216 52.2646 111.382 48.9005 111.63L36.2992 112.558C33.6774 112.752 31.2593 111.077 30.5258 108.561L22.3433 80.487Z" fill="#E95755"/>
<rect width="2.03161" height="3.88958" rx="1.01581" transform="matrix(-0.995639 0.0932847 0.0932847 0.995639 52.8419 108.653)" fill="#762B2B"/>
<rect width="2.03161" height="3.88958" rx="1.01581" transform="matrix(-0.995639 0.0932847 0.0932847 0.995639 48.7965 109.033)" fill="#762B2B"/>
<rect width="2.03161" height="3.88958" rx="1.01581" transform="matrix(-0.995639 0.0932847 0.0932847 0.995639 44.751 109.412)" fill="#762B2B"/>
<circle cx="5.83257" cy="5.83257" r="5.83257" transform="matrix(-1 0 0 1 70.0789 19.2359)" fill="#E95755"/>
<path d="M64.1508 21.2944C62.0139 21.2944 60.2809 23.0268 60.2806 25.1636C60.2806 27.3006 62.0137 29.0337 64.1508 29.0337C66.2876 29.0335 68.0199 27.3005 68.0199 25.1636C68.0196 23.0269 66.2875 21.2946 64.1508 21.2944Z" fill="#C93B3B"/>
<g filter="url(#filter6_d_8857_3873)">
<path fill-rule="evenodd" clip-rule="evenodd" d="M18.258 14.6334C14.8952 11.9591 10.0608 15.0938 11.1304 19.2549L12.8632 25.9923C13.5412 28.6282 15.7228 30.608 18.412 31.0271L21.4002 31.4919C21.8163 31.5567 22.0731 31.9777 21.9941 32.3914C21.9821 32.4545 21.9709 32.5181 21.9607 32.5821C21.3594 36.3555 24.1188 39.8341 27.93 40.1068L31.0052 40.3263C31.3546 40.3512 31.6237 40.6369 31.682 40.9823C31.9853 42.7805 33.3134 44.3203 35.1941 44.8011L36.9311 45.2452C39.4764 45.8959 42.0667 44.3604 42.7175 41.8152C43.3136 39.4837 42.0757 37.1134 39.9072 36.2315C39.816 36.1944 39.7664 36.0956 39.7908 36.0003C40.519 33.1516 39.08 30.2587 36.5071 29.0629C36.14 28.8923 35.9453 28.4669 36.0611 28.0791C36.1153 27.8977 36.162 27.7125 36.2006 27.5238C36.8404 24.3981 35.1195 21.269 32.1372 20.1353L19.4549 15.3147C19.0233 15.1506 18.6194 14.9208 18.258 14.6334Z" fill="white"/>
</g>
<path d="M69.7509 17.7032C68.2407 20.332 72.8768 25.83 80.106 29.9833C87.3352 34.1365 94.4199 35.3724 95.9302 32.7436C97.4405 30.1148 92.8044 24.6168 85.5752 20.4635C78.346 16.3103 71.2612 15.0744 69.7509 17.7032ZM91.3658 30.1213C90.3821 31.8334 85.7679 31.0285 81.0595 28.3235C76.3512 25.6185 73.3317 22.0377 74.3154 20.3256C75.299 18.6134 79.9133 19.4183 84.6216 22.1233C89.3299 24.8283 92.3494 28.4091 91.3658 30.1213Z" fill="#FFC737"/>
<rect x="76.2548" y="70.6934" width="16.4684" height="33.9334" rx="8.23422" transform="rotate(106.434 76.2548 70.6934)" fill="#E95755"/>
<rect width="2.05855" height="4.52446" rx="1.02928" transform="matrix(-0.282913 0.959146 0.959146 0.282913 70.9443 72.7041)" fill="#762B2B"/>
<rect width="2.05855" height="4.52446" rx="1.02928" transform="matrix(-0.282913 0.959146 0.959146 0.282913 69.7795 76.653)" fill="#762B2B"/>
<rect width="2.05855" height="4.52446" rx="1.02928" transform="matrix(-0.282913 0.959146 0.959146 0.282913 68.6147 80.6019)" fill="#762B2B"/>
<defs>
<filter id="filter0_d_8857_3873" x="13.3134" y="60.9434" width="13.0375" height="13.7237" filterUnits="userSpaceOnUse" color-interpolation-filters="sRGB">
<feFlood flood-opacity="0" result="BackgroundImageFix"/>
<feColorMatrix in="SourceAlpha" type="matrix" values="0 0 0 0 0 0 0 0 0 0 0 0 0 0 0 0 0 0 127 0" result="hardAlpha"/>
<feOffset dy="1.37237"/>
<feGaussianBlur stdDeviation="0.343092"/>
<feComposite in2="hardAlpha" operator="out"/>
<feColorMatrix type="matrix" values="0 0 0 0 0 0 0 0 0 0 0 0 0 0 0 0 0 0 0.25 0"/>
<feBlend mode="normal" in2="BackgroundImageFix" result="effect1_dropShadow_8857_3873"/>
<feBlend mode="normal" in="SourceGraphic" in2="effect1_dropShadow_8857_3873" result="shape"/>
</filter>
<filter id="filter1_d_8857_3873" x="27.0374" y="5.96046e-06" width="38.4636" height="52.853" filterUnits="userSpaceOnUse" color-interpolation-filters="sRGB">
<feFlood flood-opacity="0" result="BackgroundImageFix"/>
<feColorMatrix in="SourceAlpha" type="matrix" values="0 0 0 0 0 0 0 0 0 0 0 0 0 0 0 0 0 0 127 0" result="hardAlpha"/>
<feOffset dy="2.74474"/>
<feGaussianBlur stdDeviation="5.48948"/>
<feComposite in2="hardAlpha" operator="out"/>
<feColorMatrix type="matrix" values="0 0 0 0 0 0 0 0 0 0 0 0 0 0 0 0 0 0 0.12 0"/>
<feBlend mode="normal" in2="BackgroundImageFix" result="effect1_dropShadow_8857_3873"/>
<feBlend mode="normal" in="SourceGraphic" in2="effect1_dropShadow_8857_3873" result="shape"/>
</filter>
<filter id="filter2_d_8857_3873" x="398.439" y="60.9434" width="13.0375" height="13.7237" filterUnits="userSpaceOnUse" color-interpolation-filters="sRGB">
<feFlood flood-opacity="0" result="BackgroundImageFix"/>
<feColorMatrix in="SourceAlpha" type="matrix" values="0 0 0 0 0 0 0 0 0 0 0 0 0 0 0 0 0 0 127 0" result="hardAlpha"/>
<feOffset dy="1.37237"/>
<feGaussianBlur stdDeviation="0.343092"/>
<feComposite in2="hardAlpha" operator="out"/>
<feColorMatrix type="matrix" values="0 0 0 0 0 0 0 0 0 0 0 0 0 0 0 0 0 0 0.25 0"/>
<feBlend mode="normal" in2="BackgroundImageFix" result="effect1_dropShadow_8857_3873"/>
<feBlend mode="normal" in="SourceGraphic" in2="effect1_dropShadow_8857_3873" result="shape"/>
</filter>
<filter id="filter3_d_8857_3873" x="359.289" y="5.96046e-06" width="38.4636" height="52.853" filterUnits="userSpaceOnUse" color-interpolation-filters="sRGB">
<feFlood flood-opacity="0" result="BackgroundImageFix"/>
<feColorMatrix in="SourceAlpha" type="matrix" values="0 0 0 0 0 0 0 0 0 0 0 0 0 0 0 0 0 0 127 0" result="hardAlpha"/>
<feOffset dy="2.74474"/>
<feGaussianBlur stdDeviation="5.48948"/>
<feComposite in2="hardAlpha" operator="out"/>
<feColorMatrix type="matrix" values="0 0 0 0 0 0 0 0 0 0 0 0 0 0 0 0 0 0 0.12 0"/>
<feBlend mode="normal" in2="BackgroundImageFix" result="effect1_dropShadow_8857_3873"/>
<feBlend mode="normal" in="SourceGraphic" in2="effect1_dropShadow_8857_3873" result="shape"/>
</filter>
<filter id="filter4_dd_8857_3873" x="39.7259" y="50.5434" width="348.421" height="103.8" filterUnits="userSpaceOnUse" color-interpolation-filters="sRGB">
<feFlood flood-opacity="0" result="BackgroundImageFix"/>
<feColorMatrix in="SourceAlpha" type="matrix" values="0 0 0 0 0 0 0 0 0 0 0 0 0 0 0 0 0 0 127 0" result="hardAlpha"/>
<feOffset dy="-2"/>
<feComposite in2="hardAlpha" operator="out"/>
<feColorMatrix type="matrix" values="0 0 0 0 0.947115 0 0 0 0 0.947115 0 0 0 0 0.947115 0 0 0 1 0"/>
<feBlend mode="normal" in2="BackgroundImageFix" result="effect1_dropShadow_8857_3873"/>
<feColorMatrix in="SourceAlpha" type="matrix" values="0 0 0 0 0 0 0 0 0 0 0 0 0 0 0 0 0 0 127 0" result="hardAlpha"/>
<feOffset dy="4"/>
<feGaussianBlur stdDeviation="10.2"/>
<feComposite in2="hardAlpha" operator="out"/>
<feColorMatrix type="matrix" values="0 0 0 0 0 0 0 0 0 0 0 0 0 0 0 0 0 0 0.12 0"/>
<feBlend mode="normal" in2="effect1_dropShadow_8857_3873" result="effect2_dropShadow_8857_3873"/>
<feBlend mode="normal" in="SourceGraphic" in2="effect2_dropShadow_8857_3873" result="shape"/>
</filter>
<filter id="filter5_d_8857_3873" x="370.944" y="5.40751" width="53.846" height="53.7111" filterUnits="userSpaceOnUse" color-interpolation-filters="sRGB">
<feFlood flood-opacity="0" result="BackgroundImageFix"/>
<feColorMatrix in="SourceAlpha" type="matrix" values="0 0 0 0 0 0 0 0 0 0 0 0 0 0 0 0 0 0 127 0" result="hardAlpha"/>
<feOffset dy="2.74474"/>
<feGaussianBlur stdDeviation="5.48948"/>
<feComposite in2="hardAlpha" operator="out"/>
<feColorMatrix type="matrix" values="0 0 0 0 0 0 0 0 0 0 0 0 0 0 0 0 0 0 0.12 0"/>
<feBlend mode="normal" in2="BackgroundImageFix" result="effect1_dropShadow_8857_3873"/>
<feBlend mode="normal" in="SourceGraphic" in2="effect1_dropShadow_8857_3873" result="shape"/>
</filter>
<filter id="filter6_d_8857_3873" x="4.86374e-05" y="5.40714" width="53.8458" height="53.7112" filterUnits="userSpaceOnUse" color-interpolation-filters="sRGB">
<feFlood flood-opacity="0" result="BackgroundImageFix"/>
<feColorMatrix in="SourceAlpha" type="matrix" values="0 0 0 0 0 0 0 0 0 0 0 0 0 0 0 0 0 0 127 0" result="hardAlpha"/>
<feOffset dy="2.74474"/>
<feGaussianBlur stdDeviation="5.48948"/>
<feComposite in2="hardAlpha" operator="out"/>
<feColorMatrix type="matrix" values="0 0 0 0 0 0 0 0 0 0 0 0 0 0 0 0 0 0 0.12 0"/>
<feBlend mode="normal" in2="BackgroundImageFix" result="effect1_dropShadow_8857_3873"/>
<feBlend mode="normal" in="SourceGraphic" in2="effect1_dropShadow_8857_3873" result="shape"/>
</filter>
</defs>
</svg>
