<svg width="328" height="100" viewBox="0 0 328 100" fill="none" xmlns="http://www.w3.org/2000/svg">
<g filter="url(#filter0_d_8857_3588)">
<rect x="40" y="26" width="249" height="52" rx="20" fill="url(#paint0_radial_8857_3588)" shape-rendering="crispEdges"/>
<path d="M144.584 60.168C143.352 60.168 142.248 59.968 141.272 59.568C140.296 59.168 139.512 58.576 138.92 57.792C138.344 57.008 138.04 56.064 138.008 54.96H142.376C142.44 55.584 142.656 56.064 143.024 56.4C143.392 56.72 143.872 56.88 144.464 56.88C145.072 56.88 145.552 56.744 145.904 56.472C146.256 56.184 146.432 55.792 146.432 55.296C146.432 54.88 146.288 54.536 146 54.264C145.728 53.992 145.384 53.768 144.968 53.592C144.568 53.416 143.992 53.216 143.24 52.992C142.152 52.656 141.264 52.32 140.576 51.984C139.888 51.648 139.296 51.152 138.8 50.496C138.304 49.84 138.056 48.984 138.056 47.928C138.056 46.36 138.624 45.136 139.76 44.256C140.896 43.36 142.376 42.912 144.2 42.912C146.056 42.912 147.552 43.36 148.688 44.256C149.824 45.136 150.432 46.368 150.512 47.952H146.072C146.04 47.408 145.84 46.984 145.472 46.68C145.104 46.36 144.632 46.2 144.056 46.2C143.56 46.2 143.16 46.336 142.856 46.608C142.552 46.864 142.4 47.24 142.4 47.736C142.4 48.28 142.656 48.704 143.168 49.008C143.68 49.312 144.48 49.64 145.568 49.992C146.656 50.36 147.536 50.712 148.208 51.048C148.896 51.384 149.488 51.872 149.984 52.512C150.48 53.152 150.728 53.976 150.728 54.984C150.728 55.944 150.48 56.816 149.984 57.6C149.504 58.384 148.8 59.008 147.872 59.472C146.944 59.936 145.848 60.168 144.584 60.168ZM166.094 48.576C166.094 49.552 165.87 50.448 165.422 51.264C164.974 52.064 164.286 52.712 163.358 53.208C162.43 53.704 161.278 53.952 159.902 53.952H157.358V60H153.254V43.152H159.902C161.246 43.152 162.382 43.384 163.31 43.848C164.238 44.312 164.934 44.952 165.398 45.768C165.862 46.584 166.094 47.52 166.094 48.576ZM159.59 50.688C160.374 50.688 160.958 50.504 161.342 50.136C161.726 49.768 161.918 49.248 161.918 48.576C161.918 47.904 161.726 47.384 161.342 47.016C160.958 46.648 160.374 46.464 159.59 46.464H157.358V50.688H159.59ZM172.334 43.152V60H168.23V43.152H172.334ZM190.38 60H186.276L179.412 49.608V60H175.308V43.152H179.412L186.276 53.592V43.152H190.38V60Z" fill="#FAFAFA"/>
</g>
<path d="M43.6921 13.1268C44.8996 10.1601 49.1004 10.1601 50.3079 13.1268L53.135 20.0723C53.5269 21.0351 54.3189 21.7794 55.3042 22.1109L61.9373 24.3422C65.1809 25.4334 65.1809 30.0212 61.9373 31.1123L55.3042 33.3436C54.3189 33.6751 53.5269 34.4194 53.135 35.3822L50.3079 42.3278C49.1004 45.2944 44.8996 45.2944 43.6921 42.3278L40.865 35.3822C40.4731 34.4194 39.6811 33.6751 38.6958 33.3436L32.0627 31.1123C28.8191 30.0212 28.8191 25.4334 32.0627 24.3422L38.6958 22.1109C39.6811 21.7795 40.4731 21.0351 40.865 20.0723L43.6921 13.1268Z" fill="#FFC737"/>
<path d="M293.486 64.1764C294.404 61.9217 297.596 61.9217 298.514 64.1764L300.663 69.4549C300.96 70.1867 301.562 70.7524 302.311 71.0043L307.352 72.7001C309.818 73.5294 309.818 77.0161 307.352 77.8454L302.311 79.5412C301.562 79.7931 300.96 80.3587 300.663 81.0905L298.514 86.3691C297.596 88.6238 294.404 88.6238 293.486 86.3691L291.337 81.0905C291.04 80.3587 290.438 79.7931 289.689 79.5412L284.648 77.8454C282.182 77.0161 282.182 73.5294 284.648 72.7001L289.689 71.0043C290.438 70.7524 291.04 70.1867 291.337 69.4549L293.486 64.1764Z" fill="#FFC737"/>
<path d="M22.4491 45.0386C23.1978 43.1993 25.8022 43.1993 26.5509 45.0386L28.3037 49.3448C28.5467 49.9418 29.0377 50.4033 29.6486 50.6088L33.7611 51.9922C35.7722 52.6687 35.7722 55.5131 33.7611 56.1896L29.6486 57.5731C29.0377 57.7786 28.5467 58.24 28.3037 58.837L26.5509 63.1432C25.8022 64.9825 23.1978 64.9825 22.4491 63.1432L20.6963 58.837C20.4533 58.24 19.9623 57.7786 19.3514 57.5731L15.2389 56.1896C13.2278 55.5131 13.2278 52.6687 15.2389 51.9922L19.3514 50.6088C19.9623 50.4033 20.4533 49.9418 20.6963 49.3448L22.4491 45.0386Z" fill="#FFC737"/>
<defs>
<filter id="filter0_d_8857_3588" x="40" y="26" width="249" height="60" filterUnits="userSpaceOnUse" color-interpolation-filters="sRGB">
<feFlood flood-opacity="0" result="BackgroundImageFix"/>
<feColorMatrix in="SourceAlpha" type="matrix" values="0 0 0 0 0 0 0 0 0 0 0 0 0 0 0 0 0 0 127 0" result="hardAlpha"/>
<feOffset dy="8"/>
<feComposite in2="hardAlpha" operator="out"/>
<feColorMatrix type="matrix" values="0 0 0 0 0.961538 0 0 0 0 0.692307 0 0 0 0 0 0 0 0 1 0"/>
<feBlend mode="normal" in2="BackgroundImageFix" result="effect1_dropShadow_8857_3588"/>
<feBlend mode="normal" in="SourceGraphic" in2="effect1_dropShadow_8857_3588" result="shape"/>
</filter>
<radialGradient id="paint0_radial_8857_3588" cx="0" cy="0" r="1" gradientUnits="userSpaceOnUse" gradientTransform="translate(39.5002 25.9092) rotate(10.0211) scale(252.858 436.18)">
<stop offset="0.00480769" stop-color="#FFC737"/>
<stop offset="0.115385" stop-color="#FFECBC"/>
<stop offset="0.230769" stop-color="#FFC737"/>
</radialGradient>
</defs>
</svg>
