<svg width="183" height="225" viewBox="0 0 183 225" fill="none" xmlns="http://www.w3.org/2000/svg">
<g opacity="0.7" filter="url(#filter0_d_8852_599)">
<path d="M20.4676 36.0512L88.5998 201.194C90.7294 206.356 98.0481 206.24 100.014 201.013L162.6 34.6468C163.806 31.4426 162.184 27.8566 158.951 26.7682C116.574 12.502 69.2443 11.9031 23.9532 28.0273C20.7059 29.1834 19.1486 32.8542 20.4676 36.0512Z" fill="#ED5656"/>
<path d="M20.4676 36.0512L88.5998 201.194C90.7294 206.356 98.0481 206.24 100.014 201.013L162.6 34.6468C163.806 31.4426 162.184 27.8566 158.951 26.7682C116.574 12.502 69.2443 11.9031 23.9532 28.0273C20.7059 29.1834 19.1486 32.8542 20.4676 36.0512Z" stroke="#FF0000" stroke-width="6"/>
</g>
<rect x="58.9985" y="27" width="65" height="66" rx="32.5" fill="#FEFEFE"/>
<defs>
<filter id="filter0_d_8852_599" x="0" y="0" width="182.997" height="229" filterUnits="userSpaceOnUse" color-interpolation-filters="sRGB">
<feFlood flood-opacity="0" result="BackgroundImageFix"/>
<feColorMatrix in="SourceAlpha" type="matrix" values="0 0 0 0 0 0 0 0 0 0 0 0 0 0 0 0 0 0 127 0" result="hardAlpha"/>
<feOffset dy="4"/>
<feGaussianBlur stdDeviation="8.5"/>
<feComposite in2="hardAlpha" operator="out"/>
<feColorMatrix type="matrix" values="0 0 0 0 1 0 0 0 0 1 0 0 0 0 1 0 0 0 1 0"/>
<feBlend mode="normal" in2="BackgroundImageFix" result="effect1_dropShadow_8852_599"/>
<feBlend mode="normal" in="SourceGraphic" in2="effect1_dropShadow_8852_599" result="shape"/>
</filter>
</defs>
</svg>
