<svg width="262" height="46" viewBox="0 0 262 46" fill="none" xmlns="http://www.w3.org/2000/svg">
<rect width="262" height="46" rx="12" fill="#ED5656"/>
<path d="M82.3202 18.7V21.54H86.9002V24.18H82.3202V27.26H87.5002V30H78.9002V15.96H87.5002V18.7H82.3202ZM89.0405 24.44C89.0405 23.3333 89.2671 22.3467 89.7205 21.48C90.1871 20.6133 90.8071 19.94 91.5805 19.46C92.3671 18.9667 93.2205 18.72 94.1405 18.72C94.8471 18.72 95.4805 18.8467 96.0405 19.1C96.6005 19.34 97.0538 19.68 97.4005 20.12V18.84H100.82V35.32H97.4005V28.6C97.0138 29.0667 96.5405 29.44 95.9805 29.72C95.4338 30 94.8071 30.14 94.1005 30.14C93.1938 30.14 92.3538 29.9 91.5805 29.42C90.8071 28.94 90.1871 28.2667 89.7205 27.4C89.2671 26.5333 89.0405 25.5467 89.0405 24.44ZM97.4005 24.42C97.4005 23.82 97.2805 23.32 97.0405 22.92C96.8138 22.5067 96.5138 22.2 96.1405 22C95.7671 21.7867 95.3738 21.68 94.9605 21.68C94.5605 21.68 94.1738 21.7867 93.8005 22C93.4271 22.2 93.1205 22.5067 92.8805 22.92C92.6405 23.3333 92.5205 23.84 92.5205 24.44C92.5205 25.04 92.6405 25.5467 92.8805 25.96C93.1205 26.36 93.4271 26.6667 93.8005 26.88C94.1738 27.08 94.5605 27.18 94.9605 27.18C95.3605 27.18 95.7471 27.08 96.1205 26.88C96.5071 26.6667 96.8138 26.3533 97.0405 25.94C97.2805 25.5267 97.4005 25.02 97.4005 24.42ZM114.315 18.84V30H110.895V28.48C110.548 28.9733 110.075 29.3733 109.475 29.68C108.888 29.9733 108.235 30.12 107.515 30.12C106.661 30.12 105.908 29.9333 105.255 29.56C104.601 29.1733 104.095 28.62 103.735 27.9C103.375 27.18 103.195 26.3333 103.195 25.36V18.84H106.595V24.9C106.595 25.6467 106.788 26.2267 107.175 26.64C107.561 27.0533 108.081 27.26 108.735 27.26C109.401 27.26 109.928 27.0533 110.315 26.64C110.701 26.2267 110.895 25.6467 110.895 24.9V18.84H114.315ZM118.491 17.68C117.891 17.68 117.398 17.5067 117.011 17.16C116.638 16.8 116.451 16.36 116.451 15.84C116.451 15.3067 116.638 14.8667 117.011 14.52C117.398 14.16 117.891 13.98 118.491 13.98C119.078 13.98 119.558 14.16 119.931 14.52C120.318 14.8667 120.511 15.3067 120.511 15.84C120.511 16.36 120.318 16.8 119.931 17.16C119.558 17.5067 119.078 17.68 118.491 17.68ZM120.191 18.84V30H116.771V18.84H120.191ZM126.09 20.42C126.423 19.9 126.883 19.48 127.47 19.16C128.056 18.84 128.743 18.68 129.53 18.68C130.45 18.68 131.283 18.9133 132.03 19.38C132.776 19.8467 133.363 20.5133 133.79 21.38C134.23 22.2467 134.45 23.2533 134.45 24.4C134.45 25.5467 134.23 26.56 133.79 27.44C133.363 28.3067 132.776 28.98 132.03 29.46C131.283 29.9267 130.45 30.16 129.53 30.16C128.756 30.16 128.07 30 127.47 29.68C126.883 29.36 126.423 28.9467 126.09 28.44V35.32H122.67V18.84H126.09V20.42ZM130.97 24.4C130.97 23.5467 130.73 22.88 130.25 22.4C129.783 21.9067 129.203 21.66 128.51 21.66C127.83 21.66 127.25 21.9067 126.77 22.4C126.303 22.8933 126.07 23.5667 126.07 24.42C126.07 25.2733 126.303 25.9467 126.77 26.44C127.25 26.9333 127.83 27.18 128.51 27.18C129.19 27.18 129.77 26.9333 130.25 26.44C130.73 25.9333 130.97 25.2533 130.97 24.4ZM153.042 30H149.622L143.902 21.34V30H140.482V15.96H143.902L149.622 24.66V15.96H153.042V30ZM160.601 30.16C159.508 30.16 158.521 29.9267 157.641 29.46C156.775 28.9933 156.088 28.3267 155.581 27.46C155.088 26.5933 154.841 25.58 154.841 24.42C154.841 23.2733 155.095 22.2667 155.601 21.4C156.108 20.52 156.801 19.8467 157.681 19.38C158.561 18.9133 159.548 18.68 160.641 18.68C161.735 18.68 162.721 18.9133 163.601 19.38C164.481 19.8467 165.175 20.52 165.681 21.4C166.188 22.2667 166.441 23.2733 166.441 24.42C166.441 25.5667 166.181 26.58 165.661 27.46C165.155 28.3267 164.455 28.9933 163.561 29.46C162.681 29.9267 161.695 30.16 160.601 30.16ZM160.601 27.2C161.255 27.2 161.808 26.96 162.261 26.48C162.728 26 162.961 25.3133 162.961 24.42C162.961 23.5267 162.735 22.84 162.281 22.36C161.841 21.88 161.295 21.64 160.641 21.64C159.975 21.64 159.421 21.88 158.981 22.36C158.541 22.8267 158.321 23.5133 158.321 24.42C158.321 25.3133 158.535 26 158.961 26.48C159.401 26.96 159.948 27.2 160.601 27.2ZM184.276 18.84L181.256 30H177.476L175.716 22.76L173.896 30H170.136L167.096 18.84H170.516L172.096 26.82L173.976 18.84H177.596L179.496 26.78L181.056 18.84H184.276Z" fill="#FAFAFA"/>
</svg>
