<svg width="25" height="25" viewBox="0 0 25 25" fill="none" xmlns="http://www.w3.org/2000/svg">
<g clip-path="url(#clip0_8880_15219)">
<path d="M12.3737 14.927C13.6366 14.927 14.6605 13.9032 14.6605 12.6403C14.6605 11.3773 13.6366 10.3535 12.3737 10.3535C11.1108 10.3535 10.0869 11.3773 10.0869 12.6403C10.0869 13.9032 11.1108 14.927 12.3737 14.927ZM12.3737 14.927L8.94355 24.0741M12.3737 14.927L15.8039 24.0741M12.3737 1.20642V5.77995M6.42811 16.0704L2.42627 18.3572M22.3211 6.92334L18.3193 9.2101M6.42811 9.2101L2.42627 6.92334M22.3211 18.3572L18.3193 16.0704M7.80017 24.0741H16.9472M19.234 20.3009C20.7874 18.9115 21.8823 17.0832 22.3738 15.058C22.8654 13.0327 22.7304 10.9059 21.9868 8.95901C21.2431 7.01213 19.9259 5.33693 18.2093 4.15507C16.4927 2.97322 14.4578 2.34042 12.3737 2.34042C10.2896 2.34042 8.25467 2.97322 6.53811 4.15507C4.82155 5.33693 3.50429 7.01213 2.76065 8.95901C2.01701 10.9059 1.88203 13.0327 2.37358 15.058C2.86512 17.0832 3.96003 18.9115 5.5134 20.3009" stroke="black" stroke-width="2.28677" stroke-linecap="round" stroke-linejoin="round"/>
<path d="M12.3737 14.927C13.6366 14.927 14.6605 13.9032 14.6605 12.6403C14.6605 11.3773 13.6366 10.3535 12.3737 10.3535C11.1108 10.3535 10.0869 11.3773 10.0869 12.6403C10.0869 13.9032 11.1108 14.927 12.3737 14.927ZM12.3737 14.927L8.94355 24.0741M12.3737 14.927L15.8039 24.0741M12.3737 1.20642V5.77995M6.42811 16.0704L2.42627 18.3572M22.3211 6.92334L18.3193 9.2101M6.42811 9.2101L2.42627 6.92334M22.3211 18.3572L18.3193 16.0704M7.80017 24.0741H16.9472M19.234 20.3009C20.7874 18.9115 21.8823 17.0832 22.3738 15.058C22.8654 13.0327 22.7304 10.9059 21.9868 8.95901C21.2431 7.01213 19.9259 5.33693 18.2093 4.15507C16.4927 2.97322 14.4578 2.34042 12.3737 2.34042C10.2896 2.34042 8.25467 2.97322 6.53811 4.15507C4.82155 5.33693 3.50429 7.01213 2.76065 8.95901C2.01701 10.9059 1.88203 13.0327 2.37358 15.058C2.86512 17.0832 3.96003 18.9115 5.5134 20.3009" stroke="#865C7F" stroke-opacity="0.5" stroke-width="2.28677" stroke-linecap="round" stroke-linejoin="round"/>
</g>
<defs>
<clipPath id="clip0_8880_15219">
<rect width="25" height="25" fill="white"/>
</clipPath>
</defs>
</svg>
