<svg width="44" height="63" viewBox="0 0 44 63" fill="none" xmlns="http://www.w3.org/2000/svg">
<path d="M21.9043 2C10.9116 2.00002 2.00016 11.3893 2 22.9717C2 34.5542 10.9115 60.3857 21.9043 60.3857C32.8971 60.3857 41.8086 34.5542 41.8086 22.9717C41.8084 11.3893 32.897 2 21.9043 2Z" fill="#E95755"/>
<path d="M21.9043 2L21.9043 2.38419e-07H21.9043V2ZM2 22.9717H4.98397e-06V22.9716L2 22.9717ZM21.9043 60.3857V62.3857H21.9043L21.9043 60.3857ZM41.8086 22.9717L43.8086 22.9716V22.9717H41.8086ZM21.9043 2L21.9043 4C12.1133 4.00002 4.00015 12.3942 4 22.9717L2 22.9717L4.98397e-06 22.9716C0.00018046 10.3845 9.70985 2.16961e-05 21.9043 2.38419e-07L21.9043 2ZM2 22.9717H4C4 28.4007 6.13026 37.468 9.64985 45.1929C11.403 49.0408 13.4442 52.4271 15.6322 54.8185C17.8475 57.2397 19.9697 58.3857 21.9043 58.3857L21.9043 60.3857L21.9043 62.3857C18.3425 62.3857 15.2284 60.3028 12.6811 57.5186C10.1065 54.7047 7.85866 50.9092 6.00985 46.8513C2.32549 38.7648 4.98397e-06 29.1251 4.98397e-06 22.9717H2ZM21.9043 60.3857V58.3857C23.8389 58.3857 25.9611 57.2397 28.1764 54.8185C30.3644 52.4271 32.4056 49.0408 34.1588 45.1929C37.6783 37.468 39.8086 28.4007 39.8086 22.9717H41.8086H43.8086C43.8086 29.1251 41.4831 38.7648 37.7988 46.8514C35.9499 50.9092 33.7021 54.7047 31.1275 57.5186C28.5802 60.3028 25.4661 62.3857 21.9043 62.3857V60.3857ZM41.8086 22.9717L39.8086 22.9717C39.8084 12.3941 31.6953 4 21.9043 4V2V2.38419e-07C34.0988 2.38419e-07 43.8084 10.3845 43.8086 22.9716L41.8086 22.9717Z" fill="#ED5656"/>
<ellipse cx="10.6156" cy="10.2365" rx="10.6156" ry="10.2365" transform="matrix(-1 0 0 1 31.8611 14.6015)" fill="#FEFEFE"/>
</svg>
