<svg width="249" height="52" viewBox="0 0 249 52" fill="none" xmlns="http://www.w3.org/2000/svg">
<rect width="249" height="52" rx="20" fill="#A4A4A4"/>
<path d="M65.172 17.152L60.78 34H55.812L53.124 22.912L50.34 34H45.372L41.1 17.152H45.492L47.916 29.416L50.916 17.152H55.428L58.308 29.416L60.756 17.152H65.172ZM66.4142 27.28C66.4142 25.904 66.6702 24.696 67.1822 23.656C67.7102 22.616 68.4222 21.816 69.3182 21.256C70.2142 20.696 71.2142 20.416 72.3182 20.416C73.2622 20.416 74.0862 20.608 74.7902 20.992C75.5102 21.376 76.0622 21.88 76.4462 22.504V20.608H80.5502V34H76.4462V32.104C76.0462 32.728 75.4862 33.232 74.7662 33.616C74.0622 34 73.2382 34.192 72.2942 34.192C71.2062 34.192 70.2142 33.912 69.3182 33.352C68.4222 32.776 67.7102 31.968 67.1822 30.928C66.6702 29.872 66.4142 28.656 66.4142 27.28ZM76.4462 27.304C76.4462 26.28 76.1582 25.472 75.5822 24.88C75.0222 24.288 74.3342 23.992 73.5182 23.992C72.7022 23.992 72.0062 24.288 71.4302 24.88C70.8702 25.456 70.5902 26.256 70.5902 27.28C70.5902 28.304 70.8702 29.12 71.4302 29.728C72.0062 30.32 72.7022 30.616 73.5182 30.616C74.3342 30.616 75.0222 30.32 75.5822 29.728C76.1582 29.136 76.4462 28.328 76.4462 27.304ZM85.5833 19.216C84.8633 19.216 84.2713 19.008 83.8073 18.592C83.3593 18.16 83.1353 17.632 83.1353 17.008C83.1353 16.368 83.3593 15.84 83.8073 15.424C84.2713 14.992 84.8633 14.776 85.5833 14.776C86.2873 14.776 86.8633 14.992 87.3113 15.424C87.7753 15.84 88.0073 16.368 88.0073 17.008C88.0073 17.632 87.7753 18.16 87.3113 18.592C86.8633 19.008 86.2873 19.216 85.5833 19.216ZM87.6233 20.608V34H83.5193V20.608H87.6233ZM98.0614 30.52V34H95.9734C94.4854 34 93.3254 33.64 92.4934 32.92C91.6614 32.184 91.2454 30.992 91.2454 29.344V24.016H89.6134V20.608H91.2454V17.344H95.3494V20.608H98.0374V24.016H95.3494V29.392C95.3494 29.792 95.4454 30.08 95.6374 30.256C95.8294 30.432 96.1494 30.52 96.5974 30.52H98.0614ZM105.025 25C105.025 22.248 105.553 20.08 106.609 18.496C107.681 16.912 109.401 16.12 111.769 16.12C114.137 16.12 115.849 16.912 116.905 18.496C117.977 20.08 118.513 22.248 118.513 25C118.513 27.784 117.977 29.968 116.905 31.552C115.849 33.136 114.137 33.928 111.769 33.928C109.401 33.928 107.681 33.136 106.609 31.552C105.553 29.968 105.025 27.784 105.025 25ZM114.481 25C114.481 23.384 114.305 22.144 113.953 21.28C113.601 20.4 112.873 19.96 111.769 19.96C110.665 19.96 109.937 20.4 109.585 21.28C109.233 22.144 109.057 23.384 109.057 25C109.057 26.088 109.121 26.992 109.249 27.712C109.377 28.416 109.633 28.992 110.017 29.44C110.417 29.872 111.001 30.088 111.769 30.088C112.537 30.088 113.113 29.872 113.497 29.44C113.897 28.992 114.161 28.416 114.289 27.712C114.417 26.992 114.481 26.088 114.481 25ZM120.778 30.88V27.568L128.362 16.72H132.946V27.328H134.914V30.88H132.946V34H128.842V30.88H120.778ZM129.13 21.232L125.098 27.328H129.13V21.232ZM139.252 34.192C138.532 34.192 137.94 33.984 137.476 33.568C137.028 33.136 136.804 32.608 136.804 31.984C136.804 31.344 137.028 30.808 137.476 30.376C137.94 29.944 138.532 29.728 139.252 29.728C139.956 29.728 140.532 29.944 140.98 30.376C141.444 30.808 141.676 31.344 141.676 31.984C141.676 32.608 141.444 33.136 140.98 33.568C140.532 33.984 139.956 34.192 139.252 34.192ZM139.252 24.424C138.532 24.424 137.94 24.216 137.476 23.8C137.028 23.368 136.804 22.84 136.804 22.216C136.804 21.576 137.028 21.04 137.476 20.608C137.94 20.176 138.532 19.96 139.252 19.96C139.956 19.96 140.532 20.176 140.98 20.608C141.444 21.04 141.676 21.576 141.676 22.216C141.676 22.84 141.444 23.368 140.98 23.8C140.532 24.216 139.956 24.424 139.252 24.424ZM143.6 30.712C144.144 30.28 144.392 30.08 144.344 30.112C145.912 28.816 147.144 27.752 148.04 26.92C148.952 26.088 149.72 25.216 150.344 24.304C150.968 23.392 151.28 22.504 151.28 21.64C151.28 20.984 151.128 20.472 150.824 20.104C150.52 19.736 150.064 19.552 149.456 19.552C148.848 19.552 148.368 19.784 148.016 20.248C147.68 20.696 147.512 21.336 147.512 22.168H143.552C143.584 20.808 143.872 19.672 144.416 18.76C144.976 17.848 145.704 17.176 146.6 16.744C147.512 16.312 148.52 16.096 149.624 16.096C151.528 16.096 152.96 16.584 153.92 17.56C154.896 18.536 155.384 19.808 155.384 21.376C155.384 23.088 154.8 24.68 153.632 26.152C152.464 27.608 150.976 29.032 149.168 30.424H155.648V33.76H143.6V30.712ZM157.455 25C157.455 22.248 157.983 20.08 159.039 18.496C160.111 16.912 161.831 16.12 164.199 16.12C166.567 16.12 168.279 16.912 169.335 18.496C170.407 20.08 170.943 22.248 170.943 25C170.943 27.784 170.407 29.968 169.335 31.552C168.279 33.136 166.567 33.928 164.199 33.928C161.831 33.928 160.111 33.136 159.039 31.552C157.983 29.968 157.455 27.784 157.455 25ZM166.911 25C166.911 23.384 166.735 22.144 166.383 21.28C166.031 20.4 165.303 19.96 164.199 19.96C163.095 19.96 162.367 20.4 162.015 21.28C161.663 22.144 161.487 23.384 161.487 25C161.487 26.088 161.551 26.992 161.679 27.712C161.807 28.416 162.063 28.992 162.447 29.44C162.847 29.872 163.431 30.088 164.199 30.088C164.967 30.088 165.543 29.872 165.927 29.44C166.327 28.992 166.591 28.416 166.719 27.712C166.847 26.992 166.911 26.088 166.911 25ZM175.439 34.192C174.719 34.192 174.127 33.984 173.663 33.568C173.215 33.136 172.991 32.608 172.991 31.984C172.991 31.344 173.215 30.808 173.663 30.376C174.127 29.944 174.719 29.728 175.439 29.728C176.143 29.728 176.719 29.944 177.167 30.376C177.631 30.808 177.863 31.344 177.863 31.984C177.863 32.608 177.631 33.136 177.167 33.568C176.719 33.984 176.143 34.192 175.439 34.192ZM175.439 24.424C174.719 24.424 174.127 24.216 173.663 23.8C173.215 23.368 172.991 22.84 172.991 22.216C172.991 21.576 173.215 21.04 173.663 20.608C174.127 20.176 174.719 19.96 175.439 19.96C176.143 19.96 176.719 20.176 177.167 20.608C177.631 21.04 177.863 21.576 177.863 22.216C177.863 22.84 177.631 23.368 177.167 23.8C176.719 24.216 176.143 24.424 175.439 24.424ZM179.788 30.712C180.332 30.28 180.58 30.08 180.532 30.112C182.1 28.816 183.332 27.752 184.228 26.92C185.14 26.088 185.908 25.216 186.532 24.304C187.156 23.392 187.468 22.504 187.468 21.64C187.468 20.984 187.316 20.472 187.012 20.104C186.708 19.736 186.252 19.552 185.644 19.552C185.036 19.552 184.556 19.784 184.204 20.248C183.868 20.696 183.7 21.336 183.7 22.168H179.74C179.772 20.808 180.06 19.672 180.604 18.76C181.164 17.848 181.892 17.176 182.788 16.744C183.7 16.312 184.708 16.096 185.812 16.096C187.716 16.096 189.148 16.584 190.108 17.56C191.084 18.536 191.572 19.808 191.572 21.376C191.572 23.088 190.988 24.68 189.82 26.152C188.652 27.608 187.164 29.032 185.356 30.424H191.836V33.76H179.788V30.712ZM193.643 25C193.643 22.248 194.171 20.08 195.227 18.496C196.299 16.912 198.019 16.12 200.387 16.12C202.755 16.12 204.467 16.912 205.523 18.496C206.595 20.08 207.131 22.248 207.131 25C207.131 27.784 206.595 29.968 205.523 31.552C204.467 33.136 202.755 33.928 200.387 33.928C198.019 33.928 196.299 33.136 195.227 31.552C194.171 29.968 193.643 27.784 193.643 25ZM203.099 25C203.099 23.384 202.923 22.144 202.571 21.28C202.219 20.4 201.491 19.96 200.387 19.96C199.283 19.96 198.555 20.4 198.203 21.28C197.851 22.144 197.675 23.384 197.675 25C197.675 26.088 197.739 26.992 197.867 27.712C197.995 28.416 198.251 28.992 198.635 29.44C199.035 29.872 199.619 30.088 200.387 30.088C201.155 30.088 201.731 29.872 202.115 29.44C202.515 28.992 202.779 28.416 202.907 27.712C203.035 26.992 203.099 26.088 203.099 25Z" fill="#FAFAFA"/>
</svg>
