<svg width="250" height="90" viewBox="0 0 250 90" fill="none" xmlns="http://www.w3.org/2000/svg">
<rect x="0.530235" y="0.934814" width="249" height="89" rx="10" fill="#58B171"/>
<path d="M180.647 39.4417C180.647 41.553 182.358 43.2646 184.47 43.2646C186.581 43.2646 188.293 41.553 188.293 39.4417C188.293 37.3303 186.581 35.6187 184.47 35.6187C182.358 35.6187 180.647 37.3303 180.647 39.4417ZM95.9604 84.9641C96.5118 84.4463 97.07 83.9313 97.6347 83.4193L96.6717 82.3573C96.1009 82.8748 95.5366 83.3955 94.979 83.9192L95.9604 84.9641ZM101.068 80.4088C102.221 79.4303 103.397 78.4637 104.594 77.5097L103.7 76.3888C102.493 77.3516 101.305 78.3274 100.141 79.3157L101.068 80.4088ZM108.207 74.7124C109.42 73.8006 110.65 72.9017 111.895 72.0161L111.064 70.8477C109.809 71.7405 108.569 72.647 107.346 73.5666L108.207 74.7124ZM115.653 69.4154C116.915 68.5654 118.19 67.729 119.475 66.9069L118.703 65.6991C117.408 66.5272 116.124 67.3699 114.852 68.2265L115.653 69.4154ZM123.355 64.4892C124.659 63.6977 125.971 62.921 127.29 62.1597L126.573 60.918C125.245 61.6846 123.924 62.4668 122.611 63.2639L123.355 64.4892ZM131.275 59.9177C132.615 59.1824 133.961 58.4633 135.309 57.761L134.647 56.4895C133.289 57.1966 131.935 57.9205 130.585 58.6607L131.275 59.9177ZM139.387 55.6916C140.76 55.0129 142.134 54.3521 143.507 53.7097L142.899 52.4113C141.518 53.0579 140.134 53.7231 138.752 54.4064L139.387 55.6916ZM147.672 51.8154C149.076 51.1949 150.477 50.5946 151.871 50.015L151.321 48.6912C149.917 49.2748 148.506 49.8794 147.092 50.5041L147.672 51.8154ZM156.116 48.3069C157.552 47.7483 158.979 47.2131 160.393 46.7018L159.906 45.3536C158.48 45.8688 157.043 46.4081 155.597 46.9708L156.116 48.3069ZM164.714 45.2021C166.181 44.7142 167.632 44.254 169.063 43.8225L168.649 42.45C167.205 42.8855 165.741 43.3497 164.262 43.8417L164.714 45.2021ZM173.46 42.5694C174.965 42.1666 176.441 41.7987 177.886 41.4666L177.565 40.0694C176.103 40.4055 174.609 40.7776 173.09 41.1846L173.46 42.5694ZM182.343 40.538C183.101 40.3971 183.848 40.2675 184.583 40.1494L184.356 38.7339C183.609 38.854 182.85 38.9856 182.081 39.1285L182.343 40.538Z" fill="white"/>
<ellipse cx="191.68" cy="15.9893" rx="4.51699" ry="4.44114" transform="rotate(-0.657696 191.68 15.9893)" fill="white"/>
<path d="M202.189 4.71833L179.51 10.477L179.098 8.90851C178.864 8.01564 177.949 7.47599 177.054 7.70317C176.16 7.93034 175.624 8.83832 175.858 9.73119L183.365 38.35C183.599 39.2429 184.514 39.7825 185.409 39.5554C186.304 39.3282 186.839 38.4202 186.605 37.5273L183.687 26.4031L206.366 20.6444L201.038 13.5041L202.189 4.71833ZM194.558 15.1494C195.018 16.9013 193.936 18.7048 192.154 19.1573C190.372 19.6098 188.538 18.5466 188.078 16.7947C187.619 15.0429 188.701 13.2393 190.483 12.7869C192.265 12.3344 194.099 13.3975 194.558 15.1494Z" fill="#FF9933"/>
<ellipse cx="69.1499" cy="83.3594" rx="20.0705" ry="5.73442" fill="#448555"/>
<path d="M79.2021 47.8011C79.0323 43.4786 87.3088 36.8687 90.779 31.5332C93.9085 26.9962 98.6608 31.1831 100.046 34.5395C102.472 40.4196 88.7917 51.2786 84.6027 53.0173C81.3903 54.3506 79.3419 51.3609 79.2021 47.8011Z" fill="#E95755"/>
<path d="M67.0547 61.2674C69.3069 64.9608 65.2941 74.7632 64.8596 81.1131C64.3341 86.5996 58.1447 85.2552 55.3014 82.9973C50.3202 79.0415 56.985 62.8971 59.7981 59.3394C61.9554 56.6111 65.2 58.2258 67.0547 61.2674Z" fill="#E95755"/>
<path d="M76.6402 59.7852C73.4814 62.7408 74.723 73.2597 73.4415 79.4941C72.4788 84.921 78.8022 85.2829 82.1463 83.8687C88.0048 81.391 85.9059 64.0516 84.1481 59.8706C82.8001 56.6643 79.2416 57.3513 76.6402 59.7852Z" fill="#E95755"/>
<ellipse cx="82.342" cy="40.9568" rx="9.15946" ry="5.61967" transform="rotate(-43.883 82.342 40.9568)" fill="#C93B3B"/>
<path d="M71.37 75.4621C69.4547 75.4621 58.062 74.6706 58.3635 63.9447C58.7431 50.4379 64.0119 43.3699 71.37 43.2444V43.2427C71.4033 43.2427 71.4367 43.2428 71.47 43.2431C71.5033 43.2428 71.5366 43.2427 71.57 43.2427V43.2444C78.9281 43.3699 84.1969 50.4379 84.5765 63.9447C84.8779 74.6706 73.4766 75.4621 71.57 75.4621H71.37Z" fill="#E95755"/>
<path d="M65.9034 51.9886C65.1776 56.2532 55.7154 61.013 51.2189 65.5176C47.2206 69.3112 43.4344 64.2338 42.7719 60.6639C41.6115 54.4098 57.2377 46.6072 61.6954 45.7703C65.1138 45.1285 66.5012 48.4766 65.9034 51.9886Z" fill="#E95755"/>
<path d="M82.8967 81.2696C83.4208 79.9293 85.1483 78.2722 84.3953 68.9061C84.0165 64.1939 83.1099 60.1019 81.3982 52.9836" stroke="#C93B3B" stroke-width="3.44065" stroke-linecap="round" stroke-linejoin="round"/>
<ellipse cx="70.7209" cy="64.2232" rx="7.4929" ry="11.2393" transform="rotate(3.03197 70.7209 64.2232)" fill="#F08988"/>
<ellipse cx="71.2829" cy="45.4905" rx="7.30558" ry="3.3718" fill="#F08988"/>
<path fill-rule="evenodd" clip-rule="evenodd" d="M74.1014 47.0425C73.5322 47.1298 61.8468 48.7493 56.0513 41.3641C52.0138 36.2183 52.2681 28.2859 52.3186 26.7115L52.3193 26.6885C52.3472 25.822 52.4125 25.1045 52.467 24.6158C49.6448 22.3114 48.5288 18.7997 49.6113 15.9804C50.2874 14.2186 51.8753 12.6308 53.9921 12.0786C56.4532 11.437 59.1408 12.3353 60.8899 14.3953C62.4397 13.784 64.2791 13.1093 66.4033 12.7076C66.6455 12.6617 66.884 12.6142 67.119 12.5674C67.8462 12.4225 68.5404 12.2842 69.2077 12.2222L71.0777 25.5276C71.078 25.5275 71.0783 25.5275 71.0786 25.5274L69.2086 12.2221C69.8672 12.0978 70.5726 12.0394 71.3115 11.9782C71.5504 11.9584 71.7927 11.9383 72.0381 11.9157C74.1908 11.7163 76.1449 11.8579 77.8032 12.0182C78.9168 9.55601 81.2526 7.95162 83.7952 7.89003C85.9822 7.83734 87.9462 8.92596 89.0818 10.4331C90.8995 12.8449 90.7946 16.5282 88.716 19.5213C88.9032 19.9761 89.1637 20.6478 89.4294 21.4731L89.4364 21.495C89.9189 22.9944 92.3498 30.5495 89.887 36.6088C86.3517 45.3053 74.6726 46.9695 74.1014 47.0425ZM74.1014 47.0425L74.1023 47.0424L73.6849 44.0722C73.6846 44.0723 73.6843 44.0723 73.684 44.0723L74.1014 47.0425Z" fill="#E95755"/>
<path d="M71.0272 42.1292H72.6986C74.6633 42.1292 76.4774 41.0764 77.4522 39.3706C78.1145 38.2117 77.3494 36.7572 76.0192 36.6464L67.7775 35.9596C66.597 35.8612 65.6642 36.9434 65.9355 38.0965C66.4915 40.4593 68.5999 42.1292 71.0272 42.1292Z" fill="#762B2B"/>
<path d="M74.0925 41.8992C72.533 42.549 70.0359 42.3614 68.7833 41.5898C66.9742 40.4756 69.1077 39.6514 71.2551 39.6514C73.5815 39.6514 76.3404 40.9626 74.0925 41.8992Z" fill="#F08988"/>
<path d="M72.2976 34.6265L72.2192 35.7477" stroke="#461A1A" stroke-width="1.29024" stroke-linecap="round" stroke-linejoin="round"/>
<path d="M71.172 34.9788L71.5587 35.2163C72.0379 35.5106 72.6308 35.5521 73.1463 35.3273L73.5623 35.146C74.3871 34.7865 74.1761 33.5622 73.2786 33.4994L71.6821 33.3878C70.7846 33.325 70.4053 34.5081 71.172 34.9788Z" fill="#461A1A"/>
<ellipse cx="65.0203" cy="31.4322" rx="1.87322" ry="1.87322" transform="rotate(-8 65.0203 31.4322)" fill="black" fill-opacity="0.7"/>
<ellipse cx="78.3725" cy="29.8777" rx="1.87322" ry="1.87322" transform="rotate(-8 78.3725 29.8777)" fill="black" fill-opacity="0.7"/>
</svg>
