<svg width="83" height="83" viewBox="0 0 83 83" fill="none" xmlns="http://www.w3.org/2000/svg">
<circle cx="41.5" cy="41.5" r="41.5" fill="white"/>
<path d="M41.6417 66.9995C40.8733 67.0092 25.1289 66.979 18.8413 56.1422C14.4393 48.5541 16.2886 38.0514 16.6349 36.0537C16.8327 34.9137 17.0523 33.9775 17.2151 33.3418C13.9133 29.7721 13.0905 24.9237 15.0449 21.3987C16.2657 19.1959 18.6591 17.3923 21.5593 17.0558C24.9311 16.6649 28.3161 18.3514 30.2451 21.3987C32.4069 20.8788 34.9632 20.3287 37.8453 20.1923C39.1904 20.1284 40.4595 20.0162 41.6417 20.0717V45.2848C40.679 45.3259 38.1927 45.572 36.213 47.4563C33.1078 50.4095 33.372 55.3677 35.1273 58.3136C36.3494 60.3645 38.6572 62.051 39.4702 61.5709C40.0939 61.2029 39.9299 59.5031 39.4702 58.3136C38.7042 56.3328 37.1275 55.7935 37.2988 55.0564C37.4122 54.5667 38.2844 53.3289 41.6417 53.2469V66.9995Z" fill="#E95755"/>
<path d="M41.6417 66.9995C42.4102 67.0092 58.1545 66.979 64.4421 56.1422C68.8442 48.5541 66.9948 38.0514 66.6486 36.0537C66.4507 34.9137 66.2312 33.9775 66.0683 33.3418C69.3713 29.7721 70.1941 24.9237 68.2398 21.3987C67.0189 19.1959 64.6255 17.3923 61.7254 17.0558C58.3536 16.6649 54.9685 18.3514 53.0395 21.3987C50.8777 20.8788 48.3214 20.3287 45.4394 20.1923C44.0943 20.1284 42.8252 20.0162 41.6429 20.0717V45.2848C42.6056 45.3259 45.0919 45.572 47.0716 47.4563C50.1768 50.4095 49.9126 55.3677 48.1573 58.3136C46.9353 60.3645 44.6275 62.051 43.8144 61.5709C43.1907 61.2029 43.3548 59.5031 43.8144 58.3136C44.5804 56.3328 46.1572 55.7935 45.9859 55.0564C45.8725 54.5667 45.0002 53.3289 41.6429 53.2469V66.9995H41.6417Z" fill="#E95755"/>
<path d="M15.9412 20.1006C15.5962 20.5108 15.2958 20.9463 15.0449 21.3987C13.0905 24.9237 13.9133 29.7721 17.2163 33.3417C18.1489 31.4043 19.5229 29.1038 21.5593 26.8273C22.2891 26.0118 23.0214 25.2904 23.7307 24.6559C22.1166 21.3709 18.7931 19.6675 15.9412 20.1006Z" fill="white" fill-opacity="0.3"/>
<path d="M67.3422 20.1007C67.6872 20.5109 67.9876 20.9464 68.2385 21.3987C70.1928 24.9238 69.3701 29.7722 66.067 33.3418C65.1345 31.4044 63.7605 29.1038 61.7241 26.8274C60.9942 26.0119 60.262 25.2905 59.5526 24.6559C61.1668 21.371 64.4903 19.6664 67.3422 20.1007Z" fill="white" fill-opacity="0.3"/>
<path d="M31.9525 44.0628C31.9525 45.7505 31.0221 47.1186 29.8745 47.1186C28.7269 47.1186 27.7965 45.7505 27.7965 44.0628C27.7965 42.3752 28.7269 41.0071 29.8745 41.0071C31.0221 41.0071 31.9525 42.3752 31.9525 44.0628Z" fill="white"/>
<path d="M55.5309 44.0628C55.5309 45.7505 54.6006 47.1186 53.453 47.1186C52.3053 47.1186 51.375 45.7505 51.375 44.0628C51.375 42.3752 52.3053 41.0071 53.453 41.0071C54.6006 41.0071 55.5309 42.3752 55.5309 44.0628Z" fill="white"/>
</svg>
