<svg width="393" height="852" viewBox="0 0 393 852" fill="none" xmlns="http://www.w3.org/2000/svg">
<g clip-path="url(#clip0_4834_2220)">
<rect width="393" height="852" fill="url(#paint0_linear_4834_2220)"/>
<path d="M53 44L62.6413 54.327L76.5114 51.6393L78.2413 65.6611L91.0423 71.6393L84.2 84L91.0423 96.3607L78.2413 102.339L76.5114 116.361L62.6413 113.673L53 124L43.3587 113.673L29.4886 116.361L27.7587 102.339L14.9577 96.3607L21.8 84L14.9577 71.6393L27.7587 65.6611L29.4886 51.6393L43.3587 54.327L53 44Z" fill="#FF9933"/>
<circle cx="53.1515" cy="83.8476" r="27.4242" fill="#FFC737"/>
<circle cx="53.1515" cy="83.8479" r="23.7879" fill="#FFC737"/>
<path d="M172.653 122.632H-27C-22.1105 85.2136 2.88007 87.1113 17.8201 91.7212C25.9692 73.0118 41.9958 76.2654 45.5271 77.0787C78.1235 20.9423 134.352 61.6116 134.352 90.0939C169.557 90.0939 174.555 111.786 172.653 122.632Z" fill="white"/>
<path d="M346.672 116.175H396.109V352H346.672V116.175Z" fill="#FFE6CE"/>
<path d="M345.336 112.835H396.777L395.441 116.176H346.673L345.336 112.835Z" fill="#F1C59B"/>
<path d="M344 111.499C351.015 108.493 365.378 59.3904 371.39 32C377.403 60.7265 387.424 95.1315 398.781 111.499H344Z" fill="#6E6E6E"/>
<path d="M344 111.499H398.781L396.777 112.835H345.336L344 111.499Z" fill="black"/>
<rect x="370.055" y="207.032" width="3.2" height="13.6" fill="#836039"/>
<rect x="370.055" y="244.632" width="3.2" height="13.6" fill="#836039"/>
<rect x="370.055" y="282.232" width="3.2" height="13.6" fill="#836039"/>
<rect x="370.055" y="319.832" width="3.2" height="13.6" fill="#836039"/>
<path d="M367.382 131.542C367.382 129.698 368.878 128.202 370.723 128.202C372.567 128.202 374.063 129.698 374.063 131.542V158.933H367.382V131.542Z" fill="#403943"/>
<path d="M376.067 131.542C376.067 129.698 377.562 128.202 379.407 128.202C381.252 128.202 382.747 129.698 382.747 131.542V158.933H376.067V131.542Z" fill="#403943"/>
<path d="M358.697 131.542C358.697 129.698 360.193 128.202 362.038 128.202C363.882 128.202 365.378 129.698 365.378 131.542V158.933H358.697V131.542Z" fill="#403943"/>
<rect x="358.698" y="160.938" width="24.0501" height="2.00418" fill="#403943"/>
<path d="M373 1123V845.896C334.958 676.463 262.121 469.318 196.243 325.045C116.361 150.104 40.4934 97.3922 0 109.702V1123H373Z" fill="url(#paint1_linear_4834_2220)"/>
<path d="M-135 852V683.14C-81.1492 574.722 8.82089 459.081 102.075 366.764C215.151 254.822 335.68 243.072 393 250.949V852H-135Z" fill="url(#paint2_linear_4834_2220)"/>
<ellipse cx="205" cy="372" rx="42" ry="12" fill="#448555"/>
<path d="M226.035 297.59C225.68 288.544 243 274.712 250.262 263.547C256.81 254.053 266.755 262.814 269.653 269.838C274.73 282.143 246.103 304.867 237.337 308.505C230.615 311.295 226.328 305.039 226.035 297.59Z" fill="#E95755"/>
<path d="M200.616 325.77C205.329 333.499 196.931 354.011 196.022 367.299C194.922 378.781 181.97 375.967 176.02 371.242C165.596 362.964 179.543 329.18 185.43 321.735C189.945 316.026 196.734 319.405 200.616 325.77Z" fill="#E95755"/>
<path d="M220.674 322.668C214.064 328.853 216.663 350.865 213.981 363.911C211.966 375.268 225.199 376.025 232.197 373.066C244.456 367.881 240.064 331.596 236.386 322.846C233.565 316.137 226.118 317.575 220.674 322.668Z" fill="#E95755"/>
<ellipse cx="232.606" cy="283.267" rx="19.1673" ry="11.7599" transform="rotate(-43.883 232.606 283.267)" fill="#C93B3B"/>
<path d="M209.646 355.474C205.638 355.474 181.797 353.818 182.428 331.373C183.222 303.108 194.248 288.317 209.646 288.054V288.051C209.716 288.051 209.785 288.051 209.855 288.052C209.925 288.051 209.995 288.051 210.064 288.051V288.054C225.462 288.317 236.488 303.108 237.282 331.373C237.913 353.818 214.054 355.474 210.064 355.474H209.646Z" fill="#E95755"/>
<path d="M198.206 306.352C196.687 315.277 176.887 325.237 167.477 334.664C159.11 342.602 151.187 331.977 149.801 324.507C147.372 311.419 180.072 295.091 189.4 293.34C196.554 291.997 199.457 299.003 198.206 306.352Z" fill="#E95755"/>
<path d="M233.767 367.627C234.864 364.822 238.479 361.354 236.903 341.754C236.11 331.894 234.213 323.33 230.631 308.435" stroke="#C93B3B" stroke-width="7.2" stroke-linecap="round" stroke-linejoin="round"/>
<ellipse cx="208.288" cy="331.955" rx="15.6799" ry="23.5198" transform="rotate(3.03197 208.288 331.955)" fill="#F08988"/>
<ellipse cx="209.464" cy="292.754" rx="15.2879" ry="7.05593" fill="#F08988"/>
<path fill-rule="evenodd" clip-rule="evenodd" d="M215.362 296.002C214.171 296.185 189.717 299.574 177.59 284.119C169.14 273.351 169.673 256.752 169.778 253.457L169.78 253.409C169.838 251.596 169.975 250.094 170.089 249.072C164.183 244.249 161.848 236.901 164.113 231.001C165.528 227.314 168.851 223.991 173.28 222.836C178.43 221.493 184.055 223.373 187.715 227.684C190.958 226.405 194.807 224.993 199.252 224.152C199.759 224.056 200.258 223.957 200.75 223.859C202.272 223.556 203.724 223.266 205.121 223.136L209.034 250.98C209.035 250.98 209.035 250.98 209.036 250.979L205.123 223.136C206.501 222.876 207.977 222.754 209.523 222.626C210.023 222.584 210.53 222.542 211.044 222.495C215.549 222.078 219.638 222.374 223.108 222.71C225.438 217.557 230.326 214.2 235.647 214.071C240.224 213.961 244.334 216.239 246.71 219.393C250.514 224.439 250.294 232.147 245.945 238.411C246.336 239.362 246.881 240.768 247.437 242.495L247.452 242.541C248.462 245.679 253.549 261.489 248.395 274.168C240.997 292.367 216.557 295.85 215.362 296.002ZM215.362 296.002L215.363 296.002L214.49 289.787C214.489 289.787 214.489 289.787 214.488 289.787L215.362 296.002Z" fill="#E95755"/>
<path d="M208.929 285.72H212.426C216.538 285.72 220.334 283.517 222.374 279.948C223.76 277.523 222.158 274.479 219.375 274.247L202.128 272.81C199.658 272.604 197.706 274.868 198.273 277.281C199.437 282.226 203.849 285.72 208.929 285.72Z" fill="#762B2B"/>
<path d="M215.343 285.239C212.08 286.599 206.854 286.206 204.233 284.592C200.447 282.26 204.912 280.535 209.405 280.535C214.274 280.535 220.047 283.279 215.343 285.239Z" fill="#F08988"/>
<path d="M211.587 270.02L211.423 272.366" stroke="#762B2B" stroke-width="2.7" stroke-linecap="round" stroke-linejoin="round"/>
<path d="M209.231 270.757L210.041 271.254C211.044 271.87 212.284 271.957 213.363 271.487L214.234 271.107C215.959 270.355 215.518 267.793 213.64 267.662L210.299 267.428C208.421 267.297 207.627 269.772 209.231 270.757Z" fill="black" fill-opacity="0.7"/>
<ellipse cx="196.358" cy="263.336" rx="3.91996" ry="3.91996" transform="rotate(-8 196.358 263.336)" fill="black" fill-opacity="0.7"/>
<ellipse cx="224.3" cy="260.083" rx="3.91996" ry="3.91996" transform="rotate(-8 224.3 260.083)" fill="black" fill-opacity="0.7"/>
<ellipse cx="286" cy="364" rx="15" ry="6" fill="white"/>
<ellipse cx="298.995" cy="314.251" rx="9.45239" ry="9.29366" transform="rotate(-0.657696 298.995 314.251)" fill="white"/>
<path d="M320.988 290.666L273.528 302.716L272.667 299.434C272.177 297.566 270.262 296.436 268.389 296.912C266.517 297.387 265.397 299.287 265.887 301.156L281.595 361.044C282.085 362.913 284 364.042 285.873 363.566C287.745 363.091 288.865 361.191 288.375 359.323L282.269 336.044L329.729 323.993L318.578 309.051L320.988 290.666ZM305.018 312.494C305.98 316.16 303.716 319.934 299.987 320.881C296.258 321.828 292.42 319.603 291.459 315.937C290.497 312.271 292.761 308.497 296.49 307.55C300.219 306.603 304.057 308.828 305.018 312.494Z" fill="#FF9933"/>
<path d="M267.849 300.308L283.849 361.309" stroke="#F68924" stroke-width="4" stroke-linecap="round" stroke-linejoin="round"/>
</g>
<defs>
<linearGradient id="paint0_linear_4834_2220" x1="196" y1="-757" x2="196" y2="547.5" gradientUnits="userSpaceOnUse">
<stop stop-color="#FFAA5B"/>
<stop offset="0.0001" stop-color="#5DC5FF"/>
<stop offset="1" stop-color="#E0FFF2"/>
</linearGradient>
<linearGradient id="paint1_linear_4834_2220" x1="186.5" y1="108" x2="186.5" y2="1123" gradientUnits="userSpaceOnUse">
<stop stop-color="#448555"/>
<stop offset="1" stop-color="#284F33"/>
</linearGradient>
<linearGradient id="paint2_linear_4834_2220" x1="129" y1="249" x2="129" y2="852" gradientUnits="userSpaceOnUse">
<stop stop-color="#58B171"/>
<stop offset="1" stop-color="#31B346"/>
</linearGradient>
<clipPath id="clip0_4834_2220">
<rect width="393" height="852" fill="white"/>
</clipPath>
</defs>
</svg>
