<svg width="393" height="852" viewBox="0 0 393 852" fill="none" xmlns="http://www.w3.org/2000/svg">
<path d="M346.672 116.175H396.109V352H346.672V116.175Z" fill="#FFE6CE"/>
<path d="M345.336 112.835H396.777L395.441 116.176H346.673L345.336 112.835Z" fill="#F1C59B"/>
<path d="M344 111.499C351.015 108.493 365.378 59.3904 371.39 32C377.403 60.7265 387.424 95.1315 398.781 111.499H344Z" fill="#6E6E6E"/>
<path d="M344 111.499H398.781L396.777 112.835H345.336L344 111.499Z" fill="black"/>
<rect x="370.055" y="207.032" width="3.2" height="13.6" fill="#836039"/>
<rect x="370.055" y="244.632" width="3.2" height="13.6" fill="#836039"/>
<rect x="370.055" y="282.232" width="3.2" height="13.6" fill="#836039"/>
<rect x="370.055" y="319.832" width="3.2" height="13.6" fill="#836039"/>
<path d="M367.383 131.542C367.383 129.698 368.878 128.202 370.723 128.202C372.568 128.202 374.063 129.698 374.063 131.542V158.933H367.383V131.542Z" fill="#403943"/>
<path d="M376.067 131.542C376.067 129.698 377.562 128.202 379.407 128.202C381.252 128.202 382.747 129.698 382.747 131.542V158.933H376.067V131.542Z" fill="#403943"/>
<path d="M358.698 131.542C358.698 129.698 360.193 128.202 362.038 128.202C363.883 128.202 365.378 129.698 365.378 131.542V158.933H358.698V131.542Z" fill="#403943"/>
<rect x="358.698" y="160.938" width="24.0501" height="2.00418" fill="#403943"/>
<path d="M373 1127V849.896C334.958 680.463 262.121 473.318 196.243 329.045C116.361 154.104 40.4934 101.392 0 113.702V1127H373Z" fill="url(#paint0_linear_7478_2480)"/>
<path d="M-135 852V683.14C-81.1492 574.722 8.82089 459.081 102.075 366.764C215.151 254.822 335.68 243.072 393 250.949V852H-135Z" fill="url(#paint1_linear_7478_2480)"/>
<path d="M271 89.2703L303.5 52L295.508 89.2703L336 137.722L295.508 174.992L331.205 249L275.262 174.992L316.287 137.722L271 89.2703Z" fill="#FFC737"/>
<path d="M105 135.324L85.5 113L90.2951 135.324L66 164.346L90.2951 186.67L68.877 231L102.443 186.67L77.8279 164.346L105 135.324Z" fill="#FFC737"/>
<path d="M172.653 122.632H-27C-22.1105 85.2136 2.88007 87.1113 17.8201 91.7212C25.9692 73.0118 41.9958 76.2654 45.5271 77.0787C78.1235 20.9423 134.352 61.6116 134.352 90.0939C169.557 90.0939 174.555 111.786 172.653 122.632Z" fill="white"/>
<path d="M420.653 68.6318H221C225.889 31.2136 250.88 33.1113 265.82 37.7212C273.969 19.0118 289.996 22.2654 293.527 23.0787C326.124 -33.0577 382.352 7.61164 382.352 36.0939C417.557 36.0939 422.555 57.7859 420.653 68.6318Z" fill="white"/>
<path d="M213.811 308.254C216.468 315.696 240.484 325.155 251.404 333.959C261.06 341.426 265.782 334.772 266.321 328.863C267.264 318.511 231.302 301.283 221.393 298.732C213.795 296.777 211.623 302.125 213.811 308.254Z" fill="#C93B3B"/>
<ellipse cx="205.33" cy="372.546" rx="43.6046" ry="12.4541" fill="#448555"/>
<path d="M200.778 324.566C205.671 332.588 196.953 353.877 196.009 367.668C194.867 379.583 181.421 376.663 175.243 371.76C164.421 363.168 178.901 328.106 185.013 320.379C189.7 314.454 196.749 317.961 200.778 324.566Z" fill="#E95755"/>
<path d="M221.604 321.347C214.741 327.766 217.438 350.611 214.654 364.151C212.563 375.938 226.301 376.723 233.566 373.652C246.294 368.271 241.734 330.613 237.915 321.533C234.986 314.569 227.255 316.061 221.604 321.347Z" fill="#E95755"/>
<path d="M210.153 355.395C205.993 355.395 181.241 353.676 181.896 330.381C182.721 301.047 194.168 285.697 210.153 285.424V285.42C210.226 285.42 210.298 285.421 210.371 285.421C210.443 285.421 210.516 285.42 210.588 285.42V285.424C226.574 285.697 238.021 301.047 238.846 330.381C239.501 353.676 214.73 355.395 210.588 355.395H210.153Z" fill="#E95755"/>
<path d="M198.277 304.415C196.7 313.676 176.143 324.014 166.374 333.797C157.687 342.036 149.462 331.009 148.022 323.256C145.501 309.673 179.45 292.727 189.135 290.91C196.562 289.516 199.576 296.787 198.277 304.415Z" fill="#E95755"/>
<path d="M223.243 302.959C224.82 312.221 245.377 322.558 255.146 332.342C263.833 340.581 272.058 329.553 273.498 321.8C276.019 308.217 242.07 291.272 232.385 289.454C224.958 288.06 221.944 295.332 223.243 302.959Z" fill="#E95755"/>
<path d="M235.196 368.007C236.335 365.096 240.088 361.498 238.452 341.156C237.629 330.922 235.66 322.035 231.941 306.576" stroke="#C93B3B" stroke-width="9.67994" stroke-linecap="round" stroke-linejoin="round"/>
<ellipse cx="16.2789" cy="24.4098" rx="16.2789" ry="24.4098" transform="matrix(0.998601 0.0528745 -0.0529116 0.998599 193.779 305.749)" fill="#F08988"/>
<ellipse cx="209.965" cy="290.302" rx="15.8719" ry="7.32292" fill="#F08988"/>
<path fill-rule="evenodd" clip-rule="evenodd" d="M216.091 293.676C214.855 293.865 189.469 297.381 176.877 281.339C168.105 270.162 168.656 252.933 168.765 249.514L168.767 249.464C168.828 247.582 168.969 246.024 169.088 244.962C162.956 239.957 160.531 232.329 162.882 226.206C164.351 222.379 167.8 218.931 172.398 217.732C177.745 216.339 183.584 218.291 187.384 222.765C190.751 221.438 194.747 219.973 199.362 219.1C199.888 219.001 200.406 218.898 200.916 218.796C202.496 218.482 204.004 218.181 205.454 218.047L209.518 246.945C209.519 246.944 209.52 246.944 209.52 246.944L205.456 218.046C206.886 217.777 208.419 217.65 210.024 217.517L210.024 217.517L210.025 217.517L210.025 217.517C210.543 217.474 211.07 217.431 211.603 217.381C216.279 216.949 220.525 217.257 224.127 217.605C226.546 212.258 231.62 208.773 237.144 208.64C241.895 208.526 246.162 210.891 248.629 214.164C252.578 219.403 252.351 227.403 247.836 233.903C248.243 234.891 248.809 236.35 249.386 238.143L249.401 238.19C250.45 241.447 255.732 257.857 250.383 271.017C242.704 289.905 217.332 293.517 216.091 293.676ZM216.091 293.676L216.093 293.675L215.186 287.223C215.185 287.224 215.184 287.224 215.184 287.224L216.091 293.676Z" fill="#E95755"/>
<path d="M212.169 266.707L211.999 269.142" stroke="#762B2B" stroke-width="3.62998" stroke-linecap="round" stroke-linejoin="round"/>
<path d="M213.517 264.205L211.616 264.072C209.466 263.922 208.557 266.756 210.394 267.884C211.542 268.588 212.962 268.688 214.196 268.15C216.172 267.289 215.667 264.356 213.517 264.205Z" fill="#461A1A"/>
<ellipse cx="4.6473" cy="4.64647" rx="4.6473" ry="4.64647" transform="matrix(0.990283 -0.139066 0.139282 0.990253 191.422 256.049)" fill="#461A1A"/>
<ellipse cx="4.6473" cy="4.64647" rx="4.6473" ry="4.64647" transform="matrix(0.990283 -0.139066 0.139282 0.990253 219.994 254.505)" fill="#461A1A"/>
<path d="M230.731 270.315C230.921 269.418 230.778 267.767 230.778 267.767C230.778 267.767 231.846 268.923 232.594 269.6C233.249 270.192 234.343 271.036 234.343 271.036C234.343 271.036 235.42 271.803 235.691 272.543C235.981 273.331 235.942 273.932 235.578 274.695C235.218 275.447 234.789 275.867 233.997 276.145C233.259 276.404 232.724 276.352 232.001 276.068C231.201 275.754 230.756 275.349 230.401 274.574C230.08 273.875 230.244 272.61 230.244 272.61L230.731 270.315Z" fill="#02A5E6" stroke="#02A5E6"/>
<path d="M233.757 275.468C233.757 275.468 233.777 275.302 233.605 275.289C233.433 275.275 233.189 275.29 233.189 275.29C233.189 275.29 232.782 275.344 232.529 275.306C232.381 275.283 232.298 275.261 232.159 275.21C231.795 275.077 231.638 274.905 231.359 274.646C231.069 274.376 230.724 273.86 230.724 273.86C230.724 273.86 230.818 274.453 230.996 274.785C231.199 275.164 231.375 275.36 231.73 275.612C231.984 275.793 232.138 275.912 232.451 275.969C232.815 276.037 233.087 276.046 233.401 275.842C233.572 275.732 233.774 275.574 233.757 275.468Z" fill="#B6DDEC"/>
<path d="M233.413 270.564C233.385 270.49 231.764 268.907 231.764 268.907C231.764 268.907 232.887 270.512 233.035 270.709C233.183 270.907 233.358 270.884 233.407 270.736C233.43 270.665 233.441 270.638 233.413 270.564Z" fill="#B6DDEC"/>
<path d="M198.75 257.802C198.359 257.292 197.909 257.072 197.256 257.072C195.952 257.072 197.968 261.011 198.75 259.991C199.276 259.307 199.275 258.486 198.75 257.802Z" fill="white" stroke="white" stroke-linecap="round"/>
<path d="M227.323 256.258C226.931 255.748 226.481 255.528 225.829 255.528C224.524 255.528 226.54 259.467 227.323 258.447C227.848 257.763 227.848 256.942 227.323 256.258Z" fill="white" stroke="white" stroke-linecap="round"/>
<path d="M203.005 276.432C203.005 276.432 208.936 270.925 212.928 271.664C216.309 272.291 220.381 276.432 220.381 276.432" stroke="#762B2B" stroke-width="4" stroke-linecap="round"/>
<ellipse cx="194.511" cy="258.616" rx="0.772222" ry="0.771951" fill="white"/>
<ellipse cx="223.083" cy="257.072" rx="0.772222" ry="0.771951" fill="white"/>
<defs>
<linearGradient id="paint0_linear_7478_2480" x1="186.5" y1="112" x2="186.5" y2="1127" gradientUnits="userSpaceOnUse">
<stop stop-color="#448555"/>
<stop offset="1" stop-color="#284F33"/>
</linearGradient>
<linearGradient id="paint1_linear_7478_2480" x1="129" y1="249" x2="129" y2="852" gradientUnits="userSpaceOnUse">
<stop stop-color="#58B171"/>
<stop offset="1" stop-color="#31B346"/>
</linearGradient>
</defs>
</svg>
