<svg width="393" height="852" viewBox="0 0 393 852" fill="none" xmlns="http://www.w3.org/2000/svg">
  <g clip-path="url(#clip0_4189_1073)">
    <rect width="393" height="852" fill="url(#paint0_linear_4189_1073)" />
    <path
      d="M373 1127V849.896C334.958 680.463 262.121 473.318 196.243 329.045C116.361 154.104 40.4934 101.392 0 113.702V1127H373Z"
      fill="url(#paint1_linear_4189_1073)" />
    <path
      d="M-135 852V683.14C-81.1492 574.722 8.82089 459.081 102.075 366.764C215.151 254.822 335.68 243.072 393 250.949V852H-135Z"
      fill="url(#paint2_linear_4189_1073)" />
    <path
      d="M304 0L313.641 10.327L327.511 7.63932L329.241 21.6611L342.042 27.6393L335.2 40L342.042 52.3607L329.241 58.3389L327.511 72.3607L313.641 69.673L304 80L294.359 69.673L280.489 72.3607L278.759 58.3389L265.958 52.3607L272.8 40L265.958 27.6393L278.759 21.6611L280.489 7.63932L294.359 10.327L304 0Z"
      fill="#FF9933" />
    <circle cx="304.152" cy="39.8476" r="27.4242" fill="#FFC737" />
    <circle cx="304.152" cy="39.8479" r="23.7879" fill="#FFC737" />
    <path
      d="M435.653 88.6318H236C240.889 51.2136 265.88 53.1113 280.82 57.7212C288.969 39.0118 304.996 42.2654 308.527 43.0787C341.124 -13.0577 397.352 27.6116 397.352 56.0939C432.557 56.0939 437.555 77.7859 435.653 88.6318Z"
      fill="white" />
    <rect x="352.672" y="186.175" width="49.4363" height="235.825" fill="#FFE6CE" />
    <path d="M351.336 182.835H402.777L401.441 186.176H352.673L351.336 182.835Z" fill="#F1C59B" />
    <path
      d="M350 181.499C357.015 178.493 371.378 129.39 377.39 102C383.403 130.727 393.424 165.132 404.781 181.499H350Z"
      fill="#6E6E6E" />
    <path d="M350 181.499H404.781L402.777 182.835H351.336L350 181.499Z" fill="black" />
    <rect x="376.055" y="277.032" width="3.2" height="13.6" fill="#836039" />
    <rect x="376.055" y="314.632" width="3.2" height="13.6" fill="#836039" />
    <rect x="376.055" y="352.232" width="3.2" height="13.6" fill="#836039" />
    <rect x="376.055" y="389.832" width="3.2" height="13.6" fill="#836039" />
    <path
      d="M373.382 201.542C373.382 199.698 374.878 198.202 376.723 198.202C378.567 198.202 380.063 199.698 380.063 201.542V228.933H373.382V201.542Z"
      fill="#403943" />
    <path
      d="M382.067 201.542C382.067 199.698 383.562 198.202 385.407 198.202C387.252 198.202 388.747 199.698 388.747 201.542V228.933H382.067V201.542Z"
      fill="#403943" />
    <path
      d="M364.697 201.542C364.697 199.698 366.193 198.202 368.038 198.202C369.882 198.202 371.378 199.698 371.378 201.542V228.933H364.697V201.542Z"
      fill="#403943" />
    <rect x="364.698" y="230.938" width="24.0501" height="2.00418" fill="#403943" />
    <ellipse cx="205" cy="372" rx="42" ry="12" fill="#448555" />
    <path
      d="M226.035 297.59C225.68 288.544 243 274.712 250.262 263.547C256.811 254.053 266.755 262.814 269.653 269.838C274.73 282.143 246.103 304.867 237.337 308.505C230.615 311.295 226.328 305.039 226.035 297.59Z"
      fill="#E95755" />
    <path
      d="M200.616 325.77C205.329 333.499 196.931 354.011 196.022 367.299C194.922 378.781 181.97 375.967 176.02 371.242C165.596 362.964 179.543 329.18 185.43 321.735C189.945 316.026 196.734 319.405 200.616 325.77Z"
      fill="#E95755" />
    <path
      d="M220.674 322.668C214.064 328.853 216.663 350.865 213.981 363.911C211.966 375.268 225.199 376.025 232.197 373.066C244.456 367.881 240.064 331.596 236.386 322.846C233.565 316.137 226.118 317.575 220.674 322.668Z"
      fill="#E95755" />
    <ellipse cx="232.606" cy="283.267" rx="19.1673" ry="11.7599" transform="rotate(-43.883 232.606 283.267)"
      fill="#C93B3B" />
    <path
      d="M209.646 355.474C205.638 355.474 181.797 353.818 182.428 331.373C183.222 303.108 194.248 288.317 209.646 288.054V288.051C209.716 288.051 209.785 288.051 209.855 288.052C209.925 288.051 209.995 288.051 210.064 288.051V288.054C225.462 288.317 236.488 303.108 237.282 331.373C237.913 353.818 214.054 355.474 210.064 355.474H209.646Z"
      fill="#E95755" />
    <path
      d="M198.206 306.352C196.687 315.277 176.887 325.237 167.477 334.664C159.11 342.602 151.187 331.977 149.801 324.507C147.372 311.419 180.072 295.091 189.4 293.34C196.554 291.997 199.457 299.003 198.206 306.352Z"
      fill="#E95755" />
    <path
      d="M233.767 367.627C234.864 364.822 238.479 361.354 236.903 341.754C236.11 331.894 234.213 323.33 230.631 308.435"
      stroke="#C93B3B" stroke-width="7.2" stroke-linecap="round" stroke-linejoin="round" />
    <ellipse cx="208.288" cy="331.955" rx="15.6799" ry="23.5198" transform="rotate(3.03197 208.288 331.955)"
      fill="#F08988" />
    <ellipse cx="209.463" cy="292.754" rx="15.2879" ry="7.05593" fill="#F08988" />
    <path fill-rule="evenodd" clip-rule="evenodd"
      d="M215.362 296.002C214.171 296.185 189.717 299.574 177.59 284.119C169.14 273.351 169.673 256.752 169.778 253.457L169.78 253.409C169.838 251.596 169.975 250.094 170.089 249.072C164.183 244.249 161.848 236.901 164.113 231.001C165.528 227.314 168.851 223.991 173.28 222.836C178.43 221.493 184.055 223.373 187.715 227.684C190.958 226.405 194.807 224.993 199.252 224.152C199.759 224.056 200.258 223.957 200.75 223.859C202.272 223.556 203.725 223.266 205.121 223.136L209.034 250.98C209.035 250.98 209.035 250.98 209.036 250.979L205.123 223.136C206.501 222.876 207.977 222.754 209.523 222.626C210.023 222.584 210.53 222.542 211.044 222.495C215.549 222.078 219.638 222.374 223.108 222.71C225.438 217.557 230.326 214.2 235.647 214.071C240.224 213.961 244.334 216.239 246.71 219.393C250.514 224.439 250.294 232.147 245.945 238.411C246.336 239.362 246.881 240.768 247.437 242.495L247.452 242.541C248.462 245.679 253.549 261.489 248.395 274.168C240.997 292.367 216.557 295.85 215.362 296.002ZM215.362 296.002L215.364 296.002L214.49 289.787C214.489 289.787 214.489 289.787 214.488 289.787L215.362 296.002Z"
      fill="#E95755" />
    <path
      d="M208.929 285.72H212.426C216.538 285.72 220.334 283.517 222.374 279.948C223.759 277.523 222.158 274.479 219.375 274.247L202.128 272.81C199.658 272.604 197.706 274.868 198.273 277.281C199.437 282.226 203.849 285.72 208.929 285.72Z"
      fill="#762B2B" />
    <path
      d="M215.343 285.239C212.08 286.599 206.854 286.206 204.233 284.592C200.447 282.26 204.912 280.535 209.405 280.535C214.274 280.535 220.047 283.279 215.343 285.239Z"
      fill="#F08988" />
    <path d="M211.587 270.02L211.423 272.366" stroke="white" stroke-opacity="0.5" stroke-width="2.7"
      stroke-linecap="round" stroke-linejoin="round" />
    <path
      d="M209.231 270.757L210.041 271.254C211.044 271.87 212.284 271.957 213.363 271.487L214.234 271.107C215.959 270.355 215.518 267.793 213.64 267.662L210.299 267.428C208.421 267.297 207.627 269.772 209.231 270.757Z"
      fill="black" fill-opacity="0.7" />
    <ellipse cx="196.358" cy="263.336" rx="3.91996" ry="3.91996" transform="rotate(-8 196.358 263.336)" fill="black"
      fill-opacity="0.7" />
    <ellipse cx="224.299" cy="260.083" rx="3.91996" ry="3.91996" transform="rotate(-8 224.299 260.083)" fill="black"
      fill-opacity="0.7" />
    <ellipse cx="286" cy="364" rx="15" ry="6" fill="white" />
    <ellipse cx="298.996" cy="314.251" rx="9.45239" ry="9.29366" transform="rotate(-0.657696 298.996 314.251)"
      fill="white" />
    <path
      d="M320.988 290.666L273.528 302.716L272.667 299.434C272.177 297.566 270.262 296.436 268.39 296.912C266.517 297.387 265.397 299.287 265.887 301.156L281.595 361.044C282.085 362.913 284 364.042 285.873 363.566C287.745 363.091 288.865 361.191 288.375 359.323L282.269 336.044L329.729 323.993L318.579 309.051L320.988 290.666ZM305.019 312.494C305.98 316.16 303.716 319.934 299.987 320.881C296.258 321.828 292.42 319.603 291.459 315.937C290.497 312.271 292.761 308.497 296.49 307.55C300.219 306.603 304.057 308.828 305.019 312.494Z"
      fill="#FF9933" />
    <path d="M267.849 300.308L283.849 361.309" stroke="#F68924" stroke-width="4" stroke-linecap="round"
      stroke-linejoin="round" />
  </g>
  <defs>
    <linearGradient id="paint0_linear_4189_1073" x1="196" y1="-757" x2="196" y2="547.5" gradientUnits="userSpaceOnUse">
      <stop stop-color="#FFAA5B" />
      <stop offset="0.0001" stop-color="#5DC5FF" />
      <stop offset="1" stop-color="#E0FFF2" />
    </linearGradient>
    <linearGradient id="paint1_linear_4189_1073" x1="186.5" y1="112" x2="186.5" y2="1127"
      gradientUnits="userSpaceOnUse">
      <stop stop-color="#448555" />
      <stop offset="1" stop-color="#284F33" />
    </linearGradient>
    <linearGradient id="paint2_linear_4189_1073" x1="129" y1="249" x2="129" y2="852" gradientUnits="userSpaceOnUse">
      <stop stop-color="#58B171" />
      <stop offset="1" stop-color="#31B346" />
    </linearGradient>
    <clipPath id="clip0_4189_1073">
      <rect width="393" height="852" fill="white" />
    </clipPath>
  </defs>
</svg>