<svg width="345" height="40" viewBox="0 0 345 40" fill="none" xmlns="http://www.w3.org/2000/svg">
<rect y="21" width="345" height="19" rx="9.5" fill="#F1F1F1"/>
<path d="M0 30.5C0 25.2533 4.25329 21 9.5 21H180V40H9.5C4.25329 40 0 35.7467 0 30.5Z" fill="#E95755"/>
<path d="M6 27.5C6 26.1193 7.11929 25 8.5 25H171.5C172.881 25 174 26.1193 174 27.5C174 28.8807 172.881 30 171.5 30H8.5C7.11929 30 6 28.8807 6 27.5Z" fill="#F3C6C6" fill-opacity="0.6"/>
<path d="M210 4H182V2C182 0.895431 181.105 0 180 0C178.895 0 178 0.895431 178 2V38C178 39.1046 178.895 40 180 40C181.105 40 182 39.1046 182 38V24H210L206 14L210 4ZM198 14C198 16.2 196.2 18 194 18C191.8 18 190 16.2 190 14C190 11.8 191.8 10 194 10C196.2 10 198 11.8 198 14Z" fill="#FF9933"/>
</svg>
