<svg width="345" height="40" viewBox="0 0 345 40" fill="none" xmlns="http://www.w3.org/2000/svg">
<rect y="21" width="345" height="19" rx="9.5" fill="#F1F1F1"/>
<path d="M0 30.5C0 25.2533 4.25329 21 9.5 21H234V40H9.5C4.25329 40 0 35.7467 0 30.5Z" fill="#E95755"/>
<path d="M6 27.5C6 26.1193 7.11929 25 8.5 25H223.5C224.881 25 226 26.1193 226 27.5C226 28.8807 224.881 30 223.5 30H8.5C7.11929 30 6 28.8807 6 27.5Z" fill="#F3C6C6" fill-opacity="0.6"/>
<path d="M264 4H236V2C236 0.895431 235.105 0 234 0C232.895 0 232 0.895431 232 2V38C232 39.1046 232.895 40 234 40C235.105 40 236 39.1046 236 38V24H264L260 14L264 4ZM252 14C252 16.2 250.2 18 248 18C245.8 18 244 16.2 244 14C244 11.8 245.8 10 248 10C250.2 10 252 11.8 252 14Z" fill="#FF9933"/>
</svg>
