<svg width="131" height="121" viewBox="0 0 131 121" fill="none" xmlns="http://www.w3.org/2000/svg">
<path fill-rule="evenodd" clip-rule="evenodd" d="M72.3723 112.486C70.771 112.731 37.8951 117.288 21.5901 96.51C10.2309 82.0331 10.9464 59.7158 11.0884 55.2865L11.0904 55.2218C11.169 52.7839 11.3527 50.7653 11.5061 49.3903C3.56612 42.9073 0.426157 33.0274 3.4717 25.0954C5.37399 20.1387 9.84126 15.6716 15.7966 14.1181C22.7207 12.3129 30.282 14.8405 35.2029 20.6359C39.5632 18.9162 44.7382 17.0179 50.7146 15.8878C51.3958 15.7588 52.0668 15.6251 52.728 15.4934C54.774 15.0858 56.7269 14.6967 58.6044 14.5221L63.8653 51.9556C63.8662 51.9555 63.867 51.9553 63.8678 51.9552L58.6069 14.5218C60.4598 14.1721 62.4443 14.0078 64.5233 13.8356L64.5234 13.8356C65.1953 13.78 65.8771 13.7236 66.5676 13.6598C72.6239 13.0988 78.1217 13.4972 82.7871 13.9484C85.9199 7.02107 92.4916 2.50729 99.645 2.334C105.798 2.18577 111.323 5.2485 114.518 9.48883C119.632 16.2741 119.337 26.6367 113.489 35.0576C114.016 36.337 114.749 38.2268 115.496 40.5486L115.516 40.6102C116.873 44.8286 123.713 66.0842 116.784 83.1314C106.837 107.598 73.9793 112.281 72.3723 112.486ZM72.3723 112.486L72.3748 112.486L71.2004 104.129C71.1996 104.129 71.1988 104.129 71.1979 104.13L72.3723 112.486Z" fill="#E95755"/>
<path d="M73.7427 82.431L62.5524 83.2961C58.39 83.6179 54.6368 85.9231 52.4676 89.4901C50.704 92.3902 52.8162 96.0988 56.2103 96.0613L79.0219 95.8093C82.6214 95.7695 85.0797 92.1555 83.7945 88.793C82.2225 84.6803 78.1325 82.0916 73.7427 82.431Z" fill="#762B2B"/>
<path d="M59.1069 93.8501C63.0821 91.0498 73.301 91.1319 77.0919 93.1144C82.2583 96.302 76.2509 96.225 70.1999 95.8985C63.6705 95.5461 53.2975 97.9427 59.1069 93.8501Z" fill="#F08988"/>
<path d="M67.2458 78.8207L67.2458 82.0727" stroke="#762B2B" stroke-width="3.62998" stroke-linecap="round" stroke-linejoin="round"/>
<path d="M64.0789 79.812L65.1669 80.4801C66.5152 81.3081 68.1831 81.4247 69.6336 80.7925L70.804 80.2823C73.1242 79.2709 72.5307 75.8264 70.0058 75.6498L65.514 75.3357C62.9891 75.1592 61.922 78.4875 64.0789 79.812Z" fill="#461A1A"/>
<ellipse cx="46.7718" cy="69.8338" rx="5.27014" ry="5.27014" transform="rotate(-8 46.7718 69.8338)" fill="#461A1A"/>
<ellipse cx="84.337" cy="65.4605" rx="5.27014" ry="5.27014" transform="rotate(-8 84.337 65.4605)" fill="#461A1A"/>
<path d="M22.9797 54.5974C24.2666 53.1466 25.7315 49.9576 25.7315 49.9576C25.7315 49.9576 26.4874 53.2026 27.1554 55.2288C27.7409 57.0046 28.871 59.7015 28.871 59.7015C28.871 59.7015 30.0506 62.2378 29.7763 63.8831C29.4839 65.6363 28.7849 66.7009 27.3161 67.7243C25.8682 68.7332 24.639 69.0573 22.8912 68.7405C21.2632 68.4454 20.3319 67.7909 19.2987 66.5119C18.1562 65.0978 17.7601 63.8876 17.9172 62.0898C18.0589 60.469 19.6844 58.3123 19.6844 58.3123L22.9797 54.5974Z" fill="#02A5E6" stroke="#02A5E6"/>
<path d="M23.1585 67.2438C23.1585 67.2438 23.368 66.959 23.066 66.7551C22.764 66.5512 22.2993 66.3226 22.2993 66.3226C22.2993 66.3226 21.4939 65.9969 21.0679 65.6617C20.8186 65.4655 20.6904 65.3388 20.4873 65.0991C19.9576 64.4741 19.8472 63.9921 19.6058 63.225C19.3539 62.4248 19.2591 61.1154 19.2591 61.1154C19.2591 61.1154 18.8121 62.305 18.7923 63.102C18.7697 64.0108 18.8894 64.5551 19.2782 65.391C19.5563 65.9888 19.7147 66.3673 20.2299 66.801C20.8295 67.3055 21.3204 67.6064 22.1121 67.5603C22.5415 67.5353 23.0787 67.4573 23.1585 67.2438Z" fill="#B6DDEC"/>
<path d="M27.6532 57.8596C27.6782 57.6939 26.3524 53.0854 26.3524 53.0854C26.3524 53.0854 26.7396 57.2129 26.8056 57.7315C26.8717 58.2501 27.2182 58.3904 27.4618 58.1698C27.5798 58.0629 27.6281 58.0254 27.6532 57.8596Z" fill="#B6DDEC"/>
</svg>
