<svg width="328" height="112" viewBox="0 0 328 112" fill="none" xmlns="http://www.w3.org/2000/svg">
<path d="M15.7426 26L0 41.9956H106L91.3069 26H15.7426Z" fill="white"/>
<rect y="41.9961" width="106" height="70.0044" fill="url(#paint0_linear_2214_711)"/>
<path d="M44.4794 88V85.1364L53.3388 75.9574C54.2848 74.9602 55.0646 74.0866 55.6783 73.3366C56.3004 72.5781 56.7649 71.858 57.0717 71.1761C57.3786 70.4943 57.532 69.7699 57.532 69.0028C57.532 68.1335 57.3274 67.3835 56.9183 66.7528C56.5092 66.1136 55.951 65.6236 55.2436 65.2827C54.5362 64.9332 53.7393 64.7585 52.853 64.7585C51.9155 64.7585 51.0973 64.9503 50.3984 65.3338C49.6996 65.7173 49.1626 66.2585 48.7876 66.9574C48.4126 67.6562 48.2251 68.4744 48.2251 69.4119H44.4538C44.4538 67.8182 44.8203 66.4247 45.5533 65.2315C46.2862 64.0384 47.2919 63.1136 48.5703 62.4574C49.8487 61.7926 51.3018 61.4602 52.9297 61.4602C54.5746 61.4602 56.0234 61.7884 57.2763 62.4446C58.5376 63.0923 59.522 63.9787 60.2294 65.1037C60.9368 66.2202 61.2905 67.4815 61.2905 68.8878C61.2905 69.8594 61.1072 70.8097 60.7408 71.7386C60.3828 72.6676 59.7564 73.7031 58.8615 74.8452C57.9666 75.9787 56.7223 77.3551 55.1286 78.9744L49.9254 84.4205V84.6122H61.7124V88H44.4794Z" fill="black"/>
<path d="M126.743 0L111 20.8315H217L202.307 0H126.743Z" fill="white"/>
<rect x="111" y="20.832" width="106" height="91.1685" fill="url(#paint1_linear_2214_711)"/>
<path d="M167.444 42.8182V69H163.481V46.7812H163.327L157.063 50.8722V47.0881L163.596 42.8182H167.444Z" fill="black"/>
<path d="M237.743 53L222 63.9737H328L313.307 53H237.743Z" fill="white"/>
<rect x="222" y="63.9736" width="106" height="48.0263" fill="url(#paint2_linear_2214_711)"/>
<path d="M274.532 101.358C272.776 101.358 271.208 101.055 269.827 100.45C268.455 99.8452 267.369 99.0057 266.567 97.9318C265.775 96.8494 265.349 95.5966 265.289 94.1733H269.303C269.354 94.9489 269.614 95.6222 270.083 96.1932C270.56 96.7557 271.183 97.1903 271.95 97.4972C272.717 97.804 273.569 97.9574 274.506 97.9574C275.538 97.9574 276.45 97.7784 277.242 97.4205C278.043 97.0625 278.67 96.5639 279.121 95.9247C279.573 95.277 279.799 94.5312 279.799 93.6875C279.799 92.8097 279.573 92.0384 279.121 91.3736C278.678 90.7003 278.026 90.1719 277.165 89.7884C276.313 89.4048 275.282 89.2131 274.072 89.2131H271.86V85.9915H274.072C275.043 85.9915 275.896 85.8168 276.629 85.4673C277.37 85.1179 277.95 84.6321 278.367 84.0099C278.785 83.3793 278.994 82.642 278.994 81.7983C278.994 80.9886 278.81 80.2855 278.444 79.6889C278.086 79.0838 277.575 78.6108 276.91 78.2699C276.254 77.929 275.478 77.7585 274.583 77.7585C273.731 77.7585 272.934 77.9162 272.192 78.2315C271.46 78.5384 270.863 78.9815 270.403 79.5611C269.942 80.1321 269.695 80.8182 269.661 81.6193H265.839C265.881 80.2045 266.299 78.9602 267.092 77.8864C267.893 76.8125 268.95 75.973 270.262 75.3679C271.575 74.7628 273.032 74.4602 274.634 74.4602C276.313 74.4602 277.762 74.7884 278.981 75.4446C280.208 76.0923 281.154 76.9574 281.819 78.0398C282.492 79.1222 282.825 80.3068 282.816 81.5938C282.825 83.0597 282.415 84.304 281.589 85.3267C280.771 86.3494 279.68 87.0355 278.316 87.3849V87.5895C280.055 87.8537 281.401 88.544 282.356 89.6605C283.319 90.777 283.796 92.1619 283.788 93.8153C283.796 95.2557 283.396 96.5469 282.586 97.6889C281.785 98.831 280.69 99.7301 279.3 100.386C277.911 101.034 276.322 101.358 274.532 101.358Z" fill="black"/>
<defs>
<linearGradient id="paint0_linear_2214_711" x1="53" y1="41.9961" x2="53" y2="112" gradientUnits="userSpaceOnUse">
<stop offset="0.0001" stop-color="white"/>
<stop offset="1" stop-color="#E95755"/>
</linearGradient>
<linearGradient id="paint1_linear_2214_711" x1="164" y1="20.832" x2="164" y2="112.001" gradientUnits="userSpaceOnUse">
<stop stop-color="white"/>
<stop offset="1" stop-color="#E95755"/>
</linearGradient>
<linearGradient id="paint2_linear_2214_711" x1="275" y1="63.9736" x2="275" y2="112" gradientUnits="userSpaceOnUse">
<stop stop-color="white"/>
<stop offset="1" stop-color="#F6E4C9"/>
</linearGradient>
</defs>
</svg>
