<svg width="345" height="40" viewBox="0 0 345 40" fill="none" xmlns="http://www.w3.org/2000/svg">
<rect y="21" width="345" height="19" rx="9.5" fill="#F1F1F1"/>
<path d="M0 30.5C0 25.2533 4.2533 21 9.5 21H114V40H9.5C4.25329 40 0 35.7467 0 30.5Z" fill="#E95755"/>
<path d="M8 27.5C8 26.1193 9.11929 25 10.5 25H103.5C104.881 25 106 26.1193 106 27.5C106 28.8807 104.881 30 103.5 30H10.5C9.11929 30 8 28.8807 8 27.5Z" fill="#F3C6C6" fill-opacity="0.6"/>
<path d="M144 4H116V2C116 0.895431 115.105 0 114 0C112.895 0 112 0.895431 112 2V38C112 39.1046 112.895 40 114 40C115.105 40 116 39.1046 116 38V24H144L140 14L144 4ZM132 14C132 16.2 130.2 18 128 18C125.8 18 124 16.2 124 14C124 11.8 125.8 10 128 10C130.2 10 132 11.8 132 14Z" fill="#FF9933"/>
</svg>
