<svg width="139" height="192" viewBox="0 0 139 192" fill="none" xmlns="http://www.w3.org/2000/svg">
<path d="M71.8112 115.254C74.4678 122.696 98.4843 132.155 109.404 140.959C119.06 148.426 123.782 141.772 124.321 135.863C125.264 125.511 89.3015 108.283 79.3935 105.732C71.7954 103.777 69.6235 109.125 71.8112 115.254Z" fill="#C93B3B"/>
<ellipse cx="63.3304" cy="179.546" rx="43.6046" ry="12.4541" fill="#448555"/>
<path d="M58.7783 131.566C63.6713 139.588 54.9532 160.877 54.0093 174.668C52.8675 186.583 39.4207 183.663 33.2433 178.76C22.4212 170.168 36.9011 135.106 43.0128 127.379C47.6996 121.454 54.7487 124.961 58.7783 131.566Z" fill="#E95755"/>
<path d="M79.6037 128.347C72.7409 134.766 75.4385 157.611 72.6542 171.151C70.5628 182.938 84.3007 183.723 91.566 180.652C104.294 175.271 99.7341 137.613 95.9151 128.533C92.9865 121.569 85.2555 123.061 79.6037 128.347Z" fill="#E95755"/>
<path d="M68.1535 162.395C63.9925 162.395 39.241 160.676 39.8959 137.381C40.7207 108.047 52.1675 92.6967 68.1535 92.4241V92.4204C68.226 92.4204 68.2985 92.4207 68.3708 92.4213C68.4431 92.4207 68.5156 92.4204 68.5881 92.4204V92.4241C84.5741 92.6967 96.0209 108.047 96.8457 137.381C97.5006 160.676 72.7304 162.395 68.5881 162.395H68.1535Z" fill="#E95755"/>
<path d="M56.2773 111.415C54.7003 120.676 34.1429 131.014 24.374 140.797C15.6873 149.036 7.4616 138.009 6.02229 130.256C3.50111 116.673 37.4503 99.7272 47.1349 97.9096C54.5616 96.5158 57.5759 103.787 56.2773 111.415Z" fill="#E95755"/>
<path d="M81.2428 109.959C82.8197 119.221 103.377 129.558 113.146 139.342C121.833 147.581 130.058 136.553 131.498 128.8C134.019 115.217 100.07 98.2716 90.3851 96.4541C82.9584 95.0603 79.9441 102.332 81.2428 109.959Z" fill="#E95755"/>
<path d="M93.1963 175.007C94.335 172.096 98.0881 168.498 96.4521 148.156C95.6291 137.922 93.6596 129.035 89.9407 113.576" stroke="#C93B3B" stroke-width="9.67994" stroke-linecap="round" stroke-linejoin="round"/>
<ellipse cx="16.2789" cy="24.4098" rx="16.2789" ry="24.4098" transform="matrix(0.998601 0.0528745 -0.0529116 0.998599 51.7789 112.749)" fill="#F08988"/>
<ellipse cx="67.9646" cy="97.3022" rx="15.8719" ry="7.32292" fill="#F08988"/>
<path fill-rule="evenodd" clip-rule="evenodd" d="M74.0912 100.676C72.8547 100.865 47.4689 104.381 34.8773 88.3393C26.105 77.1623 26.656 59.9334 26.7654 56.514L26.767 56.464C26.8275 54.582 26.9692 53.0236 27.0876 51.9621C20.9561 46.9567 18.5309 39.3292 20.8821 33.2059C22.3507 29.3795 25.8 25.9311 30.3985 24.7322C35.745 23.339 41.5838 25.2907 45.384 29.7651C48.7509 28.4378 52.7468 26.9726 57.3615 26.1005C57.8876 26.0009 58.4057 25.8978 58.9163 25.7961C60.4961 25.4816 62.0041 25.1813 63.4538 25.0467L67.5184 53.9446C67.519 53.9445 67.5197 53.9444 67.5203 53.9443L63.4558 25.0464C64.8865 24.7766 66.4189 24.6499 68.0242 24.5171L68.0243 24.5171L68.0245 24.5171L68.0248 24.5171C68.5435 24.4742 69.0698 24.4306 69.6027 24.3814C74.2793 23.9487 78.5246 24.2566 82.1271 24.6052C84.5458 19.2575 89.6201 15.7733 95.1438 15.64C99.8949 15.5259 104.162 17.8907 106.629 21.1644C110.578 26.4029 110.351 34.4029 105.836 40.9035C106.243 41.8912 106.809 43.3502 107.386 45.1426L107.401 45.1902C108.45 48.447 113.732 64.8567 108.383 78.0168C100.704 96.9048 75.3321 100.517 74.0912 100.676ZM74.0912 100.676L74.0932 100.675L73.1857 94.2234C73.185 94.2235 73.1844 94.2236 73.1837 94.2237L74.0912 100.676Z" fill="#E95755"/>
<path d="M70.1694 73.707L69.9991 76.1421" stroke="#762B2B" stroke-width="3.62998" stroke-linecap="round" stroke-linejoin="round"/>
<path d="M71.5168 71.2051L69.6158 71.0722C67.4657 70.9218 66.5572 73.7562 68.3942 74.8838C69.542 75.5883 70.9615 75.6875 72.1962 75.1497C74.1722 74.2888 73.667 71.3555 71.5168 71.2051Z" fill="#461A1A"/>
<ellipse cx="4.6473" cy="4.64647" rx="4.6473" ry="4.64647" transform="matrix(0.990283 -0.139066 0.139282 0.990253 49.4222 63.0486)" fill="#461A1A"/>
<ellipse cx="4.6473" cy="4.64647" rx="4.6473" ry="4.64647" transform="matrix(0.990283 -0.139066 0.139282 0.990253 77.9944 61.5046)" fill="#461A1A"/>
<path d="M88.7307 77.3147C88.9206 76.4184 88.7777 74.7666 88.7777 74.7666C88.7777 74.7666 89.846 75.9231 90.5936 76.5996C91.2488 77.1924 92.3429 78.0365 92.3429 78.0365C92.3429 78.0365 93.4198 78.803 93.6914 79.5429C93.9807 80.3313 93.9421 80.9317 93.5777 81.6949C93.2184 82.4473 92.7892 82.8672 91.9971 83.145C91.2594 83.4037 90.724 83.3522 90.0008 83.068C89.2012 82.7537 88.7559 82.3491 88.4006 81.5739C88.0803 80.8751 88.2444 79.6098 88.2444 79.6098L88.7307 77.3147Z" fill="#02A5E6" stroke="#02A5E6"/>
<path d="M91.7573 82.4678C91.7573 82.4678 91.7768 82.3019 91.6051 82.2887C91.4334 82.2754 91.1892 82.29 91.1892 82.29C91.1892 82.29 90.7822 82.3441 90.5289 82.3058C90.3807 82.2834 90.2984 82.2613 90.159 82.2102C89.7954 82.0771 89.6375 81.9049 89.3592 81.6461C89.0688 81.3762 88.7241 80.8604 88.7241 80.8604C88.7241 80.8604 88.8182 81.4534 88.9963 81.7855C89.1992 82.1641 89.3755 82.3597 89.7305 82.6123C89.9843 82.793 90.1378 82.9115 90.4507 82.9694C90.8149 83.0367 91.0868 83.0458 91.4013 82.8421C91.5719 82.7316 91.7744 82.5741 91.7573 82.4678Z" fill="#B6DDEC"/>
<path d="M91.4129 77.5642C91.3845 77.4903 89.7637 75.9067 89.7637 75.9067C89.7637 75.9067 90.8866 77.5118 91.0348 77.7094C91.1831 77.907 91.3582 77.8838 91.4067 77.7363C91.4302 77.6648 91.4413 77.6382 91.4129 77.5642Z" fill="#B6DDEC"/>
<path d="M56.7504 64.8016C56.359 64.2918 55.9087 64.0718 55.2564 64.0718C53.9518 64.0717 55.9678 68.0106 56.7505 66.991C57.2755 66.307 57.2755 65.4857 56.7504 64.8016Z" fill="white" stroke="white" stroke-linecap="round"/>
<path d="M85.3226 63.2577C84.9312 62.7479 84.4809 62.5279 83.8286 62.5279C82.524 62.5278 84.54 66.4666 85.3227 65.447C85.8478 64.7631 85.8478 63.9417 85.3226 63.2577Z" fill="white" stroke="white" stroke-linecap="round"/>
<path d="M61.0054 83.4324C61.0054 83.4324 66.9361 77.9247 70.9281 78.6644C74.309 79.2908 78.3805 83.4324 78.3805 83.4324" stroke="#762B2B" stroke-width="4" stroke-linecap="round"/>
<ellipse cx="52.5111" cy="65.6157" rx="0.772222" ry="0.771951" fill="white"/>
<ellipse cx="81.0834" cy="64.072" rx="0.772222" ry="0.771951" fill="white"/>
</svg>
