<svg width="401" height="860" viewBox="0 0 401 860" fill="none" xmlns="http://www.w3.org/2000/svg">
<g clip-path="url(#clip0_4065_6124)" filter="url(#filter0_d_4065_6124)">
<rect width="393" height="852" transform="translate(4 4)" fill="url(#paint0_linear_4065_6124)"/>
<path d="M49 76L58.6413 86.327L72.5114 83.6393L74.2413 97.6611L87.0423 103.639L80.2 116L87.0423 128.361L74.2413 134.339L72.5114 148.361L58.6413 145.673L49 156L39.3587 145.673L25.4886 148.361L23.7587 134.339L10.9577 128.361L17.8 116L10.9577 103.639L23.7587 97.6611L25.4886 83.6393L39.3587 86.327L49 76Z" fill="#FF9933"/>
<circle cx="49.1515" cy="115.848" r="27.4242" fill="#FFC737"/>
<circle cx="49.1516" cy="115.848" r="23.7879" fill="#FFC737"/>
<path d="M533.549 280.371H274C280.356 231.397 312.844 233.881 332.266 239.914C342.86 215.427 363.695 219.685 368.285 220.75C410.661 147.278 483.758 200.506 483.758 237.784C529.523 237.784 536.021 266.175 533.549 280.371Z" fill="white"/>
<path d="M168.653 154.632H-31C-26.1105 117.214 -1.11993 119.111 13.8201 123.721C21.9692 105.012 37.9958 108.265 41.5271 109.079C74.1235 52.9423 130.352 93.6116 130.352 122.094C165.557 122.094 170.555 143.786 168.653 154.632Z" fill="white"/>
<rect x="356.672" y="190.175" width="49.4363" height="235.825" fill="#FFE6CE"/>
<path d="M355.336 186.835H406.777L405.441 190.176H356.673L355.336 186.835Z" fill="#F1C59B"/>
<path d="M354 185.499C361.015 182.493 375.378 133.39 381.39 106C387.403 134.727 397.424 169.132 408.781 185.499H354Z" fill="#6E6E6E"/>
<path d="M354 185.499H408.781L406.777 186.835H355.336L354 185.499Z" fill="black"/>
<rect x="380.055" y="281.032" width="3.2" height="13.6" fill="#836039"/>
<rect x="380.055" y="318.632" width="3.2" height="13.6" fill="#836039"/>
<rect x="380.055" y="356.232" width="3.2" height="13.6" fill="#836039"/>
<rect x="380.055" y="393.832" width="3.2" height="13.6" fill="#836039"/>
<path d="M377.383 205.542C377.383 203.698 378.878 202.202 380.723 202.202C382.568 202.202 384.063 203.698 384.063 205.542V232.933H377.383V205.542Z" fill="#403943"/>
<path d="M386.067 205.542C386.067 203.698 387.562 202.202 389.407 202.202C391.252 202.202 392.747 203.698 392.747 205.542V232.933H386.067V205.542Z" fill="#403943"/>
<path d="M368.698 205.542C368.698 203.698 370.193 202.202 372.038 202.202C373.883 202.202 375.378 203.698 375.378 205.542V232.933H368.698V205.542Z" fill="#403943"/>
<rect x="368.698" y="234.938" width="24.0501" height="2.00418" fill="#403943"/>
<path d="M52 782.144V677.27C93 613.145 171.5 534.747 242.5 480.145C328.592 413.935 410.358 393.985 454 398.644V782.144H52Z" fill="url(#paint1_linear_4065_6124)"/>
<path d="M401 873.5V773.626C360 709.5 291.5 641.103 220.5 586.501C134.408 520.291 42.6416 513.341 -1 518V873.5H401Z" fill="url(#paint2_linear_4065_6124)"/>
<path d="M327 466.5C327 470.918 330.582 474.5 335 474.5C339.418 474.5 343 470.918 343 466.5C343 462.082 339.418 458.5 335 458.5C330.582 458.5 327 462.082 327 466.5ZM209.715 561.38C210.688 560.037 211.676 558.703 212.677 557.379L210.285 555.569C209.271 556.909 208.271 558.26 207.285 559.62L209.715 561.38ZM218.846 549.56C220.955 546.992 223.114 544.465 225.315 541.983L223.071 539.992C220.845 542.502 218.661 545.058 216.527 547.655L218.846 549.56ZM232.063 534.651C234.364 532.24 236.701 529.877 239.069 527.564L236.973 525.417C234.58 527.755 232.218 530.143 229.893 532.579L232.063 534.651ZM246.321 520.721C248.792 518.469 251.289 516.271 253.803 514.131L251.858 511.846C249.318 514.008 246.797 516.228 244.3 518.504L246.321 520.721ZM261.503 507.799C264.131 505.712 266.771 503.69 269.414 501.735L267.63 499.323C264.959 501.298 262.292 503.341 259.637 505.45L261.503 507.799ZM277.531 495.954C280.312 494.048 283.089 492.22 285.852 490.475L284.25 487.939C281.455 489.704 278.647 491.552 275.835 493.48L277.531 495.954ZM294.377 485.326C297.32 483.63 300.235 482.036 303.111 480.547L301.731 477.883C298.814 479.393 295.86 481.009 292.88 482.726L294.377 485.326ZM312.053 476.2C315.172 474.785 318.225 473.509 321.197 472.38L320.131 469.575C317.097 470.729 313.985 472.029 310.813 473.468L312.053 476.2ZM330.591 469.214C332.212 468.744 333.797 468.325 335.345 467.96L334.655 465.04C333.055 465.418 331.421 465.85 329.754 466.334L330.591 469.214Z" fill="white"/>
<ellipse cx="349.148" cy="417.443" rx="9.45239" ry="9.29366" transform="rotate(-0.657696 349.148 417.443)" fill="white"/>
<path d="M371.139 393.857L323.679 405.908L322.818 402.626C322.328 400.757 320.413 399.628 318.541 400.104C316.669 400.579 315.548 402.479 316.038 404.347L331.747 464.236C332.237 466.104 334.152 467.234 336.024 466.758C337.896 466.283 339.017 464.383 338.527 462.515L332.421 439.236L379.88 427.185L368.73 412.243L371.139 393.857ZM355.17 415.686C356.131 419.352 353.867 423.126 350.138 424.073C346.409 425.02 342.571 422.795 341.61 419.129C340.648 415.463 342.913 411.689 346.642 410.742C350.371 409.795 354.208 412.02 355.17 415.686Z" fill="#FF9933"/>
<path d="M179.674 185.599C174.557 185.599 169.969 188.923 168.265 193.87C167.706 195.485 168.531 197.258 170.108 197.829C171.142 198.21 172.224 197.923 173.018 197.247L185.724 212.893V216.618C185.724 218.331 187.077 219.72 188.749 219.72C190.421 219.72 191.774 218.331 191.774 216.618V198.007C191.774 191.165 186.347 185.599 179.674 185.599Z" fill="#E56060"/>
<path d="M170.598 191.803C165.053 191.803 159.813 193.985 155.727 198.075L116.942 241.492L121.403 245.681L122.45 244.508L185.724 262.296V263.146C185.724 264.859 187.077 266.248 188.749 266.248C190.421 266.248 191.774 264.859 191.774 263.146V213.516C191.774 201.543 182.273 191.803 170.598 191.803Z" fill="#FFB4B4"/>
<path d="M220.512 185.599C225.629 185.599 230.217 188.923 231.921 193.87C232.48 195.485 231.655 197.258 230.078 197.829C229.044 198.21 227.963 197.923 227.168 197.247L214.462 212.893V216.618C214.462 218.331 213.109 219.72 211.437 219.72C209.765 219.72 208.412 218.331 208.412 216.618V198.007C208.412 191.165 213.839 185.599 220.512 185.599Z" fill="#E56060"/>
<path d="M229.587 191.803C235.132 191.803 240.373 193.985 244.459 198.075L283.244 241.492L278.783 245.682L277.735 244.508L214.462 262.296V263.146C214.462 264.859 213.109 266.248 211.437 266.248C209.765 266.248 208.412 264.859 208.412 263.146V213.516C208.412 201.543 217.913 191.803 229.587 191.803Z" fill="#FFB4B4"/>
<path d="M149.423 303.47C167.801 303.47 182.699 288.194 182.699 269.349C182.699 250.505 167.801 235.228 149.423 235.228C131.045 235.228 116.147 250.505 116.147 269.349C116.147 288.194 131.045 303.47 149.423 303.47Z" fill="#E4FAFF"/>
<path d="M149.423 225.923C126.07 225.923 107.072 245.403 107.072 269.349C107.072 293.295 126.07 312.776 149.423 312.776C172.776 312.776 191.774 293.295 191.774 269.349C191.774 245.403 172.776 225.923 149.423 225.923ZM149.423 300.368C132.743 300.368 119.172 286.453 119.172 269.349C119.172 252.246 132.743 238.33 149.423 238.33C166.103 238.33 179.674 252.246 179.674 269.349C179.674 286.453 166.103 300.368 149.423 300.368Z" fill="#FC5755"/>
<path d="M179.602 229.025H220.583L220.977 229.018C215.993 234.93 212.899 243.172 212.899 252.289V263.146H187.286V252.289C187.286 243.172 184.193 234.93 179.208 229.018" fill="#E56060"/>
<path d="M159.254 275.553C165.937 275.553 171.355 269.998 171.355 263.145C171.355 256.293 165.937 250.738 159.254 250.738C152.572 250.738 147.154 256.293 147.154 263.145C147.154 269.998 152.572 275.553 159.254 275.553Z" fill="white"/>
<path d="M250.763 303.47C269.141 303.47 284.039 288.194 284.039 269.349C284.039 250.505 269.141 235.228 250.763 235.228C232.385 235.228 217.487 250.505 217.487 269.349C217.487 288.194 232.385 303.47 250.763 303.47Z" fill="#E4FAFF"/>
<path d="M250.763 225.923C227.41 225.923 208.412 245.403 208.412 269.349C208.412 293.295 227.41 312.776 250.763 312.776C274.116 312.776 293.114 293.295 293.114 269.349C293.114 245.403 274.116 225.923 250.763 225.923ZM250.763 300.368C234.083 300.368 220.512 286.453 220.512 269.349C220.512 252.246 234.083 238.33 250.763 238.33C267.443 238.33 281.014 252.246 281.014 269.349C281.014 286.453 267.443 300.368 250.763 300.368Z" fill="#FFB4B4"/>
<path d="M149.423 225.923C126.07 225.923 107.072 245.403 107.072 269.349C107.072 293.295 126.07 312.776 149.423 312.776C172.776 312.776 191.774 293.295 191.774 269.349C191.774 245.403 172.776 225.923 149.423 225.923ZM149.423 300.368C132.743 300.368 119.172 286.453 119.172 269.349C119.172 252.246 132.743 238.33 149.423 238.33C166.103 238.33 179.674 252.246 179.674 269.349C179.674 286.453 166.103 300.368 149.423 300.368Z" fill="#FFB4B4"/>
<path d="M260.467 275.553C267.15 275.553 272.568 269.998 272.568 263.145C272.568 256.293 267.15 250.738 260.467 250.738C253.785 250.738 248.367 256.293 248.367 263.145C248.367 269.998 253.785 275.553 260.467 275.553Z" fill="white"/>
<path d="M221.268 222.821H179.674V229.025H221.268V222.821Z" fill="#FFB4B4"/>
<path d="M169.339 253.856C167.427 250.352 164.799 247.684 161.454 245.852C158.109 244.02 154.206 243.104 149.746 243.104C144.808 243.104 140.428 244.219 136.605 246.449C132.782 248.68 129.795 251.865 127.645 256.007C125.494 260.148 124.419 264.927 124.419 270.343C124.419 275.918 125.494 280.777 127.645 284.918C129.875 289.06 132.941 292.245 136.844 294.476C140.746 296.706 145.286 297.821 150.463 297.821C156.834 297.821 162.051 296.148 166.113 292.803C170.175 289.378 172.843 284.639 174.117 278.586H145.445V265.803H190.604V280.378C189.489 286.192 187.1 291.568 183.436 296.506C179.772 301.444 175.033 305.427 169.219 308.453C163.485 311.4 157.034 312.874 149.866 312.874C141.821 312.874 134.534 311.082 128.003 307.497C121.552 303.834 116.454 298.776 112.711 292.325C109.047 285.874 107.216 278.546 107.216 270.343C107.216 262.14 109.047 254.812 112.711 248.361C116.454 241.83 121.552 236.773 128.003 233.189C134.534 229.525 141.782 227.693 149.746 227.693C159.144 227.693 167.308 230.003 174.237 234.622C181.166 239.162 185.945 245.573 188.573 253.856H169.339Z" fill="#FC5755"/>
<path d="M250.335 312.993C242.53 312.993 235.362 311.161 228.831 307.497C222.3 303.834 217.123 298.776 213.301 292.325C209.478 285.794 207.566 278.427 207.566 270.224C207.566 262.1 209.478 254.812 213.301 248.361C217.123 241.83 222.3 236.733 228.831 233.069C235.362 229.405 242.53 227.574 250.335 227.574C258.22 227.574 265.388 229.405 271.84 233.069C278.37 236.733 283.508 241.83 287.251 248.361C291.074 254.812 292.985 262.1 292.985 270.224C292.985 278.427 291.074 285.794 287.251 292.325C283.508 298.776 278.37 303.834 271.84 307.497C265.309 311.161 258.141 312.993 250.335 312.993ZM250.335 298.06C255.353 298.06 259.773 296.945 263.596 294.714C267.419 292.405 270.406 289.139 272.556 284.918C274.707 280.697 275.782 275.799 275.782 270.224C275.782 264.648 274.707 259.79 272.556 255.648C270.406 251.427 267.419 248.202 263.596 245.972C259.773 243.742 255.353 242.627 250.335 242.627C245.318 242.627 240.858 243.742 236.955 245.972C233.132 248.202 230.145 251.427 227.995 255.648C225.845 259.79 224.769 264.648 224.769 270.224C224.769 275.799 225.845 280.697 227.995 284.918C230.145 289.139 233.132 292.405 236.955 294.714C240.858 296.945 245.318 298.06 250.335 298.06Z" fill="#FC5755"/>
<path d="M191.585 273.577L191.207 276.602L190.451 279.627V265.069H191.585V265.636L191.774 267.905V270.174L191.585 273.577Z" fill="#FC5755"/>
<path d="M92.921 190.34C91.1707 187.476 90.2058 184.568 90.0264 181.614C89.8578 178.616 90.496 175.824 91.9411 173.239C93.3694 170.626 95.5152 168.445 98.3784 166.695C102.012 164.473 105.666 163.582 109.339 164.022C112.994 164.435 116.198 166.088 118.951 168.981L110.237 174.308C109.041 173.527 107.798 173.133 106.509 173.127C105.247 173.104 104.01 173.463 102.799 174.204C100.926 175.348 99.8383 176.94 99.5342 178.979C99.2408 180.973 99.7757 183.086 101.139 185.316C102.519 187.573 104.172 189.04 106.098 189.716C108.034 190.347 109.939 190.091 111.811 188.946C113.022 188.206 113.905 187.269 114.461 186.135C115.043 184.985 115.259 183.699 115.109 182.278L123.823 176.952C125.143 180.72 125.162 184.34 123.879 187.809C122.58 191.251 120.113 194.083 116.479 196.304C113.616 198.054 110.704 198.983 107.744 199.091C104.768 199.171 101.992 198.466 99.4175 196.976C96.8536 195.443 94.6881 193.23 92.921 190.34Z" fill="#FC5755"/>
<path d="M145.706 182.886C142.695 183.953 139.679 184.233 136.659 183.728C133.628 183.192 130.926 181.941 128.552 179.975C126.198 177.967 124.461 175.382 123.341 172.218C122.221 169.055 121.949 165.968 122.526 162.956C123.123 159.904 124.436 157.231 126.465 154.938C128.494 152.645 131.014 150.965 134.025 149.899C137.067 148.822 140.083 148.542 143.072 149.058C146.092 149.563 148.779 150.819 151.133 152.827C153.477 154.804 155.208 157.374 156.328 160.538C157.448 163.701 157.725 166.804 157.159 169.845C156.583 172.856 155.285 175.524 153.267 177.847C151.237 180.14 148.717 181.82 145.706 182.886ZM142.766 174.582C145.047 173.775 146.578 172.394 147.358 170.44C148.168 168.476 148.132 166.247 147.249 163.753C146.344 161.198 144.964 159.427 143.109 158.441C141.273 157.414 139.215 157.304 136.933 158.112C134.622 158.93 133.076 160.316 132.296 162.27C131.505 164.193 131.562 166.432 132.466 168.987C133.36 171.512 134.725 173.288 136.561 174.315C138.386 175.312 140.454 175.401 142.766 174.582Z" fill="#FC5755"/>
<path d="M183.634 173.672L175.237 162.106L174.229 162.242L175.911 174.714L166.509 175.981L161.949 142.164L176.771 140.166C179.489 139.799 181.857 139.969 183.873 140.673C185.884 141.346 187.482 142.45 188.666 143.983C189.845 145.485 190.572 147.259 190.848 149.305C191.159 151.608 190.793 153.725 189.751 155.656C188.737 157.551 187.064 159.03 184.733 160.093L194.138 172.256L183.634 173.672ZM173.363 155.815L178.015 155.187C179.295 155.015 180.213 154.582 180.771 153.888C181.328 153.194 181.529 152.271 181.374 151.12C181.228 150.033 180.777 149.231 180.024 148.714C179.298 148.16 178.312 147.968 177.065 148.136L172.412 148.763L173.363 155.815Z" fill="#FC5755"/>
<path d="M228.615 174.163L219.149 173.528L207.822 153.654L206.545 172.682L197.079 172.046L199.365 138L208.83 138.635L220.141 158.75L221.434 139.481L230.9 140.117L228.615 174.163Z" fill="#FC5755"/>
<path d="M249.796 152.225L248.372 157.606L258.901 160.391L257.056 167.363L246.528 164.578L244.956 170.52L256.888 173.677L254.944 181.023L233.841 175.44L242.569 142.452L263.671 148.035L261.728 155.382L249.796 152.225Z" fill="#FC5755"/>
<path d="M272.274 180.281L281.967 184.572L279.028 191.211L260.661 183.08L274.473 151.878L283.148 155.718L272.274 180.281Z" fill="#FC5755"/>
<path d="M295.56 192.686L304.498 198.384L300.595 204.506L283.658 193.708L302.001 164.935L310 170.034L295.56 192.686Z" fill="#FC5755"/>
<path d="M318 403.5L334 464.5" stroke="#F68924" stroke-width="4" stroke-linecap="round" stroke-linejoin="round"/>
<path d="M33.9541 935.957V761L19.6362 763.445L12.3027 798.017L0.778553 766.587H-13.5393L0.778553 806.398L-31.0001 935.957H33.9541Z" fill="#B44E28"/>
<path d="M-77.0117 669.483C-103.273 667.527 -116.473 681.009 -116.473 689.388C-176.189 698.121 -148.601 728.85 -120.664 728.85C-120.664 764.121 -75.2658 769.01 -55.0111 764.121C-25.6769 775.016 9.1283 768.66 22.8641 764.121C65.1192 770.057 72.8019 750.85 67.2144 742.818C119.597 733.389 99.3423 711.738 81.8815 706.151C95.8502 681.845 61.7434 674.489 42.0709 674.373C10.9913 638.404 -60.5981 652.722 -77.0117 669.483Z" fill="#417F52"/>
<path d="M38.9883 799.483C12.7272 797.527 -0.473167 811.009 -0.473167 819.388C-60.1885 828.121 -32.6006 858.85 -4.6639 858.85C-4.6639 894.121 40.7342 899.01 60.9889 894.121C90.3231 905.016 125.128 898.66 138.864 894.121C181.119 900.057 188.802 880.85 183.214 872.818C235.597 863.389 215.342 841.738 197.882 836.151C211.85 811.845 177.743 804.489 158.071 804.373C126.991 768.404 55.4019 782.722 38.9883 799.483Z" fill="#417F52"/>
<ellipse cx="86" cy="563" rx="42" ry="12" fill="#448555"/>
<path d="M107.036 488.59C106.68 479.544 124 465.712 131.262 454.547C137.811 445.053 147.756 453.814 150.654 460.838C155.73 473.143 127.103 495.867 118.337 499.505C111.615 502.295 107.328 496.039 107.036 488.59Z" fill="#E95755"/>
<path d="M81.6156 516.769C86.3286 524.498 77.9313 545.011 77.0221 558.299C75.9223 569.78 62.9703 566.967 57.0202 562.242C46.5964 553.964 60.5435 520.18 66.4303 512.735C70.9446 507.025 77.7343 510.404 81.6156 516.769Z" fill="#E95755"/>
<path d="M101.674 513.668C95.064 519.853 97.6624 541.865 94.9806 554.911C92.9661 566.268 106.199 567.025 113.196 564.066C125.456 558.881 121.064 522.596 117.386 513.846C114.565 507.137 107.118 508.575 101.674 513.668Z" fill="#E95755"/>
<ellipse cx="113.606" cy="474.268" rx="19.1673" ry="11.7599" transform="rotate(-43.883 113.606 474.268)" fill="#C93B3B"/>
<path d="M90.6458 546.474C86.6379 546.474 62.7972 544.818 63.4281 522.373C64.2224 494.108 75.2481 479.317 90.6458 479.054V479.051C90.7157 479.051 90.7854 479.051 90.8551 479.052C90.9248 479.051 90.9946 479.051 91.0644 479.051V479.054C106.462 479.317 117.488 494.108 118.282 522.373C118.913 544.818 95.0543 546.474 91.0644 546.474H90.6458Z" fill="#E95755"/>
<path d="M79.2064 497.353C77.6875 506.277 57.8865 516.237 48.4771 525.664C40.11 533.603 32.187 522.977 30.8007 515.507C28.3723 502.419 61.0722 486.091 70.4004 484.34C77.5539 482.997 80.4572 490.003 79.2064 497.353Z" fill="#E95755"/>
<path d="M114.767 558.627C115.864 555.822 119.479 552.354 117.903 532.754C117.11 522.894 115.213 514.33 111.631 499.435" stroke="#C93B3B" stroke-width="7.2" stroke-linecap="round" stroke-linejoin="round"/>
<ellipse cx="89.2874" cy="522.955" rx="15.6799" ry="23.5198" transform="rotate(3.03197 89.2874 522.955)" fill="#F08988"/>
<ellipse cx="90.4634" cy="483.755" rx="15.2879" ry="7.05593" fill="#F08988"/>
<path fill-rule="evenodd" clip-rule="evenodd" d="M96.3616 487.002C95.1705 487.185 70.7173 490.574 58.5895 475.119C50.1405 464.351 50.6726 447.751 50.7782 444.457L50.7798 444.409C50.8382 442.596 50.9748 441.094 51.089 440.071C45.1831 435.249 42.8476 427.9 45.1129 422.001C46.5278 418.314 49.8506 414.991 54.2803 413.836C59.4305 412.493 65.0546 414.373 68.7147 418.684C71.958 417.404 75.8072 415.992 80.2524 415.152C80.7592 415.056 81.2582 414.957 81.7501 414.859C83.2719 414.555 84.7245 414.266 86.1209 414.136L90.0341 441.979C90.0347 441.979 90.0353 441.979 90.0359 441.979L86.1228 414.136C87.501 413.876 88.9771 413.754 90.5235 413.626C91.0233 413.584 91.5304 413.542 92.044 413.495C96.5487 413.077 100.638 413.374 104.108 413.709C106.438 408.557 111.326 405.199 116.647 405.071C121.224 404.96 125.334 407.238 127.71 410.392C131.514 415.439 131.294 423.147 126.945 429.411C127.336 430.362 127.881 431.768 128.437 433.495L128.452 433.541C129.462 436.678 134.549 452.488 129.395 465.168C121.997 483.367 97.5569 486.849 96.3616 487.002ZM96.3616 487.002L96.3635 487.002L95.49 480.787C95.4893 480.787 95.4887 480.787 95.4881 480.787L96.3616 487.002Z" fill="#E95755"/>
<path d="M89.9285 476.72H93.4259C97.5375 476.72 101.334 474.517 103.374 470.947C104.759 468.522 103.158 465.478 100.375 465.246L83.1281 463.809C80.6577 463.603 78.7056 465.868 79.2734 468.281C80.4368 473.225 84.8489 476.72 89.9285 476.72Z" fill="#762B2B"/>
<path d="M96.3431 476.239C93.0797 477.599 87.8542 477.206 85.2328 475.592C81.4472 473.26 85.9117 471.535 90.4054 471.535C95.2737 471.535 101.047 474.279 96.3431 476.239Z" fill="#F08988"/>
<path d="M92.5869 461.02L92.4228 463.366" stroke="#762B2B" stroke-width="2.7" stroke-linecap="round" stroke-linejoin="round"/>
<path d="M90.2313 461.757L91.0406 462.254C92.0435 462.87 93.2841 462.957 94.363 462.486L95.2335 462.107C96.9593 461.355 96.5179 458.793 94.6398 458.661L91.2988 458.428C89.4207 458.296 88.627 460.772 90.2313 461.757Z" fill="#461A1A"/>
<ellipse cx="77.3583" cy="454.335" rx="3.91996" ry="3.91996" transform="rotate(-8 77.3583 454.335)" fill="#461A1A"/>
<ellipse cx="105.299" cy="451.082" rx="3.91996" ry="3.91996" transform="rotate(-8 105.299 451.082)" fill="#461A1A"/>
</g>
<defs>
<filter id="filter0_d_4065_6124" x="0" y="0" width="401" height="860" filterUnits="userSpaceOnUse" color-interpolation-filters="sRGB">
<feFlood flood-opacity="0" result="BackgroundImageFix"/>
<feColorMatrix in="SourceAlpha" type="matrix" values="0 0 0 0 0 0 0 0 0 0 0 0 0 0 0 0 0 0 127 0" result="hardAlpha"/>
<feOffset/>
<feGaussianBlur stdDeviation="2"/>
<feComposite in2="hardAlpha" operator="out"/>
<feColorMatrix type="matrix" values="0 0 0 0 0 0 0 0 0 0 0 0 0 0 0 0 0 0 0.25 0"/>
<feBlend mode="normal" in2="BackgroundImageFix" result="effect1_dropShadow_4065_6124"/>
<feBlend mode="normal" in="SourceGraphic" in2="effect1_dropShadow_4065_6124" result="shape"/>
</filter>
<linearGradient id="paint0_linear_4065_6124" x1="196" y1="-757" x2="196" y2="547.5" gradientUnits="userSpaceOnUse">
<stop stop-color="#FFAA5B"/>
<stop offset="0.0001" stop-color="#5DC5FF"/>
<stop offset="1" stop-color="#E0FFF2"/>
</linearGradient>
<linearGradient id="paint1_linear_4065_6124" x1="253" y1="398" x2="253" y2="782.144" gradientUnits="userSpaceOnUse">
<stop stop-color="#448555"/>
<stop offset="1" stop-color="#284F33"/>
</linearGradient>
<linearGradient id="paint2_linear_4065_6124" x1="200" y1="516.848" x2="200" y2="873.5" gradientUnits="userSpaceOnUse">
<stop stop-color="#58B171"/>
<stop offset="1" stop-color="#31B346"/>
</linearGradient>
<clipPath id="clip0_4065_6124">
<rect width="393" height="852" fill="white" transform="translate(4 4)"/>
</clipPath>
</defs>
</svg>
