<svg width="114" height="114" viewBox="0 0 114 114" fill="none" xmlns="http://www.w3.org/2000/svg">
<circle cx="57" cy="57" r="55" fill="white" stroke="#FFDDBE" stroke-width="4"/>
<path d="M57.1947 92.0234C56.1393 92.0367 34.5145 91.9952 25.8785 77.1109C19.8323 66.6887 22.3724 52.2634 22.848 49.5195C23.1197 47.9537 23.4213 46.6679 23.6449 45.7947C19.1099 40.8918 17.9799 34.2325 20.6641 29.391C22.3409 26.3654 25.6283 23.8882 29.6116 23.426C34.2428 22.8891 38.8921 25.2055 41.5416 29.391C44.5108 28.6768 48.0219 27.9212 51.9803 27.734C53.8278 27.6462 55.5709 27.4921 57.1947 27.5683V62.1984C55.8725 62.2548 52.4575 62.5928 49.7385 65.1809C45.4735 69.2371 45.8364 76.0472 48.2472 80.0934C49.9257 82.9102 53.0955 85.2266 54.2122 84.5672C55.0689 84.0618 54.8435 81.7272 54.2122 80.0934C53.1601 77.3727 50.9944 76.6321 51.2297 75.6197C51.3855 74.947 52.5835 73.2469 57.1947 73.1343V92.0234Z" fill="#E95755"/>
<path d="M57.1947 92.0234C58.2502 92.0367 79.875 91.9952 88.511 77.1109C94.5571 66.6887 92.017 52.2634 91.5415 49.5195C91.2698 47.9537 90.9682 46.6679 90.7445 45.7947C95.2812 40.8918 96.4113 34.2325 93.727 29.391C92.0502 26.3654 88.7628 23.8882 84.7795 23.426C80.1484 22.8891 75.499 25.2055 72.8495 29.391C69.8803 28.6768 66.3692 27.9212 62.4108 27.734C60.5633 27.6462 58.8202 27.4921 57.1964 27.5683V62.1984C58.5186 62.2548 61.9336 62.5928 64.6526 65.1809C68.9176 69.2371 68.5547 76.0472 66.1439 80.0934C64.4654 82.9102 61.2957 85.2266 60.1789 84.5672C59.3222 84.0618 59.5476 81.7272 60.1789 80.0934C61.231 77.3727 63.3967 76.6321 63.1614 75.6197C63.0056 74.947 61.8077 73.2469 57.1964 73.1343V92.0234H57.1947Z" fill="#E95755"/>
<path d="M21.8952 27.608C21.4213 28.1714 21.0088 28.7696 20.6641 29.391C17.9799 34.2325 19.1099 40.8918 23.6466 45.7947C24.9274 43.1336 26.8147 39.9738 29.6116 36.8472C30.6141 35.7271 31.6198 34.7362 32.5941 33.8647C30.3771 29.3528 25.8122 27.0132 21.8952 27.608Z" fill="white" fill-opacity="0.3"/>
<path d="M92.4941 27.6081C92.968 28.1715 93.3806 28.7697 93.7253 29.391C96.4095 34.2326 95.2795 40.8918 90.7428 45.7947C89.4619 43.1337 87.5747 39.9739 84.7778 36.8473C83.7753 35.7272 82.7696 34.7363 81.7953 33.8648C84.0123 29.3529 88.5771 27.0116 92.4941 27.6081Z" fill="white" fill-opacity="0.3"/>
<path d="M43.8866 60.52C43.8866 62.838 42.6088 64.717 41.0325 64.717C39.4562 64.717 38.1784 62.838 38.1784 60.52C38.1784 58.202 39.4562 56.3229 41.0325 56.3229C42.6088 56.3229 43.8866 58.202 43.8866 60.52Z" fill="white"/>
<path d="M76.2715 60.52C76.2715 62.838 74.9937 64.717 73.4174 64.717C71.8411 64.717 70.5633 62.838 70.5633 60.52C70.5633 58.202 71.8411 56.3229 73.4174 56.3229C74.9937 56.3229 76.2715 58.202 76.2715 60.52Z" fill="white"/>
</svg>
