<svg width="64" height="64" viewBox="0 0 64 64" fill="none" xmlns="http://www.w3.org/2000/svg">
  <g clip-path="url(#clip0_3567_1289)">
    <rect width="64" height="64" rx="8" fill="#FFC737" />
    <path
      d="M26.8584 17C25.6661 17 24.5971 17.7747 24.1999 18.9273C24.0697 19.3035 24.2618 19.7168 24.6294 19.8499C24.8702 19.9386 25.1223 19.8717 25.3074 19.7143L28.2682 23.36V24.228C28.2682 24.6271 28.5834 24.9507 28.9731 24.9507C29.3627 24.9507 29.678 24.6271 29.678 24.228V19.8912C29.678 18.297 28.4134 17 26.8584 17Z"
      fill="#A76120" />
    <path
      d="M24.7436 18.4456C23.4515 18.4456 22.2304 18.9542 21.2783 19.9071L12.2407 30.0241L13.2801 31.0003L13.5243 30.7268L21.2783 29.0001L28.2681 34.8717V35.0699C28.2681 35.4691 28.5834 35.7927 28.973 35.7927C29.3626 35.7927 29.6779 35.4691 29.6779 35.0699V23.5052C29.6779 20.7153 27.4641 18.4456 24.7436 18.4456Z"
      fill="#FFAA5B" />
    <path
      d="M36.3745 17C37.5667 17 38.6358 17.7747 39.033 18.9273C39.1631 19.3035 38.9711 19.7168 38.6035 19.8499C38.3626 19.9386 38.1106 19.8717 37.9254 19.7143L34.9647 23.36V24.228C34.9647 24.6271 34.6494 24.9507 34.2598 24.9507C33.8702 24.9507 33.5549 24.6271 33.5549 24.228V19.8912C33.5549 18.297 34.8194 17 36.3745 17Z"
      fill="#A76120" />
    <path
      d="M38.4892 18.4456C39.7813 18.4456 41.0024 18.9542 41.9545 19.9071L50.9921 30.0241L49.9527 31.0004L49.7085 30.7269L41.5001 30.0241L34.9647 34.8716V35.0699C34.9647 35.469 34.6494 35.7927 34.2598 35.7927C33.8702 35.7927 33.5549 35.469 33.5549 35.0699V23.5052C33.5549 20.7153 35.7687 18.4456 38.4892 18.4456Z"
      fill="#FFAA5B" />
    <path
      d="M19.8092 44.4662C24.0916 44.4662 27.5631 40.9065 27.5631 36.5155C27.5631 32.1244 24.0916 28.5647 19.8092 28.5647C15.5269 28.5647 12.0554 32.1244 12.0554 36.5155C12.0554 40.9065 15.5269 44.4662 19.8092 44.4662Z"
      fill="white" fill-opacity="0.9" />
    <path
      d="M19.8092 26.3963C14.3676 26.3963 9.94067 30.9357 9.94067 36.5155C9.94067 42.0953 14.3676 46.6346 19.8092 46.6346C25.2509 46.6346 29.6778 42.0953 29.6778 36.5155C29.6778 30.9357 25.2509 26.3963 19.8092 26.3963ZM19.8092 43.7434C15.9225 43.7434 12.7603 40.5009 12.7603 36.5155C12.7603 32.5301 15.9225 29.2875 19.8092 29.2875C23.696 29.2875 26.8582 32.5301 26.8582 36.5155C26.8582 40.5009 23.696 43.7434 19.8092 43.7434Z"
      fill="#A76120" />
    <path
      d="M26.8416 27.1191H36.3909L36.4827 27.1176C35.3212 28.4951 34.6004 30.4157 34.6004 32.5401V35.0699H28.6321V32.5401C28.6321 30.4157 27.9114 28.4951 26.7498 27.1176"
      fill="#A76120" />
    <path
      d="M21.2191 37.9611C22.7763 37.9611 24.0387 36.6666 24.0387 35.0699C24.0387 33.4731 22.7763 32.1787 21.2191 32.1787C19.6619 32.1787 18.3995 33.4731 18.3995 35.0699C18.3995 36.6666 19.6619 37.9611 21.2191 37.9611Z"
      fill="white" fill-opacity="0.9" />
    <path
      d="M43.4235 44.4662C47.7058 44.4662 51.1773 40.9065 51.1773 36.5155C51.1773 32.1244 47.7058 28.5647 43.4235 28.5647C39.1411 28.5647 35.6696 32.1244 35.6696 36.5155C35.6696 40.9065 39.1411 44.4662 43.4235 44.4662Z"
      fill="white" fill-opacity="0.9" />
    <path
      d="M43.4235 26.3963C37.9818 26.3963 33.5549 30.9357 33.5549 36.5155C33.5549 42.0953 37.9818 46.6346 43.4235 46.6346C48.8651 46.6346 53.292 42.0953 53.292 36.5155C53.292 30.9357 48.8651 26.3963 43.4235 26.3963ZM43.4235 43.7434C39.5367 43.7434 36.3745 40.5009 36.3745 36.5155C36.3745 32.5301 39.5367 29.2875 43.4235 29.2875C47.3102 29.2875 50.4724 32.5301 50.4724 36.5155C50.4724 40.5009 47.3102 43.7434 43.4235 43.7434Z"
      fill="#FFAA5B" />
    <path
      d="M19.8092 26.3963C14.3676 26.3963 9.94067 30.9357 9.94067 36.5155C9.94067 42.0953 14.3676 46.6346 19.8092 46.6346C25.2509 46.6346 29.6778 42.0953 29.6778 36.5155C29.6778 30.9357 25.2509 26.3963 19.8092 26.3963ZM19.8092 43.7434C15.9225 43.7434 12.7603 40.5009 12.7603 36.5155C12.7603 32.5301 15.9225 29.2875 19.8092 29.2875C23.696 29.2875 26.8582 32.5301 26.8582 36.5155C26.8582 40.5009 23.696 43.7434 19.8092 43.7434Z"
      fill="#FFAA5B" />
    <path
      d="M45.7142 37.9611C47.2714 37.9611 48.5338 36.6666 48.5338 35.0699C48.5338 33.4731 47.2714 32.1787 45.7142 32.1787C44.157 32.1787 42.8946 33.4731 42.8946 35.0699C42.8946 36.6666 44.157 37.9611 45.7142 37.9611Z"
      fill="white" fill-opacity="0.9" />
    <path d="M36.5507 25.6735H26.8583V27.1191H36.5507V25.6735Z" fill="#FFAA5B" />
    <path
      d="M24.4502 32.9921C24.0048 32.1755 23.3924 31.5538 22.6129 31.1269C21.8335 30.7001 20.9241 30.4866 19.8848 30.4866C18.7342 30.4866 17.7134 30.7464 16.8226 31.2661C15.9318 31.7857 15.2358 32.5281 14.7348 33.4931C14.2337 34.4582 13.9831 35.5717 13.9831 36.8337C13.9831 38.1328 14.2337 39.2649 14.7348 40.2299C15.2544 41.195 15.9689 41.9373 16.8783 42.457C17.7877 42.9766 18.8455 43.2365 20.0518 43.2365C21.5365 43.2365 22.7521 42.8467 23.6986 42.0673C24.6451 41.2692 25.2668 40.165 25.5638 38.7545H18.8826V35.7759H29.4054V39.1721C29.1456 40.5269 28.5888 41.7796 27.7351 42.9302C26.8814 44.0809 25.7772 45.0088 24.4224 45.714C23.0862 46.4007 21.5829 46.7441 19.9126 46.7441C18.0382 46.7441 16.3401 46.3265 14.8183 45.4913C13.315 44.6376 12.1273 43.4592 11.255 41.9559C10.4013 40.4527 9.97444 38.7453 9.97444 36.8337C9.97444 34.9222 10.4013 33.2148 11.255 31.7115C12.1273 30.1897 13.315 29.0112 14.8183 28.1761C16.3401 27.3224 18.0289 26.8955 19.8848 26.8955C22.0747 26.8955 23.977 27.4337 25.5916 28.5101C27.2062 29.568 28.3197 31.0619 28.9322 32.9921H24.4502Z"
      fill="#A76120" />
    <path
      d="M43.3239 46.7719C41.5052 46.7719 39.8349 46.345 38.3131 45.4913C36.7913 44.6376 35.5849 43.4592 34.6941 41.9559C33.8033 40.4341 33.3579 38.7174 33.3579 36.8059C33.3579 34.9129 33.8033 33.2148 34.6941 31.7115C35.5849 30.1897 36.7913 29.0019 38.3131 28.1482C39.8349 27.2945 41.5052 26.8677 43.3239 26.8677C45.1612 26.8677 46.8315 27.2945 48.3348 28.1482C49.8566 29.0019 51.0536 30.1897 51.9259 31.7115C52.8167 33.2148 53.2621 34.9129 53.2621 36.8059C53.2621 38.7174 52.8167 40.4341 51.9259 41.9559C51.0536 43.4592 49.8566 44.6376 48.3348 45.4913C46.813 46.345 45.1427 46.7719 43.3239 46.7719ZM43.3239 43.2921C44.4931 43.2921 45.5231 43.0323 46.4139 42.5127C47.3048 41.9745 48.0007 41.2136 48.5018 40.2299C49.0029 39.2463 49.2534 38.105 49.2534 36.8059C49.2534 35.5068 49.0029 34.3747 48.5018 33.4096C48.0007 32.426 47.3048 31.6744 46.4139 31.1547C45.5231 30.6351 44.4931 30.3753 43.3239 30.3753C42.1547 30.3753 41.1154 30.6351 40.2061 31.1547C39.3152 31.6744 38.6193 32.426 38.1182 33.4096C37.6171 34.3747 37.3666 35.5068 37.3666 36.8059C37.3666 38.105 37.6171 39.2463 38.1182 40.2299C38.6193 41.2136 39.3152 41.9745 40.2061 42.5127C41.1154 43.0323 42.1547 43.2921 43.3239 43.2921Z"
      fill="#A76120" />
    <path
      d="M29.6339 37.5005L29.5458 38.2054L29.3696 38.9103V35.518H29.6339V35.6502L29.678 36.1788V36.7075L29.6339 37.5005Z"
      fill="#A76120" />
    <path fill-rule="evenodd" clip-rule="evenodd" d="M11 -1L65 53V57L7 -1H11ZM17 -1L65 46V22L42 -1H17Z" fill="white"
      fill-opacity="0.6" />
    <path
      d="M5 11C5 7.68629 7.68629 5 11 5H53C56.3137 5 59 7.68629 59 11V53C59 56.3137 56.3137 59 53 59H11C7.68629 59 5 56.3137 5 53V11Z"
      stroke="#DC9E2E" stroke-width="3" />
  </g>
  <defs>
    <clipPath id="clip0_3567_1289">
      <rect width="64" height="64" fill="white" />
    </clipPath>
  </defs>
</svg>