<svg width="24" height="20" viewBox="0 0 24 20" fill="none" xmlns="http://www.w3.org/2000/svg">
<g id="Group 11">
<path id="Vector" d="M22.5 8.57245H4.71L10.155 2.34444C10.4096 2.05272 10.5321 1.67664 10.4955 1.29892C10.459 0.921206 10.2663 0.572793 9.96 0.330331C9.65368 0.0878688 9.25875 -0.0287806 8.86211 0.00604446C8.46548 0.0408695 8.09961 0.224317 7.845 0.516029L0.345 9.08669C0.294541 9.15486 0.249419 9.22648 0.21 9.30096C0.21 9.37238 0.21 9.41523 0.105 9.48665C0.0370105 9.65044 0.00141168 9.82478 0 10.0009C0.00141168 10.177 0.0370105 10.3513 0.105 10.5151C0.105 10.5866 0.105 10.6294 0.21 10.7008C0.249419 10.7753 0.294541 10.8469 0.345 10.9151L7.845 19.4858C7.98603 19.647 8.16264 19.7767 8.36227 19.8656C8.5619 19.9544 8.77963 20.0003 9 20C9.35048 20.0006 9.69013 19.8844 9.96 19.6715C10.1119 19.5515 10.2374 19.4043 10.3295 19.2381C10.4215 19.0719 10.4782 18.89 10.4963 18.7029C10.5144 18.5158 10.4936 18.3272 10.435 18.1478C10.3765 17.9683 10.2813 17.8017 10.155 17.6574L4.71 11.4293H22.5C22.8978 11.4293 23.2794 11.2788 23.5607 11.011C23.842 10.7431 24 10.3797 24 10.0009C24 9.62205 23.842 9.25872 23.5607 8.99083C23.2794 8.72295 22.8978 8.57245 22.5 8.57245Z" fill="black" fill-opacity="0.8"/>
</g>
</svg>
