<svg width="177" height="296" viewBox="0 0 177 296" fill="none" xmlns="http://www.w3.org/2000/svg">
<path d="M42.6046 246.843C40.6957 241.365 43.3521 235.712 48.7025 233.866L67.7336 227.299C75.0418 224.778 83.2361 230.501 83.3666 238.217L84.0834 280.624C84.1845 286.608 79.2475 291.154 73.0661 290.766L65.6459 290.302C60.8271 290 56.5085 286.741 54.9322 282.218L42.6046 246.843Z" fill="url(#paint0_radial_9115_5644)"/>
<rect width="3.11958" height="4.84928" rx="1.55979" transform="matrix(-0.994684 0.102979 0.112898 0.993607 79.9727 286.161)" fill="#762B2B"/>
<rect width="3.11958" height="4.84928" rx="1.55979" transform="matrix(-0.994684 0.102979 0.112898 0.993607 73.7671 286.803)" fill="#762B2B"/>
<rect width="3.11958" height="4.84928" rx="1.55979" transform="matrix(-0.994684 0.102979 0.112898 0.993607 67.5607 287.446)" fill="#762B2B"/>
<path d="M131.349 246.843C133.258 241.365 130.602 235.712 125.251 233.866L106.22 227.299C98.9122 224.778 90.7179 230.501 90.5874 238.217L89.8706 280.624C89.7695 286.608 94.7065 291.154 100.888 290.766L108.308 290.302C113.127 290 117.445 286.741 119.022 282.218L131.349 246.843Z" fill="url(#paint1_radial_9115_5644)"/>
<rect width="3.11958" height="4.84928" rx="1.55979" transform="matrix(0.994684 0.102979 -0.112898 0.993607 93.9813 286.161)" fill="#762B2B"/>
<rect width="3.11958" height="4.84928" rx="1.55979" transform="matrix(0.994684 0.102979 -0.112898 0.993607 100.187 286.803)" fill="#762B2B"/>
<rect width="3.11958" height="4.84928" rx="1.55979" transform="matrix(0.994684 0.102979 -0.112898 0.993607 106.393 287.446)" fill="#762B2B"/>
<path d="M59.5061 143.144C66.3379 143.144 71.8762 148.683 71.8762 155.514C71.8762 162.346 66.338 167.885 59.5061 167.885C52.6743 167.885 47.136 162.346 47.136 155.514C47.136 148.683 52.6743 143.144 59.5061 143.144ZM113.353 143.144C120.185 143.144 125.723 148.683 125.723 155.514C125.723 162.346 120.185 167.885 113.353 167.885C106.521 167.885 100.983 162.346 100.983 155.514C100.983 148.683 106.521 143.144 113.353 143.144Z" fill="#E95755"/>
<path d="M59.7101 147.511C64.2423 147.511 67.917 151.185 67.9171 155.717C67.9171 160.249 64.2424 163.924 59.7101 163.924C55.1779 163.924 51.504 160.249 51.504 155.717C51.5042 151.185 55.178 147.511 59.7101 147.511Z" fill="#C93B3B"/>
<path d="M113.556 147.511C118.088 147.511 121.763 151.185 121.763 155.717C121.763 160.249 118.088 163.924 113.556 163.924C109.024 163.924 105.35 160.249 105.35 155.717C105.35 151.185 109.024 147.511 113.556 147.511Z" fill="#C93B3B"/>
<path d="M30.3225 211.882C26.5491 177.799 53.2314 148 87.5224 148C121.975 148 148.708 178.067 144.677 212.283L141.003 243.467C138.076 268.31 115.974 286.369 91.0435 284.313C88.52 284.105 85.9817 284.105 83.4582 284.313C58.5667 286.366 36.5618 268.237 33.8134 243.412L30.3225 211.882Z" fill="#E95755"/>
<rect x="64.601" y="196.673" width="45.1148" height="30.5616" rx="15.2808" fill="#F08988"/>
<rect x="78.9075" y="198.128" width="15.7178" height="7.85889" rx="3.92944" fill="#1E1E1E"/>
<rect x="85.4569" y="200.747" width="2.61963" height="10.4785" fill="#1E1E1E"/>
<path d="M78.7646 209.109C81.2603 210.49 88.0488 212.424 95.2366 209.109" stroke="#1E1E1E" stroke-width="4.16604" stroke-linecap="round"/>
<path d="M95.2865 206.364C95.1855 207.811 95.872 210.45 99.4256 209.434" stroke="#1E1E1E" stroke-width="4.16604" stroke-linecap="round"/>
<path d="M78.3283 206.364C78.4293 207.811 77.7428 210.45 74.1892 209.434" stroke="#1E1E1E" stroke-width="4.16604" stroke-linecap="round"/>
<path d="M45.6941 256.623C44.1084 240.223 60.3015 227.864 75.703 233.719L79.5323 235.175C85.3427 237.385 91.7771 237.294 97.523 234.922L100.156 233.835C114.972 227.72 131.25 238.611 131.25 254.639C131.25 264.349 125.022 272.965 115.801 276.01L102.087 280.539C93.3203 283.434 83.8486 283.394 75.106 280.426L60.6646 275.522C52.3928 272.714 46.5347 265.318 45.6941 256.623Z" fill="#F08988"/>
<path d="M105.986 190.852C104.124 188.655 99.1871 185.58 94.3438 190.852" stroke="#1E1E1E" stroke-width="4.36595" stroke-linecap="round"/>
<path d="M78.3354 190.851C76.4726 188.655 71.5362 185.58 66.6929 190.851" stroke="#1E1E1E" stroke-width="4.36595" stroke-linecap="round"/>
<path d="M71.9723 17.7443C74.6537 14.328 79.53 13.5868 83.1055 16.0519C85.9548 18.0165 89.7294 17.9861 92.5467 15.9759C96.082 13.4535 100.97 14.1161 103.706 17.4887C105.886 20.1764 109.516 21.2107 112.786 20.0757C116.889 18.6514 121.392 20.6641 123.067 24.671C124.402 27.8642 127.593 29.8793 131.05 29.7114C135.388 29.5007 139.141 32.7005 139.62 37.017C140.001 40.4569 142.496 43.2896 145.86 44.1024C150.081 45.1224 152.781 49.2501 152.024 53.5265C151.421 56.9345 153.017 60.3553 156.015 62.083C159.779 64.251 161.206 68.9721 159.275 72.862C157.736 75.9619 158.303 79.6937 160.694 82.1963C163.694 85.3367 163.733 90.2687 160.785 93.457C158.435 95.9977 157.927 99.7382 159.516 102.813C161.51 106.671 160.158 111.415 156.431 113.643C153.46 115.419 151.92 118.865 152.578 122.263C153.404 126.526 150.771 130.697 146.566 131.785C143.216 132.652 140.767 135.524 140.441 138.97C140.032 143.293 136.331 146.553 131.99 146.413C128.531 146.3 125.372 148.367 124.089 151.581C122.478 155.614 118.008 157.699 113.883 156.341C110.596 155.259 106.983 156.352 104.846 159.074C102.164 162.49 97.2882 163.232 93.7127 160.766C90.8634 158.802 87.0888 158.832 84.2715 160.842C80.7362 163.365 75.8486 162.702 73.1125 159.33C70.932 156.642 67.3018 155.608 64.0323 156.743C59.9295 158.167 55.4266 156.154 53.7515 152.147C52.4166 148.954 49.2248 146.939 45.768 147.107C41.4301 147.318 37.6767 144.118 37.1983 139.801C36.8171 136.361 34.3223 133.529 30.9582 132.716C26.7367 131.696 24.0368 127.568 24.7939 123.292C25.3972 119.884 23.8015 116.463 20.8027 114.735C17.0396 112.567 15.6119 107.846 17.5432 103.956C19.0822 100.856 18.5149 97.1245 16.1243 94.622C13.1244 91.4816 13.0847 86.5495 16.0336 83.3613C18.3836 80.8205 18.8907 77.0801 17.302 74.0053C15.3083 70.147 16.6597 65.4035 20.3875 63.1752C23.3581 61.3995 24.8985 57.9534 24.2403 54.5556C23.4145 50.2919 26.0475 46.1213 30.252 45.0335C33.6026 44.1666 36.0515 41.294 36.3773 37.8485C36.7861 33.5248 40.4875 30.265 44.8281 30.4057C48.2873 30.5179 51.4462 28.4517 52.7295 25.2375C54.3399 21.2041 58.8097 19.1191 62.9349 20.4771C66.2223 21.5593 69.8354 20.4667 71.9723 17.7443Z" fill="#FFAA5B" stroke="#A76120" stroke-width="3.63829"/>
<path d="M83.6577 32.8476C84.665 31.978 86.1339 31.9023 87.2252 32.6638L137.289 67.5936C139.562 69.1797 138.541 72.7447 135.773 72.8874L39.5026 77.8495C36.7343 77.9921 35.3525 74.5509 37.4507 72.7395L83.6577 32.8476Z" fill="#F6E4C9"/>
<rect x="36.9859" y="70.8365" width="100.703" height="63.7785" rx="2.91063" transform="rotate(-2.95057 36.9859 70.8365)" fill="#F6E4C9"/>
<mask id="mask0_9115_5644" style="mask-type:alpha" maskUnits="userSpaceOnUse" x="41" y="68" width="93" height="47">
<path d="M87.702 113.627C88.843 114.517 90.4643 114.433 91.5078 113.431L132.597 73.9673C134.541 72.1005 133.123 68.8225 130.431 68.9613L44.4129 73.3949C41.7215 73.5336 40.6478 76.94 42.773 78.597L87.702 113.627Z" fill="black"/>
<path d="M87.702 113.627C88.843 114.517 90.4643 114.433 91.5078 113.431L132.597 73.9673C134.541 72.1005 133.123 68.8225 130.431 68.9613L44.4129 73.3949C41.7215 73.5336 40.6478 76.94 42.773 78.597L87.702 113.627Z" fill="#F6E4C9" fill-opacity="0.8"/>
</mask>
<g mask="url(#mask0_9115_5644)">
<rect x="40.1999" y="35.3782" width="90.6326" height="90.6326" transform="rotate(-2.95057 40.1999 35.3782)" fill="#FAFAFA"/>
</g>
<rect x="40.9781" y="50.4635" width="90.6326" height="25.1757" transform="rotate(-2.95057 40.9781 50.4635)" fill="#FAFAFA"/>
<path d="M37.9557 196.775C20.07 183.553 19.0469 148.984 33.8665 139.924" stroke="#ED5656" stroke-width="36.3829" stroke-linecap="round"/>
<rect width="4.36595" height="8.73189" rx="2.18297" transform="matrix(0.580141 0.814516 0.814516 -0.580141 32.9999 123.066)" fill="#762B2B"/>
<rect width="4.36595" height="8.73189" rx="2.18297" transform="matrix(0.580141 0.814516 0.814516 -0.580141 38.0656 130.178)" fill="#762B2B"/>
<rect width="4.36595" height="8.73189" rx="2.18297" transform="matrix(0.580141 0.814516 0.814516 -0.580141 43.131 137.29)" fill="#762B2B"/>
<path d="M137.294 195.775C155.18 182.553 156.203 147.984 141.383 138.924" stroke="#ED5656" stroke-width="36.3829" stroke-linecap="round"/>
<rect x="141.776" y="123.066" width="4.36595" height="8.73189" rx="2.18297" transform="rotate(125.46 141.776 123.066)" fill="#762B2B"/>
<rect x="136.711" y="130.178" width="4.36595" height="8.73189" rx="2.18297" transform="rotate(125.46 136.711 130.178)" fill="#762B2B"/>
<rect x="131.645" y="137.29" width="4.36595" height="8.73189" rx="2.18297" transform="rotate(125.46 131.645 137.29)" fill="#762B2B"/>
<rect x="49.5151" y="194.216" width="14.7806" height="7.95876" rx="3.97938" fill="#F386CB"/>
<rect x="107.5" y="194.216" width="15.9175" height="7.95876" rx="3.97938" fill="#F386CB"/>
<defs>
<radialGradient id="paint0_radial_9115_5644" cx="0" cy="0" r="1" gradientTransform="matrix(7.80589 33.6908 -22.9212 3.31213 67.9771 259.003)" gradientUnits="userSpaceOnUse">
<stop stop-color="#833130"/>
<stop offset="1" stop-color="#E95755"/>
</radialGradient>
<radialGradient id="paint1_radial_9115_5644" cx="0" cy="0" r="1" gradientTransform="matrix(-7.80589 33.6908 22.9212 3.31213 105.977 259.003)" gradientUnits="userSpaceOnUse">
<stop stop-color="#833130"/>
<stop offset="1" stop-color="#E95755"/>
</radialGradient>
</defs>
</svg>
