<svg width="21" height="21" viewBox="0 0 21 21" fill="none" xmlns="http://www.w3.org/2000/svg">
  <rect x="1.05158" y="0.940378" width="18.6168" height="18.6168" rx="9.3084" fill="#C17E19" />
  <rect x="1.05158" y="0.940378" width="18.6168" height="18.6168" rx="9.3084" stroke="#FFC737" stroke-width="1.3832" />
  <path fill-rule="evenodd" clip-rule="evenodd"
    d="M10.6302 15.0774C10.4819 15.0876 7.44049 15.2522 6.10875 13.227C5.18098 11.816 5.41753 9.78066 5.46448 9.37669L5.46516 9.37079C5.49104 9.14845 5.52332 8.96526 5.54789 8.8407C4.8715 8.18695 4.66012 7.25937 4.99945 6.55736C5.21142 6.11866 5.6542 5.74441 6.21072 5.64801C6.85776 5.53602 7.52985 5.82514 7.93541 6.39285C8.34735 6.26903 8.83515 6.13511 9.39034 6.07759C9.45363 6.07102 9.51601 6.06394 9.57749 6.05696L9.5775 6.05696C9.76772 6.03538 9.9493 6.01477 10.1223 6.0132L10.3164 9.47764C10.3165 9.47764 10.3166 9.47763 10.3167 9.47763L10.1226 6.01319C10.2947 5.99542 10.4774 5.99561 10.6689 5.99581L10.6689 5.99581L10.6689 5.99581C10.7308 5.99588 10.7935 5.99594 10.8572 5.9954C11.4153 5.99054 11.915 6.06913 12.3382 6.14616C12.6778 5.5367 13.3134 5.17431 13.9689 5.21332C14.5327 5.24694 15.0145 5.56939 15.2742 5.98166C15.6898 6.64138 15.5833 7.58676 14.984 8.31199C15.0223 8.43303 15.0749 8.61147 15.1254 8.82952L15.1268 8.83531C15.2185 9.23151 15.681 11.2277 14.9166 12.7335C13.8195 14.8947 10.7787 15.071 10.6302 15.0774ZM10.6302 15.0774L10.5869 14.305L10.6302 15.0774ZM10.5872 14.305L10.6304 15.0774L10.6302 15.0774"
    fill="#FFC737" />
  <path
    d="M9.94386 13.7491L10.3739 13.7851C10.8794 13.8275 11.3688 13.5958 11.6564 13.1779C11.8518 12.8941 11.6863 12.5034 11.3465 12.4461L9.24087 12.0916C8.93927 12.0409 8.67592 12.2992 8.72085 12.6017C8.81291 13.2216 9.31935 13.6967 9.94386 13.7491Z"
    fill="#762B2B" />
  <path
    d="M10.7389 13.7596C10.3236 13.8931 9.6852 13.7909 9.37956 13.5654C8.93817 13.2397 9.50485 13.0737 10.0573 13.12C10.6559 13.1702 11.3374 13.5671 10.7389 13.7596Z"
    fill="#F08988" />
  <path
    d="M10.619 11.5646L10.395 11.5299C10.1418 11.4908 10.0061 11.8175 10.2124 11.9693C10.3414 12.0642 10.5087 12.0901 10.6603 12.0386C10.9029 11.9562 10.8722 11.6037 10.619 11.5646Z"
    fill="#403D3D" />
  <circle cx="8.6295" cy="10.8655" r="0.483638" transform="rotate(-3.20695 8.6295 10.8655)" fill="#403D3D" />
  <circle cx="12.0989" cy="10.7529" r="0.483638" transform="rotate(-3.20695 12.0989 10.7529)" fill="#403D3D" />
</svg>