<svg width="21" height="20" viewBox="0 0 21 20" fill="none" xmlns="http://www.w3.org/2000/svg">
  <rect x="1.05171" y="0.681834" width="18.6168" height="18.6168" rx="9.3084" fill="#FFC737" />
  <rect x="1.05171" y="0.681834" width="18.6168" height="18.6168" rx="9.3084" stroke="#FFDA79" stroke-width="1.3832" />
  <path fill-rule="evenodd" clip-rule="evenodd"
    d="M10.6303 14.8189C10.4819 14.829 7.44056 14.9936 6.10881 12.9685C5.18104 11.5575 5.41759 9.52211 5.46454 9.11815L5.46522 9.11225C5.4911 8.88991 5.52338 8.70672 5.54795 8.58215C4.87157 7.9284 4.66018 7.00083 4.99951 6.29881C5.21148 5.86012 5.65426 5.48586 6.21078 5.38946C6.85782 5.27748 7.52991 5.56659 7.93548 6.13431C8.34741 6.01048 8.83521 5.87657 9.3904 5.81904C9.45369 5.81247 9.51607 5.80539 9.57755 5.79842L9.57756 5.79842C9.76778 5.77683 9.94936 5.75623 10.1224 5.75466L10.3165 9.2191C10.3166 9.21909 10.3167 9.21909 10.3167 9.21908L10.1226 5.75464C10.2947 5.73687 10.4775 5.73707 10.6689 5.73727L10.6689 5.73727L10.6689 5.73727C10.7308 5.73733 10.7936 5.7374 10.8572 5.73686C11.4154 5.732 11.9151 5.81059 12.3383 5.88762C12.6779 5.27815 13.3134 4.91577 13.969 4.95477C14.5328 4.9884 15.0146 5.31085 15.2742 5.72312C15.6899 6.38283 15.5834 7.32821 14.9841 8.05345C15.0224 8.17448 15.0749 8.35292 15.1255 8.57098L15.1268 8.57677C15.2186 8.97296 15.681 10.9692 14.9167 12.475C13.8195 14.6362 10.7788 14.8124 10.6303 14.8189ZM10.6303 14.8189L10.587 14.0465L10.6303 14.8189ZM10.5872 14.0465L10.6305 14.8189L10.6303 14.8189"
    fill="#E95755" />
  <path
    d="M9.94392 13.4905L10.3739 13.5266C10.8794 13.569 11.3689 13.3373 11.6565 12.9194C11.8518 12.6355 11.6864 12.2448 11.3466 12.1876L9.24093 11.8331C8.93934 11.7823 8.67598 12.0406 8.72091 12.3432C8.81298 12.9631 9.31941 13.4382 9.94392 13.4905Z"
    fill="#762B2B" />
  <path
    d="M10.739 13.501C10.3237 13.6345 9.68529 13.5324 9.37965 13.3069C8.93826 12.9812 9.50494 12.8151 10.0574 12.8615C10.656 12.9117 11.3375 13.3085 10.739 13.501Z"
    fill="#F08988" />
  <path
    d="M10.619 11.306L10.395 11.2714C10.1418 11.2322 10.0061 11.5589 10.2124 11.7108C10.3414 11.8057 10.5087 11.8315 10.6603 11.78C10.9029 11.6976 10.8722 11.3452 10.619 11.306Z"
    fill="white" />
  <circle cx="8.62957" cy="10.6069" r="0.483638" transform="rotate(-3.20695 8.62957 10.6069)" fill="white" />
  <circle cx="12.099" cy="10.4944" r="0.483638" transform="rotate(-3.20695 12.099 10.4944)" fill="white" />
</svg>