<svg width="13" height="14" viewBox="0 0 13 14" fill="none" xmlns="http://www.w3.org/2000/svg">
<path d="M7.86583 11.9C8.47133 11.9 8.79123 12.6168 8.38733 13.0676C8.12495 13.3612 7.80348 13.5961 7.44398 13.7567C7.08449 13.9174 6.6951 14.0003 6.30133 14C5.90756 14.0003 5.51817 13.9174 5.15868 13.7567C4.79918 13.5961 4.47771 13.3612 4.21533 13.0676C3.82893 12.6364 4.10473 11.9623 4.65913 11.9049L4.73613 11.9007L7.86583 11.9ZM6.30133 0C7.25193 0 8.05553 0.6321 8.31383 1.4987L8.34603 1.6184L8.35163 1.6485C9.1233 2.08383 9.78087 2.69577 10.2705 3.4342C10.7601 4.17263 11.0678 5.01653 11.1684 5.8968L11.188 6.0977L11.2013 6.3V8.3517L11.216 8.4469C11.3119 8.96268 11.5973 9.4239 12.0161 9.7398L12.133 9.8217L12.2464 9.891C12.8484 10.2319 12.6384 11.1272 11.9825 11.1958L11.9013 11.2H0.70133C-0.0182697 11.2 -0.26957 10.2452 0.35623 9.891C0.622951 9.74006 0.853403 9.53257 1.03141 9.2831C1.20941 9.03362 1.33066 8.74821 1.38663 8.4469L1.40133 8.3468L1.40203 6.2678C1.44471 5.35352 1.71084 4.46363 2.17713 3.67603C2.64342 2.88843 3.29565 2.22712 4.07673 1.75L4.25033 1.6478L4.25733 1.6177C4.35635 1.19912 4.58139 0.820986 4.90209 0.534335C5.22279 0.247685 5.6237 0.0663142 6.05073 0.0146999L6.17813 0.00279996L6.30133 0Z" fill="black"/>
</svg>
