<svg width="19" height="16" viewBox="0 0 19 16" fill="none" xmlns="http://www.w3.org/2000/svg">
<path d="M9.08333 11.0417H2.41667C1.97464 11.0417 1.55072 10.8749 1.23816 10.5779C0.925595 10.281 0.75 9.87826 0.75 9.45833C0.75 9.03841 0.925595 8.63568 1.23816 8.33875C1.55072 8.04182 1.97464 7.875 2.41667 7.875H15.75C16.192 7.875 16.616 8.04182 16.9285 8.33875C17.2411 8.63568 17.4167 9.03841 17.4167 9.45833C17.4167 9.87826 17.2411 10.281 16.9285 10.5779C16.616 10.8749 16.192 11.0417 15.75 11.0417H12.2083M3.25 7.875C2.80797 7.875 2.38405 7.70819 2.07149 7.41125C1.75893 7.11432 1.58333 6.71159 1.58333 6.29167C1.58333 4.82193 2.37351 3.41238 3.78003 2.37312C5.18656 1.33385 7.09421 0.75 9.08333 0.75C11.0725 0.75 12.9801 1.33385 14.3866 2.37312C15.7932 3.41238 16.5833 4.82193 16.5833 6.29167C16.5833 6.71159 16.4077 7.11432 16.0952 7.41125C15.7826 7.70819 15.3587 7.875 14.9167 7.875M3.25 11.0417C2.80797 11.0417 2.38405 11.2085 2.07149 11.5054C1.75893 11.8023 1.58333 12.2051 1.58333 12.625C1.58333 13.2549 1.84673 13.859 2.31557 14.3044C2.78441 14.7498 3.42029 15 4.08333 15H14.0833C14.7464 15 15.3823 14.7498 15.8511 14.3044C16.3199 13.859 16.5833 13.2549 16.5833 12.625C16.5833 12.2051 16.4077 11.8023 16.0952 11.5054C15.7826 11.2085 15.3587 11.0417 14.9167 11.0417M4.64167 7.875L9.75 11.5167C10.1036 11.7686 10.5481 11.8768 10.9857 11.8174C11.2024 11.788 11.4108 11.7184 11.5992 11.6124C11.7875 11.5065 11.952 11.3663 12.0833 11.2L14.7083 7.875" stroke="#A4A4A4" stroke-width="1.5" stroke-linecap="round" stroke-linejoin="round"/>
</svg>
