<svg width="62" height="58" viewBox="0 0 62 58" fill="none" xmlns="http://www.w3.org/2000/svg">
<g filter="url(#filter0_d_8721_16471)">
<rect x="10" y="10" width="38" height="38" rx="19" fill="#ED5656" shape-rendering="crispEdges"/>
<rect x="9" y="9" width="40" height="40" rx="20" stroke="#ED5656" stroke-width="2" shape-rendering="crispEdges"/>
<path d="M29 31.5556H21.8C21.3226 31.5556 20.8648 31.3683 20.5272 31.0349C20.1896 30.7015 20 30.2493 20 29.7778C20 29.3063 20.1896 28.8541 20.5272 28.5207C20.8648 28.1873 21.3226 28 21.8 28H36.2C36.6774 28 37.1352 28.1873 37.4728 28.5207C37.8104 28.8541 38 29.3063 38 29.7778C38 30.2493 37.8104 30.7015 37.4728 31.0349C37.1352 31.3683 36.6774 31.5556 36.2 31.5556H32.375M22.7 28C22.2226 28 21.7648 27.8127 21.4272 27.4793C21.0896 27.1459 20.9 26.6937 20.9 26.2222C20.9 24.572 21.7534 22.9893 23.2724 21.8224C24.7915 20.6556 26.8517 20 29 20C31.1483 20 33.2085 20.6556 34.7276 21.8224C36.2466 22.9893 37.1 24.572 37.1 26.2222C37.1 26.6937 36.9104 27.1459 36.5728 27.4793C36.2352 27.8127 35.7774 28 35.3 28M22.7 31.5556C22.2226 31.5556 21.7648 31.7429 21.4272 32.0763C21.0896 32.4097 20.9 32.8618 20.9 33.3333C20.9 34.0406 21.1845 34.7189 21.6908 35.219C22.1972 35.719 22.8839 36 23.6 36H34.4C35.1161 36 35.8028 35.719 36.3092 35.219C36.8155 34.7189 37.1 34.0406 37.1 33.3333C37.1 32.8618 36.9104 32.4097 36.5728 32.0763C36.2352 31.7429 35.7774 31.5556 35.3 31.5556M24.203 28L29.72 32.0889C30.1019 32.3718 30.582 32.4933 31.0546 32.4266C31.2886 32.3936 31.5137 32.3153 31.7171 32.1964C31.9205 32.0775 32.0982 31.9201 32.24 31.7333L35.075 28" stroke="#FAFAFA" stroke-width="2" stroke-linecap="round" stroke-linejoin="round"/>
</g>
<defs>
<filter id="filter0_d_8721_16471" x="-4" y="0" width="66" height="66" filterUnits="userSpaceOnUse" color-interpolation-filters="sRGB">
<feFlood flood-opacity="0" result="BackgroundImageFix"/>
<feColorMatrix in="SourceAlpha" type="matrix" values="0 0 0 0 0 0 0 0 0 0 0 0 0 0 0 0 0 0 127 0" result="hardAlpha"/>
<feOffset dy="4"/>
<feGaussianBlur stdDeviation="6"/>
<feComposite in2="hardAlpha" operator="out"/>
<feColorMatrix type="matrix" values="0 0 0 0 0 0 0 0 0 0 0 0 0 0 0 0 0 0 0.12 0"/>
<feBlend mode="normal" in2="BackgroundImageFix" result="effect1_dropShadow_8721_16471"/>
<feBlend mode="normal" in="SourceGraphic" in2="effect1_dropShadow_8721_16471" result="shape"/>
</filter>
</defs>
</svg>
