<svg width="20" height="19" viewBox="0 0 20 19" fill="none" xmlns="http://www.w3.org/2000/svg">
<path d="M10.0001 12.6664H3.33341C2.89139 12.6664 2.46746 12.4996 2.1549 12.2026C1.84234 11.9057 1.66675 11.503 1.66675 11.083C1.66675 10.6631 1.84234 10.2604 2.1549 9.96346C2.46746 9.66653 2.89139 9.49971 3.33341 9.49971H16.6667C17.1088 9.49971 17.5327 9.66653 17.8453 9.96346C18.1578 10.2604 18.3334 10.6631 18.3334 11.083C18.3334 11.503 18.1578 11.9057 17.8453 12.2026C17.5327 12.4996 17.1088 12.6664 16.6667 12.6664H13.1251M4.16675 9.49971C3.72472 9.49971 3.3008 9.3329 2.98824 9.03596C2.67568 8.73903 2.50008 8.3363 2.50008 7.91638C2.50008 6.44664 3.29026 5.03709 4.69678 3.99783C6.1033 2.95856 8.01096 2.37471 10.0001 2.37471C11.9892 2.37471 13.8969 2.95856 15.3034 3.99783C16.7099 5.03709 17.5001 6.44664 17.5001 7.91638C17.5001 8.3363 17.3245 8.73903 17.0119 9.03596C16.6994 9.3329 16.2754 9.49971 15.8334 9.49971M4.16675 12.6664C3.72472 12.6664 3.3008 12.8332 2.98824 13.1301C2.67568 13.4271 2.50008 13.8298 2.50008 14.2497C2.50008 14.8796 2.76347 15.4837 3.23231 15.9291C3.70116 16.3745 4.33704 16.6247 5.00008 16.6247H15.0001C15.6631 16.6247 16.299 16.3745 16.7678 15.9291C17.2367 15.4837 17.5001 14.8796 17.5001 14.2497C17.5001 13.8298 17.3245 13.4271 17.0119 13.1301C16.6994 12.8332 16.2754 12.6664 15.8334 12.6664M5.55841 9.49971L10.6667 13.1414C11.0204 13.3933 11.4649 13.5015 11.9025 13.4421C12.1191 13.4127 12.3276 13.3431 12.5159 13.2371C12.7042 13.1312 12.8688 12.9911 13.0001 12.8247L15.6251 9.49971" stroke="#A4A4A4" stroke-width="1.26" stroke-linecap="round" stroke-linejoin="round"/>
</svg>
