<svg width="24" height="24" viewBox="0 0 24 24" fill="none" xmlns="http://www.w3.org/2000/svg">
<path d="M11.9988 5.39989C11.7717 5.39973 11.5492 5.46404 11.3571 5.58533C11.1651 5.70662 11.0115 5.87992 10.914 6.08509C10.8645 6.19383 10.7938 6.29161 10.7061 6.37274C10.6183 6.45387 10.5154 6.51672 10.4031 6.55762C10.2908 6.59852 10.1715 6.61666 10.0522 6.61098C9.93283 6.60529 9.81581 6.5759 9.70793 6.52452C9.60006 6.47313 9.5035 6.40078 9.42389 6.31168C9.34427 6.22258 9.28319 6.11852 9.24422 6.00557C9.20524 5.89262 9.18915 5.77304 9.19687 5.65381C9.2046 5.53457 9.23599 5.41807 9.28921 5.31109C9.48577 4.89879 9.77387 4.5368 10.1316 4.25275C10.4892 3.96869 10.9071 3.77006 11.3532 3.672C11.7993 3.57394 12.2619 3.57904 12.7057 3.68691C13.1496 3.79478 13.5629 4.00258 13.9143 4.29445C14.2656 4.58632 14.5457 4.95456 14.7331 5.3711C14.9205 5.78764 15.0103 6.24147 14.9957 6.698C14.9811 7.15452 14.8624 7.60168 14.6488 8.00539C14.4351 8.40909 14.1321 8.75868 13.7628 9.02749C13.4832 9.23029 13.2504 9.42349 13.0908 9.61909C12.9324 9.80869 12.8988 9.93589 12.8988 10.0187C12.8988 10.1723 12.9828 10.3127 13.116 10.3859L20.9496 14.6819C21.4182 14.9388 21.788 15.3444 22.0007 15.8346C22.2134 16.3249 22.2569 16.872 22.1244 17.3898C21.9918 17.9075 21.6907 18.3664 21.2686 18.6941C20.8464 19.0219 20.3272 19.1998 19.7928 19.1999H4.20481C3.66969 19.2005 3.14965 19.0226 2.72709 18.6943C2.30453 18.3659 2.00363 17.906 1.87206 17.3873C1.74049 16.8686 1.78578 16.3208 2.00075 15.8307C2.21572 15.3407 2.58807 14.9364 3.05882 14.6819L9.47161 11.2091C9.57568 11.1509 9.69028 11.1139 9.80876 11.1003C9.92724 11.0868 10.0472 11.0969 10.1618 11.1301C10.2763 11.1633 10.3831 11.2189 10.4759 11.2938C10.5688 11.3686 10.6458 11.4612 10.7026 11.566C10.7594 11.6709 10.7947 11.786 10.8066 11.9047C10.8185 12.0233 10.8067 12.1432 10.7719 12.2572C10.7371 12.3713 10.68 12.4773 10.6038 12.5691C10.5277 12.6609 10.4341 12.7366 10.3284 12.7919L3.91681 16.2647C3.79826 16.3284 3.70441 16.43 3.65021 16.5532C3.596 16.6764 3.58453 16.8142 3.61764 16.9447C3.65074 17.0752 3.72651 17.1909 3.8329 17.2733C3.93929 17.3558 4.0702 17.4004 4.20481 17.3999H19.7928C19.9277 17.4 20.0588 17.3551 20.1654 17.2724C20.272 17.1897 20.348 17.0739 20.3814 16.9432C20.4149 16.8125 20.4038 16.6743 20.35 16.5506C20.2963 16.4269 20.2028 16.3246 20.0844 16.2599L12.252 11.9639C11.9035 11.7727 11.6128 11.4914 11.4102 11.1494C11.2075 10.8075 11.1004 10.4174 11.1 10.0199C11.1 9.37429 11.388 8.85469 11.7012 8.47429C12.0108 8.09869 12.3948 7.79749 12.7044 7.57189C12.9099 7.42315 13.0629 7.21312 13.1416 6.97198C13.2202 6.73084 13.2204 6.47097 13.1422 6.2297C13.0639 5.98843 12.9112 5.77815 12.706 5.62906C12.5008 5.47998 12.2537 5.39975 12 5.39989" fill="black"/>
</svg>
