<?xml version="1.0" standalone="no"?>
<!DOCTYPE svg PUBLIC "-//W3C//DTD SVG 20010904//EN"
 "http://www.w3.org/TR/2001/REC-SVG-20010904/DTD/svg10.dtd">
<svg version="1.0" xmlns="http://www.w3.org/2000/svg"
 width="24.000000pt" height="24.000000pt" viewBox="0 0 24.000000 24.000000"
 preserveAspectRatio="xMidYMid meet">

<g transform="translate(0.000000,24.000000) scale(0.100000,-0.100000)"
fill="#000000" stroke="none">
<path d="M40 226 l-35 -13 -3 -101 c-2 -63 1 -102 7 -102 6 0 22 5 36 12 20 9
36 9 71 0 35 -10 55 -10 85 -1 l39 12 0 105 c0 91 -2 103 -16 98 -9 -3 -18 -6
-20 -6 -2 0 -4 -7 -4 -15 0 -8 5 -15 10 -15 14 0 13 -133 -2 -148 -28 -28 -38
-13 -38 53 0 37 -4 65 -10 65 -6 0 -10 -28 -10 -65 0 -67 -5 -74 -41 -55 -16
9 -19 22 -19 86 0 64 2 75 15 70 9 -3 15 0 15 9 0 8 -4 15 -9 15 -5 0 -15 2
-23 4 -7 3 -29 -1 -48 -8z m30 -91 c0 -62 -3 -76 -19 -84 -27 -15 -31 -5 -31
70 0 54 4 70 18 78 30 18 32 13 32 -64z"/>
<path d="M142 224 c-11 -12 -10 -17 2 -30 15 -14 17 -14 32 0 14 14 14 18 0
31 -18 18 -18 18 -34 -1z"/>
</g>
</svg>
