<?xml version="1.0" encoding="UTF-8"?>
<svg version="1.1" xmlns="http://www.w3.org/2000/svg" width="30" height="30">
<path d="M0 0 C5.94 0 11.88 0 18 0 C18 10.66666667 18 10.66666667 17 16 C16 17 16 17 12.875 17.1328125 C11.59625 17.13023438 10.3175 17.12765625 9 17.125 C7.72125 17.12757812 6.4425 17.13015625 5.125 17.1328125 C2 17 2 17 1 16 C-0.03436981 10.483361 0 5.75490052 0 0 Z " fill="#F95151" transform="translate(6,9)"/>
<path d="M0 0 C0.66 0 1.32 0 2 0 C2 0.66 2 1.32 2 2 C3.670625 1.9690625 3.670625 1.9690625 5.375 1.9375 C9 2 9 2 11 3 C11 3.66 11 4.32 11 5 C4.4 5 -2.2 5 -9 5 C-9 4.34 -9 3.68 -9 3 C-6.04335481 1.5216774 -3.25770263 1.93967217 0 2 C0 1.34 0 0.68 0 0 Z " fill="#F95151" transform="translate(14,2)"/>
</svg>
