<svg width="15" height="14" viewBox="0 0 15 14" fill="none" xmlns="http://www.w3.org/2000/svg">
<path fill-rule="evenodd" clip-rule="evenodd" d="M7.05774 1.74471e-06C5.31863 1.74471e-06 3.61218 0.15751 1.94774 0.458525C0.830073 0.66066 0.0577393 1.76234 0.0577393 2.9979V7.50263C0.0577393 8.73907 0.830073 9.839 1.94774 10.042C2.85618 10.2065 3.77707 10.3281 4.70885 10.4043C4.92663 10.4218 5.11407 10.5618 5.20818 10.7657L6.54052 13.6472C6.58983 13.7536 6.66412 13.8427 6.75531 13.9049C6.8465 13.9671 6.9511 14 7.05774 14C7.16438 14 7.26898 13.9671 7.36017 13.9049C7.45136 13.8427 7.52565 13.7536 7.57496 13.6472L8.90729 10.7657C8.9562 10.6625 9.02776 10.5751 9.11516 10.5119C9.20257 10.4486 9.30291 10.4116 9.40663 10.4043C10.3312 10.3286 11.2525 10.2077 12.1677 10.042C13.2854 9.83987 14.0577 8.73819 14.0577 7.50263V2.9979C14.0577 1.76147 13.2854 0.661535 12.1677 0.458525C10.478 0.152733 8.76921 -0.00059665 7.05774 1.74471e-06ZM4.52996 3.50018C4.37525 3.50018 4.22688 3.56932 4.11748 3.6924C4.00809 3.81548 3.94663 3.9824 3.94663 4.15646C3.94663 4.33052 4.00809 4.49745 4.11748 4.62052C4.22688 4.7436 4.37525 4.81274 4.52996 4.81274H9.58552C9.74023 4.81274 9.8886 4.7436 9.998 4.62052C10.1074 4.49745 10.1688 4.33052 10.1688 4.15646C10.1688 3.9824 10.1074 3.81548 9.998 3.6924C9.8886 3.56932 9.74023 3.50018 9.58552 3.50018H4.52996ZM4.52996 5.68779C4.37525 5.68779 4.22688 5.75693 4.11748 5.88001C4.00809 6.00309 3.94663 6.17001 3.94663 6.34407C3.94663 6.51813 4.00809 6.68506 4.11748 6.80813C4.22688 6.93121 4.37525 7.00035 4.52996 7.00035H7.25218C7.40689 7.00035 7.55527 6.93121 7.66466 6.80813C7.77406 6.68506 7.83552 6.51813 7.83552 6.34407C7.83552 6.17001 7.77406 6.00309 7.66466 5.88001C7.55527 5.75693 7.40689 5.68779 7.25218 5.68779H4.52996Z" fill="black"/>
</svg>
