<svg width="14" height="17" viewBox="0 0 14 17" fill="none" xmlns="http://www.w3.org/2000/svg">
<path d="M3.04226 11.9996C2.33582 11.9996 1.76124 11.7272 1.33038 11.1866C0.899516 10.646 0.616754 9.84371 0.452095 8.67645C0.209638 6.95624 0.450221 5.50635 1.12948 4.59408C1.5294 4.05678 2.05431 3.74614 2.64733 3.69614C3.15505 3.65281 3.91398 3.87246 4.64698 5.1627C5.10596 5.97065 5.45496 7.0439 5.60462 8.10716C5.78553 9.39074 5.65086 10.3357 5.19282 10.9953C4.82913 11.5193 4.26986 11.8439 3.5303 11.9619C3.36871 11.9872 3.20559 11.9998 3.04226 11.9996ZM4.26611 16.4902C3.85337 16.4902 3.435 16.3492 3.0582 16.0783C2.51446 15.6852 2.13809 15.0791 2.01088 14.3917C1.92184 13.9031 1.97526 13.5148 2.17398 13.2038C2.49673 12.6988 3.07601 12.5852 3.68902 12.4645C3.7537 12.4519 3.81931 12.4392 3.88586 12.4255C4.02709 12.3969 4.17144 12.3589 4.31141 12.3219C4.83569 12.1839 5.3781 12.0409 5.82583 12.3802C6.12547 12.6068 6.2945 12.9921 6.34511 13.5574C6.4026 14.2097 6.27138 14.8607 5.97549 15.3906C5.65711 15.9609 5.1797 16.3379 4.63198 16.4526C4.51145 16.4777 4.38892 16.4903 4.26611 16.4902ZM10.6765 8.79978C10.5134 8.79919 10.3505 8.78582 10.1891 8.75978C9.44988 8.64312 8.8906 8.31815 8.52691 7.79318C8.06887 7.13356 7.93327 6.18896 8.11511 4.90506C8.26477 3.8408 8.61284 2.76854 9.06963 1.9636C9.79888 0.678021 10.5587 0.455037 11.0693 0.494367C11.6604 0.540364 12.1844 0.846676 12.5849 1.38097C13.2689 2.29324 13.5113 3.74747 13.268 5.47535C13.1033 6.64193 12.8243 7.44021 12.3897 7.9855C11.9551 8.5308 11.383 8.79978 10.6765 8.79978ZM9.45269 13.2905C9.33019 13.2904 9.20798 13.2778 9.08775 13.2528C8.5391 13.1381 8.06169 12.7612 7.74424 12.1909C7.44836 11.6609 7.31713 11.01 7.37462 10.3577C7.42461 9.79104 7.59333 9.40707 7.8939 9.18009C8.34164 8.84111 8.88404 8.98377 9.40832 9.12209C9.5483 9.15875 9.69265 9.19675 9.83387 9.22575L10.0304 9.26475C10.6437 9.38507 11.223 9.49806 11.5458 10.0037C11.7445 10.3147 11.7979 10.7036 11.7089 11.1916C11.5817 11.8792 11.2054 12.4854 10.6615 12.8785C10.2825 13.1498 9.86418 13.2905 9.45269 13.2905Z" fill="#58B171"/>
</svg>
