<svg width="20" height="19" viewBox="0 0 20 19" fill="none" xmlns="http://www.w3.org/2000/svg">
<path d="M8.83911 11.8H10.6367C11.1134 11.8 11.5707 11.6209 11.9078 11.3021C12.2449 10.9833 12.4343 10.5509 12.4343 10.1C12.4343 9.64913 12.2449 9.21673 11.9078 8.89792C11.5707 8.57911 11.1134 8.4 10.6367 8.4H7.94032C7.40105 8.4 6.95166 8.57 6.68202 8.91L1.64879 13.5M5.24395 16.9L6.68202 15.71C6.95166 15.37 7.40105 15.2 7.94032 15.2H11.5355C12.5242 15.2 13.4229 14.86 14.0521 14.18L18.1865 10.44C18.5334 10.13 18.7358 9.70245 18.7493 9.25133C18.7628 8.80021 18.5862 8.36251 18.2584 8.0345C17.9307 7.70649 17.4786 7.51506 17.0015 7.5023C16.5245 7.48955 16.0617 7.65653 15.7149 7.9665L11.9399 11.2815M0.75 12.65L6.14274 17.75M15.9396 6.7C15.9396 8.06138 14.7726 9.165 13.3331 9.165C11.8935 9.165 10.7266 8.06138 10.7266 6.7C10.7266 5.33862 11.8935 4.235 13.3331 4.235C14.7726 4.235 15.9396 5.33862 15.9396 6.7ZM7.04153 3.3C7.04153 4.70833 5.83433 5.85 4.34516 5.85C2.856 5.85 1.64879 4.70833 1.64879 3.3C1.64879 1.89167 2.856 0.75 4.34516 0.75C5.83433 0.75 7.04153 1.89167 7.04153 3.3Z" stroke="#A4A4A4" stroke-width="1.5" stroke-linecap="round" stroke-linejoin="round"/>
</svg>
