<?xml version="1.0" encoding="UTF-8"?>
<!-- Generated by Pixelmator Pro 3.5.8 -->
<svg width="3600" height="3600" viewBox="0 0 3600 3600" xmlns="http://www.w3.org/2000/svg">
    <g id="Group-578">
        <g id="Group-323">
            <path id="Vector" fill="none" stroke="#6e6e6e" stroke-width="164.056" stroke-linecap="round" d="M 1000 1266.5 L 1333.329956 1266.5 M 2500 1266.5 L 1666.670044 1266.5 M 1000 1849.839966 L 2000 1849.839966 M 2500 1849.839966 L 2333.330078 1849.839966 M 1000 2433.169922 L 1166.670044 2433.169922 M 2500 2433.169922 L 1500 2433.169922"/>
            <path id="Vector2" fill="none" stroke="#6e6e6e" stroke-width="164.056" stroke-linecap="round" d="M 1499.969971 1433.330078 C 1592.01001 1433.330078 1666.630005 1358.710205 1666.630005 1266.669922 C 1666.630005 1174.620117 1592.01001 1100 1499.969971 1100 C 1407.919922 1100 1333.300049 1174.620117 1333.300049 1266.669922 C 1333.300049 1358.710205 1407.919922 1433.330078 1499.969971 1433.330078 Z"/>
            <path id="Vector3" fill="none" stroke="#6e6e6e" stroke-width="164.056" stroke-linecap="round" d="M 2166.640137 2016.869873 C 2258.690186 2016.869873 2333.309814 1942.25 2333.309814 1850.200073 C 2333.309814 1758.149902 2258.690186 1683.530029 2166.640137 1683.530029 C 2074.589844 1683.530029 1999.97998 1758.149902 1999.97998 1850.200073 C 1999.97998 1942.25 2074.589844 2016.869873 2166.640137 2016.869873 Z"/>
            <path id="Vector4" fill="none" stroke="#6e6e6e" stroke-width="164.056" stroke-linecap="round" d="M 1333.23999 2599.97998 C 1425.290039 2599.97998 1499.909912 2525.359863 1499.909912 2433.310059 C 1499.909912 2341.27002 1425.290039 2266.649902 1333.23999 2266.649902 C 1241.199951 2266.649902 1166.579956 2341.27002 1166.579956 2433.310059 C 1166.579956 2525.359863 1241.199951 2599.97998 1333.23999 2599.97998 Z"/>
        </g>
    </g>
</svg>
