<svg width="36" height="36" viewBox="0 0 36 36" fill="none" xmlns="http://www.w3.org/2000/svg">
<g id="Group 578">
<g id="Group 323">
<path id="Vector" d="M10 12.665H13.3333M25 12.665H16.6667M10 18.4984H20M25 18.4984H23.3333M10 24.3317H11.6667M25 24.3317H15" stroke="#6E6E6E" stroke-width="1.64056" stroke-linecap="round"/>
<path id="Vector_2" d="M14.9997 14.3333C15.9201 14.3333 16.6663 13.5871 16.6663 12.6667C16.6663 11.7462 15.9201 11 14.9997 11C14.0792 11 13.333 11.7462 13.333 12.6667C13.333 13.5871 14.0792 14.3333 14.9997 14.3333Z" stroke="#6E6E6E" stroke-width="1.64056" stroke-linecap="round"/>
<path id="Vector_3" d="M21.6664 20.1687C22.5869 20.1687 23.3331 19.4225 23.3331 18.502C23.3331 17.5815 22.5869 16.8353 21.6664 16.8353C20.7459 16.8353 19.9998 17.5815 19.9998 18.502C19.9998 19.4225 20.7459 20.1687 21.6664 20.1687Z" stroke="#6E6E6E" stroke-width="1.64056" stroke-linecap="round"/>
<path id="Vector_4" d="M13.3324 25.9998C14.2529 25.9998 14.9991 25.2536 14.9991 24.3331C14.9991 23.4127 14.2529 22.6665 13.3324 22.6665C12.412 22.6665 11.6658 23.4127 11.6658 24.3331C11.6658 25.2536 12.412 25.9998 13.3324 25.9998Z" stroke="#6E6E6E" stroke-width="1.64056" stroke-linecap="round"/>
</g>
</g>
</svg>
