<svg width="14" height="14" viewBox="0 0 14 14" fill="none" xmlns="http://www.w3.org/2000/svg">
<path d="M5.775 7.7C5.775 8.183 5.383 8.575 4.9 8.575C4.417 8.575 4.025 8.183 4.025 7.7C4.025 7.217 4.417 6.825 4.9 6.825C5.383 6.825 5.775 7.217 5.775 7.7ZM9.1 6.825C8.617 6.825 8.225 7.217 8.225 7.7C8.225 8.183 8.617 8.575 9.1 8.575C9.583 8.575 9.975 8.183 9.975 7.7C9.975 7.217 9.583 6.825 9.1 6.825ZM14 7C14 10.864 10.864 14 7 14C3.136 14 0 10.864 0 7C0 3.136 3.136 0 7 0C10.864 0 14 3.136 14 7ZM7 1.4C6.54866 1.4 6.31998 1.90457 6.61412 2.24691C7.63984 3.44075 9.15731 4.2 10.85 4.2C11.3013 4.2 11.53 3.69543 11.2359 3.35309C10.2102 2.15925 8.69269 1.4 7 1.4ZM2.6915 3.4335C2.22971 3.99172 2.79671 4.47472 3.2585 3.9165C3.72029 3.35828 3.15329 2.87528 2.6915 3.4335ZM12.6 7C12.6 6.98021 12.5999 6.96044 12.5997 6.9407C12.5901 6.07685 11.7139 5.6 10.85 5.6C10.0024 5.6 9.19046 5.44915 8.43884 5.17299C6.84752 4.58831 4.49984 4.93196 3.14225 5.94739C2.64004 6.32303 2.08552 6.63342 1.49181 6.86666C1.43965 6.88716 1.4 6.94396 1.4 7C1.4 10.087 3.913 12.6 7 12.6C10.087 12.6 12.6 10.087 12.6 7Z" fill="black"/>
</svg>
