<svg width="208" height="114" viewBox="0 0 208 114" fill="none" xmlns="http://www.w3.org/2000/svg">
<path fill-rule="evenodd" clip-rule="evenodd" d="M65.0165 110.845C63.3596 110.949 29.3893 112.578 14.6579 89.8756C4.39508 74.0575 7.17549 51.3471 7.72731 46.8398L7.73537 46.7739C8.0395 44.2931 8.41241 42.2499 8.69534 40.8607C1.18767 33.5149 -1.1092 23.1434 2.72766 15.3282C5.12442 10.4443 10.0939 6.29576 16.3145 5.25746C23.5468 4.05127 31.0313 7.3254 35.521 13.692C40.1289 12.3376 45.5847 10.8757 51.7878 10.2713C52.4949 10.2023 53.1919 10.1275 53.8789 10.0538C56.0043 9.82579 58.0332 9.60813 59.9653 9.60244L61.8954 48.289C61.8963 48.289 61.8972 48.2889 61.898 48.2889L59.9679 9.60231C61.891 9.41566 63.9314 9.43029 66.069 9.44562C66.7599 9.45058 67.4609 9.4556 68.1714 9.45393C74.4038 9.43782 79.978 10.3495 84.6979 11.2385C88.5315 4.4566 95.653 0.453749 102.969 0.934071C109.262 1.34805 114.62 4.98137 117.491 9.60239C122.087 16.997 120.834 27.5455 114.092 35.6023C114.512 36.9564 115.086 38.9524 115.636 41.3906L115.65 41.4553C116.648 45.8853 121.675 68.2061 113.038 84.9673C100.639 109.024 66.6754 110.783 65.0165 110.845ZM65.0165 110.845L65.0191 110.845L64.5882 102.209C64.5874 102.209 64.5865 102.209 64.5856 102.209L65.0165 110.845Z" fill="#E95755"/>
<path d="M57.4595 95.9429L62.2583 96.3749C67.8997 96.8827 73.3806 94.3288 76.6204 89.6827C78.8213 86.5264 77.0004 82.1525 73.21 81.4905L49.7235 77.3883C46.3594 76.8008 43.4012 79.6669 43.8822 83.0479C44.8678 89.9758 50.49 95.3155 57.4595 95.9429Z" fill="#762B2B"/>
<path d="M66.3206 96.0749C61.675 97.5375 54.5536 96.3533 51.1563 93.8143C46.2501 90.1476 52.5889 88.3323 58.7546 88.8873C65.4342 89.4886 73.0169 93.9666 66.3206 96.0749Z" fill="#F08988"/>
<path d="M63.0466 74.7291L62.5317 77.9281" stroke="#1E1E1E" stroke-width="3.71959" stroke-linecap="round" stroke-linejoin="round"/>
<path d="M59.723 75.4499L60.772 76.2317C62.072 77.2006 63.7635 77.4729 65.3018 76.9608L66.5432 76.5477C69.004 75.7286 68.7148 72.1588 66.1541 71.7466L61.5989 71.0134C59.0383 70.6013 57.6434 73.9001 59.723 75.4499Z" fill="#1E1E1E"/>
<circle cx="42.9768" cy="63.6766" r="5.40025" transform="rotate(-2.85623 42.9768 63.6766)" fill="#1E1E1E"/>
<circle cx="81.7159" cy="62.6642" r="5.40025" transform="rotate(-2.85623 81.7159 62.6642)" fill="#1E1E1E"/>
<ellipse cx="162.292" cy="55.2429" rx="17.9091" ry="30.9966" transform="rotate(20.8179 162.292 55.2429)" fill="white"/>
<ellipse cx="167.524" cy="39.5458" rx="30.9966" ry="28.2413" transform="rotate(20.8179 167.524 39.5458)" fill="white"/>
<path fill-rule="evenodd" clip-rule="evenodd" d="M175.033 18.154C161.826 13.345 147.303 20.075 142.556 33.1104C139.878 40.4663 140.871 48.276 144.625 54.567C145.031 55.2474 145.19 56.0472 145.076 56.8314C144.612 59.9886 144.229 63.6852 143.989 66.233C143.939 66.7682 144.189 67.1085 144.491 67.2551C146.536 68.2379 150.034 69.7792 155.509 71.773C160.985 73.7669 164.655 74.8373 166.853 75.3978C167.179 75.4797 167.589 75.3798 167.895 74.9377C169.349 72.8318 171.432 69.7545 173.108 67.0385C173.524 66.3635 174.161 65.8528 174.91 65.5927C181.828 63.1912 187.612 57.8474 190.29 50.4915C195.037 37.4561 188.24 22.963 175.033 18.154ZM136.084 30.7536C142.15 14.0937 160.659 5.58936 177.39 11.6816C194.121 17.7738 202.829 36.1883 196.762 52.8483C193.494 61.8239 186.603 68.4392 178.336 71.6693C176.793 74.0949 175.201 76.4899 173.563 78.8527C172.223 80.7929 170.096 82.08 167.739 82.285L166.661 84.4764C165.035 87.7842 161.424 90.0117 157.458 89.1303C155.483 88.6915 152.957 88.0027 149.993 86.9233C146.875 85.788 144.537 84.68 142.856 83.7655C139.742 82.0653 138.528 78.6583 139.046 75.526C139.206 74.5525 139.4 73.4248 139.625 72.1927C137.788 70.5102 136.899 68.0441 137.131 65.5849C137.396 62.7226 137.717 59.8658 138.094 57.0161C133.841 49.2275 132.815 39.7292 136.084 30.7536ZM180.581 46.9564C181.949 43.2013 181.768 39.0569 180.08 35.4349C178.392 31.8128 175.333 29.0098 171.578 27.6425C170.72 27.33 170.021 26.6893 169.635 25.8614C169.249 25.0335 169.208 24.0863 169.521 23.228C169.833 22.3697 170.474 21.6707 171.302 21.2848C172.13 20.8988 173.077 20.8576 173.935 21.1701C185.33 25.3192 191.203 37.9184 187.054 49.3131C186.741 50.1714 186.101 50.8704 185.273 51.2563C184.445 51.6422 183.498 51.6835 182.639 51.3709C181.781 51.0584 181.082 50.4177 180.696 49.5898C180.31 48.7619 180.269 47.8146 180.581 46.9564Z" fill="#FFAA5B"/>
</svg>
