<svg width="121" height="215" viewBox="0 0 121 215" fill="none" xmlns="http://www.w3.org/2000/svg">
<path d="M43.9552 116.881C46.0075 108.056 66.3869 99.2919 76.3526 90.4381C85.1876 83.0085 92.4663 94.0987 93.4036 101.645C95.0453 114.866 61.3973 129.219 51.9729 130.409C44.7456 131.322 42.265 124.148 43.9552 116.881Z" fill="#E95755"/>
<path d="M11.9581 137.349C14.4604 146.057 0.923678 163.632 -3.47254 176.217C-7.57429 187.007 -19.3305 180.862 -23.8223 174.726C-31.6913 163.976 -9.28369 135.061 -1.63036 129.434C4.23869 125.119 9.8973 130.178 11.9581 137.349Z" fill="#E95755"/>
<path d="M32.14 139.667C24.122 143.886 20.8012 165.82 14.758 177.702C9.8065 188.13 22.3778 192.365 29.9158 191.361C43.1217 189.603 48.4906 153.418 47.257 143.999C46.311 136.776 38.743 136.192 32.14 139.667Z" fill="#E95755"/>
<ellipse cx="54.0893" cy="104.797" rx="19.1838" ry="11.77" transform="rotate(-28.5415 54.0893 104.797)" fill="#C93B3B"/>
<path d="M12.808 168.411C8.93966 167.349 -13.6327 159.438 -7.08028 137.941C1.17093 110.87 15.7294 99.5136 30.6607 103.337L30.6616 103.334C30.7291 103.353 30.7964 103.371 30.8634 103.39C30.9308 103.408 30.9983 103.426 31.0657 103.445L31.0648 103.448C45.857 107.779 52.5823 124.975 45.8645 152.466C40.5299 174.297 17.063 169.578 13.2121 168.521L12.808 168.411Z" fill="#E95755"/>
<path d="M14.7741 117.97C10.945 126.181 -10.8043 130.552 -22.3824 137.159C-32.5604 142.605 -37.394 130.252 -36.754 122.675C-35.6323 109.399 0.253105 102.299 9.72039 103.078C16.9805 103.676 17.9275 111.208 14.7741 117.97Z" fill="#E95755"/>
<path d="M32.8716 186.527C34.6728 184.111 39.0803 181.721 42.7494 162.386C44.5953 152.659 45.0318 143.891 45.5189 128.565" stroke="#C93B3B" stroke-width="7.20618" stroke-linecap="round" stroke-linejoin="round"/>
<ellipse cx="17.7247" cy="145.351" rx="15.6933" ry="23.54" transform="rotate(18.3735 17.7247 145.351)" fill="#F08988"/>
<ellipse cx="29.2404" cy="107.826" rx="15.301" ry="7.06199" transform="rotate(15.3415 29.2404 107.826)" fill="#F08988"/>
<path fill-rule="evenodd" clip-rule="evenodd" d="M34.073 112.522C32.8749 112.383 8.37545 109.179 0.762157 91.0511C-4.54145 78.4205 0.367757 62.5395 1.34208 59.3876L1.35632 59.3415C1.89287 57.6068 2.42233 56.1938 2.80331 55.2369C-1.62005 49.0187 -1.92835 41.3074 1.82037 36.2127C4.16232 33.0289 8.24929 30.7017 12.8307 30.7594C18.1572 30.8272 23.0878 34.131 25.4791 39.2609C28.9481 38.8851 33.0372 38.5415 37.5503 38.9073C38.0648 38.9489 38.5728 38.985 39.0735 39.0207L39.0736 39.0207C40.6227 39.1311 42.1013 39.2364 43.4836 39.4808L39.8876 67.3913C39.8882 67.3913 39.8889 67.3914 39.8895 67.3915L43.4855 39.4811C44.8845 39.595 46.3416 39.8679 47.8681 40.1538C48.3615 40.2462 48.8621 40.34 49.3703 40.4302C53.8287 41.2203 57.6972 42.5891 60.9577 43.8319C64.5712 39.4757 70.1782 37.5296 75.3479 38.8141C79.7943 39.9195 83.158 43.2066 84.6164 46.8801C86.9514 52.7586 84.6985 60.14 78.8416 65.0336C78.9676 66.0558 79.1217 67.5569 79.201 69.371L79.2031 69.4191C79.3467 72.715 80.0702 89.3218 71.7383 100.196C59.7787 115.802 35.2671 112.692 34.073 112.522ZM34.073 112.522L34.0748 112.523L34.8775 106.292C34.8769 106.292 34.8763 106.292 34.8757 106.292L34.073 112.522Z" fill="#E95755"/>
<path d="M30.5865 100.895L33.9622 101.821C37.9306 102.91 42.1782 101.789 45.0923 98.8832C47.072 96.9094 46.3326 93.5478 43.7075 92.5868L27.4416 86.6327C25.1117 85.7798 22.6279 87.4487 22.5369 89.9281C22.3505 95.0086 25.6838 99.5498 30.5865 100.895Z" fill="#762B2B"/>
<path d="M36.9051 102.129C33.3952 102.577 28.4556 100.814 26.353 98.562C23.3165 95.3091 28.0824 94.8265 32.4197 96.0164C37.1185 97.3055 41.9643 101.483 36.9051 102.129Z" fill="#F08988"/>
<path d="M37.3096 86.4448L36.5299 88.666" stroke="white" stroke-opacity="0.5" stroke-width="2.70232" stroke-linecap="round" stroke-linejoin="round"/>
<path d="M34.8408 86.5329L35.4903 87.2269C36.2952 88.0869 37.4697 88.4991 38.6355 88.3309L39.5763 88.1951C41.4412 87.926 41.6935 85.3362 39.9156 84.7122L36.7528 83.602C34.9749 82.9779 33.5532 85.1572 34.8408 86.5329Z" fill="#461A19"/>
<path d="M29.3716 77.8696C29.3716 77.8696 27.7739 76.5017 25.1452 76.0947C22.5165 75.6878 20.6164 76.5143 20.6164 76.5143" stroke="#461A19" stroke-width="2.21488" stroke-linecap="round"/>
<path d="M57.8252 82.2759C57.8252 82.2759 56.2276 80.9079 53.5988 80.501C50.9701 80.094 49.07 80.9205 49.07 80.9205" stroke="#461A19" stroke-width="2.21488" stroke-linecap="round"/>
</svg>
