<svg width="133" height="189" viewBox="0 0 133 189" fill="none" xmlns="http://www.w3.org/2000/svg">
<path d="M78.2955 99.7636C77.731 90.7287 94.7257 76.4995 101.727 65.1691C108.054 55.5258 118.2 64.0549 121.259 71.0095C126.62 83.1936 98.5262 106.574 89.8467 110.415C83.1907 113.36 78.7604 107.204 78.2955 99.7636Z" fill="#E95755"/>
<path d="M53.535 128.525C58.4257 136.142 50.5055 156.844 49.9042 170.149C49.0704 181.653 36.0568 179.14 29.9989 174.554C19.3863 166.52 32.5475 132.422 38.2604 124.843C42.6414 119.03 49.5074 122.251 53.535 128.525Z" fill="#E95755"/>
<path d="M73.5166 124.959C67.0513 131.295 70.1585 153.242 67.7794 166.346C66.0284 177.747 79.2747 178.197 86.2023 175.077C98.3387 169.609 93.1077 133.436 89.2277 124.774C86.2523 118.132 78.8411 119.741 73.5166 124.959Z" fill="#E95755"/>
<ellipse cx="84.5332" cy="85.2928" rx="19.1673" ry="11.7599" transform="rotate(-45.2094 84.5332 85.2928)" fill="#C93B3B"/>
<path d="M63.2503 158.012C59.2435 158.105 35.3709 157.001 35.4819 134.547C35.6218 106.271 46.3021 91.2292 61.6896 90.6102L61.6895 90.6067C61.7594 90.605 61.8291 90.6037 61.8988 90.6027C61.9684 90.6005 62.0382 90.5986 62.108 90.597L62.1081 90.6005C77.5078 90.5066 88.8729 105.038 90.3213 133.277C91.4716 155.702 67.6576 157.91 63.6688 158.002L63.2503 158.012Z" fill="#E95755"/>
<path d="M50.6768 109.168C49.3649 118.125 29.7999 128.541 20.6112 138.183C12.4301 146.313 4.26329 135.874 2.70438 128.438C-0.0263439 115.41 32.2868 98.3295 41.572 96.3628C48.6925 94.8545 51.7572 101.792 50.6768 109.168Z" fill="#E95755"/>
<path d="M87.6464 169.603C88.6779 166.773 92.2117 163.223 90.1827 143.665C89.1618 133.825 87.0671 125.308 83.1412 110.499" stroke="#C93B3B" stroke-width="7.2" stroke-linecap="round" stroke-linejoin="round"/>
<ellipse cx="61.3479" cy="134.53" rx="15.6799" ry="23.5198" transform="rotate(1.7055 61.3479 134.53)" fill="#F08988"/>
<ellipse cx="61.616" cy="95.3131" rx="15.2879" ry="7.05593" transform="rotate(-1.32647 61.616 95.3131)" fill="#F08988"/>
<path fill-rule="evenodd" clip-rule="evenodd" d="M67.5879 98.4239C66.4013 98.6341 42.0331 102.588 29.5508 87.4185C20.8548 76.8489 21.0025 60.2413 21.0318 56.9453L21.0323 56.8971C21.0487 55.0829 21.1505 53.5787 21.241 52.5536C15.2251 47.8695 12.7201 40.5768 14.8482 34.6261C16.1774 30.9075 19.4224 27.5088 23.8241 26.2511C28.9418 24.7895 34.6079 26.5388 38.3669 30.7636C41.5797 29.4098 45.3952 27.909 49.8197 26.9658C50.324 26.8581 50.8206 26.7472 51.31 26.6379L51.31 26.6378L51.3101 26.6378L51.3102 26.6378C52.8246 26.2995 54.2701 25.9765 55.6632 25.8144L60.2198 53.5597C60.2204 53.5596 60.221 53.5595 60.2217 53.5594L55.665 25.8141C57.0368 25.5222 58.5097 25.3658 60.0527 25.202C60.5514 25.1491 61.0575 25.0954 61.5698 25.036C66.0636 24.5146 70.1587 24.7162 73.6357 24.9714C75.846 19.7662 80.655 16.2966 85.9714 16.0446C90.5442 15.8284 94.7057 18.0107 97.1544 21.1089C101.074 26.0664 101.033 33.7772 96.8294 40.1397C97.243 41.082 97.8206 42.4746 98.4164 44.1883L98.4322 44.2337C99.5142 47.3472 104.966 63.0353 100.107 75.831C93.1322 94.1961 68.7793 98.2435 67.5879 98.4239ZM67.5879 98.4239L67.5897 98.4235L66.5726 92.2301C66.572 92.2302 66.5713 92.2303 66.5707 92.2304L67.5879 98.4239Z" fill="#E95755"/>
<path d="M60.9184 88.2934L64.4149 88.2124C68.5253 88.1173 72.2696 85.8269 74.2263 82.2108C75.5556 79.7543 73.8845 76.7486 71.0964 76.5811L53.821 75.5435C51.3465 75.3949 49.4473 77.7041 50.0708 80.1033C51.3484 85.0196 55.8402 88.411 60.9184 88.2934Z" fill="#762B2B"/>
<path d="M67.32 87.6642C64.0889 89.0991 58.8557 88.8275 56.1977 87.2741C52.3591 85.0307 56.7825 83.203 61.275 83.099C66.142 82.9863 71.9773 85.5958 67.32 87.6642Z" fill="#F08988"/>
<path d="M63.2129 72.5358L63.1032 74.8853" stroke="#762B2B" stroke-width="2.7" stroke-linecap="round" stroke-linejoin="round"/>
<path d="M60.875 73.3278L61.6955 73.8059C62.7124 74.3983 63.9547 74.4564 65.0224 73.9612L65.8839 73.5617C67.5918 72.7697 67.0912 70.2185 65.2106 70.1307L61.8651 69.9745C59.9845 69.8867 59.2483 72.38 60.875 73.3278Z" fill="black" fill-opacity="0.7"/>
<ellipse cx="47.8335" cy="66.2057" rx="3.91996" ry="3.91996" transform="rotate(-9.32647 47.8335 66.2057)" fill="black" fill-opacity="0.7"/>
<ellipse cx="75.6919" cy="62.3068" rx="3.91996" ry="3.91996" transform="rotate(-9.32647 75.6919 62.3068)" fill="black" fill-opacity="0.7"/>
</svg>
