<svg width="26" height="27" viewBox="0 0 26 27" fill="none" xmlns="http://www.w3.org/2000/svg">
<g clip-path="url(#clip0_4189_1393)">
<path d="M-0.000488281 4.05933C-0.000488281 2.2644 1.45459 0.809326 3.24951 0.809326H22.7495C24.5444 0.809326 25.9995 2.2644 25.9995 4.05933V23.5593C25.9995 25.3543 24.5444 26.8093 22.7495 26.8093H3.24951C1.45459 26.8093 -0.000488281 25.3543 -0.000488281 23.5593V4.05933Z" fill="#F0C7E9"/>
<path fill-rule="evenodd" clip-rule="evenodd" d="M6.90581 0.403076L26.4058 19.4968V9.74683L17.0621 0.403076H6.90581ZM4.4682 0.403091L26.4057 22.3406V23.9656L2.8432 0.403091H4.4682Z" fill="white" fill-opacity="0.6"/>
<path d="M2.03082 5.27808C2.03082 3.93188 3.12213 2.84058 4.46832 2.84058H21.5308C22.877 2.84058 23.9683 3.93188 23.9683 5.27808V22.3406C23.9683 23.6868 22.877 24.7781 21.5308 24.7781H4.46832C3.12213 24.7781 2.03082 23.6868 2.03082 22.3406V5.27808Z" stroke="#835A7C" stroke-width="1.21875"/>
<path d="M13.4217 18.3322V17.8379V17.8348V17.8343C13.422 17.6347 13.4514 17.4362 13.5092 17.2455C13.6884 16.6525 14.2283 15.1251 15.4517 13.6668C15.9817 13.0348 16.2762 12.2203 16.2762 11.3728C16.2762 9.43419 14.7717 7.89429 12.9691 7.89429C11.2205 7.89429 9.65824 9.35357 9.66344 11.3714L13.4217 18.3322ZM13.4217 18.3322H12.5167V17.8379L12.5167 17.8342L12.5167 17.8332C12.5163 17.6381 12.4885 17.4426 12.4317 17.2531L12.4316 17.253C12.2552 16.6655 11.7177 15.1346 10.4867 13.6668L10.4867 13.6667C9.95402 13.0317 9.66582 12.2224 9.66344 11.3715L13.4217 18.3322ZM10.9783 21.8627L10.9785 21.8629L14.5377 21.5942L14.9595 21.8627L14.9596 21.8625C14.9597 21.8624 14.9597 21.8623 14.9598 21.8622L15.6885 20.7176L15.6887 20.7173C15.7921 20.5547 15.8459 20.3662 15.8464 20.1759L15.8464 20.1749L15.8479 18.8328L15.8485 18.3379H15.8494V17.9066C16.1268 16.97 16.8373 15.8347 17.2916 15.2932L17.2918 15.293C18.1717 14.2431 18.7039 12.8717 18.7039 11.3728C18.7039 8.09646 16.1568 5.40234 12.9691 5.40234C9.61371 5.40234 7.23428 8.24371 7.23428 11.3728C7.23428 12.8717 7.7664 14.2431 8.64676 15.2928C9.10116 15.8347 9.81164 16.97 10.089 17.9063V18.3379H10.0898L10.0902 18.8327L10.0914 20.1744H10.5914L10.0914 20.1748L10.0914 20.1745C10.0914 20.3662 10.1455 20.555 10.2495 20.7179C10.2496 20.718 10.2497 20.7182 10.2498 20.7184L10.9783 21.8627Z" fill="#CA5CB7" stroke="#FCF0FA"/>
</g>
<defs>
<clipPath id="clip0_4189_1393">
<rect width="26" height="26" fill="white" transform="translate(0 0.809082)"/>
</clipPath>
</defs>
</svg>
