<svg width="24" height="24" viewBox="0 0 24 24" fill="none" xmlns="http://www.w3.org/2000/svg">
<path d="M19 4H17V6L15 6V4L13 4V2L15 2V0H17V2L19 2V4Z" fill="currentColor"/>
<path fill-rule="evenodd" clip-rule="evenodd" d="M23.333 0C23.7062 0 23.9998 0.283996 24 0.645508V20.1758C24 20.4729 23.7995 20.7055 23.5195 20.7959L16 23.25L8 20.5371L0.879883 23.2109L0.666992 23.25C0.293771 23.25 0.000176294 22.966 0 22.6045V3.07422C0 2.77714 0.200469 2.54452 0.480469 2.4541L8 0L12 1.35645V4.09473L9.33301 3.19043V18.251L14.667 20.0596V7H17.333V20.085L21.333 18.7812L21.5 3.5L20 4.03418V1.20996L23.1201 0.0390625L23.333 0ZM2.66699 4.46875V19.7754L6.66699 18.2773V3.16504L2.66699 4.46875Z" fill="currentColor"/>
</svg>
