<svg width="25" height="24" viewBox="0 0 25 24" fill="none" xmlns="http://www.w3.org/2000/svg">
<path d="M6.875 21.2759C6.875 22.3804 5.97957 23.2759 4.875 23.2759H2C0.895431 23.2759 0 22.3804 0 21.2759V10.2759C0 9.17131 0.89543 8.27588 2 8.27588H4.875C5.97957 8.27588 6.875 9.17131 6.875 10.2759V21.2759ZM15.9375 2.77588C15.9375 1.67131 15.0421 0.775879 13.9375 0.775879H11.0625C9.95793 0.775879 9.0625 1.67131 9.0625 2.77588V21.2759C9.0625 22.3804 9.95793 23.2759 11.0625 23.2759H13.9375C15.0421 23.2759 15.9375 22.3804 15.9375 21.2759V2.77588ZM25 12.7759C25 11.6713 24.1046 10.7759 23 10.7759H20.125C19.0204 10.7759 18.125 11.6713 18.125 12.7759V21.2759C18.125 22.3804 19.0204 23.2759 20.125 23.2759H23C24.1046 23.2759 25 22.3804 25 21.2759V12.7759Z" fill="#835A7C"/>
</svg>
