<svg width="27" height="27" viewBox="0 0 27 27" fill="none" xmlns="http://www.w3.org/2000/svg">
  <g clip-path="url(#clip0_4321_1292)">
    <rect x="-0.000549316" y="0.115967" width="26.3442" height="26.3442" rx="3.29303" fill="#F0C7E9" />
    <path fill-rule="evenodd" clip-rule="evenodd"
      d="M6.99731 -0.295654L26.7555 19.0509V9.17181L17.288 -0.295654H6.99731ZM4.52737 -0.295609L26.7553 21.9323V23.5789L2.88086 -0.295609H4.52737Z"
      fill="white" fill-opacity="0.6" />
    <path
      d="M2.05762 4.64384C2.05762 3.27983 3.16337 2.17407 4.52739 2.17407H21.8158C23.1798 2.17407 24.2856 3.27983 24.2856 4.64384V21.9323C24.2856 23.2963 23.1798 24.402 21.8158 24.402H4.52739C3.16337 24.402 2.05762 23.2963 2.05762 21.9323V4.64384Z"
      stroke="#835A7C" stroke-width="1.23489" />
    <path
      d="M18.8448 7.72982H9.0859V7.03276C9.0859 6.64778 8.77382 6.33569 8.38884 6.33569C8.00386 6.33569 7.69177 6.64778 7.69177 7.03276V19.5799C7.69177 19.9649 8.00386 20.277 8.38884 20.277C8.77382 20.277 9.0859 19.9649 9.0859 19.5799V14.7005H18.8448L17.4507 11.2151L18.8448 7.72982ZM14.6624 11.2151C14.6624 11.9819 14.0351 12.6093 13.2683 12.6093C12.5015 12.6093 11.8742 11.9819 11.8742 11.2151C11.8742 10.4484 12.5015 9.82102 13.2683 9.82102C14.0351 9.82102 14.6624 10.4484 14.6624 11.2151Z"
      fill="#CA5CB7" />
    <ellipse cx="13.2683" cy="11.2393" rx="1.53835" ry="1.4422" fill="#FBFBFB" />
  </g>
  <defs>
    <clipPath id="clip0_4321_1292">
      <rect width="26.66" height="26.66" fill="white" transform="translate(0 0.116211)" />
    </clipPath>
  </defs>
</svg>