<svg width="12" height="12" viewBox="0 0 12 12" fill="none" xmlns="http://www.w3.org/2000/svg">
<path d="M2.12218 1.76529C2.30937 1.76529 2.48888 1.69094 2.62124 1.55858C2.75359 1.42622 2.82795 1.24671 2.82795 1.05953C2.82795 0.872346 2.75359 0.692831 2.62124 0.560474C2.48888 0.428117 2.30937 0.35376 2.12218 0.35376H0.71065C0.523469 0.35376 0.343954 0.428117 0.211597 0.560474C0.0792404 0.692831 0.00488281 0.872346 0.00488281 1.05953V10.9403C0.00488281 11.1274 0.0792404 11.307 0.211597 11.4393C0.343954 11.5717 0.523469 11.646 0.71065 11.646H2.12218C2.30937 11.646 2.48888 11.5717 2.62124 11.4393C2.75359 11.307 2.82795 11.1274 2.82795 10.9403C2.82795 10.7531 2.75359 10.5736 2.62124 10.4412C2.48888 10.3089 2.30937 10.2345 2.12218 10.2345C1.7324 10.2345 1.41642 9.91852 1.41642 9.52873V2.47106C1.41642 2.08128 1.7324 1.76529 2.12218 1.76529ZM11.8759 5.59055L9.88562 2.76748C9.77769 2.61533 9.6139 2.5121 9.43007 2.48036C9.24624 2.44862 9.05732 2.49095 8.90461 2.5981C8.82828 2.65159 8.7633 2.71966 8.71342 2.7984C8.66354 2.87714 8.62975 2.96497 8.614 3.05684C8.59826 3.1487 8.60086 3.24278 8.62166 3.33363C8.64247 3.42448 8.68107 3.51032 8.73522 3.58617C9.24414 4.3022 8.7322 5.29413 7.85374 5.29413H4.23949C4.05231 5.29413 3.87279 5.36849 3.74043 5.50084C3.60808 5.6332 3.53372 5.81272 3.53372 5.9999C3.53372 6.18708 3.60808 6.36659 3.74043 6.49895C3.87279 6.63131 4.05231 6.70566 4.23949 6.70566H7.76832C8.6407 6.70566 9.13867 7.7016 8.61524 8.39951C8.55963 8.47365 8.51917 8.55803 8.49617 8.64781C8.47317 8.73759 8.46807 8.83103 8.48118 8.92278C8.49429 9.01453 8.52534 9.1028 8.57256 9.18255C8.61978 9.2623 8.68225 9.33197 8.7564 9.38758C8.87856 9.4792 9.02715 9.52873 9.17986 9.52873C9.28942 9.52873 9.39749 9.50322 9.49549 9.45422C9.59348 9.40522 9.67873 9.33408 9.74447 9.24643L11.8618 6.42336C11.9522 6.30399 12.0022 6.15897 12.0048 6.00926C12.0073 5.85955 11.9622 5.71292 11.8759 5.59055Z" fill="black"/>
</svg>
