<svg width="19" height="18" viewBox="0 0 19 18" fill="none" xmlns="http://www.w3.org/2000/svg">
<g id="Vector">
<path d="M9.6279 12.7503C11.2431 12.7503 12.5526 11.4409 12.5526 9.82564C12.5526 8.2104 11.2431 6.90098 9.6279 6.90098C8.01266 6.90098 6.70325 8.2104 6.70325 9.82564C6.70325 11.4409 8.01266 12.7503 9.6279 12.7503Z" fill="white"/>
<path d="M6.88605 0.686279L5.21352 2.51419H2.31628C1.31093 2.51419 0.488377 3.33674 0.488377 4.34209V15.3095C0.488377 16.3149 1.31093 17.1374 2.31628 17.1374H16.9395C17.9449 17.1374 18.7674 16.3149 18.7674 15.3095V4.34209C18.7674 3.33674 17.9449 2.51419 16.9395 2.51419H14.0423L12.3698 0.686279H6.88605ZM9.62791 14.3956C7.1054 14.3956 5.05814 12.3483 5.05814 9.82581C5.05814 7.3033 7.1054 5.25605 9.62791 5.25605C12.1504 5.25605 14.1977 7.3033 14.1977 9.82581C14.1977 12.3483 12.1504 14.3956 9.62791 14.3956Z" fill="white"/>
</g>
</svg>
