<svg width="49" height="48" viewBox="0 0 49 48" fill="none" xmlns="http://www.w3.org/2000/svg">
<g id="Group 563" filter="url(#filter0_d_4042_2128)">
<circle id="Ellipse 39" cx="24.3027" cy="22.209" r="16.4512" fill="white"/>
<path id="Vector" d="M30.9681 19.7348C31.5439 20.3106 32.5283 19.9028 32.5283 19.0885V14.8974C32.5283 14.3926 32.1191 13.9834 31.6144 13.9834H27.4232C26.6089 13.9834 26.2011 14.9679 26.7769 15.5436L28.2236 16.9903L19.0841 26.1298L17.6374 24.6831C17.0616 24.1074 16.0771 24.5152 16.0771 25.3294V29.5206C16.0771 30.0254 16.4863 30.4346 16.9911 30.4346H21.1823C21.9965 30.4346 22.4043 29.4501 21.8286 28.8743L20.3819 27.4277L29.5214 18.2881L30.9681 19.7348Z" fill="#835A7C"/>
</g>
<defs>
<filter id="filter0_d_4042_2128" x="0.539935" y="0.274092" width="47.5256" height="47.5256" filterUnits="userSpaceOnUse" color-interpolation-filters="sRGB">
<feFlood flood-opacity="0" result="BackgroundImageFix"/>
<feColorMatrix in="SourceAlpha" type="matrix" values="0 0 0 0 0 0 0 0 0 0 0 0 0 0 0 0 0 0 127 0" result="hardAlpha"/>
<feOffset dy="1.82791"/>
<feGaussianBlur stdDeviation="3.65581"/>
<feComposite in2="hardAlpha" operator="out"/>
<feColorMatrix type="matrix" values="0 0 0 0 0 0 0 0 0 0 0 0 0 0 0 0 0 0 0.15 0"/>
<feBlend mode="normal" in2="BackgroundImageFix" result="effect1_dropShadow_4042_2128"/>
<feBlend mode="normal" in="SourceGraphic" in2="effect1_dropShadow_4042_2128" result="shape"/>
</filter>
</defs>
</svg>
