<svg width="25" height="38" viewBox="0 0 25 38" fill="none" xmlns="http://www.w3.org/2000/svg">
<path d="M12.5 5.93762C8.74006 5.93762 5.68182 9.13354 5.68182 13.0628C5.68182 13.7189 6.19034 14.2503 6.81818 14.2503C7.44602 14.2503 7.95455 13.7189 7.95455 13.0628C7.95455 10.4428 9.99432 8.31266 12.5 8.31266C13.1278 8.31266 13.6364 7.78125 13.6364 7.12514C13.6364 6.46903 13.1278 5.93762 12.5 5.93762ZM6.82244 34.0797C6.82244 34.3135 6.88849 34.5413 7.01278 34.7358L8.75355 37.4701C8.96449 37.8011 9.3196 38 9.69957 38H15.2997C15.6804 38 16.0355 37.8011 16.2457 37.4701L17.9865 34.7358C18.1101 34.5413 18.1761 34.3127 18.1768 34.0797L18.1804 30.8749H6.8196L6.82244 34.0797ZM12.5 0C5.2358 0 0 6.15805 0 13.0628C0 16.3559 1.16832 19.3603 3.09375 21.656C4.27557 23.0654 6.12926 26.0201 6.81676 28.4961V28.5006H10.2259V28.4917C10.2251 28.1376 10.1747 27.7858 10.0732 27.4474C9.67614 26.1255 8.45242 22.6401 5.65767 19.3076C4.19886 17.5687 3.41903 15.3628 3.41264 13.0628C3.39844 7.59718 7.65057 3.56257 12.5 3.56257C17.5128 3.56257 21.5909 7.82429 21.5909 13.0628C21.5909 15.3614 20.7926 17.5791 19.343 19.3076C16.5653 22.6186 15.3359 26.0966 14.9325 27.4318C14.8284 27.7751 14.7752 28.133 14.7749 28.4931V28.5006H18.184V28.4968C18.8715 26.0201 20.7251 23.0654 21.907 21.6567C23.8317 19.3603 25 16.3559 25 13.0628C25 5.84855 19.4034 0 12.5 0Z" fill="#ED5656"/>
</svg>
