<svg width="43" height="43" viewBox="0 0 43 43" fill="none" xmlns="http://www.w3.org/2000/svg">
<path id="Vector" d="M21.5 26.875C24.4685 26.875 26.875 24.4685 26.875 21.5C26.875 18.5315 24.4685 16.125 21.5 16.125C18.5315 16.125 16.125 18.5315 16.125 21.5C16.125 24.4685 18.5315 26.875 21.5 26.875Z" fill="#ED5656"/>
<path id="Vector_2" d="M23.2916 7.29021V3.58325H19.7083V7.29021C16.5552 7.69218 13.6249 9.12978 11.3774 11.3774C9.12978 13.6249 7.69218 16.5552 7.29021 19.7083H3.58325V23.2916H7.29021C7.69188 26.4447 9.12939 29.3752 11.377 31.6228C13.6246 33.8704 16.5551 35.308 19.7083 35.7096V39.4166H23.2916V35.7096C26.4447 35.308 29.3752 33.8704 31.6228 31.6228C33.8704 29.3752 35.308 26.4447 35.7096 23.2916H39.4166V19.7083H35.7096C35.3077 16.5552 33.8701 13.6249 31.6225 11.3774C29.3749 9.12978 26.4446 7.69218 23.2916 7.29021ZM21.4999 32.2499C15.5713 32.2499 10.7499 27.4285 10.7499 21.4999C10.7499 15.5713 15.5713 10.7499 21.4999 10.7499C27.4285 10.7499 32.2499 15.5713 32.2499 21.4999C32.2499 27.4285 27.4285 32.2499 21.4999 32.2499Z" fill="#ED5656"/>
</svg>
