<svg width="15" height="18" viewBox="0 0 15 18" fill="none" xmlns="http://www.w3.org/2000/svg">
<path d="M5.90592 5.18413L0.910917 11.6679C0.793385 11.8204 0.737179 12.0078 0.752463 12.1963C0.767747 12.3848 0.853513 12.5618 0.994251 12.6955L1.67508 13.343C1.81787 13.4785 2.00758 13.5602 2.20897 13.5729C2.41035 13.5856 2.60973 13.5284 2.77008 13.4119L9.31425 8.66667M10.4893 15.9294C9.65592 15.3958 8.71592 15 7.57258 15C5.85758 15 4.29925 16.8652 2.57258 16.5833C0.845917 16.3015 0.260084 13.9162 1.32258 13.0208M14.2393 4.70833C14.2393 6.89446 12.3738 8.66667 10.0726 8.66667C7.7714 8.66667 5.90592 6.89446 5.90592 4.70833C5.90592 2.52221 7.7714 0.75 10.0726 0.75C12.3738 0.75 14.2393 2.52221 14.2393 4.70833Z" stroke="#A4A4A4" stroke-width="1.5" stroke-linecap="round" stroke-linejoin="round"/>
</svg>
