<svg width="15" height="18" viewBox="0 0 15 18" fill="none" xmlns="http://www.w3.org/2000/svg">
<path d="M5.78592 5.06413L0.790922 11.5479C0.67339 11.7004 0.617184 11.8879 0.632468 12.0763C0.647752 12.2648 0.733517 12.4418 0.874256 12.5755L1.55509 13.223C1.69788 13.3586 1.88758 13.4402 2.08897 13.4529C2.29036 13.4656 2.48974 13.4084 2.65009 13.2919L9.19426 8.54667M10.3693 15.8094C9.53592 15.2758 8.59592 14.88 7.45259 14.88C5.73759 14.88 4.17926 16.7452 2.45259 16.4633C0.725922 16.1815 0.140089 13.7962 1.20259 12.9008M14.1193 4.58834C14.1193 6.77447 12.2538 8.54667 9.95259 8.54667C7.6514 8.54667 5.78592 6.77447 5.78592 4.58834C5.78592 2.40221 7.6514 0.630005 9.95259 0.630005C12.2538 0.630005 14.1193 2.40221 14.1193 4.58834Z" stroke="#A4A4A4" stroke-width="1.26" stroke-linecap="round" stroke-linejoin="round"/>
</svg>
