<svg width="30" height="30" viewBox="0 0 30 30" fill="none" xmlns="http://www.w3.org/2000/svg">
<path fill-rule="evenodd" clip-rule="evenodd" d="M0 15C0 6.7155 6.7155 0 15 0C23.2845 0 30 6.7155 30 15C30 23.2845 23.2845 30 15 30C6.7155 30 0 23.2845 0 15ZM15 3C11.8174 3 8.76515 4.26428 6.51472 6.51472C4.26428 8.76515 3 11.8174 3 15C3 18.1826 4.26428 21.2348 6.51472 23.4853C8.76515 25.7357 11.8174 27 15 27C18.1826 27 21.2348 25.7357 23.4853 23.4853C25.7357 21.2348 27 18.1826 27 15C27 11.8174 25.7357 8.76515 23.4853 6.51472C21.2348 4.26428 18.1826 3 15 3Z" fill="#ED5656"/>
<path fill-rule="evenodd" clip-rule="evenodd" d="M16.5 7.5C16.5 7.10218 16.342 6.72064 16.0607 6.43934C15.7794 6.15804 15.3978 6 15 6C14.6022 6 14.2206 6.15804 13.9393 6.43934C13.658 6.72064 13.5 7.10218 13.5 7.5V13.5H7.5C7.10218 13.5 6.72064 13.658 6.43934 13.9393C6.15804 14.2206 6 14.6022 6 15C6 15.3978 6.15804 15.7794 6.43934 16.0607C6.72064 16.342 7.10218 16.5 7.5 16.5H13.5V22.5C13.5 22.8978 13.658 23.2794 13.9393 23.5607C14.2206 23.842 14.6022 24 15 24C15.3978 24 15.7794 23.842 16.0607 23.5607C16.342 23.2794 16.5 22.8978 16.5 22.5V16.5H22.5C22.8978 16.5 23.2794 16.342 23.5607 16.0607C23.842 15.7794 24 15.3978 24 15C24 14.6022 23.842 14.2206 23.5607 13.9393C23.2794 13.658 22.8978 13.5 22.5 13.5H16.5V7.5Z" fill="#ED5656"/>
</svg>
