<svg width="110" height="146" viewBox="0 0 110 146" fill="none" xmlns="http://www.w3.org/2000/svg">
<path d="M0 137V88.5H109.5V137C100.171 148 10.106 148.5 0 137Z" fill="#F8C5C4"/>
<ellipse cx="54.8057" cy="89" rx="54.8057" ry="9" fill="#EC6765"/>
<rect x="32.2227" y="83.9417" width="48.9746" height="5.81054" rx="2.90527" fill="#282C37"/>
<path d="M35.958 74.6033C35.958 72.9987 37.2587 71.698 38.8633 71.698H74.5566C76.1612 71.698 77.4619 72.9987 77.4619 74.6033V83.9416H35.958V74.6033Z" fill="#363B48"/>
<path d="M49.2392 71.698C51.0654 69.8718 51.8678 63.3972 52.0407 60.3882V55.719H61.0678V60.3882C61.0678 63.9575 61.7941 69.6228 63.8693 71.698H49.2392Z" fill="#BFC4C6"/>
<path d="M56.5023 59.9731L51.9369 61.6333L51.9888 60.907L52.0406 60.1807L52.1444 56.4453H61.0677V60.1807C61.0677 67.1326 62.8317 70.8679 63.8693 71.698H60.8602C59.4491 69.2078 58.8888 64.4694 58.785 62.3596C58.453 61.1145 57.1249 60.2498 56.5023 59.9731Z" fill="#91969B"/>
<path d="M55.2678 4.14579C55.8485 3.26957 57.1387 3.28105 57.7037 4.16746L68.2325 20.6868C68.4292 20.9955 68.7353 21.2185 69.0894 21.3113L88.1426 26.3014C89.1654 26.5692 89.5685 27.8052 88.9003 28.6246L76.471 43.8664C76.2408 44.1487 76.125 44.5072 76.1467 44.8709L77.3242 64.6157C77.3879 65.6846 76.3125 66.4527 75.322 66.0458L57.0531 58.5392C56.7002 58.3942 56.3045 58.3939 55.9513 58.5383L37.5983 66.0422C36.6027 66.4493 35.5255 65.6709 35.5993 64.5979L36.9556 44.8871C36.9813 44.5138 36.8619 44.1449 36.6223 43.8574L23.9276 28.6239C23.2477 27.8079 23.6446 26.562 24.6712 26.2898L43.4548 21.3085C43.7985 21.2173 44.0969 21.0032 44.2933 20.7068L55.2678 4.14579Z" fill="#BFC4C6"/>
<path d="M56.4198 10.5486L55.6674 4.62433C55.5283 3.52927 56.9685 3.00321 57.5679 3.9301L68.4523 20.7589C68.5358 20.888 68.6641 20.9817 68.8125 21.0218L88.455 26.3329C89.5154 26.6196 89.4615 28.1417 88.3836 28.3528L82.8233 29.4414C82.7346 29.4588 82.6431 29.4566 82.5553 29.435L66.018 25.3768C65.8625 25.3387 65.7277 25.2421 65.6416 25.1071L56.5126 10.8051C56.4631 10.7275 56.4314 10.6399 56.4198 10.5486Z" fill="#D0D7D9"/>
<path d="M56.4708 10.5428L57.3853 4.63305C57.5551 3.53536 56.1144 2.97434 55.4972 3.89784L44.3103 20.6367C44.1712 20.8448 43.9616 20.9956 43.72 21.0613L24.6047 26.26C23.498 26.561 23.6256 28.1701 24.7659 28.2929L26.0404 28.4302L30.0182 29.407C30.1806 29.4469 30.3503 29.447 30.5128 29.4071L46.7236 25.4321C46.9827 25.3686 47.2073 25.2077 47.3509 24.9829L56.3198 10.9427C56.3973 10.8213 56.4487 10.6852 56.4708 10.5428Z" fill="#E6EBEF"/>
<path d="M40.0472 60.6832L37.6558 65.2626C37.1363 66.2573 35.6272 65.8341 35.7006 64.7144L37.012 44.7161C37.0293 44.4523 36.9453 44.1919 36.7771 43.988L23.8404 28.3022C23.1145 27.422 24.134 26.1855 25.1364 26.7303L30.1096 29.4337C30.2272 29.4976 30.3313 29.5837 30.4161 29.6871L41.1298 42.7407C41.2983 42.9459 41.3817 43.208 41.3627 43.4729L40.1625 60.2768C40.1523 60.4187 40.1131 60.557 40.0472 60.6832Z" fill="#91969B"/>
<path d="M83.0825 29.3689L87.7275 26.7416C88.723 26.1784 89.7638 27.4045 89.0465 28.2954L76.4072 43.9939C76.2458 44.1944 76.1647 44.4477 76.1796 44.7047L77.3421 64.7159C77.4062 65.8204 75.9281 66.245 75.3963 65.2749L72.9405 60.7946C72.8686 60.6636 72.826 60.5185 72.8154 60.3694L71.6159 43.477C71.5969 43.2096 71.6822 42.9453 71.8538 42.7393L82.7962 29.6078C82.8764 29.5115 82.9734 29.4306 83.0825 29.3689Z" fill="#91969B"/>
<path d="M72.8662 60.7203L76.7611 64.2238C77.6206 64.9969 76.7625 66.3843 75.687 65.9606L56.9147 58.5664C56.6704 58.4702 56.3988 58.4701 56.1546 58.5662L37.3286 65.9713C36.2635 66.3903 35.4041 65.0293 36.2402 64.2477L40.0018 60.7315C40.0978 60.6418 40.21 60.5711 40.3323 60.5232L56.1543 54.3319C56.3987 54.2363 56.6704 54.2368 56.9144 54.3335L72.5544 60.5271C72.669 60.5725 72.7746 60.6379 72.8662 60.7203Z" fill="#E6EBEF"/>
<path d="M51.6257 30.1941L55.0497 16.1865L48.4091 26.9775L38.4482 29.4678L51.6257 30.1941Z" fill="#EDF1F4"/>
<path d="M54.1217 29.4678C53.4705 29.4678 52.8866 29.8909 52.6696 30.5205C52.5986 30.726 52.7035 30.9517 52.9043 31.0244C53.0358 31.0729 53.1735 31.0363 53.2746 30.9503L54.8918 32.9416V33.4157C54.8918 33.6337 55.064 33.8105 55.2768 33.8105C55.4896 33.8105 55.6618 33.6337 55.6618 33.4157V31.0469C55.6618 30.1762 54.9711 29.4678 54.1217 29.4678Z" fill="#D09999"/>
<path d="M52.9665 30.2573C52.2608 30.2573 51.5938 30.5351 51.0738 31.0556L46.1374 36.5815L46.7051 37.1147L46.8385 36.9653L54.8916 39.2293V39.3376C54.8916 39.5556 55.0638 39.7324 55.2766 39.7324C55.4895 39.7324 55.6617 39.5556 55.6617 39.3376V33.0209C55.6617 31.497 54.4525 30.2573 52.9665 30.2573Z" fill="#FACCCC"/>
<path d="M59.3194 29.4678C59.9706 29.4678 60.5546 29.8909 60.7715 30.5205C60.8426 30.726 60.7377 30.9517 60.5369 31.0244C60.4054 31.0729 60.2677 31.0363 60.1666 30.9503L58.5494 32.9416V33.4157C58.5494 33.6337 58.3772 33.8105 58.1644 33.8105C57.9516 33.8105 57.7794 33.6337 57.7794 33.4157V31.0469C57.7794 30.1762 58.47 29.4678 59.3194 29.4678Z" fill="#D09999"/>
<path d="M60.4745 30.2573C61.1802 30.2573 61.8472 30.5351 62.3672 31.0556L67.3036 36.5816L66.7359 37.1148L66.6025 36.9654L58.5494 39.2293V39.3376C58.5494 39.5556 58.3772 39.7324 58.1644 39.7324C57.9516 39.7324 57.7794 39.5556 57.7794 39.3376V33.0209C57.7794 31.497 58.9886 30.2573 60.4745 30.2573Z" fill="#FACCCC"/>
<path d="M50.2714 44.4699C52.6105 44.4699 54.5066 42.5256 54.5066 40.1271C54.5066 37.7287 52.6105 35.7844 50.2714 35.7844C47.9324 35.7844 46.0363 37.7287 46.0363 40.1271C46.0363 42.5256 47.9324 44.4699 50.2714 44.4699Z" fill="#E4FAFF"/>
<path d="M50.2715 34.6001C47.2992 34.6001 44.8812 37.0795 44.8812 40.1272C44.8812 43.1749 47.2992 45.6543 50.2715 45.6543C53.2437 45.6543 55.6617 43.1749 55.6617 40.1272C55.6617 37.0795 53.2437 34.6001 50.2715 34.6001ZM50.2715 44.0751C48.1485 44.0751 46.4213 42.304 46.4213 40.1272C46.4213 37.9504 48.1485 36.1793 50.2715 36.1793C52.3944 36.1793 54.1216 37.9504 54.1216 40.1272C54.1216 42.304 52.3944 44.0751 50.2715 44.0751Z" fill="#E95755"/>
<path d="M54.1126 34.995H59.3285L59.3786 34.9941C58.7442 35.7466 58.3505 36.7956 58.3505 37.9559V39.3377H55.0906V37.9559C55.0906 36.7956 54.6969 35.7466 54.0625 34.9941" fill="#D09999"/>
<path d="M51.5228 40.9169C52.3734 40.9169 53.0629 40.2099 53.0629 39.3377C53.0629 38.4656 52.3734 37.7585 51.5228 37.7585C50.6722 37.7585 49.9827 38.4656 49.9827 39.3377C49.9827 40.2099 50.6722 40.9169 51.5228 40.9169Z" fill="white"/>
<path d="M63.1696 44.4699C65.5086 44.4699 67.4048 42.5256 67.4048 40.1271C67.4048 37.7287 65.5086 35.7844 63.1696 35.7844C60.8305 35.7844 58.9344 37.7287 58.9344 40.1271C58.9344 42.5256 60.8305 44.4699 63.1696 44.4699Z" fill="#E4FAFF"/>
<path d="M63.1696 34.6001C60.1974 34.6001 57.7794 37.0795 57.7794 40.1272C57.7794 43.1749 60.1974 45.6543 63.1696 45.6543C66.1418 45.6543 68.5598 43.1749 68.5598 40.1272C68.5598 37.0795 66.1418 34.6001 63.1696 34.6001ZM63.1696 44.0751C61.0467 44.0751 59.3194 42.304 59.3194 40.1272C59.3194 37.9504 61.0467 36.1793 63.1696 36.1793C65.2925 36.1793 67.0198 37.9504 67.0198 40.1272C67.0198 42.304 65.2925 44.0751 63.1696 44.0751Z" fill="#FACCCC"/>
<path d="M50.2715 34.6001C47.2992 34.6001 44.8812 37.0795 44.8812 40.1272C44.8812 43.1749 47.2992 45.6543 50.2715 45.6543C53.2437 45.6543 55.6617 43.1749 55.6617 40.1272C55.6617 37.0795 53.2437 34.6001 50.2715 34.6001ZM50.2715 44.0751C48.1485 44.0751 46.4213 42.304 46.4213 40.1272C46.4213 37.9504 48.1485 36.1793 50.2715 36.1793C52.3944 36.1793 54.1216 37.9504 54.1216 40.1272C54.1216 42.304 52.3944 44.0751 50.2715 44.0751Z" fill="#FACCCC"/>
<path d="M64.4047 40.9169C65.2552 40.9169 65.9448 40.2099 65.9448 39.3377C65.9448 38.4656 65.2552 37.7585 64.4047 37.7585C63.5541 37.7585 62.8646 38.4656 62.8646 39.3377C62.8646 40.2099 63.5541 40.9169 64.4047 40.9169Z" fill="white"/>
<path d="M59.4157 34.2053H54.1217V34.9949H59.4157V34.2053Z" fill="#FACCCC"/>
<path d="M52.8063 38.059C52.563 37.613 52.2285 37.2734 51.8027 37.0403C51.377 36.8071 50.8803 36.6905 50.3126 36.6905C49.6841 36.6905 49.1266 36.8325 48.64 37.1163C48.1535 37.4001 47.7733 37.8056 47.4996 38.3327C47.2259 38.8598 47.0891 39.468 47.0891 40.1573C47.0891 40.8669 47.2259 41.4853 47.4996 42.0124C47.7835 42.5395 48.1737 42.945 48.6704 43.2288C49.1671 43.5126 49.7449 43.6545 50.4038 43.6545C51.2148 43.6545 51.8787 43.4417 52.3957 43.0159C52.9127 42.58 53.2523 41.9769 53.4145 41.2065H49.7652V39.5795H55.5128V41.4346C55.3709 42.1746 55.0668 42.8588 54.6005 43.4873C54.1342 44.1158 53.531 44.6226 52.7911 45.0078C52.0612 45.3829 51.2401 45.5704 50.3278 45.5704C49.304 45.5704 48.3765 45.3423 47.5452 44.8862C46.7242 44.4199 46.0754 43.7762 45.599 42.9551C45.1327 42.134 44.8995 41.2014 44.8995 40.1573C44.8995 39.1132 45.1327 38.1807 45.599 37.3596C46.0754 36.5284 46.7242 35.8847 47.5452 35.4285C48.3765 34.9622 49.2989 34.7291 50.3126 34.7291C51.5087 34.7291 52.5478 35.023 53.4297 35.611C54.3116 36.1888 54.9198 37.0048 55.2543 38.059H52.8063Z" fill="#E95755"/>
<path d="M63.1151 45.5856C62.1217 45.5856 61.2094 45.3525 60.3782 44.8862C59.547 44.4199 58.8881 43.7762 58.4015 42.9551C57.9149 42.1239 57.6717 41.1862 57.6717 40.1421C57.6717 39.1082 57.9149 38.1807 58.4015 37.3596C58.8881 36.5284 59.547 35.8796 60.3782 35.4133C61.2094 34.947 62.1217 34.7139 63.1151 34.7139C64.1187 34.7139 65.031 34.947 65.8521 35.4133C66.6833 35.8796 67.3371 36.5284 67.8136 37.3596C68.3001 38.1807 68.5434 39.1082 68.5434 40.1421C68.5434 41.1862 68.3001 42.1239 67.8136 42.9551C67.3371 43.7762 66.6833 44.4199 65.8521 44.8862C65.0209 45.3525 64.1085 45.5856 63.1151 45.5856ZM63.1151 43.685C63.7538 43.685 64.3163 43.543 64.8029 43.2592C65.2895 42.9652 65.6696 42.5496 65.9433 42.0124C66.217 41.4751 66.3538 40.8517 66.3538 40.1421C66.3538 39.4326 66.217 38.8142 65.9433 38.2871C65.6696 37.7498 65.2895 37.3393 64.8029 37.0555C64.3163 36.7716 63.7538 36.6297 63.1151 36.6297C62.4765 36.6297 61.9088 36.7716 61.4121 37.0555C60.9256 37.3393 60.5454 37.7498 60.2718 38.2871C59.9981 38.8142 59.8612 39.4326 59.8612 40.1421C59.8612 40.8517 59.9981 41.4751 60.2718 42.0124C60.5454 42.5496 60.9256 42.9652 61.4121 43.2592C61.9088 43.543 62.4765 43.685 63.1151 43.685Z" fill="#E95755"/>
<path d="M55.6377 40.6651L55.5895 41.0502L55.5414 41.2427L55.4933 41.4352V39.5823H55.6377V39.6545L55.6617 39.9432V40.232L55.6377 40.6651Z" fill="#E95755"/>
</svg>
