<svg width="110" height="170" viewBox="0 0 110 170" fill="none" xmlns="http://www.w3.org/2000/svg">
<ellipse cx="54.8057" cy="88.5" rx="32.2615" ry="7.5" fill="#AB2F19"/>
<path d="M0 161V89H109.613V161C100.285 172 10.106 172.5 0 161Z" fill="#F8C5C4"/>
<ellipse cx="54.8057" cy="89" rx="54.8057" ry="9" fill="#EC6765"/>
<rect x="30.2294" y="83.9614" width="48.9862" height="5.81192" rx="2.90596" fill="#282C37"/>
<path d="M33.9656 74.6208C33.9656 73.0159 35.2666 71.7148 36.8715 71.7148H72.5733C74.1782 71.7148 75.4793 73.0159 75.4793 74.6208V83.9614H33.9656V74.6208Z" fill="#363B48"/>
<path d="M47.2499 71.715C49.0765 69.8884 49.8791 63.4122 50.0521 60.4025V55.7322H59.0813V60.4025C59.0813 63.9726 59.8078 69.6393 61.8835 71.715H47.2499Z" fill="#F6CA47"/>
<path d="M54.5148 59.9874L49.9483 61.648L50.0002 60.9215L50.0521 60.195L50.1559 56.4587H59.0813V60.195C59.0813 67.1485 60.8457 70.8848 61.8835 71.715H58.8738C57.4623 69.2242 56.9019 64.4847 56.7981 62.3744C56.466 61.129 55.1375 60.2642 54.5148 59.9874Z" fill="#DAA843"/>
<path d="M53.2799 4.14672C53.8607 3.27029 55.1513 3.28177 55.7164 4.1684L66.2477 20.6916C66.4445 21.0004 66.7506 21.2235 67.1048 21.3163L86.1624 26.3075C87.1855 26.5755 87.5887 27.8118 86.9204 28.6314L74.4881 43.8767C74.2579 44.1591 74.1421 44.5177 74.1638 44.8815L75.3415 64.6309C75.4053 65.7001 74.3296 66.4684 73.3389 66.0614L55.0657 58.5531C54.7127 58.408 54.3168 58.4077 53.9636 58.5521L35.6062 66.0578C34.6104 66.465 33.5329 65.6864 33.6068 64.6132L34.9633 44.8977C34.989 44.5243 34.8696 44.1553 34.63 43.8678L21.9323 28.6306C21.2522 27.8145 21.6493 26.5683 22.6761 26.296L41.4641 21.3135C41.8079 21.2223 42.1063 21.0082 42.3028 20.7117L53.2799 4.14672Z" fill="#F6C946"/>
<path d="M54.4322 10.551L53.6796 4.6254C53.5405 3.53008 54.981 3.00389 55.5806 3.931L66.4675 20.7638C66.551 20.893 66.6794 20.9866 66.8278 21.0268L86.475 26.3391C87.5356 26.6259 87.4818 28.1484 86.4036 28.3595L80.842 29.4483C80.7532 29.4657 80.6618 29.4635 80.5739 29.442L64.0327 25.3828C63.8772 25.3446 63.7424 25.248 63.6562 25.1131L54.5251 10.8076C54.4755 10.73 54.4438 10.6424 54.4322 10.551Z" fill="#EBBD60"/>
<path d="M54.4832 10.5453L55.3979 4.63414C55.5678 3.5362 54.1267 2.97504 53.5094 3.89876L42.3199 20.6416C42.1807 20.8498 41.971 21.0006 41.7294 21.0663L22.6096 26.2663C21.5026 26.5673 21.6302 28.1768 22.7709 28.2996L24.0456 28.4369L28.0244 29.414C28.1868 29.4539 28.3566 29.4539 28.519 29.4141L44.7337 25.4381C44.9929 25.3746 45.2176 25.2137 45.3612 24.9889L54.3322 10.9453C54.4097 10.8239 54.4612 10.6877 54.4832 10.5453Z" fill="#F6DC91"/>
<path d="M38.0558 60.6974L35.6637 65.278C35.1442 66.2728 33.6347 65.8496 33.7082 64.7296L35.0198 44.7265C35.0371 44.4627 34.9531 44.2022 34.7849 43.9983L21.8451 28.3087C21.119 27.4284 22.1388 26.1916 23.1414 26.7365L28.1158 29.4406C28.2334 29.5045 28.3375 29.5905 28.4224 29.694L39.1386 42.7506C39.3072 42.956 39.3905 43.2181 39.3716 43.483L38.1711 60.2909C38.1609 60.4329 38.1217 60.5713 38.0558 60.6974Z" fill="#E0A83C"/>
<path d="M81.1013 29.3757L85.7473 26.7478C86.7431 26.1846 87.7842 27.4109 87.0667 28.302L74.4244 44.0042C74.263 44.2048 74.1818 44.4582 74.1967 44.7152L75.3595 64.7312C75.4236 65.8359 73.9452 66.2606 73.4133 65.2902L70.9569 60.809C70.885 60.6778 70.8423 60.5327 70.8317 60.3836L69.632 43.4873C69.613 43.2198 69.6982 42.9553 69.8699 42.7494L80.8149 29.6147C80.8952 29.5184 80.9922 29.4374 81.1013 29.3757Z" fill="#E0A83C"/>
<path d="M70.8826 60.7347L74.7784 64.239C75.638 65.0123 74.7798 66.4 73.7039 65.9762L54.9272 58.5803C54.6829 58.484 54.4113 58.484 54.1669 58.5801L35.3365 65.9869C34.2711 66.406 33.4115 65.0447 34.2478 64.2629L38.0104 60.7459C38.1064 60.6561 38.2185 60.5855 38.3409 60.5376L54.1666 54.3448C54.4111 54.2491 54.6828 54.2496 54.927 54.3463L70.5706 60.5414C70.6853 60.5868 70.7909 60.6523 70.8826 60.7347Z" fill="#F6DC91"/>
<path d="M49.637 30.2013L53.0619 16.1904L46.4197 26.984L36.4564 29.4748L49.637 30.2013Z" fill="#F9E383"/>
<path d="M52.1336 29.4749C51.4823 29.4749 50.8982 29.8981 50.6812 30.5278C50.6101 30.7334 50.715 30.9591 50.9159 31.0318C51.0474 31.0803 51.1851 31.0437 51.2863 30.9578L52.9038 32.9495V33.4237C52.9038 33.6418 53.0761 33.8186 53.2889 33.8186C53.5018 33.8186 53.6741 33.6418 53.6741 33.4237V31.0544C53.6741 30.1834 52.9832 29.4749 52.1336 29.4749Z" fill="#D09999"/>
<path d="M50.9783 30.2646C50.2724 30.2646 49.6052 30.5425 49.0851 31.0631L44.1475 36.5903L44.7154 37.1237L44.8488 36.9743L52.9038 39.2387V39.347C52.9038 39.5651 53.0761 39.7419 53.2889 39.7419C53.5018 39.7419 53.674 39.5651 53.674 39.347V33.0289C53.674 31.5046 52.4646 30.2646 50.9783 30.2646Z" fill="#FACCCC"/>
<path d="M57.3326 29.4749C57.984 29.4749 58.568 29.8981 58.785 30.5278C58.8561 30.7334 58.7512 30.9591 58.5504 31.0318C58.4188 31.0803 58.2811 31.0437 58.1799 30.9578L56.5624 32.9495V33.4237C56.5624 33.6418 56.3902 33.8186 56.1773 33.8186C55.9644 33.8186 55.7922 33.6418 55.7922 33.4237V31.0544C55.7922 30.1834 56.483 29.4749 57.3326 29.4749Z" fill="#D09999"/>
<path d="M58.4879 30.2646C59.1938 30.2646 59.861 30.5425 60.3811 31.0631L65.3187 36.5904L64.7508 37.1237L64.6174 36.9743L56.5624 39.2387V39.347C56.5624 39.5651 56.3902 39.7419 56.1773 39.7419C55.9644 39.7419 55.7922 39.5651 55.7922 39.347V33.0289C55.7922 31.5046 57.0017 30.2646 58.4879 30.2646Z" fill="#FACCCC"/>
<path d="M48.2825 44.4805C50.6221 44.4805 52.5187 42.5357 52.5187 40.1367C52.5187 37.7377 50.6221 35.793 48.2825 35.793C45.9429 35.793 44.0463 37.7377 44.0463 40.1367C44.0463 42.5357 45.9429 44.4805 48.2825 44.4805Z" fill="#E4FAFF"/>
<path d="M48.2826 34.6084C45.3096 34.6084 42.8911 37.0884 42.8911 40.1368C42.8911 43.1852 45.3096 45.6652 48.2826 45.6652C51.2555 45.6652 53.6741 43.1852 53.6741 40.1368C53.6741 37.0884 51.2555 34.6084 48.2826 34.6084ZM48.2826 44.0857C46.1591 44.0857 44.4315 42.3142 44.4315 40.1368C44.4315 37.9595 46.1591 36.1879 48.2826 36.1879C50.406 36.1879 52.1337 37.9595 52.1337 40.1368C52.1337 42.3142 50.406 44.0857 48.2826 44.0857Z" fill="#E95755"/>
<path d="M52.1245 35.0033H57.3417L57.3918 35.0024C56.7572 35.755 56.3634 36.8043 56.3634 37.9649V39.347H53.1027V37.9649C53.1027 36.8043 52.709 35.755 52.0744 35.0024" fill="#D09999"/>
<path d="M49.5341 40.9267C50.3849 40.9267 51.0746 40.2195 51.0746 39.3471C51.0746 38.4748 50.3849 37.7676 49.5341 37.7676C48.6834 37.7676 47.9937 38.4748 47.9937 39.3471C47.9937 40.2195 48.6834 40.9267 49.5341 40.9267Z" fill="white"/>
<path d="M61.1836 44.4805C63.5232 44.4805 65.4198 42.5357 65.4198 40.1367C65.4198 37.7377 63.5232 35.793 61.1836 35.793C58.8441 35.793 56.9474 37.7377 56.9474 40.1367C56.9474 42.5357 58.8441 44.4805 61.1836 44.4805Z" fill="#E4FAFF"/>
<path d="M61.1837 34.6084C58.2108 34.6084 55.7922 37.0884 55.7922 40.1368C55.7922 43.1852 58.2108 45.6652 61.1837 45.6652C64.1566 45.6652 66.5752 43.1852 66.5752 40.1368C66.5752 37.0884 64.1566 34.6084 61.1837 34.6084ZM61.1837 44.0857C59.0603 44.0857 57.3326 42.3142 57.3326 40.1368C57.3326 37.9595 59.0603 36.1879 61.1837 36.1879C63.3071 36.1879 65.0348 37.9595 65.0348 40.1368C65.0348 42.3142 63.3071 44.0857 61.1837 44.0857Z" fill="#FACCCC"/>
<path d="M48.2826 34.6084C45.3096 34.6084 42.8911 37.0884 42.8911 40.1368C42.8911 43.1852 45.3096 45.6652 48.2826 45.6652C51.2555 45.6652 53.6741 43.1852 53.6741 40.1368C53.6741 37.0884 51.2555 34.6084 48.2826 34.6084ZM48.2826 44.0857C46.1591 44.0857 44.4315 42.3142 44.4315 40.1368C44.4315 37.9595 46.1591 36.1879 48.2826 36.1879C50.406 36.1879 52.1337 37.9595 52.1337 40.1368C52.1337 42.3142 50.406 44.0857 48.2826 44.0857Z" fill="#FACCCC"/>
<path d="M62.4191 40.9267C63.2699 40.9267 63.9595 40.2195 63.9595 39.3471C63.9595 38.4748 63.2699 37.7676 62.4191 37.7676C61.5683 37.7676 60.8787 38.4748 60.8787 39.3471C60.8787 40.2195 61.5683 40.9267 62.4191 40.9267Z" fill="white"/>
<path d="M57.4288 34.2136H52.1336V35.0034H57.4288V34.2136Z" fill="#FACCCC"/>
<path d="M50.8179 38.0684C50.5746 37.6222 50.24 37.2826 49.8141 37.0494C49.3883 36.8162 48.8914 36.6996 48.3237 36.6996C47.695 36.6996 47.1374 36.8415 46.6507 37.1254C46.164 37.4093 45.7838 37.8149 45.51 38.3421C45.2363 38.8694 45.0994 39.4777 45.0994 40.1672C45.0994 40.8769 45.2363 41.4954 45.51 42.0227C45.7939 42.5499 46.1843 42.9555 46.6811 43.2394C47.1779 43.5233 47.7559 43.6652 48.4149 43.6652C49.226 43.6652 49.8902 43.4523 50.4073 43.0264C50.9244 42.5905 51.264 41.9872 51.4263 41.2166H47.7761V39.5892H53.5251V41.4447C53.3831 42.1849 53.0789 42.8693 52.6125 43.4979C52.1461 44.1265 51.5429 44.6335 50.8027 45.0188C50.0727 45.394 49.2514 45.5815 48.3389 45.5815C47.3148 45.5815 46.3871 45.3534 45.5556 44.8971C44.7344 44.4307 44.0855 43.7869 43.6089 42.9656C43.1425 42.1443 42.9093 41.2115 42.9093 40.1672C42.9093 39.1228 43.1425 38.19 43.6089 37.3688C44.0855 36.5373 44.7344 35.8935 45.5556 35.4372C46.3871 34.9708 47.3097 34.7376 48.3237 34.7376C49.5201 34.7376 50.5593 35.0317 51.4415 35.6197C52.3236 36.1977 52.9319 37.0139 53.2665 38.0684H50.8179Z" fill="#E95755"/>
<path d="M61.1292 45.5967C60.1356 45.5967 59.223 45.3635 58.3916 44.8971C57.5602 44.4307 56.9012 43.7869 56.4145 42.9656C55.9278 42.1342 55.6844 41.1963 55.6844 40.152C55.6844 39.1178 55.9278 38.19 56.4145 37.3688C56.9012 36.5373 57.5602 35.8884 58.3916 35.422C59.223 34.9556 60.1356 34.7224 61.1292 34.7224C62.133 34.7224 63.0455 34.9556 63.8668 35.422C64.6982 35.8884 65.3522 36.5373 65.8287 37.3688C66.3154 38.19 66.5588 39.1178 66.5588 40.152C66.5588 41.1963 66.3154 42.1342 65.8287 42.9656C65.3522 43.7869 64.6982 44.4307 63.8668 44.8971C63.0354 45.3635 62.1229 45.5967 61.1292 45.5967ZM61.1292 43.6956C61.768 43.6956 62.3307 43.5537 62.8174 43.2698C63.3041 42.9757 63.6843 42.56 63.9581 42.0227C64.2318 41.4853 64.3687 40.8617 64.3687 40.152C64.3687 39.4422 64.2318 38.8237 63.9581 38.2965C63.6843 37.7591 63.3041 37.3485 62.8174 37.0646C62.3307 36.7807 61.768 36.6387 61.1292 36.6387C60.4904 36.6387 59.9226 36.7807 59.4258 37.0646C58.9391 37.3485 58.5589 37.7591 58.2852 38.2965C58.0114 38.8237 57.8745 39.4422 57.8745 40.152C57.8745 40.8617 58.0114 41.4853 58.2852 42.0227C58.5589 42.56 58.9391 42.9757 59.4258 43.2698C59.9226 43.5537 60.4904 43.6956 61.1292 43.6956Z" fill="#E95755"/>
<path d="M53.65 40.6749L53.6018 41.06L53.5537 41.2526L53.5056 41.4451V39.5918H53.65V39.664L53.674 39.9528V40.2417L53.65 40.6749Z" fill="#E95755"/>
</svg>
