<svg width="110" height="134" viewBox="0 0 110 134" fill="none" xmlns="http://www.w3.org/2000/svg">
<path d="M0 125V88H110V125C100.671 136 10.106 136.5 0 125Z" fill="#F8C5C4"/>
<ellipse cx="54.8057" cy="88" rx="54.8057" ry="9" fill="#EC6765"/>
<rect x="31.2226" y="83.9417" width="48.9746" height="5.81054" rx="2.90527" fill="#282C37"/>
<path d="M34.9579 74.6033C34.9579 72.9987 36.2587 71.698 37.8632 71.698H73.5566C75.1611 71.698 76.4618 72.9987 76.4618 74.6033V83.9416H34.9579V74.6033Z" fill="#363B48"/>
<path d="M48.2392 71.698C50.0654 69.8718 50.8678 63.3972 51.0407 60.3882V55.719H60.0678V60.3882C60.0678 63.9575 60.7941 69.6228 62.8693 71.698H48.2392Z" fill="#D2762D"/>
<path d="M55.5023 59.9731L50.9369 61.6333L50.9888 60.907L51.0406 60.1807L51.1444 56.4453H60.0677V60.1807C60.0677 67.1326 61.8317 70.8679 62.8693 71.698H59.8602C58.4491 69.2078 57.8888 64.4694 57.785 62.3596C57.453 61.1145 56.1249 60.2498 55.5023 59.9731Z" fill="#974219"/>
<path d="M54.2678 4.14579C54.8484 3.26957 56.1387 3.28105 56.7036 4.16746L67.2324 20.6868C67.4292 20.9955 67.7352 21.2185 68.0894 21.3113L87.1425 26.3014C88.1653 26.5692 88.5684 27.8052 87.9002 28.6246L75.471 43.8664C75.2407 44.1487 75.125 44.5072 75.1467 44.8709L76.3241 64.6157C76.3878 65.6846 75.3125 66.4527 74.322 66.0458L56.0531 58.5392C55.7002 58.3942 55.3044 58.3939 54.9512 58.5383L36.5982 66.0422C35.6027 66.4493 34.5254 65.6709 34.5993 64.5979L35.9555 44.8871C35.9812 44.5138 35.8618 44.1449 35.6222 43.8574L22.9276 28.6239C22.2477 27.8079 22.6446 26.562 23.6712 26.2898L42.4547 21.3085C42.7985 21.2173 43.0968 21.0032 43.2932 20.7068L54.2678 4.14579Z" fill="#D0732A"/>
<path d="M55.4198 10.5486L54.6673 4.62433C54.5282 3.52927 55.9684 3.00321 56.5679 3.9301L67.4522 20.7589C67.5357 20.888 67.664 20.9817 67.8125 21.0218L87.455 26.3329C88.5153 26.6196 88.4615 28.1417 87.3835 28.3528L81.8233 29.4414C81.7345 29.4588 81.6431 29.4566 81.5553 29.435L65.0179 25.3768C64.8625 25.3387 64.7277 25.2421 64.6416 25.1071L55.5126 10.8051C55.4631 10.7275 55.4314 10.6399 55.4198 10.5486Z" fill="#DA8A4C"/>
<path d="M55.4708 10.5428L56.3853 4.63305C56.5551 3.53536 55.1144 2.97434 54.4972 3.89784L43.3103 20.6367C43.1712 20.8448 42.9616 20.9956 42.72 21.0613L23.6047 26.26C22.498 26.561 22.6256 28.1701 23.7659 28.2929L25.0404 28.4302L29.0182 29.407C29.1806 29.4469 29.3503 29.447 29.5128 29.4071L45.7236 25.4321C45.9827 25.3686 46.2073 25.2077 46.3509 24.9829L55.3198 10.9427C55.3973 10.8213 55.4487 10.6852 55.4708 10.5428Z" fill="#E4A773"/>
<path d="M39.0472 60.6832L36.6558 65.2626C36.1363 66.2573 34.6272 65.8341 34.7006 64.7144L36.012 44.7161C36.0293 44.4523 35.9453 44.1919 35.7771 43.988L22.8404 28.3022C22.1145 27.422 23.134 26.1855 24.1364 26.7303L29.1096 29.4337C29.2272 29.4976 29.3313 29.5837 29.4161 29.6871L40.1298 42.7407C40.2983 42.9459 40.3817 43.208 40.3627 43.4729L39.1625 60.2768C39.1523 60.4187 39.1131 60.557 39.0472 60.6832Z" fill="#9A4419"/>
<path d="M82.0825 29.3689L86.7275 26.7416C87.723 26.1784 88.7638 27.4045 88.0465 28.2954L75.4072 43.9939C75.2458 44.1944 75.1647 44.4477 75.1796 44.7047L76.3421 64.7159C76.4062 65.8204 74.9281 66.245 74.3963 65.2749L71.9405 60.7946C71.8686 60.6636 71.826 60.5185 71.8154 60.3694L70.6159 43.477C70.5969 43.2096 70.6822 42.9453 70.8538 42.7393L81.7962 29.6078C81.8764 29.5115 81.9734 29.4306 82.0825 29.3689Z" fill="#9A4419"/>
<path d="M71.8662 60.7203L75.7611 64.2238C76.6206 64.9969 75.7625 66.3843 74.687 65.9606L55.9147 58.5664C55.6704 58.4702 55.3988 58.4701 55.1546 58.5662L36.3286 65.9713C35.2635 66.3903 34.4041 65.0293 35.2402 64.2477L39.0018 60.7315C39.0978 60.6418 39.21 60.5711 39.3323 60.5232L55.1543 54.3319C55.3987 54.2363 55.6704 54.2368 55.9144 54.3335L71.5544 60.5271C71.669 60.5725 71.7746 60.6379 71.8662 60.7203Z" fill="#E4A773"/>
<path d="M50.6257 30.1941L54.0497 16.1865L47.4091 26.9775L37.4482 29.4678L50.6257 30.1941Z" fill="#EEA86B"/>
<path d="M53.1218 29.4678C52.4706 29.4678 51.8867 29.8909 51.6697 30.5205C51.5986 30.726 51.7035 30.9517 51.9043 31.0244C52.0359 31.0729 52.1735 31.0363 52.2747 30.9503L53.8918 32.9416V33.4157C53.8918 33.6337 54.064 33.8105 54.2768 33.8105C54.4897 33.8105 54.6619 33.6337 54.6619 33.4157V31.0469C54.6619 30.1762 53.9711 29.4678 53.1218 29.4678Z" fill="#D09999"/>
<path d="M51.9667 30.2573C51.2609 30.2573 50.5939 30.5351 50.0739 31.0556L45.1375 36.5815L45.7053 37.1147L45.8386 36.9653L53.8917 39.2293V39.3376C53.8917 39.5556 54.0639 39.7324 54.2768 39.7324C54.4896 39.7324 54.6618 39.5556 54.6618 39.3376V33.0209C54.6618 31.497 53.4526 30.2573 51.9667 30.2573Z" fill="#FACCCC"/>
<path d="M58.3195 29.4678C58.9707 29.4678 59.5546 29.8909 59.7716 30.5205C59.8427 30.726 59.7377 30.9517 59.537 31.0244C59.4054 31.0729 59.2677 31.0363 59.1666 30.9503L57.5495 32.9416V33.4157C57.5495 33.6337 57.3773 33.8105 57.1644 33.8105C56.9516 33.8105 56.7794 33.6337 56.7794 33.4157V31.0469C56.7794 30.1762 57.4701 29.4678 58.3195 29.4678Z" fill="#D09999"/>
<path d="M59.4745 30.2573C60.1803 30.2573 60.8473 30.5351 61.3673 31.0556L66.3037 36.5816L65.7359 37.1148L65.6026 36.9654L57.5495 39.2293V39.3376C57.5495 39.5556 57.3773 39.7324 57.1644 39.7324C56.9516 39.7324 56.7794 39.5556 56.7794 39.3376V33.0209C56.7794 31.497 57.9886 30.2573 59.4745 30.2573Z" fill="#FACCCC"/>
<path d="M49.2716 44.4699C51.6106 44.4699 53.5068 42.5256 53.5068 40.1271C53.5068 37.7287 51.6106 35.7844 49.2716 35.7844C46.9325 35.7844 45.0364 37.7287 45.0364 40.1271C45.0364 42.5256 46.9325 44.4699 49.2716 44.4699Z" fill="#E4FAFF"/>
<path d="M49.2716 34.6001C46.2994 34.6001 43.8813 37.0795 43.8813 40.1272C43.8813 43.1749 46.2994 45.6543 49.2716 45.6543C52.2438 45.6543 54.6618 43.1749 54.6618 40.1272C54.6618 37.0795 52.2438 34.6001 49.2716 34.6001ZM49.2716 44.0751C47.1487 44.0751 45.4214 42.304 45.4214 40.1272C45.4214 37.9504 47.1487 36.1793 49.2716 36.1793C51.3945 36.1793 53.1218 37.9504 53.1218 40.1272C53.1218 42.304 51.3945 44.0751 49.2716 44.0751Z" fill="#E95755"/>
<path d="M53.1127 34.995H58.3286L58.3787 34.9941C57.7443 35.7466 57.3506 36.7956 57.3506 37.9559V39.3377H54.0907V37.9559C54.0907 36.7956 53.697 35.7466 53.0626 34.9941" fill="#D09999"/>
<path d="M50.5229 40.9169C51.3734 40.9169 52.0629 40.2099 52.0629 39.3377C52.0629 38.4656 51.3734 37.7585 50.5229 37.7585C49.6723 37.7585 48.9828 38.4656 48.9828 39.3377C48.9828 40.2099 49.6723 40.9169 50.5229 40.9169Z" fill="white"/>
<path d="M62.1697 44.4699C64.5087 44.4699 66.4049 42.5256 66.4049 40.1271C66.4049 37.7287 64.5087 35.7844 62.1697 35.7844C59.8307 35.7844 57.9345 37.7287 57.9345 40.1271C57.9345 42.5256 59.8307 44.4699 62.1697 44.4699Z" fill="#E4FAFF"/>
<path d="M62.1697 34.6001C59.1974 34.6001 56.7794 37.0795 56.7794 40.1272C56.7794 43.1749 59.1974 45.6543 62.1697 45.6543C65.1419 45.6543 67.5599 43.1749 67.5599 40.1272C67.5599 37.0795 65.1419 34.6001 62.1697 34.6001ZM62.1697 44.0751C60.0467 44.0751 58.3195 42.304 58.3195 40.1272C58.3195 37.9504 60.0467 36.1793 62.1697 36.1793C64.2926 36.1793 66.0198 37.9504 66.0198 40.1272C66.0198 42.304 64.2926 44.0751 62.1697 44.0751Z" fill="#FACCCC"/>
<path d="M49.2716 34.6001C46.2994 34.6001 43.8813 37.0795 43.8813 40.1272C43.8813 43.1749 46.2994 45.6543 49.2716 45.6543C52.2438 45.6543 54.6618 43.1749 54.6618 40.1272C54.6618 37.0795 52.2438 34.6001 49.2716 34.6001ZM49.2716 44.0751C47.1487 44.0751 45.4214 42.304 45.4214 40.1272C45.4214 37.9504 47.1487 36.1793 49.2716 36.1793C51.3945 36.1793 53.1218 37.9504 53.1218 40.1272C53.1218 42.304 51.3945 44.0751 49.2716 44.0751Z" fill="#FACCCC"/>
<path d="M63.4048 40.9169C64.2554 40.9169 64.9449 40.2099 64.9449 39.3377C64.9449 38.4656 64.2554 37.7585 63.4048 37.7585C62.5543 37.7585 61.8647 38.4656 61.8647 39.3377C61.8647 40.2099 62.5543 40.9169 63.4048 40.9169Z" fill="white"/>
<path d="M58.4158 34.2053H53.1218V34.9949H58.4158V34.2053Z" fill="#FACCCC"/>
<path d="M51.8064 38.059C51.5631 37.613 51.2286 37.2734 50.8028 37.0403C50.3771 36.8071 49.8804 36.6905 49.3127 36.6905C48.6842 36.6905 48.1267 36.8325 47.6401 37.1163C47.1536 37.4001 46.7734 37.8056 46.4998 38.3327C46.2261 38.8598 46.0892 39.468 46.0892 40.1573C46.0892 40.8669 46.2261 41.4853 46.4998 42.0124C46.7836 42.5395 47.1739 42.945 47.6706 43.2288C48.1673 43.5126 48.7451 43.6545 49.404 43.6545C50.2149 43.6545 50.8789 43.4417 51.3958 43.0159C51.9128 42.58 52.2524 41.9769 52.4146 41.2065H48.7653V39.5795H54.5129V41.4346C54.371 42.1746 54.0669 42.8588 53.6006 43.4873C53.1343 44.1158 52.5312 44.6226 51.7912 45.0078C51.0613 45.3829 50.2402 45.5704 49.3279 45.5704C48.3041 45.5704 47.3766 45.3423 46.5454 44.8862C45.7243 44.4199 45.0755 43.7762 44.5991 42.9551C44.1328 42.134 43.8997 41.2014 43.8997 40.1573C43.8997 39.1132 44.1328 38.1807 44.5991 37.3596C45.0755 36.5284 45.7243 35.8847 46.5454 35.4285C47.3766 34.9622 48.299 34.7291 49.3127 34.7291C50.5089 34.7291 51.5479 35.023 52.4298 35.611C53.3117 36.1888 53.9199 37.0048 54.2544 38.059H51.8064Z" fill="#E95755"/>
<path d="M62.1153 45.5856C61.1218 45.5856 60.2095 45.3525 59.3783 44.8862C58.5471 44.4199 57.8882 43.7762 57.4016 42.9551C56.9151 42.1239 56.6718 41.1862 56.6718 40.1421C56.6718 39.1082 56.9151 38.1807 57.4016 37.3596C57.8882 36.5284 58.5471 35.8796 59.3783 35.4133C60.2095 34.947 61.1218 34.7139 62.1153 34.7139C63.1188 34.7139 64.0311 34.947 64.8522 35.4133C65.6834 35.8796 66.3372 36.5284 66.8137 37.3596C67.3002 38.1807 67.5435 39.1082 67.5435 40.1421C67.5435 41.1862 67.3002 42.1239 66.8137 42.9551C66.3372 43.7762 65.6834 44.4199 64.8522 44.8862C64.021 45.3525 63.1087 45.5856 62.1153 45.5856ZM62.1153 43.685C62.7539 43.685 63.3165 43.543 63.803 43.2592C64.2896 42.9652 64.6697 42.5496 64.9434 42.0124C65.2171 41.4751 65.354 40.8517 65.354 40.1421C65.354 39.4326 65.2171 38.8142 64.9434 38.2871C64.6697 37.7498 64.2896 37.3393 63.803 37.0555C63.3165 36.7716 62.7539 36.6297 62.1153 36.6297C61.4766 36.6297 60.909 36.7716 60.4123 37.0555C59.9257 37.3393 59.5456 37.7498 59.2719 38.2871C58.9982 38.8142 58.8613 39.4326 58.8613 40.1421C58.8613 40.8517 58.9982 41.4751 59.2719 42.0124C59.5456 42.5496 59.9257 42.9652 60.4123 43.2592C60.909 43.543 61.4766 43.685 62.1153 43.685Z" fill="#E95755"/>
<path d="M54.6378 40.6654L54.5897 41.0504L54.5415 41.2429L54.4934 41.4354V39.5825H54.6378V39.6547L54.6619 39.9435V40.2322L54.6378 40.6654Z" fill="#E95755"/>
</svg>
