<svg width="25" height="26" viewBox="0 0 25 26" fill="none" xmlns="http://www.w3.org/2000/svg">
  <path
    d="M8.75 12.2188C7.8875 12.2188 7.1875 12.9187 7.1875 13.7812C7.1875 14.6438 7.8875 15.3438 8.75 15.3438C9.6125 15.3438 10.3125 14.6438 10.3125 13.7812C10.3125 12.9187 9.6125 12.2188 8.75 12.2188ZM16.25 12.2188C15.3875 12.2188 14.6875 12.9187 14.6875 13.7812C14.6875 14.6438 15.3875 15.3438 16.25 15.3438C17.1125 15.3438 17.8125 14.6438 17.8125 13.7812C17.8125 12.9187 17.1125 12.2188 16.25 12.2188ZM12.5 0.03125C5.6 0.03125 0 5.63125 0 12.5312C0 19.4312 5.6 25.0312 12.5 25.0312C19.4 25.0312 25 19.4312 25 12.5312C25 5.63125 19.4 0.03125 12.5 0.03125ZM12.5 22.5312C6.9875 22.5312 2.5 18.0438 2.5 12.5312C2.5 12.1687 2.525 11.8063 2.5625 11.4563C5.5125 10.1438 7.85 7.73125 9.075 4.74375C11.3375 7.94375 15.0625 10.0312 19.275 10.0312C20.25 10.0312 21.1875 9.91875 22.0875 9.70625C22.35 10.5938 22.5 11.5437 22.5 12.5312C22.5 18.0438 18.0125 22.5312 12.5 22.5312Z"
    fill="#835A7C" />
</svg>