<svg width="27" height="27" viewBox="0 0 27 27" fill="none" xmlns="http://www.w3.org/2000/svg">
<g clip-path="url(#clip0_3005_3466)">
<rect x="-0.000488281" y="-0.000488281" width="26.3442" height="26.3442" rx="3.29303" fill="#F0C7E9"/>
<path d="M4.52734 -0.412109L26.7549 21.8154V23.4619L2.88086 -0.412109H4.52734ZM26.7559 9.05566V18.9346L6.99707 -0.412109H17.2881L26.7559 9.05566Z" fill="white" fill-opacity="0.6"/>
<path d="M2.05762 4.52739C2.05762 3.16337 3.16337 2.05762 4.52739 2.05762H21.8158C23.1798 2.05762 24.2856 3.16337 24.2856 4.52739V21.8158C24.2856 23.1798 23.1798 24.2856 21.8158 24.2856H4.52739C3.16337 24.2856 2.05762 23.1798 2.05762 21.8158V4.52739Z" stroke="#835A7C" stroke-width="1.23489"/>
<path d="M13 6.38379C11.7144 6.38379 10.4577 6.76501 9.3888 7.47924C8.31988 8.19347 7.48676 9.20863 6.99479 10.3963C6.50282 11.5841 6.37409 12.891 6.6249 14.1519C6.8757 15.4128 7.49477 16.5709 8.40381 17.48C9.31285 18.389 10.471 19.0081 11.7319 19.2589C12.9928 19.5097 14.2997 19.381 15.4874 18.889C16.6752 18.397 17.6903 17.5639 18.4046 16.495C19.1188 15.4261 19.5 14.1694 19.5 12.8838C19.4982 11.1604 18.8128 9.5082 17.5942 8.2896C16.3756 7.07101 14.7234 6.38561 13 6.38379ZM13 16.8838C12.8517 16.8838 12.7067 16.8398 12.5833 16.7574C12.46 16.675 12.3639 16.5578 12.3071 16.4208C12.2503 16.2838 12.2355 16.133 12.2644 15.9875C12.2934 15.842 12.3648 15.7083 12.4697 15.6035C12.5746 15.4986 12.7082 15.4271 12.8537 15.3982C12.9992 15.3693 13.15 15.3841 13.287 15.4409C13.4241 15.4976 13.5412 15.5938 13.6236 15.7171C13.706 15.8404 13.75 15.9855 13.75 16.1338C13.75 16.3327 13.671 16.5235 13.5303 16.6641C13.3897 16.8048 13.1989 16.8838 13 16.8838ZM13.5 13.8388V13.8838C13.5 14.0164 13.4473 14.1436 13.3536 14.2373C13.2598 14.3311 13.1326 14.3838 13 14.3838C12.8674 14.3838 12.7402 14.3311 12.6464 14.2373C12.5527 14.1436 12.5 14.0164 12.5 13.8838V13.3838C12.5 13.2512 12.5527 13.124 12.6464 13.0302C12.7402 12.9365 12.8674 12.8838 13 12.8838C13.8269 12.8838 14.5 12.3213 14.5 11.6338C14.5 10.9463 13.8269 10.3838 13 10.3838C12.1731 10.3838 11.5 10.9463 11.5 11.6338V11.8838C11.5 12.0164 11.4473 12.1436 11.3536 12.2373C11.2598 12.3311 11.1326 12.3838 11 12.3838C10.8674 12.3838 10.7402 12.3311 10.6464 12.2373C10.5527 12.1436 10.5 12.0164 10.5 11.8838V11.6338C10.5 10.3932 11.6213 9.38379 13 9.38379C14.3788 9.38379 15.5 10.3932 15.5 11.6338C15.5 12.72 14.64 13.6294 13.5 13.8388Z" fill="#CA5CB7"/>
</g>
<defs>
<clipPath id="clip0_3005_3466">
<rect width="26.66" height="26.66" fill="white"/>
</clipPath>
</defs>
</svg>
