<svg width="64" height="78" viewBox="0 0 64 78" fill="none" xmlns="http://www.w3.org/2000/svg">
<path d="M32 1C46.3593 1 57.9999 12.7654 58 27.2783C58 36.4496 53.3513 45.0521 46.3056 50.1423C40.5992 54.2649 35 59.9602 35 67C35 68.6569 33.6569 70 32 70C30.3431 70 29 68.6569 29 67C29 59.9602 23.4008 54.2649 17.6944 50.1423C10.6487 45.0521 6 36.4496 6 27.2783C6.00011 12.7654 17.6407 1 32 1Z" fill="url(#paint0_linear_9099_1407)"/>
<circle cx="32" cy="75" r="3" fill="#865C7F"/>
<g filter="url(#filter0_d_9099_1407)">
<rect x="13" y="9" width="38" height="38" rx="19" fill="#FEFEFE" shape-rendering="crispEdges"/>
<rect x="13" y="9" width="38" height="38" rx="19" stroke="#58B171" stroke-width="2" shape-rendering="crispEdges"/>
<path d="M30.3511 24.7521L25.167 31.7009C25.045 31.8644 24.9867 32.0653 25.0026 32.2673C25.0184 32.4692 25.1074 32.659 25.2535 32.8022L25.9601 33.4962C26.1083 33.6415 26.3052 33.729 26.5142 33.7426C26.7232 33.7561 26.9301 33.6948 27.0966 33.57L33.8885 28.4845M35.108 36.2681C34.2431 35.6962 33.2675 35.272 32.0809 35.272C30.301 35.272 28.6836 37.271 26.8916 36.9689C25.0995 36.6669 24.4915 34.1105 25.5943 33.1509M39 24.2422C39 26.5851 37.0639 28.4845 34.6756 28.4845C32.2873 28.4845 30.3511 26.5851 30.3511 24.2422C30.3511 21.8993 32.2873 20 34.6756 20C37.0639 20 39 21.8993 39 24.2422Z" stroke="#58B171" stroke-width="2" stroke-linecap="round" stroke-linejoin="round"/>
</g>
<defs>
<filter id="filter0_d_9099_1407" x="0" y="0" width="64" height="64" filterUnits="userSpaceOnUse" color-interpolation-filters="sRGB">
<feFlood flood-opacity="0" result="BackgroundImageFix"/>
<feColorMatrix in="SourceAlpha" type="matrix" values="0 0 0 0 0 0 0 0 0 0 0 0 0 0 0 0 0 0 127 0" result="hardAlpha"/>
<feOffset dy="4"/>
<feGaussianBlur stdDeviation="6"/>
<feComposite in2="hardAlpha" operator="out"/>
<feColorMatrix type="matrix" values="0 0 0 0 0 0 0 0 0 0 0 0 0 0 0 0 0 0 0.12 0"/>
<feBlend mode="normal" in2="BackgroundImageFix" result="effect1_dropShadow_9099_1407"/>
<feBlend mode="normal" in="SourceGraphic" in2="effect1_dropShadow_9099_1407" result="shape"/>
</filter>
<linearGradient id="paint0_linear_9099_1407" x1="32" y1="1" x2="32" y2="70" gradientUnits="userSpaceOnUse">
<stop stop-color="#58B171"/>
<stop offset="1" stop-color="#835A7C"/>
</linearGradient>
</defs>
</svg>
