<svg width="52" height="77" viewBox="0 0 52 77" fill="none" xmlns="http://www.w3.org/2000/svg">
<path d="M26 0C40.3593 0 51.9999 11.7654 52 26.2783C52 35.4496 47.3513 44.0521 40.3056 49.1423C34.5992 53.2649 29 58.9602 29 66C29 67.6569 27.6569 69 26 69C24.3431 69 23 67.6569 23 66C23 58.9602 17.4008 53.2649 11.6944 49.1423C4.64869 44.0521 0 35.4496 0 26.2783C0.000114169 11.7654 11.6407 0 26 0Z" fill="url(#paint0_linear_8902_480)"/>
<circle cx="26" cy="74" r="3" fill="#865C7F"/>
<rect x="7" y="8" width="38" height="38" rx="19" fill="#FEFEFE"/>
<rect x="7" y="8" width="38" height="38" rx="19" stroke="#58B171" stroke-width="2"/>
<path d="M26 29.5556H18.8C18.3226 29.5556 17.8648 29.3683 17.5272 29.0349C17.1896 28.7015 17 28.2493 17 27.7778C17 27.3063 17.1896 26.8541 17.5272 26.5207C17.8648 26.1873 18.3226 26 18.8 26H33.2C33.6774 26 34.1352 26.1873 34.4728 26.5207C34.8104 26.8541 35 27.3063 35 27.7778C35 28.2493 34.8104 28.7015 34.4728 29.0349C34.1352 29.3683 33.6774 29.5556 33.2 29.5556H29.375M19.7 26C19.2226 26 18.7648 25.8127 18.4272 25.4793C18.0896 25.1459 17.9 24.6937 17.9 24.2222C17.9 22.572 18.7534 20.9893 20.2724 19.8224C21.7915 18.6556 23.8517 18 26 18C28.1483 18 30.2085 18.6556 31.7276 19.8224C33.2466 20.9893 34.1 22.572 34.1 24.2222C34.1 24.6937 33.9104 25.1459 33.5728 25.4793C33.2352 25.8127 32.7774 26 32.3 26M19.7 29.5556C19.2226 29.5556 18.7648 29.7429 18.4272 30.0763C18.0896 30.4097 17.9 30.8618 17.9 31.3333C17.9 32.0406 18.1845 32.7189 18.6908 33.219C19.1972 33.719 19.8839 34 20.6 34H31.4C32.1161 34 32.8028 33.719 33.3092 33.219C33.8155 32.7189 34.1 32.0406 34.1 31.3333C34.1 30.8618 33.9104 30.4097 33.5728 30.0763C33.2352 29.7429 32.7774 29.5556 32.3 29.5556M21.203 26L26.72 30.0889C27.1019 30.3718 27.582 30.4933 28.0546 30.4266C28.2886 30.3936 28.5137 30.3153 28.7171 30.1964C28.9205 30.0775 29.0982 29.9201 29.24 29.7333L32.075 26" stroke="#58B171" stroke-width="2" stroke-linecap="round" stroke-linejoin="round"/>
<defs>
<linearGradient id="paint0_linear_8902_480" x1="26" y1="0" x2="26" y2="69" gradientUnits="userSpaceOnUse">
<stop stop-color="#58B171"/>
<stop offset="1" stop-color="#835A7C"/>
</linearGradient>
</defs>
</svg>
