<svg width="64" height="78" viewBox="0 0 64 78" fill="none" xmlns="http://www.w3.org/2000/svg">
<path d="M32 1C46.3593 1 57.9999 12.7654 58 27.2783C58 36.4496 53.3513 45.0521 46.3056 50.1423C40.5992 54.2649 35 59.9602 35 67C35 68.6569 33.6569 70 32 70C30.3431 70 29 68.6569 29 67C29 59.9602 23.4008 54.2649 17.6944 50.1423C10.6487 45.0521 6 36.4496 6 27.2783C6.00011 12.7654 17.6407 1 32 1Z" fill="url(#paint0_linear_9099_1436)"/>
<circle cx="32" cy="75" r="3" fill="#865C7F"/>
<g filter="url(#filter0_d_9099_1436)">
<rect x="13" y="9" width="38" height="38" rx="19" fill="#FEFEFE" shape-rendering="crispEdges"/>
<rect x="13" y="9" width="38" height="38" rx="19" stroke="#58B171" stroke-width="2" shape-rendering="crispEdges"/>
<g clip-path="url(#clip0_9099_1436)">
<path d="M28.1964 30.2848H27.3571C26.4667 30.2848 25.6128 30.6459 24.9833 31.2889C24.3537 31.9318 24 32.8038 24 33.713V35.4271M34.9534 28.2415C35.0088 28.0678 35.1172 27.9168 35.2626 27.8104C35.408 27.704 35.583 27.6479 35.7619 27.6502C35.9407 27.6525 36.1142 27.7131 36.257 27.8232C36.3998 27.9332 36.5044 28.087 36.5555 28.2621L37.1741 29.5065C37.2343 29.6275 37.3217 29.7322 37.4293 29.8119C37.5368 29.8916 37.6613 29.9441 37.7926 29.9651L39.164 30.1845C39.3406 30.1852 39.5125 30.2428 39.6552 30.349C39.7979 30.4552 39.9041 30.6047 39.9588 30.7762C40.0134 30.9477 40.0137 31.1324 39.9597 31.3041C39.9056 31.4757 39.7998 31.6256 39.6575 31.7323L38.6739 32.7334C38.5797 32.8291 38.5091 32.9463 38.468 33.0754C38.4268 33.2044 38.4163 33.3416 38.4372 33.4756L38.6546 34.858C38.7144 35.0313 38.7181 35.2196 38.6651 35.3952C38.6122 35.5708 38.5054 35.7243 38.3605 35.8332C38.2156 35.9421 38.0402 36.0006 37.8603 36C37.6804 35.9994 37.5055 35.9398 37.3612 35.83L36.1317 35.1872C36.0133 35.1252 35.8821 35.0929 35.749 35.0929C35.6159 35.0929 35.4847 35.1252 35.3663 35.1872L34.1368 35.83C33.9925 35.9389 33.818 35.9978 33.6386 35.998C33.4592 35.9982 33.2845 35.9397 33.1401 35.8311C32.9956 35.7225 32.8891 35.5695 32.836 35.3946C32.7829 35.2196 32.7861 35.0319 32.8451 34.8589L33.0616 33.4765C33.0826 33.3424 33.072 33.2053 33.0308 33.0762C32.9897 32.9472 32.9191 32.83 32.825 32.7342L31.8548 31.7461C31.7076 31.6419 31.5969 31.4925 31.5388 31.3196C31.4808 31.1466 31.4784 30.9593 31.532 30.7848C31.5856 30.6104 31.6924 30.4581 31.8369 30.35C31.9813 30.242 32.1558 30.184 32.3348 30.1845L33.7054 29.9651C33.8367 29.9441 33.9612 29.8916 34.0687 29.8119C34.1763 29.7322 34.2637 29.6275 34.3239 29.5065L34.9534 28.2415ZM33.232 23.4283C33.232 25.3216 31.729 26.8565 29.8749 26.8565C28.0208 26.8565 26.5178 25.3216 26.5178 23.4283C26.5178 21.5349 28.0208 20 29.8749 20C31.729 20 33.232 21.5349 33.232 23.4283Z" stroke="#58B171" stroke-width="2" stroke-linecap="round" stroke-linejoin="round"/>
</g>
</g>
<defs>
<filter id="filter0_d_9099_1436" x="0" y="0" width="64" height="64" filterUnits="userSpaceOnUse" color-interpolation-filters="sRGB">
<feFlood flood-opacity="0" result="BackgroundImageFix"/>
<feColorMatrix in="SourceAlpha" type="matrix" values="0 0 0 0 0 0 0 0 0 0 0 0 0 0 0 0 0 0 127 0" result="hardAlpha"/>
<feOffset dy="4"/>
<feGaussianBlur stdDeviation="6"/>
<feComposite in2="hardAlpha" operator="out"/>
<feColorMatrix type="matrix" values="0 0 0 0 0 0 0 0 0 0 0 0 0 0 0 0 0 0 0.12 0"/>
<feBlend mode="normal" in2="BackgroundImageFix" result="effect1_dropShadow_9099_1436"/>
<feBlend mode="normal" in="SourceGraphic" in2="effect1_dropShadow_9099_1436" result="shape"/>
</filter>
<linearGradient id="paint0_linear_9099_1436" x1="32" y1="1" x2="32" y2="70" gradientUnits="userSpaceOnUse">
<stop stop-color="#58B171"/>
<stop offset="1" stop-color="#835A7C"/>
</linearGradient>
<clipPath id="clip0_9099_1436">
<rect width="18" height="18" fill="white" transform="translate(23 19)"/>
</clipPath>
</defs>
</svg>
