<svg width="345" height="170" viewBox="0 0 345 170" fill="none" xmlns="http://www.w3.org/2000/svg">
<ellipse cx="171.806" cy="88.5" rx="32.2615" ry="7.5" fill="#AB2F19"/>
<path d="M235 161V124H345V161C335.671 172 245.106 172.5 235 161Z" fill="#F8C5C4"/>
<ellipse cx="289.806" cy="124" rx="54.8057" ry="9" fill="#EC6765"/>
<path d="M117 161V89H226.613V161C217.285 172 127.106 172.5 117 161Z" fill="#F8C5C4"/>
<ellipse cx="171.806" cy="89" rx="54.8057" ry="9" fill="#EC6765"/>
<path d="M0 161V112.5H109.5V161C100.171 172 10.106 172.5 0 161Z" fill="#FFC2A5"/>
<ellipse cx="54.8057" cy="113" rx="54.8057" ry="9" fill="#FFAA5B"/>
<rect x="138" y="117" width="68" height="29" rx="14.5" fill="#EAB111"/>
<rect x="256" y="136" width="68" height="29" rx="14.5" fill="#DB782A"/>
<rect x="21" y="130" width="68" height="29" rx="14.5" fill="#ABADAD"/>
<rect x="147.229" y="83.9614" width="48.9862" height="5.81192" rx="2.90596" fill="#282C37"/>
<path d="M150.966 74.6208C150.966 73.0159 152.267 71.7148 153.872 71.7148H189.573C191.178 71.7148 192.479 73.0159 192.479 74.6208V83.9614H150.966V74.6208Z" fill="#363B48"/>
<path d="M164.25 71.715C166.077 69.8884 166.879 63.4122 167.052 60.4025V55.7322H176.081V60.4025C176.081 63.9726 176.808 69.6393 178.883 71.715H164.25Z" fill="#F6CA47"/>
<path d="M171.515 59.9874L166.948 61.648L167 60.9215L167.052 60.195L167.156 56.4587H176.081V60.195C176.081 67.1485 177.846 70.8848 178.884 71.715H175.874C174.462 69.2242 173.902 64.4847 173.798 62.3744C173.466 61.129 172.138 60.2642 171.515 59.9874Z" fill="#DAA843"/>
<path d="M170.28 4.14672C170.861 3.27029 172.151 3.28177 172.716 4.1684L183.248 20.6916C183.444 21.0004 183.751 21.2235 184.105 21.3163L203.162 26.3075C204.186 26.5755 204.589 27.8118 203.92 28.6314L191.488 43.8767C191.258 44.1591 191.142 44.5177 191.164 44.8815L192.341 64.6309C192.405 65.7001 191.33 66.4684 190.339 66.0614L172.066 58.5531C171.713 58.408 171.317 58.4077 170.964 58.5521L152.606 66.0578C151.61 66.465 150.533 65.6864 150.607 64.6132L151.963 44.8977C151.989 44.5243 151.87 44.1553 151.63 43.8678L138.932 28.6306C138.252 27.8145 138.649 26.5683 139.676 26.296L158.464 21.3135C158.808 21.2223 159.106 21.0082 159.303 20.7117L170.28 4.14672Z" fill="#F6C946"/>
<path d="M171.432 10.551L170.68 4.6254C170.54 3.53008 171.981 3.00389 172.581 3.931L183.468 20.7638C183.551 20.893 183.679 20.9866 183.828 21.0268L203.475 26.3391C204.536 26.6259 204.482 28.1484 203.404 28.3595L197.842 29.4483C197.753 29.4657 197.662 29.4635 197.574 29.442L181.033 25.3828C180.877 25.3446 180.742 25.248 180.656 25.1131L171.525 10.8076C171.476 10.73 171.444 10.6424 171.432 10.551Z" fill="#EBBD60"/>
<path d="M171.483 10.5453L172.398 4.63414C172.568 3.5362 171.127 2.97504 170.509 3.89876L159.32 20.6416C159.181 20.8498 158.971 21.0006 158.729 21.0663L139.61 26.2663C138.503 26.5673 138.63 28.1768 139.771 28.2996L141.046 28.4369L145.024 29.414C145.187 29.4539 145.357 29.4539 145.519 29.4141L161.734 25.4381C161.993 25.3746 162.218 25.2137 162.361 24.9889L171.332 10.9453C171.41 10.8239 171.461 10.6877 171.483 10.5453Z" fill="#F6DC91"/>
<path d="M155.056 60.6974L152.664 65.278C152.144 66.2728 150.635 65.8496 150.708 64.7296L152.02 44.7265C152.037 44.4627 151.953 44.2022 151.785 43.9983L138.845 28.3087C138.119 27.4284 139.139 26.1916 140.141 26.7365L145.116 29.4406C145.233 29.5045 145.338 29.5905 145.422 29.694L156.139 42.7506C156.307 42.956 156.391 43.2181 156.372 43.483L155.171 60.2909C155.161 60.4329 155.122 60.5713 155.056 60.6974Z" fill="#E0A83C"/>
<path d="M198.101 29.3757L202.747 26.7478C203.743 26.1846 204.784 27.4109 204.067 28.302L191.424 44.0042C191.263 44.2048 191.182 44.4582 191.197 44.7152L192.359 64.7312C192.424 65.8359 190.945 66.2606 190.413 65.2902L187.957 60.809C187.885 60.6778 187.842 60.5327 187.832 60.3836L186.632 43.4873C186.613 43.2198 186.698 42.9553 186.87 42.7494L197.815 29.6147C197.895 29.5184 197.992 29.4374 198.101 29.3757Z" fill="#E0A83C"/>
<path d="M187.883 60.7347L191.778 64.239C192.638 65.0123 191.78 66.4 190.704 65.9762L171.927 58.5803C171.683 58.484 171.411 58.484 171.167 58.5801L152.336 65.9869C151.271 66.406 150.412 65.0447 151.248 64.2629L155.01 60.7459C155.106 60.6561 155.219 60.5855 155.341 60.5376L171.167 54.3448C171.411 54.2491 171.683 54.2496 171.927 54.3463L187.571 60.5414C187.685 60.5868 187.791 60.6523 187.883 60.7347Z" fill="#F6DC91"/>
<path d="M166.637 30.2013L170.062 16.1904L163.42 26.984L153.456 29.4748L166.637 30.2013Z" fill="#F9E383"/>
<path d="M169.134 29.4749C168.482 29.4749 167.898 29.8981 167.681 30.5278C167.61 30.7334 167.715 30.9591 167.916 31.0318C168.047 31.0803 168.185 31.0437 168.286 30.9578L169.904 32.9495V33.4237C169.904 33.6418 170.076 33.8186 170.289 33.8186C170.502 33.8186 170.674 33.6418 170.674 33.4237V31.0544C170.674 30.1834 169.983 29.4749 169.134 29.4749Z" fill="#D09999"/>
<path d="M167.978 30.2646C167.272 30.2646 166.605 30.5425 166.085 31.0631L161.148 36.5903L161.715 37.1237L161.849 36.9743L169.904 39.2387V39.347C169.904 39.5651 170.076 39.7419 170.289 39.7419C170.502 39.7419 170.674 39.5651 170.674 39.347V33.0289C170.674 31.5046 169.465 30.2646 167.978 30.2646Z" fill="#FACCCC"/>
<path d="M174.333 29.4749C174.984 29.4749 175.568 29.8981 175.785 30.5278C175.856 30.7334 175.751 30.9591 175.55 31.0318C175.419 31.0803 175.281 31.0437 175.18 30.9578L173.562 32.9495V33.4237C173.562 33.6418 173.39 33.8186 173.177 33.8186C172.964 33.8186 172.792 33.6418 172.792 33.4237V31.0544C172.792 30.1834 173.483 29.4749 174.333 29.4749Z" fill="#D09999"/>
<path d="M175.488 30.2646C176.194 30.2646 176.861 30.5425 177.381 31.0631L182.319 36.5904L181.751 37.1237L181.617 36.9743L173.562 39.2387V39.347C173.562 39.5651 173.39 39.7419 173.177 39.7419C172.964 39.7419 172.792 39.5651 172.792 39.347V33.0289C172.792 31.5046 174.002 30.2646 175.488 30.2646Z" fill="#FACCCC"/>
<path d="M165.283 44.4805C167.622 44.4805 169.519 42.5357 169.519 40.1367C169.519 37.7377 167.622 35.793 165.283 35.793C162.943 35.793 161.046 37.7377 161.046 40.1367C161.046 42.5357 162.943 44.4805 165.283 44.4805Z" fill="#E4FAFF"/>
<path d="M165.283 34.6084C162.31 34.6084 159.891 37.0884 159.891 40.1368C159.891 43.1852 162.31 45.6652 165.283 45.6652C168.256 45.6652 170.674 43.1852 170.674 40.1368C170.674 37.0884 168.256 34.6084 165.283 34.6084ZM165.283 44.0857C163.159 44.0857 161.431 42.3142 161.431 40.1368C161.431 37.9595 163.159 36.1879 165.283 36.1879C167.406 36.1879 169.134 37.9595 169.134 40.1368C169.134 42.3142 167.406 44.0857 165.283 44.0857Z" fill="#E95755"/>
<path d="M169.125 35.0033H174.342L174.392 35.0024C173.757 35.755 173.364 36.8043 173.364 37.9649V39.347H170.103V37.9649C170.103 36.8043 169.709 35.755 169.074 35.0024" fill="#D09999"/>
<path d="M166.534 40.9267C167.385 40.9267 168.075 40.2195 168.075 39.3471C168.075 38.4748 167.385 37.7676 166.534 37.7676C165.683 37.7676 164.994 38.4748 164.994 39.3471C164.994 40.2195 165.683 40.9267 166.534 40.9267Z" fill="white"/>
<path d="M178.184 44.4805C180.523 44.4805 182.42 42.5357 182.42 40.1367C182.42 37.7377 180.523 35.793 178.184 35.793C175.844 35.793 173.947 37.7377 173.947 40.1367C173.947 42.5357 175.844 44.4805 178.184 44.4805Z" fill="#E4FAFF"/>
<path d="M178.184 34.6084C175.211 34.6084 172.792 37.0884 172.792 40.1368C172.792 43.1852 175.211 45.6652 178.184 45.6652C181.157 45.6652 183.575 43.1852 183.575 40.1368C183.575 37.0884 181.157 34.6084 178.184 34.6084ZM178.184 44.0857C176.06 44.0857 174.333 42.3142 174.333 40.1368C174.333 37.9595 176.06 36.1879 178.184 36.1879C180.307 36.1879 182.035 37.9595 182.035 40.1368C182.035 42.3142 180.307 44.0857 178.184 44.0857Z" fill="#FACCCC"/>
<path d="M165.283 34.6084C162.31 34.6084 159.891 37.0884 159.891 40.1368C159.891 43.1852 162.31 45.6652 165.283 45.6652C168.256 45.6652 170.674 43.1852 170.674 40.1368C170.674 37.0884 168.256 34.6084 165.283 34.6084ZM165.283 44.0857C163.159 44.0857 161.431 42.3142 161.431 40.1368C161.431 37.9595 163.159 36.1879 165.283 36.1879C167.406 36.1879 169.134 37.9595 169.134 40.1368C169.134 42.3142 167.406 44.0857 165.283 44.0857Z" fill="#FACCCC"/>
<path d="M179.419 40.9267C180.27 40.9267 180.96 40.2195 180.96 39.3471C180.96 38.4748 180.27 37.7676 179.419 37.7676C178.568 37.7676 177.879 38.4748 177.879 39.3471C177.879 40.2195 178.568 40.9267 179.419 40.9267Z" fill="white"/>
<path d="M174.429 34.2136H169.134V35.0034H174.429V34.2136Z" fill="#FACCCC"/>
<path d="M167.818 38.0684C167.575 37.6222 167.24 37.2826 166.814 37.0494C166.388 36.8162 165.892 36.6996 165.324 36.6996C164.695 36.6996 164.137 36.8415 163.651 37.1254C163.164 37.4093 162.784 37.8149 162.51 38.3421C162.236 38.8694 162.099 39.4777 162.099 40.1672C162.099 40.8769 162.236 41.4954 162.51 42.0227C162.794 42.5499 163.184 42.9555 163.681 43.2394C164.178 43.5233 164.756 43.6652 165.415 43.6652C166.226 43.6652 166.89 43.4523 167.407 43.0264C167.924 42.5905 168.264 41.9872 168.426 41.2166H164.776V39.5892H170.525V41.4447C170.383 42.1849 170.079 42.8693 169.613 43.4979C169.146 44.1265 168.543 44.6335 167.803 45.0188C167.073 45.394 166.251 45.5815 165.339 45.5815C164.315 45.5815 163.387 45.3534 162.556 44.8971C161.734 44.4307 161.086 43.7869 160.609 42.9656C160.143 42.1443 159.909 41.2115 159.909 40.1672C159.909 39.1228 160.143 38.19 160.609 37.3688C161.086 36.5373 161.734 35.8935 162.556 35.4372C163.387 34.9708 164.31 34.7376 165.324 34.7376C166.52 34.7376 167.559 35.0317 168.442 35.6197C169.324 36.1977 169.932 37.0139 170.267 38.0684H167.818Z" fill="#E95755"/>
<path d="M178.129 45.5967C177.136 45.5967 176.223 45.3635 175.392 44.8971C174.56 44.4307 173.901 43.7869 173.415 42.9656C172.928 42.1342 172.685 41.1963 172.685 40.152C172.685 39.1178 172.928 38.19 173.415 37.3688C173.901 36.5373 174.56 35.8884 175.392 35.422C176.223 34.9556 177.136 34.7224 178.129 34.7224C179.133 34.7224 180.046 34.9556 180.867 35.422C181.698 35.8884 182.352 36.5373 182.829 37.3688C183.315 38.19 183.559 39.1178 183.559 40.152C183.559 41.1963 183.315 42.1342 182.829 42.9656C182.352 43.7869 181.698 44.4307 180.867 44.8971C180.035 45.3635 179.123 45.5967 178.129 45.5967ZM178.129 43.6956C178.768 43.6956 179.331 43.5537 179.817 43.2698C180.304 42.9757 180.684 42.56 180.958 42.0227C181.232 41.4853 181.369 40.8617 181.369 40.152C181.369 39.4422 181.232 38.8237 180.958 38.2965C180.684 37.7591 180.304 37.3485 179.817 37.0646C179.331 36.7807 178.768 36.6387 178.129 36.6387C177.491 36.6387 176.923 36.7807 176.426 37.0646C175.939 37.3485 175.559 37.7591 175.285 38.2965C175.011 38.8237 174.875 39.4422 174.875 40.152C174.875 40.8617 175.011 41.4853 175.285 42.0227C175.559 42.56 175.939 42.9757 176.426 43.2698C176.923 43.5537 177.491 43.6956 178.129 43.6956Z" fill="#E95755"/>
<path d="M170.65 40.6749L170.602 41.06L170.554 41.2526L170.506 41.4451V39.5918H170.65V39.664L170.674 39.9528V40.2417L170.65 40.6749Z" fill="#E95755"/>
<rect x="266.223" y="119.942" width="48.9746" height="5.81054" rx="2.90527" fill="#282C37"/>
<path d="M269.958 110.603C269.958 108.999 271.259 107.698 272.863 107.698H308.557C310.161 107.698 311.462 108.999 311.462 110.603V119.942H269.958V110.603Z" fill="#363B48"/>
<path d="M283.239 107.698C285.065 105.872 285.868 99.3972 286.041 96.3882V91.719H295.068V96.3882C295.068 99.9575 295.794 105.623 297.869 107.698H283.239Z" fill="#D2762D"/>
<path d="M290.502 95.9731L285.937 97.6333L285.989 96.907L286.041 96.1807L286.144 92.4453H295.068V96.1807C295.068 103.133 296.832 106.868 297.869 107.698H294.86C293.449 105.208 292.889 100.469 292.785 98.3596C292.453 97.1145 291.125 96.2498 290.502 95.9731Z" fill="#974219"/>
<path d="M289.268 40.1458C289.848 39.2696 291.139 39.281 291.704 40.1675L302.232 56.6868C302.429 56.9955 302.735 57.2185 303.089 57.3113L322.143 62.3014C323.165 62.5692 323.568 63.8052 322.9 64.6246L310.471 79.8664C310.241 80.1487 310.125 80.5072 310.147 80.8709L311.324 100.616C311.388 101.685 310.312 102.453 309.322 102.046L291.053 94.5392C290.7 94.3942 290.304 94.3939 289.951 94.5383L271.598 102.042C270.603 102.449 269.525 101.671 269.599 100.598L270.956 80.8871C270.981 80.5138 270.862 80.1449 270.622 79.8574L257.928 64.6239C257.248 63.8079 257.645 62.562 258.671 62.2898L277.455 57.3085C277.798 57.2173 278.097 57.0032 278.293 56.7068L289.268 40.1458Z" fill="#D0732A"/>
<path d="M290.42 46.5486L289.667 40.6243C289.528 39.5293 290.968 39.0032 291.568 39.9301L302.452 56.7589C302.536 56.888 302.664 56.9817 302.812 57.0218L322.455 62.3329C323.515 62.6196 323.461 64.1417 322.384 64.3528L316.823 65.4414C316.735 65.4588 316.643 65.4566 316.555 65.435L300.018 61.3768C299.862 61.3387 299.728 61.2421 299.642 61.1071L290.513 46.8051C290.463 46.7275 290.431 46.6399 290.42 46.5486Z" fill="#DA8A4C"/>
<path d="M290.471 46.5428L291.385 40.633C291.555 39.5354 290.114 38.9743 289.497 39.8978L278.31 56.6367C278.171 56.8448 277.962 56.9956 277.72 57.0613L258.605 62.26C257.498 62.561 257.626 64.1701 258.766 64.2929L260.04 64.4302L264.018 65.407C264.181 65.4469 264.35 65.447 264.513 65.4071L280.724 61.4321C280.983 61.3686 281.207 61.2077 281.351 60.9829L290.32 46.9427C290.397 46.8213 290.449 46.6852 290.471 46.5428Z" fill="#E4A773"/>
<path d="M274.047 96.6832L271.656 101.263C271.136 102.257 269.627 101.834 269.701 100.714L271.012 80.7161C271.029 80.4523 270.945 80.1919 270.777 79.988L257.84 64.3022C257.114 63.422 258.134 62.1855 259.136 62.7303L264.11 65.4337C264.227 65.4976 264.331 65.5837 264.416 65.6871L275.13 78.7407C275.298 78.9459 275.382 79.208 275.363 79.4729L274.162 96.2768C274.152 96.4187 274.113 96.557 274.047 96.6832Z" fill="#9A4419"/>
<path d="M317.083 65.3689L321.727 62.7416C322.723 62.1784 323.764 63.4045 323.046 64.2954L310.407 79.9939C310.246 80.1944 310.165 80.4477 310.18 80.7047L311.342 100.716C311.406 101.82 309.928 102.245 309.396 101.275L306.941 96.7946C306.869 96.6636 306.826 96.5185 306.815 96.3694L305.616 79.477C305.597 79.2096 305.682 78.9453 305.854 78.7393L316.796 65.6078C316.876 65.5115 316.973 65.4306 317.083 65.3689Z" fill="#9A4419"/>
<path d="M306.866 96.7203L310.761 100.224C311.621 100.997 310.763 102.384 309.687 101.961L290.915 94.5664C290.67 94.4702 290.399 94.4701 290.155 94.5662L271.329 101.971C270.263 102.39 269.404 101.029 270.24 100.248L274.002 96.7315C274.098 96.6418 274.21 96.5711 274.332 96.5232L290.154 90.3319C290.399 90.2363 290.67 90.2368 290.914 90.3335L306.554 96.5271C306.669 96.5725 306.775 96.6379 306.866 96.7203Z" fill="#E4A773"/>
<path d="M285.626 66.1941L289.05 52.1865L282.409 62.9775L272.448 65.4678L285.626 66.1941Z" fill="#EEA86B"/>
<path d="M288.122 65.4678C287.471 65.4678 286.887 65.8909 286.67 66.5205C286.599 66.726 286.704 66.9517 286.904 67.0244C287.036 67.0729 287.174 67.0363 287.275 66.9503L288.892 68.9416V69.4157C288.892 69.6337 289.064 69.8105 289.277 69.8105C289.49 69.8105 289.662 69.6337 289.662 69.4157V67.0469C289.662 66.1762 288.971 65.4678 288.122 65.4678Z" fill="#D09999"/>
<path d="M286.967 66.2573C286.261 66.2573 285.594 66.5351 285.074 67.0556L280.137 72.5815L280.705 73.1147L280.839 72.9653L288.892 75.2293V75.3376C288.892 75.5556 289.064 75.7324 289.277 75.7324C289.49 75.7324 289.662 75.5556 289.662 75.3376V69.0209C289.662 67.497 288.453 66.2573 286.967 66.2573Z" fill="#FACCCC"/>
<path d="M293.319 65.4678C293.971 65.4678 294.555 65.8909 294.772 66.5205C294.843 66.726 294.738 66.9517 294.537 67.0244C294.405 67.0729 294.268 67.0363 294.167 66.9503L292.549 68.9416V69.4157C292.549 69.6337 292.377 69.8105 292.164 69.8105C291.952 69.8105 291.779 69.6337 291.779 69.4157V67.0469C291.779 66.1762 292.47 65.4678 293.319 65.4678Z" fill="#D09999"/>
<path d="M294.475 66.2573C295.18 66.2573 295.847 66.5351 296.367 67.0556L301.304 72.5816L300.736 73.1148L300.603 72.9654L292.549 75.2293V75.3376C292.549 75.5556 292.377 75.7324 292.164 75.7324C291.952 75.7324 291.779 75.5556 291.779 75.3376V69.0209C291.779 67.497 292.989 66.2573 294.475 66.2573Z" fill="#FACCCC"/>
<path d="M284.272 80.4699C286.611 80.4699 288.507 78.5256 288.507 76.1271C288.507 73.7287 286.611 71.7844 284.272 71.7844C281.933 71.7844 280.036 73.7287 280.036 76.1271C280.036 78.5256 281.933 80.4699 284.272 80.4699Z" fill="#E4FAFF"/>
<path d="M284.272 70.6001C281.299 70.6001 278.881 73.0795 278.881 76.1272C278.881 79.1749 281.299 81.6543 284.272 81.6543C287.244 81.6543 289.662 79.1749 289.662 76.1272C289.662 73.0795 287.244 70.6001 284.272 70.6001ZM284.272 80.0751C282.149 80.0751 280.421 78.304 280.421 76.1272C280.421 73.9504 282.149 72.1793 284.272 72.1793C286.394 72.1793 288.122 73.9504 288.122 76.1272C288.122 78.304 286.394 80.0751 284.272 80.0751Z" fill="#E95755"/>
<path d="M288.113 70.995H293.329L293.379 70.9941C292.744 71.7466 292.351 72.7956 292.351 73.9559V75.3377H289.091V73.9559C289.091 72.7956 288.697 71.7466 288.062 70.9941" fill="#D09999"/>
<path d="M285.523 76.9169C286.373 76.9169 287.063 76.2099 287.063 75.3377C287.063 74.4656 286.373 73.7585 285.523 73.7585C284.672 73.7585 283.983 74.4656 283.983 75.3377C283.983 76.2099 284.672 76.9169 285.523 76.9169Z" fill="white"/>
<path d="M297.17 80.4699C299.509 80.4699 301.405 78.5256 301.405 76.1271C301.405 73.7287 299.509 71.7844 297.17 71.7844C294.831 71.7844 292.934 73.7287 292.934 76.1271C292.934 78.5256 294.831 80.4699 297.17 80.4699Z" fill="#E4FAFF"/>
<path d="M297.17 70.6001C294.197 70.6001 291.779 73.0795 291.779 76.1272C291.779 79.1749 294.197 81.6543 297.17 81.6543C300.142 81.6543 302.56 79.1749 302.56 76.1272C302.56 73.0795 300.142 70.6001 297.17 70.6001ZM297.17 80.0751C295.047 80.0751 293.319 78.304 293.319 76.1272C293.319 73.9504 295.047 72.1793 297.17 72.1793C299.293 72.1793 301.02 73.9504 301.02 76.1272C301.02 78.304 299.293 80.0751 297.17 80.0751Z" fill="#FACCCC"/>
<path d="M284.272 70.6001C281.299 70.6001 278.881 73.0795 278.881 76.1272C278.881 79.1749 281.299 81.6543 284.272 81.6543C287.244 81.6543 289.662 79.1749 289.662 76.1272C289.662 73.0795 287.244 70.6001 284.272 70.6001ZM284.272 80.0751C282.149 80.0751 280.421 78.304 280.421 76.1272C280.421 73.9504 282.149 72.1793 284.272 72.1793C286.394 72.1793 288.122 73.9504 288.122 76.1272C288.122 78.304 286.394 80.0751 284.272 80.0751Z" fill="#FACCCC"/>
<path d="M298.405 76.9169C299.255 76.9169 299.945 76.2099 299.945 75.3377C299.945 74.4656 299.255 73.7585 298.405 73.7585C297.554 73.7585 296.865 74.4656 296.865 75.3377C296.865 76.2099 297.554 76.9169 298.405 76.9169Z" fill="white"/>
<path d="M293.416 70.2053H288.122V70.9949H293.416V70.2053Z" fill="#FACCCC"/>
<path d="M286.806 74.059C286.563 73.613 286.229 73.2734 285.803 73.0403C285.377 72.8071 284.88 72.6905 284.313 72.6905C283.684 72.6905 283.127 72.8325 282.64 73.1163C282.154 73.4001 281.773 73.8056 281.5 74.3327C281.226 74.8598 281.089 75.468 281.089 76.1573C281.089 76.8669 281.226 77.4853 281.5 78.0124C281.784 78.5395 282.174 78.945 282.671 79.2288C283.167 79.5126 283.745 79.6545 284.404 79.6545C285.215 79.6545 285.879 79.4417 286.396 79.0159C286.913 78.58 287.252 77.9769 287.415 77.2065H283.765V75.5795H289.513V77.4346C289.371 78.1746 289.067 78.8588 288.601 79.4873C288.134 80.1158 287.531 80.6226 286.791 81.0078C286.061 81.3829 285.24 81.5704 284.328 81.5704C283.304 81.5704 282.377 81.3423 281.545 80.8862C280.724 80.4199 280.075 79.7762 279.599 78.9551C279.133 78.134 278.9 77.2014 278.9 76.1573C278.9 75.1132 279.133 74.1807 279.599 73.3596C280.075 72.5284 280.724 71.8847 281.545 71.4285C282.377 70.9622 283.299 70.7291 284.313 70.7291C285.509 70.7291 286.548 71.023 287.43 71.611C288.312 72.1888 288.92 73.0048 289.254 74.059H286.806Z" fill="#E95755"/>
<path d="M297.115 81.5856C296.122 81.5856 295.209 81.3525 294.378 80.8862C293.547 80.4199 292.888 79.7762 292.402 78.9551C291.915 78.1239 291.672 77.1862 291.672 76.1421C291.672 75.1082 291.915 74.1807 292.402 73.3596C292.888 72.5284 293.547 71.8796 294.378 71.4133C295.209 70.947 296.122 70.7139 297.115 70.7139C298.119 70.7139 299.031 70.947 299.852 71.4133C300.683 71.8796 301.337 72.5284 301.814 73.3596C302.3 74.1807 302.543 75.1082 302.543 76.1421C302.543 77.1862 302.3 78.1239 301.814 78.9551C301.337 79.7762 300.683 80.4199 299.852 80.8862C299.021 81.3525 298.109 81.5856 297.115 81.5856ZM297.115 79.685C297.754 79.685 298.316 79.543 298.803 79.2592C299.29 78.9652 299.67 78.5496 299.943 78.0124C300.217 77.4751 300.354 76.8517 300.354 76.1421C300.354 75.4326 300.217 74.8142 299.943 74.2871C299.67 73.7498 299.29 73.3393 298.803 73.0555C298.316 72.7716 297.754 72.6297 297.115 72.6297C296.477 72.6297 295.909 72.7716 295.412 73.0555C294.926 73.3393 294.546 73.7498 294.272 74.2871C293.998 74.8142 293.861 75.4326 293.861 76.1421C293.861 76.8517 293.998 77.4751 294.272 78.0124C294.546 78.5496 294.926 78.9652 295.412 79.2592C295.909 79.543 296.477 79.685 297.115 79.685Z" fill="#E95755"/>
<path d="M289.638 76.6654L289.59 77.0504L289.541 77.2429L289.493 77.4354V75.5825H289.638V75.6547L289.662 75.9435V76.2322L289.638 76.6654Z" fill="#E95755"/>
<rect x="32.2227" y="107.942" width="48.9746" height="5.81054" rx="2.90527" fill="#282C37"/>
<path d="M35.958 98.6033C35.958 96.9987 37.2587 95.698 38.8633 95.698H74.5566C76.1612 95.698 77.4619 96.9987 77.4619 98.6033V107.942H35.958V98.6033Z" fill="#363B48"/>
<path d="M49.2392 95.698C51.0654 93.8718 51.8678 87.3972 52.0407 84.3882V79.719H61.0678V84.3882C61.0678 87.9575 61.7942 93.6228 63.8693 95.698H49.2392Z" fill="#BFC4C6"/>
<path d="M56.5024 83.9731L51.937 85.6333L51.9888 84.907L52.0407 84.1807L52.1445 80.4453H61.0678V84.1807C61.0678 91.1326 62.8317 94.8679 63.8693 95.698H60.8603C59.4492 93.2078 58.8889 88.4694 58.7851 86.3596C58.4531 85.1145 57.1249 84.2498 56.5024 83.9731Z" fill="#91969B"/>
<path d="M55.2678 28.1458C55.8485 27.2696 57.1387 27.281 57.7037 28.1675L68.2325 44.6868C68.4292 44.9955 68.7353 45.2185 69.0894 45.3113L88.1426 50.3014C89.1654 50.5692 89.5685 51.8052 88.9003 52.6246L76.471 67.8664C76.2408 68.1487 76.125 68.5072 76.1467 68.8709L77.3242 88.6156C77.3879 89.6846 76.3125 90.4527 75.322 90.0458L57.0531 82.5392C56.7002 82.3942 56.3045 82.3939 55.9513 82.5383L37.5983 90.0422C36.6027 90.4493 35.5255 89.6709 35.5993 88.5979L36.9556 68.8871C36.9813 68.5138 36.8619 68.1449 36.6223 67.8574L23.9276 52.6239C23.2477 51.8079 23.6446 50.562 24.6712 50.2898L43.4548 45.3085C43.7985 45.2173 44.0969 45.0032 44.2933 44.7068L55.2678 28.1458Z" fill="#BFC4C6"/>
<path d="M56.4198 34.5486L55.6674 28.6243C55.5283 27.5293 56.9685 27.0032 57.5679 27.9301L68.4523 44.7589C68.5358 44.888 68.6641 44.9817 68.8125 45.0218L88.455 50.3329C89.5154 50.6196 89.4615 52.1417 88.3836 52.3528L82.8233 53.4414C82.7346 53.4588 82.6431 53.4566 82.5553 53.435L66.018 49.3768C65.8625 49.3387 65.7277 49.2421 65.6416 49.1071L56.5126 34.8051C56.4631 34.7275 56.4314 34.6399 56.4198 34.5486Z" fill="#D0D7D9"/>
<path d="M56.4708 34.5428L57.3853 28.633C57.5551 27.5354 56.1144 26.9743 55.4972 27.8978L44.3104 44.6367C44.1713 44.8448 43.9616 44.9956 43.72 45.0613L24.6048 50.26C23.498 50.561 23.6256 52.1701 24.766 52.2929L26.0404 52.4302L30.0182 53.407C30.1807 53.4469 30.3503 53.447 30.5128 53.4071L46.7236 49.4321C46.9827 49.3686 47.2074 49.2077 47.3509 48.9829L56.3198 34.9427C56.3974 34.8213 56.4488 34.6852 56.4708 34.5428Z" fill="#E6EBEF"/>
<path d="M40.0473 84.6832L37.6558 89.2626C37.1364 90.2573 35.6273 89.8341 35.7007 88.7144L37.012 68.7161C37.0293 68.4523 36.9453 68.1919 36.7771 67.988L23.8404 52.3022C23.1145 51.422 24.1341 50.1855 25.1364 50.7303L30.1097 53.4337C30.2272 53.4976 30.3313 53.5837 30.4162 53.6871L41.1299 66.7407C41.2983 66.9459 41.3817 67.208 41.3628 67.4729L40.1625 84.2768C40.1524 84.4187 40.1131 84.557 40.0473 84.6832Z" fill="#91969B"/>
<path d="M83.0825 53.3689L87.7275 50.7416C88.7231 50.1784 89.7638 51.4045 89.0465 52.2954L76.4073 67.9939C76.2458 68.1944 76.1647 68.4477 76.1796 68.7047L77.3421 88.7159C77.4063 89.8204 75.9282 90.245 75.3964 89.2749L72.9405 84.7946C72.8687 84.6636 72.826 84.5185 72.8154 84.3694L71.6159 67.477C71.597 67.2096 71.6822 66.9453 71.8538 66.7393L82.7963 53.6078C82.8765 53.5115 82.9735 53.4306 83.0825 53.3689Z" fill="#91969B"/>
<path d="M72.8662 84.7203L76.7611 88.2238C77.6206 88.9969 76.7625 90.3843 75.687 89.9606L56.9147 82.5664C56.6704 82.4702 56.3988 82.4701 56.1546 82.5662L37.3286 89.9713C36.2635 90.3903 35.4041 89.0293 36.2402 88.2477L40.0018 84.7315C40.0978 84.6418 40.21 84.5711 40.3323 84.5232L56.1543 78.3319C56.3987 78.2363 56.6704 78.2368 56.9144 78.3335L72.5544 84.5271C72.669 84.5725 72.7746 84.6379 72.8662 84.7203Z" fill="#E6EBEF"/>
<path d="M51.6257 54.1941L55.0497 40.1865L48.4091 50.9775L38.4482 53.4678L51.6257 54.1941Z" fill="#EDF1F4"/>
<path d="M54.1217 53.4678C53.4705 53.4678 52.8866 53.8909 52.6696 54.5205C52.5986 54.726 52.7035 54.9517 52.9043 55.0244C53.0358 55.0729 53.1735 55.0363 53.2746 54.9503L54.8918 56.9416V57.4157C54.8918 57.6337 55.064 57.8105 55.2768 57.8105C55.4896 57.8105 55.6618 57.6337 55.6618 57.4157V55.0469C55.6618 54.1762 54.9711 53.4678 54.1217 53.4678Z" fill="#D09999"/>
<path d="M52.9665 54.2573C52.2608 54.2573 51.5938 54.5351 51.0738 55.0556L46.1374 60.5815L46.7051 61.1147L46.8385 60.9653L54.8916 63.2293V63.3376C54.8916 63.5556 55.0638 63.7324 55.2766 63.7324C55.4895 63.7324 55.6617 63.5556 55.6617 63.3376V57.0209C55.6617 55.497 54.4525 54.2573 52.9665 54.2573Z" fill="#FACCCC"/>
<path d="M59.3194 53.4678C59.9706 53.4678 60.5546 53.8909 60.7715 54.5205C60.8426 54.726 60.7377 54.9517 60.5369 55.0244C60.4054 55.0729 60.2677 55.0363 60.1666 54.9503L58.5494 56.9416V57.4157C58.5494 57.6337 58.3772 57.8105 58.1644 57.8105C57.9516 57.8105 57.7794 57.6337 57.7794 57.4157V55.0469C57.7794 54.1762 58.47 53.4678 59.3194 53.4678Z" fill="#D09999"/>
<path d="M60.4745 54.2573C61.1802 54.2573 61.8472 54.5351 62.3672 55.0556L67.3036 60.5816L66.7359 61.1148L66.6025 60.9654L58.5494 63.2293V63.3376C58.5494 63.5556 58.3772 63.7324 58.1644 63.7324C57.9516 63.7324 57.7794 63.5556 57.7794 63.3376V57.0209C57.7794 55.497 58.9886 54.2573 60.4745 54.2573Z" fill="#FACCCC"/>
<path d="M50.2715 68.4699C52.6105 68.4699 54.5067 66.5256 54.5067 64.1271C54.5067 61.7287 52.6105 59.7844 50.2715 59.7844C47.9324 59.7844 46.0363 61.7287 46.0363 64.1271C46.0363 66.5256 47.9324 68.4699 50.2715 68.4699Z" fill="#E4FAFF"/>
<path d="M50.2715 58.6001C47.2993 58.6001 44.8813 61.0795 44.8813 64.1272C44.8813 67.1749 47.2993 69.6543 50.2715 69.6543C53.2437 69.6543 55.6617 67.1749 55.6617 64.1272C55.6617 61.0795 53.2437 58.6001 50.2715 58.6001ZM50.2715 68.0751C48.1486 68.0751 46.4213 66.304 46.4213 64.1272C46.4213 61.9504 48.1486 60.1793 50.2715 60.1793C52.3944 60.1793 54.1217 61.9504 54.1217 64.1272C54.1217 66.304 52.3944 68.0751 50.2715 68.0751Z" fill="#E95755"/>
<path d="M54.1126 58.995H59.3285L59.3786 58.9941C58.7442 59.7466 58.3505 60.7956 58.3505 61.9559V63.3377H55.0906V61.9559C55.0906 60.7956 54.6969 59.7466 54.0625 58.9941" fill="#D09999"/>
<path d="M51.5228 64.9169C52.3734 64.9169 53.0629 64.2099 53.0629 63.3377C53.0629 62.4656 52.3734 61.7585 51.5228 61.7585C50.6722 61.7585 49.9827 62.4656 49.9827 63.3377C49.9827 64.2099 50.6722 64.9169 51.5228 64.9169Z" fill="white"/>
<path d="M63.1696 68.4699C65.5086 68.4699 67.4048 66.5256 67.4048 64.1271C67.4048 61.7287 65.5086 59.7844 63.1696 59.7844C60.8305 59.7844 58.9344 61.7287 58.9344 64.1271C58.9344 66.5256 60.8305 68.4699 63.1696 68.4699Z" fill="#E4FAFF"/>
<path d="M63.1696 58.6001C60.1974 58.6001 57.7794 61.0795 57.7794 64.1272C57.7794 67.1749 60.1974 69.6543 63.1696 69.6543C66.1418 69.6543 68.5598 67.1749 68.5598 64.1272C68.5598 61.0795 66.1418 58.6001 63.1696 58.6001ZM63.1696 68.0751C61.0467 68.0751 59.3194 66.304 59.3194 64.1272C59.3194 61.9504 61.0467 60.1793 63.1696 60.1793C65.2925 60.1793 67.0198 61.9504 67.0198 64.1272C67.0198 66.304 65.2925 68.0751 63.1696 68.0751Z" fill="#FACCCC"/>
<path d="M50.2715 58.6001C47.2993 58.6001 44.8813 61.0795 44.8813 64.1272C44.8813 67.1749 47.2993 69.6543 50.2715 69.6543C53.2437 69.6543 55.6617 67.1749 55.6617 64.1272C55.6617 61.0795 53.2437 58.6001 50.2715 58.6001ZM50.2715 68.0751C48.1486 68.0751 46.4213 66.304 46.4213 64.1272C46.4213 61.9504 48.1486 60.1793 50.2715 60.1793C52.3944 60.1793 54.1217 61.9504 54.1217 64.1272C54.1217 66.304 52.3944 68.0751 50.2715 68.0751Z" fill="#FACCCC"/>
<path d="M64.4047 64.9169C65.2552 64.9169 65.9448 64.2099 65.9448 63.3377C65.9448 62.4656 65.2552 61.7585 64.4047 61.7585C63.5541 61.7585 62.8646 62.4656 62.8646 63.3377C62.8646 64.2099 63.5541 64.9169 64.4047 64.9169Z" fill="white"/>
<path d="M59.4157 58.2053H54.1217V58.9949H59.4157V58.2053Z" fill="#FACCCC"/>
<path d="M52.8062 62.059C52.5629 61.613 52.2284 61.2734 51.8027 61.0403C51.3769 60.8071 50.8802 60.6905 50.3126 60.6905C49.6841 60.6905 49.1266 60.8325 48.64 61.1163C48.1534 61.4001 47.7733 61.8056 47.4996 62.3327C47.2259 62.8598 47.0891 63.468 47.0891 64.1573C47.0891 64.8669 47.2259 65.4853 47.4996 66.0124C47.7834 66.5395 48.1737 66.945 48.6704 67.2288C49.1671 67.5126 49.7449 67.6545 50.4038 67.6545C51.2147 67.6545 51.8787 67.4417 52.3957 67.0159C52.9127 66.58 53.2523 65.9769 53.4144 65.2065H49.7652V63.5795H55.5128V65.4346C55.3708 66.1746 55.0667 66.8588 54.6005 67.4873C54.1342 68.1158 53.531 68.6226 52.791 69.0078C52.0612 69.3829 51.2401 69.5704 50.3278 69.5704C49.304 69.5704 48.3764 69.3423 47.5452 68.8862C46.7241 68.4199 46.0754 67.7762 45.5989 66.9551C45.1327 66.134 44.8995 65.2014 44.8995 64.1573C44.8995 63.1132 45.1327 62.1807 45.5989 61.3596C46.0754 60.5284 46.7241 59.8847 47.5452 59.4285C48.3764 58.9622 49.2989 58.7291 50.3126 58.7291C51.5087 58.7291 52.5477 59.023 53.4296 59.611C54.3116 60.1888 54.9198 61.0048 55.2543 62.059H52.8062Z" fill="#E95755"/>
<path d="M63.1151 69.5856C62.1217 69.5856 61.2094 69.3525 60.3782 68.8862C59.5469 68.4199 58.888 67.7762 58.4015 66.9551C57.9149 66.1239 57.6716 65.1862 57.6716 64.1421C57.6716 63.1082 57.9149 62.1807 58.4015 61.3596C58.888 60.5284 59.5469 59.8796 60.3782 59.4133C61.2094 58.947 62.1217 58.7139 63.1151 58.7139C64.1186 58.7139 65.031 58.947 65.852 59.4133C66.6833 59.8796 67.3371 60.5284 67.8135 61.3596C68.3001 62.1807 68.5434 63.1082 68.5434 64.1421C68.5434 65.1862 68.3001 66.1239 67.8135 66.9551C67.3371 67.7762 66.6833 68.4199 65.852 68.8862C65.0208 69.3525 64.1085 69.5856 63.1151 69.5856ZM63.1151 67.685C63.7537 67.685 64.3163 67.543 64.8029 67.2592C65.2895 66.9652 65.6696 66.5496 65.9433 66.0124C66.217 65.4751 66.3538 64.8517 66.3538 64.1421C66.3538 63.4326 66.217 62.8142 65.9433 62.2871C65.6696 61.7498 65.2895 61.3393 64.8029 61.0555C64.3163 60.7716 63.7537 60.6297 63.1151 60.6297C62.4765 60.6297 61.9088 60.7716 61.4121 61.0555C60.9255 61.3393 60.5454 61.7498 60.2717 62.2871C59.998 62.8142 59.8612 63.4326 59.8612 64.1421C59.8612 64.8517 59.998 65.4751 60.2717 66.0124C60.5454 66.5496 60.9255 66.9652 61.4121 67.2592C61.9088 67.543 62.4765 67.685 63.1151 67.685Z" fill="#E95755"/>
<path d="M55.6377 64.6651L55.5895 65.0502L55.5414 65.2427L55.4933 65.4352V63.5823H55.6377V63.6545L55.6617 63.9432V64.232L55.6377 64.6651Z" fill="#E95755"/>
</svg>
