<svg width="62" height="58" viewBox="0 0 62 58" fill="none" xmlns="http://www.w3.org/2000/svg">
<g filter="url(#filter0_d_8721_16502)">
<rect x="10" y="10" width="38" height="38" rx="19" fill="#58B171" shape-rendering="crispEdges"/>
<rect x="9" y="9" width="40" height="40" rx="20" stroke="#58B171" stroke-width="2" shape-rendering="crispEdges"/>
<g clip-path="url(#clip0_8721_16502)">
<path d="M25.1964 31.2848H24.3571C23.4667 31.2848 22.6128 31.6459 21.9833 32.2889C21.3537 32.9318 21 33.8038 21 34.713V36.4271M31.9534 29.2415C32.0088 29.0678 32.1172 28.9168 32.2626 28.8104C32.408 28.704 32.583 28.6479 32.7619 28.6502C32.9407 28.6525 33.1142 28.7131 33.257 28.8232C33.3998 28.9332 33.5044 29.087 33.5555 29.2621L34.1741 30.5065C34.2343 30.6275 34.3217 30.7322 34.4293 30.8119C34.5368 30.8916 34.6613 30.9441 34.7926 30.9651L36.164 31.1845C36.3406 31.1852 36.5125 31.2428 36.6552 31.349C36.7979 31.4552 36.9041 31.6047 36.9588 31.7762C37.0134 31.9477 37.0137 32.1324 36.9597 32.3041C36.9056 32.4757 36.7998 32.6256 36.6575 32.7323L35.6739 33.7334C35.5797 33.8291 35.5091 33.9463 35.468 34.0754C35.4268 34.2044 35.4163 34.3416 35.4372 34.4756L35.6546 35.858C35.7144 36.0313 35.7181 36.2196 35.6651 36.3952C35.6122 36.5708 35.5054 36.7243 35.3605 36.8332C35.2156 36.9421 35.0402 37.0006 34.8603 37C34.6804 36.9994 34.5055 36.9398 34.3612 36.83L33.1317 36.1872C33.0133 36.1252 32.8821 36.0929 32.749 36.0929C32.6159 36.0929 32.4847 36.1252 32.3663 36.1872L31.1368 36.83C30.9925 36.9389 30.818 36.9978 30.6386 36.998C30.4592 36.9982 30.2845 36.9397 30.1401 36.8311C29.9956 36.7225 29.8891 36.5695 29.836 36.3946C29.7829 36.2196 29.7861 36.0319 29.8451 35.8589L30.0616 34.4765C30.0826 34.3424 30.072 34.2053 30.0308 34.0762C29.9897 33.9472 29.9191 33.83 29.825 33.7342L28.8548 32.7461C28.7076 32.6419 28.5969 32.4925 28.5388 32.3196C28.4808 32.1466 28.4784 31.9593 28.532 31.7848C28.5856 31.6104 28.6924 31.4581 28.8369 31.35C28.9813 31.242 29.1558 31.184 29.3348 31.1845L30.7054 30.9651C30.8367 30.9441 30.9612 30.8916 31.0687 30.8119C31.1763 30.7322 31.2637 30.6275 31.3239 30.5065L31.9534 29.2415ZM30.232 24.4283C30.232 26.3216 28.729 27.8565 26.8749 27.8565C25.0208 27.8565 23.5178 26.3216 23.5178 24.4283C23.5178 22.5349 25.0208 21 26.8749 21C28.729 21 30.232 22.5349 30.232 24.4283Z" stroke="#FAFAFA" stroke-width="2" stroke-linecap="round" stroke-linejoin="round"/>
</g>
</g>
<defs>
<filter id="filter0_d_8721_16502" x="-4" y="0" width="66" height="66" filterUnits="userSpaceOnUse" color-interpolation-filters="sRGB">
<feFlood flood-opacity="0" result="BackgroundImageFix"/>
<feColorMatrix in="SourceAlpha" type="matrix" values="0 0 0 0 0 0 0 0 0 0 0 0 0 0 0 0 0 0 127 0" result="hardAlpha"/>
<feOffset dy="4"/>
<feGaussianBlur stdDeviation="6"/>
<feComposite in2="hardAlpha" operator="out"/>
<feColorMatrix type="matrix" values="0 0 0 0 0 0 0 0 0 0 0 0 0 0 0 0 0 0 0.12 0"/>
<feBlend mode="normal" in2="BackgroundImageFix" result="effect1_dropShadow_8721_16502"/>
<feBlend mode="normal" in="SourceGraphic" in2="effect1_dropShadow_8721_16502" result="shape"/>
</filter>
<clipPath id="clip0_8721_16502">
<rect width="18" height="18" fill="white" transform="translate(20 20)"/>
</clipPath>
</defs>
</svg>
