<svg width="66" height="58" viewBox="0 0 66 58" fill="none" xmlns="http://www.w3.org/2000/svg">
<g filter="url(#filter0_d_8721_16506)">
<rect x="14" y="10" width="38" height="38" rx="19" fill="#FFAA5B" shape-rendering="crispEdges"/>
<rect x="13" y="9" width="40" height="40" rx="20" stroke="#FFAA5B" stroke-width="2" shape-rendering="crispEdges"/>
<g clip-path="url(#clip0_8721_16506)">
<path d="M29.1964 31.2848H28.3571C27.4667 31.2848 26.6128 31.6459 25.9833 32.2889C25.3537 32.9318 25 33.8038 25 34.713V36.4271M35.9534 29.2415C36.0088 29.0678 36.1172 28.9168 36.2626 28.8104C36.408 28.704 36.583 28.6479 36.7619 28.6502C36.9407 28.6525 37.1142 28.7131 37.257 28.8232C37.3998 28.9332 37.5044 29.087 37.5555 29.2621L38.1741 30.5065C38.2343 30.6275 38.3217 30.7322 38.4293 30.8119C38.5368 30.8916 38.6613 30.9441 38.7926 30.9651L40.164 31.1845C40.3406 31.1852 40.5125 31.2428 40.6552 31.349C40.7979 31.4552 40.9041 31.6047 40.9588 31.7762C41.0134 31.9477 41.0137 32.1324 40.9597 32.3041C40.9056 32.4757 40.7998 32.6256 40.6575 32.7323L39.6739 33.7334C39.5797 33.8291 39.5091 33.9463 39.468 34.0754C39.4268 34.2044 39.4163 34.3416 39.4372 34.4756L39.6546 35.858C39.7144 36.0313 39.7181 36.2196 39.6651 36.3952C39.6122 36.5708 39.5054 36.7243 39.3605 36.8332C39.2156 36.9421 39.0402 37.0006 38.8603 37C38.6804 36.9994 38.5055 36.9398 38.3612 36.83L37.1317 36.1872C37.0133 36.1252 36.8821 36.0929 36.749 36.0929C36.6159 36.0929 36.4847 36.1252 36.3663 36.1872L35.1368 36.83C34.9925 36.9389 34.818 36.9978 34.6386 36.998C34.4592 36.9982 34.2845 36.9397 34.1401 36.8311C33.9956 36.7225 33.8891 36.5695 33.836 36.3946C33.7829 36.2196 33.7861 36.0319 33.8451 35.8589L34.0616 34.4765C34.0826 34.3424 34.072 34.2053 34.0308 34.0762C33.9897 33.9472 33.9191 33.83 33.825 33.7342L32.8548 32.7461C32.7076 32.6419 32.5969 32.4925 32.5388 32.3196C32.4808 32.1466 32.4784 31.9593 32.532 31.7848C32.5856 31.6104 32.6924 31.4581 32.8369 31.35C32.9813 31.242 33.1558 31.184 33.3348 31.1845L34.7054 30.9651C34.8367 30.9441 34.9612 30.8916 35.0687 30.8119C35.1763 30.7322 35.2637 30.6275 35.3239 30.5065L35.9534 29.2415ZM34.232 24.4283C34.232 26.3216 32.729 27.8565 30.8749 27.8565C29.0208 27.8565 27.5178 26.3216 27.5178 24.4283C27.5178 22.5349 29.0208 21 30.8749 21C32.729 21 34.232 22.5349 34.232 24.4283Z" stroke="#FAFAFA" stroke-width="2" stroke-linecap="round" stroke-linejoin="round"/>
</g>
</g>
<defs>
<filter id="filter0_d_8721_16506" x="0" y="0" width="66" height="66" filterUnits="userSpaceOnUse" color-interpolation-filters="sRGB">
<feFlood flood-opacity="0" result="BackgroundImageFix"/>
<feColorMatrix in="SourceAlpha" type="matrix" values="0 0 0 0 0 0 0 0 0 0 0 0 0 0 0 0 0 0 127 0" result="hardAlpha"/>
<feOffset dy="4"/>
<feGaussianBlur stdDeviation="6"/>
<feComposite in2="hardAlpha" operator="out"/>
<feColorMatrix type="matrix" values="0 0 0 0 0 0 0 0 0 0 0 0 0 0 0 0 0 0 0.12 0"/>
<feBlend mode="normal" in2="BackgroundImageFix" result="effect1_dropShadow_8721_16506"/>
<feBlend mode="normal" in="SourceGraphic" in2="effect1_dropShadow_8721_16506" result="shape"/>
</filter>
<clipPath id="clip0_8721_16506">
<rect width="18" height="18" fill="white" transform="translate(24 20)"/>
</clipPath>
</defs>
</svg>
