<svg width="20" height="20" viewBox="0 0 20 20" fill="none" xmlns="http://www.w3.org/2000/svg">
<path d="M6.66654 12.5H5.83321C4.94916 12.5 4.10131 12.8512 3.47619 13.4763C2.85107 14.1014 2.49988 14.9493 2.49988 15.8333V17.5M13.3757 10.5133C13.4308 10.3444 13.5384 10.1976 13.6828 10.0941C13.8272 9.99069 14.0009 9.93611 14.1785 9.93834C14.3561 9.94057 14.5284 9.9995 14.6701 10.1065C14.8119 10.2136 14.9158 10.3631 14.9665 10.5333L15.5807 11.7433C15.6405 11.8609 15.7273 11.9627 15.8341 12.0402C15.9409 12.1177 16.0645 12.1688 16.1949 12.1892L17.5565 12.4025C17.7319 12.4032 17.9025 12.4591 18.0442 12.5624C18.1859 12.6657 18.2914 12.8111 18.3457 12.9778C18.4 13.1446 18.4003 13.3242 18.3466 13.4911C18.2929 13.658 18.1879 13.8037 18.0465 13.9075L17.0699 14.8808C16.9764 14.9739 16.9063 15.0879 16.8655 15.2133C16.8246 15.3388 16.8141 15.4722 16.8349 15.6025L17.0507 16.9467C17.1101 17.1151 17.1138 17.2982 17.0612 17.4689C17.0086 17.6397 16.9026 17.789 16.7587 17.8948C16.6148 18.0007 16.4407 18.0576 16.2621 18.057C16.0835 18.0564 15.9097 17.9984 15.7665 17.8917L14.5457 17.2667C14.4281 17.2064 14.2979 17.175 14.1657 17.175C14.0336 17.175 13.9033 17.2064 13.7857 17.2667L12.5649 17.8917C12.4217 17.9976 12.2483 18.0548 12.0703 18.055C11.8922 18.0552 11.7187 17.9984 11.5753 17.8928C11.4318 17.7872 11.326 17.6384 11.2733 17.4683C11.2206 17.2982 11.2238 17.1157 11.2824 16.9475L11.4974 15.6033C11.5181 15.473 11.5077 15.3396 11.4668 15.2142C11.4259 15.0887 11.3559 14.9747 11.2624 14.8817L10.299 13.9208C10.1529 13.8196 10.043 13.6743 9.98534 13.5061C9.92768 13.338 9.9253 13.1558 9.97854 12.9862C10.0318 12.8166 10.1379 12.6685 10.2813 12.5635C10.4247 12.4584 10.598 12.402 10.7757 12.4025L12.1365 12.1892C12.2669 12.1688 12.3906 12.1177 12.4973 12.0402C12.6041 11.9627 12.6909 11.8609 12.7507 11.7433L13.3757 10.5133ZM11.6665 5.83332C11.6665 7.67427 10.1742 9.16665 8.33321 9.16665C6.49226 9.16665 4.99988 7.67427 4.99988 5.83332C4.99988 3.99237 6.49226 2.49998 8.33321 2.49998C10.1742 2.49998 11.6665 3.99237 11.6665 5.83332Z" stroke="#A4A4A4" stroke-width="1.26" stroke-linecap="round" stroke-linejoin="round"/>
</svg>
