<svg width="18" height="18" viewBox="0 0 18 18" fill="none" xmlns="http://www.w3.org/2000/svg">
<path d="M4.91667 10.75H4.08333C3.19928 10.75 2.35143 11.1012 1.72631 11.7263C1.10119 12.3514 0.75 13.1993 0.75 14.0833V15.75M11.6258 8.76333C11.6809 8.59445 11.7885 8.44757 11.9329 8.34414C12.0773 8.2407 12.251 8.18612 12.4286 8.18835C12.6062 8.19059 12.7785 8.24952 12.9203 8.35655C13.062 8.46358 13.1659 8.61312 13.2167 8.78333L13.8308 9.99333C13.8906 10.111 13.9774 10.2127 14.0842 10.2902C14.191 10.3677 14.3146 10.4188 14.445 10.4392L15.8067 10.6525C15.982 10.6532 16.1527 10.7092 16.2943 10.8125C16.436 10.9158 16.5415 11.0611 16.5958 11.2278C16.6501 11.3946 16.6504 11.5742 16.5967 11.7411C16.543 11.908 16.438 12.0537 16.2967 12.1575L15.32 13.1308C15.2265 13.2239 15.1564 13.3379 15.1156 13.4634C15.0747 13.5888 15.0642 13.7222 15.085 13.8525L15.3008 15.1967C15.3602 15.3651 15.3639 15.5482 15.3113 15.719C15.2587 15.8897 15.1527 16.039 15.0088 16.1449C14.8649 16.2507 14.6908 16.3076 14.5122 16.307C14.3336 16.3064 14.1599 16.2485 14.0167 16.1417L12.7958 15.5167C12.6782 15.4564 12.548 15.425 12.4158 15.425C12.2837 15.425 12.1534 15.4564 12.0358 15.5167L10.815 16.1417C10.6718 16.2476 10.4985 16.3048 10.3204 16.305C10.1423 16.3052 9.9688 16.2484 9.82538 16.1428C9.68196 16.0372 9.57614 15.8884 9.52343 15.7183C9.47072 15.5482 9.4739 15.3657 9.5325 15.1975L9.7475 13.8533C9.76826 13.723 9.75778 13.5897 9.71693 13.4642C9.67607 13.3387 9.60601 13.2248 9.5125 13.1317L8.54917 12.1708C8.40305 12.0696 8.29313 11.9243 8.23546 11.7562C8.1778 11.588 8.17542 11.4058 8.22866 11.2362C8.28191 11.0666 8.38799 10.9185 8.53141 10.8135C8.67483 10.7085 8.84807 10.6521 9.02583 10.6525L10.3867 10.4392C10.517 10.4188 10.6407 10.3677 10.7474 10.2902C10.8542 10.2127 10.9411 10.111 11.0008 9.99333L11.6258 8.76333ZM9.91667 4.08333C9.91667 5.92428 8.42428 7.41667 6.58333 7.41667C4.74238 7.41667 3.25 5.92428 3.25 4.08333C3.25 2.24238 4.74238 0.75 6.58333 0.75C8.42428 0.75 9.91667 2.24238 9.91667 4.08333Z" stroke="#A4A4A4" stroke-width="1.5" stroke-linecap="round" stroke-linejoin="round"/>
</svg>
