<svg width="134" height="125" viewBox="0 0 134 125" fill="none" xmlns="http://www.w3.org/2000/svg">
<path fill-rule="evenodd" clip-rule="evenodd" d="M74.5544 115.878C72.9048 116.131 39.0377 120.824 22.2412 99.42C10.5394 84.5066 11.2765 61.5165 11.4227 56.9537L11.4249 56.887C11.5058 54.3756 11.695 52.2961 11.8531 50.8797C3.6737 44.2012 0.439066 34.0234 3.57643 25.8523C5.53607 20.7462 10.138 16.1443 16.273 14.544C23.4058 12.6844 31.1951 15.2881 36.2643 21.2583C40.7561 19.4868 46.0871 17.5312 52.2437 16.367C52.9454 16.2342 53.6365 16.0965 54.3176 15.9608L54.3176 15.9608L54.3177 15.9608L54.3179 15.9607C56.4255 15.5408 58.4373 15.14 60.3714 14.9602L65.791 53.5225C65.7918 53.5224 65.7927 53.5222 65.7936 53.5221L60.374 14.9598C62.2827 14.5996 64.3271 14.4304 66.4688 14.253C67.161 14.1957 67.8634 14.1376 68.5746 14.0719C74.8136 13.494 80.4771 13.9044 85.2832 14.3691C88.5104 7.233 95.2803 2.58313 102.649 2.40461C108.988 2.25191 114.68 5.40699 117.971 9.77516C123.239 16.765 122.935 27.44 116.911 36.1148C117.453 37.4327 118.208 39.3795 118.978 41.7713L118.999 41.8348C120.397 46.1805 127.443 68.0769 120.305 85.6381C110.059 110.843 76.2099 115.666 74.5544 115.878ZM74.5544 115.878L74.557 115.877L73.3472 107.269C73.3464 107.269 73.3455 107.269 73.3446 107.27L74.5544 115.878Z" fill="#E95755"/>
<path d="M75.9662 84.9166L64.4385 85.8078C60.1507 86.1393 56.2843 88.5139 54.0497 92.1885C52.2329 95.1761 54.4088 98.9964 57.9053 98.9578L81.4046 98.6982C85.1126 98.6573 87.6451 94.9343 86.3211 91.4704C84.7017 87.2337 80.4884 84.567 75.9662 84.9166Z" fill="#762B2B"/>
<path d="M60.889 96.6803C64.984 93.7955 75.511 93.8801 79.4162 95.9224C84.7383 99.206 78.5498 99.1267 72.3165 98.7904C65.5902 98.4274 54.9044 100.896 60.889 96.6803Z" fill="#F08988"/>
<path d="M69.2734 81.1972L69.2734 84.5473" stroke="#762B2B" stroke-width="3.73942" stroke-linecap="round" stroke-linejoin="round"/>
<path d="M66.011 82.219L67.1318 82.9072C68.5208 83.7601 70.239 83.8803 71.7332 83.229L72.9389 82.7034C75.329 81.6615 74.7176 78.1131 72.1166 77.9313L67.4894 77.6077C64.8883 77.4258 63.7891 80.8545 66.011 82.219Z" fill="#461A1A"/>
<ellipse cx="48.1822" cy="71.94" rx="5.42904" ry="5.42904" transform="rotate(-8 48.1822 71.94)" fill="#461A1A"/>
<ellipse cx="86.8801" cy="67.4348" rx="5.42904" ry="5.42904" transform="rotate(-8 86.8801 67.4348)" fill="#461A1A"/>
<path d="M23.6724 56.244C24.9981 54.7494 26.5071 51.4643 26.5071 51.4643C26.5071 51.4643 27.2858 54.8071 27.974 56.8944C28.5771 58.7237 29.7413 61.5019 29.7413 61.5019C29.7413 61.5019 30.9565 64.1147 30.6739 65.8096C30.3727 67.6157 29.6525 68.7124 28.1395 69.7666C26.6479 70.806 25.3817 71.1398 23.5812 70.8134C21.9041 70.5095 20.9447 69.8352 19.8804 68.5177C18.7035 67.0609 18.2953 65.8143 18.4572 63.9622C18.6032 62.2926 20.2777 60.0709 20.2777 60.0709L23.6724 56.244Z" fill="#02A5E6" stroke="#02A5E6" stroke-width="1.03015"/>
<path d="M23.8565 69.2712C23.8565 69.2712 24.0723 68.9778 23.7612 68.7677C23.4501 68.5577 22.9714 68.3223 22.9714 68.3223C22.9714 68.3223 22.1417 67.9868 21.7029 67.6414C21.4461 67.4393 21.314 67.3088 21.1048 67.0619C20.5592 66.418 20.4454 65.9215 20.1967 65.1313C19.9372 64.3069 19.8396 62.958 19.8396 62.958C19.8396 62.958 19.379 64.1835 19.3587 65.0046C19.3354 65.9408 19.4587 66.5014 19.8593 67.3626C20.1457 67.9784 20.3089 68.3683 20.8397 68.815C21.4573 69.3348 21.963 69.6448 22.7786 69.5973C23.2209 69.5715 23.7744 69.4911 23.8565 69.2712Z" fill="#B6DDEC"/>
<path d="M28.4869 59.6044C28.5127 59.4337 27.1469 54.6863 27.1469 54.6863C27.1469 54.6863 27.5458 58.9382 27.6139 59.4724C27.6819 60.0066 28.0389 60.1512 28.2898 59.9239C28.4113 59.8138 28.4611 59.7752 28.4869 59.6044Z" fill="#B6DDEC"/>
</svg>
