<svg width="26" height="26" viewBox="0 0 26 26" fill="none" xmlns="http://www.w3.org/2000/svg">
<g clip-path="url(#clip0_6604_3781)">
<path d="M-0.000488281 3.25024C-0.000488281 1.45532 1.45459 0.000244141 3.24951 0.000244141H22.7495C24.5444 0.000244141 25.9995 1.45532 25.9995 3.25024V22.7502C25.9995 24.5452 24.5444 26.0002 22.7495 26.0002H3.24951C1.45459 26.0002 -0.000488281 24.5452 -0.000488281 22.7502V3.25024Z" fill="#F0C7E9"/>
<path d="M4.46826 -0.406006L26.4058 21.5315V23.1565L2.84326 -0.406006H4.46826ZM26.4058 8.93774V18.6877L6.90576 -0.406006H17.062L26.4058 8.93774Z" fill="white" fill-opacity="0.6"/>
<path d="M2.03076 4.46899C2.03076 3.1228 3.12207 2.03149 4.46826 2.03149H21.5308C22.877 2.03149 23.9683 3.1228 23.9683 4.46899V21.5315C23.9683 22.8777 22.877 23.969 21.5308 23.969H4.46826C3.12207 23.969 2.03076 22.8777 2.03076 21.5315V4.46899Z" stroke="#835A7C" stroke-width="1.21875"/>
<mask id="path-4-inside-1_6604_3781" fill="white">
<path fill-rule="evenodd" clip-rule="evenodd" d="M13.905 7.5311C13.7225 7.51391 13.5374 7.50513 13.3504 7.50513C10.1221 7.50513 7.50513 10.1221 7.50513 13.3504C7.50513 16.5786 10.1221 19.1956 13.3504 19.1956C16.5786 19.1956 19.1956 16.5786 19.1956 13.3504C19.1956 13.2019 19.1901 13.0547 19.1792 12.909H13.905V7.5311Z"/>
</mask>
<path fill-rule="evenodd" clip-rule="evenodd" d="M13.905 7.5311C13.7225 7.51391 13.5374 7.50513 13.3504 7.50513C10.1221 7.50513 7.50513 10.1221 7.50513 13.3504C7.50513 16.5786 10.1221 19.1956 13.3504 19.1956C16.5786 19.1956 19.1956 16.5786 19.1956 13.3504C19.1956 13.2019 19.1901 13.0547 19.1792 12.909H13.905V7.5311Z" fill="#FCF0FA"/>
<path d="M13.905 7.5311H14.905V6.62081L13.9987 6.5355L13.905 7.5311ZM19.1792 12.909L20.1764 12.8346L20.1073 11.909H19.1792V12.909ZM13.905 12.909H12.905V13.909H13.905V12.909ZM13.3504 7.50513V8.50513C13.5061 8.50513 13.6598 8.51244 13.8113 8.5267L13.905 7.5311L13.9987 6.5355C13.7851 6.51539 13.5688 6.50513 13.3504 6.50513V7.50513ZM7.50513 13.3504H8.50513C8.50513 10.6744 10.6744 8.50513 13.3504 8.50513V7.50513V6.50513C9.56984 6.50513 6.50513 9.56984 6.50513 13.3504H7.50513ZM13.3504 19.1956V18.1956C10.6744 18.1956 8.50513 16.0263 8.50513 13.3504H7.50513H6.50513C6.50513 17.1309 9.56984 20.1956 13.3504 20.1956V19.1956ZM19.1956 13.3504H18.1956C18.1956 16.0263 16.0263 18.1956 13.3504 18.1956V19.1956V20.1956C17.1309 20.1956 20.1956 17.1309 20.1956 13.3504H19.1956ZM19.1792 12.909L18.182 12.9835C18.191 13.1044 18.1956 13.2268 18.1956 13.3504H19.1956H20.1956C20.1956 13.177 20.1891 13.005 20.1764 12.8346L19.1792 12.909ZM19.1792 12.909V11.909H13.905V12.909V13.909H19.1792V12.909ZM13.905 12.909H14.905V7.5311H13.905H12.905V12.909H13.905Z" fill="#CA5CB7" mask="url(#path-4-inside-1_6604_3781)"/>
<path d="M13.3506 5.69043C17.5812 5.69056 21.0107 9.11998 21.0107 13.3506C21.0106 17.5811 17.5811 21.0106 13.3506 21.0107C9.11998 21.0107 5.69056 17.5812 5.69043 13.3506C5.69043 9.1199 9.1199 5.69043 13.3506 5.69043Z" stroke="#CA5CB7" stroke-width="1.38"/>
</g>
<defs>
<clipPath id="clip0_6604_3781">
<rect width="26" height="26" fill="white"/>
</clipPath>
</defs>
</svg>
