<svg width="78" height="34" viewBox="0 0 78 34" fill="none" xmlns="http://www.w3.org/2000/svg">
<g filter="url(#filter0_d_147_79)">
    <rect x="4" width="70" height="26" rx="9.14" fill="#403D3D" fill-opacity="0.8" shape-rendering="crispEdges"/>
<!--    <path fill-rule="evenodd" clip-rule="evenodd" d="M22.5 6C18.634 6 15.5 9.13401 15.5 13C15.5 16.866 18.634 20 22.5 20C26.366 20 29.5 16.866 29.5 13C29.5 9.45066 26.8584 6.51831 23.4339 6.06176L22.5 14V6Z" fill="white"/>-->
    <path d="M31.81 13C31.81 18.1418 27.6418 22.31 22.5 22.31C17.3582 22.31 13.19 18.1418 13.19 13C13.19 7.85823 17.3582 3.69 22.5 3.69C27.6418 3.69 31.81 7.85823 31.81 13Z" stroke="white" stroke-width="1.38"/>
<!--    <path d="M40.0847 15.4665C40.17 15.893 40.3534 16.2172 40.6349 16.439C40.9164 16.6608 41.296 16.7716 41.7736 16.7716C42.3793 16.7716 42.8229 16.5328 43.1044 16.0551C43.3859 15.5774 43.5266 14.7628 43.5266 13.6112C43.3219 13.9012 43.0319 14.1273 42.6565 14.2893C42.2897 14.4429 41.8888 14.5197 41.4538 14.5197C40.8993 14.5197 40.396 14.4088 39.9439 14.187C39.4918 13.9567 39.1335 13.6197 38.8691 13.1762C38.6132 12.7241 38.4852 12.1781 38.4852 11.5383C38.4852 10.6 38.7582 9.85363 39.3041 9.29916C39.8586 8.73617 40.6178 8.45467 41.5817 8.45467C42.7418 8.45467 43.565 8.84279 44.0512 9.61905C44.546 10.3868 44.7933 11.5682 44.7933 13.1634C44.7933 14.2638 44.6995 15.1637 44.5119 15.8632C44.3327 16.5627 44.0171 17.0915 43.565 17.4498C43.1129 17.8081 42.4859 17.9872 41.6841 17.9872C40.7713 17.9872 40.0676 17.7484 39.5728 17.2707C39.0781 16.793 38.8009 16.1916 38.7411 15.4665H40.0847ZM41.7097 13.2913C42.2215 13.2913 42.6224 13.1335 42.9124 12.8179C43.211 12.4937 43.3603 12.0672 43.3603 11.5383C43.3603 10.9498 43.2025 10.4934 42.8868 10.1692C42.5798 9.83657 42.1575 9.67023 41.6201 9.67023C41.0827 9.67023 40.6562 9.84083 40.3406 10.182C40.0335 10.5147 39.8799 10.954 39.8799 11.5C39.8799 12.0203 40.0292 12.4511 40.3278 12.7923C40.6349 13.125 41.0955 13.2913 41.7097 13.2913ZM47.1703 18.0896C46.9058 18.0896 46.6841 18 46.5049 17.8209C46.3258 17.6417 46.2362 17.4199 46.2362 17.1555C46.2362 16.8911 46.3258 16.6693 46.5049 16.4901C46.6841 16.311 46.9058 16.2214 47.1703 16.2214C47.4262 16.2214 47.6437 16.311 47.8228 16.4901C48.002 16.6693 48.0915 16.8911 48.0915 17.1555C48.0915 17.4199 48.002 17.6417 47.8228 17.8209C47.6437 18 47.4262 18.0896 47.1703 18.0896ZM47.1703 12.7155C46.9058 12.7155 46.6841 12.626 46.5049 12.4468C46.3258 12.2677 46.2362 12.0459 46.2362 11.7815C46.2362 11.517 46.3258 11.2952 46.5049 11.1161C46.6841 10.937 46.9058 10.8474 47.1703 10.8474C47.4262 10.8474 47.6437 10.937 47.8228 11.1161C48.002 11.2952 48.0915 11.517 48.0915 11.7815C48.0915 12.0459 48.002 12.2677 47.8228 12.4468C47.6437 12.626 47.4262 12.7155 47.1703 12.7155ZM55.5399 9.92613H51.2535V12.4724C51.4326 12.2336 51.6971 12.0331 52.0468 11.871C52.4051 11.709 52.7847 11.6279 53.1856 11.6279C53.9021 11.6279 54.4822 11.7815 54.9258 12.0885C55.3779 12.3956 55.6978 12.7838 55.8854 13.2529C56.0816 13.7221 56.1797 14.2168 56.1797 14.7372C56.1797 15.3684 56.056 15.9314 55.8086 16.4262C55.5698 16.9124 55.2073 17.2963 54.721 17.5778C54.2433 17.8593 53.6548 18 52.9553 18C52.0255 18 51.2791 17.7697 50.7161 17.3091C50.1531 16.8484 49.8162 16.2385 49.7053 15.4793H51.1255C51.2194 15.8802 51.4284 16.2001 51.7525 16.439C52.0767 16.6693 52.4819 16.7844 52.9681 16.7844C53.5737 16.7844 54.0258 16.601 54.3244 16.2342C54.6315 15.8674 54.785 15.3812 54.785 14.7756C54.785 14.1614 54.6315 13.6922 54.3244 13.3681C54.0173 13.0354 53.5652 12.8691 52.9681 12.8691C52.5501 12.8691 52.1961 12.9757 51.9061 13.1889C51.6246 13.3937 51.4198 13.6752 51.2919 14.0334H49.91V8.6466H55.5399V9.92613ZM59.5151 15.4665C59.6004 15.893 59.7838 16.2172 60.0653 16.439C60.3468 16.6608 60.7264 16.7716 61.2041 16.7716C61.8097 16.7716 62.2533 16.5328 62.5348 16.0551C62.8163 15.5774 62.957 14.7628 62.957 13.6112C62.7523 13.9012 62.4623 14.1273 62.087 14.2893C61.7202 14.4429 61.3192 14.5197 60.8842 14.5197C60.3297 14.5197 59.8265 14.4088 59.3743 14.187C58.9222 13.9567 58.564 13.6197 58.2995 13.1762C58.0436 12.7241 57.9157 12.1781 57.9157 11.5383C57.9157 10.6 58.1886 9.85363 58.7346 9.29916C59.289 8.73617 60.0482 8.45467 61.0122 8.45467C62.1723 8.45467 62.9954 8.84279 63.4817 9.61905C63.9764 10.3868 64.2238 11.5682 64.2238 13.1634C64.2238 14.2638 64.13 15.1637 63.9423 15.8632C63.7632 16.5627 63.4475 17.0915 62.9954 17.4498C62.5433 17.8081 61.9164 17.9872 61.1145 17.9872C60.2018 17.9872 59.498 17.7484 59.0033 17.2707C58.5085 16.793 58.2313 16.1916 58.1716 15.4665H59.5151ZM61.1401 13.2913C61.6519 13.2913 62.0528 13.1335 62.3429 12.8179C62.6414 12.4937 62.7907 12.0672 62.7907 11.5383C62.7907 10.9498 62.6329 10.4934 62.3173 10.1692C62.0102 9.83657 61.5879 9.67023 61.0505 9.67023C60.5131 9.67023 60.0866 9.84083 59.771 10.182C59.4639 10.5147 59.3104 10.954 59.3104 11.5C59.3104 12.0203 59.4597 12.4511 59.7582 12.7923C60.0653 13.125 60.5259 13.2913 61.1401 13.2913Z" fill="white"/>-->
</g>
<defs>
    <filter id="filter0_d_147_79" x="0" y="0" width="78" height="34" filterUnits="userSpaceOnUse" color-interpolation-filters="sRGB">
        <feFlood flood-opacity="0" result="BackgroundImageFix"/>
        <feColorMatrix in="SourceAlpha" type="matrix" values="0 0 0 0 0 0 0 0 0 0 0 0 0 0 0 0 0 0 127 0" result="hardAlpha"/>
        <feOffset dy="4"/>
        <feGaussianBlur stdDeviation="2"/>
        <feComposite in2="hardAlpha" operator="out"/>
        <feColorMatrix type="matrix" values="0 0 0 0 0 0 0 0 0 0 0 0 0 0 0 0 0 0 0.25 0"/>
        <feBlend mode="normal" in2="BackgroundImageFix" result="effect1_dropShadow_147_79"/>
        <feBlend mode="normal" in="SourceGraphic" in2="effect1_dropShadow_147_79" result="shape"/>
    </filter>
</defs>
</svg>
