<svg width="19" height="19" viewBox="0 0 19 19" fill="none" xmlns="http://www.w3.org/2000/svg">
<path id="Union" fill-rule="evenodd" clip-rule="evenodd" d="M13.4451 8.17258C13.4451 11.3331 10.8831 13.8952 7.72257 13.8952C4.56208 13.8952 2 11.3331 2 8.17258C2 5.01209 4.56208 2.45001 7.72257 2.45001C10.8831 2.45001 13.4451 5.01209 13.4451 8.17258ZM12.4305 14.2946C11.1273 15.2983 9.49463 15.8952 7.72257 15.8952C3.45751 15.8952 0 12.4376 0 8.17258C0 3.90752 3.45751 0.450012 7.72257 0.450012C11.9876 0.450012 15.4451 3.90752 15.4451 8.17258C15.4451 9.94461 14.8483 11.5772 13.8447 12.8804L17.8071 16.8429C18.1977 17.2334 18.1977 17.8666 17.8071 18.2571C17.4166 18.6476 16.7834 18.6476 16.3929 18.2571L12.4305 14.2946Z" fill="#BABABA"/>
</svg>
