<svg width="106" height="86" viewBox="0 0 106 86" fill="none" xmlns="http://www.w3.org/2000/svg">
<path d="M15.7426 0L0 15.9956H106L91.3069 0H15.7426Z" fill="white"/>
<rect y="15.9961" width="106" height="70.0044" fill="url(#paint0_linear_2386_227)"/>
<path d="M44.4794 62V59.1364L53.3388 49.9574C54.2848 48.9602 55.0646 48.0866 55.6783 47.3366C56.3004 46.5781 56.7649 45.858 57.0717 45.1761C57.3786 44.4943 57.532 43.7699 57.532 43.0028C57.532 42.1335 57.3274 41.3835 56.9183 40.7528C56.5092 40.1136 55.951 39.6236 55.2436 39.2827C54.5362 38.9332 53.7393 38.7585 52.853 38.7585C51.9155 38.7585 51.0973 38.9503 50.3984 39.3338C49.6996 39.7173 49.1626 40.2585 48.7876 40.9574C48.4126 41.6562 48.2251 42.4744 48.2251 43.4119H44.4538C44.4538 41.8182 44.8203 40.4247 45.5533 39.2315C46.2862 38.0384 47.2919 37.1136 48.5703 36.4574C49.8487 35.7926 51.3018 35.4602 52.9297 35.4602C54.5746 35.4602 56.0234 35.7884 57.2763 36.4446C58.5376 37.0923 59.522 37.9787 60.2294 39.1037C60.9368 40.2202 61.2905 41.4815 61.2905 42.8878C61.2905 43.8594 61.1072 44.8097 60.7408 45.7386C60.3828 46.6676 59.7564 47.7031 58.8615 48.8452C57.9666 49.9787 56.7223 51.3551 55.1286 52.9744L49.9254 58.4205V58.6122H61.7124V62H44.4794Z" fill="black"/>
<defs>
<linearGradient id="paint0_linear_2386_227" x1="53" y1="15.9961" x2="53" y2="86.0005" gradientUnits="userSpaceOnUse">
<stop offset="0.0001" stop-color="white"/>
<stop offset="1" stop-color="#F6E4C9"/>
</linearGradient>
</defs>
</svg>
