<svg width="106" height="62" viewBox="0 0 106 62" fill="none" xmlns="http://www.w3.org/2000/svg">
<path d="M15.7426 0L0 10.9737H106L91.3069 0H15.7426Z" fill="white"/>
<rect y="10.9736" width="106" height="48.0263" fill="url(#paint0_linear_2386_226)"/>
<path d="M52.532 48.358C50.7763 48.358 49.2081 48.0554 47.8274 47.4503C46.4553 46.8452 45.3686 46.0057 44.5675 44.9318C43.7749 43.8494 43.3487 42.5966 43.2891 41.1733H47.3033C47.3544 41.9489 47.6143 42.6222 48.0831 43.1932C48.5604 43.7557 49.1825 44.1903 49.9496 44.4972C50.7166 44.804 51.5689 44.9574 52.5064 44.9574C53.5376 44.9574 54.4496 44.7784 55.2422 44.4205C56.0433 44.0625 56.6697 43.5639 57.1214 42.9247C57.5732 42.277 57.799 41.5312 57.799 40.6875C57.799 39.8097 57.5732 39.0384 57.1214 38.3736C56.6783 37.7003 56.0263 37.1719 55.1655 36.7884C54.3132 36.4048 53.282 36.2131 52.0717 36.2131H49.8601V32.9915H52.0717C53.0433 32.9915 53.8956 32.8168 54.6286 32.4673C55.37 32.1179 55.9496 31.6321 56.3672 31.0099C56.7848 30.3793 56.9936 29.642 56.9936 28.7983C56.9936 27.9886 56.8104 27.2855 56.4439 26.6889C56.0859 26.0838 55.5746 25.6108 54.9098 25.2699C54.2536 24.929 53.478 24.7585 52.5831 24.7585C51.7308 24.7585 50.9339 24.9162 50.1925 25.2315C49.4595 25.5384 48.8629 25.9815 48.4027 26.5611C47.9425 27.1321 47.6953 27.8182 47.6612 28.6193H43.8388C43.8814 27.2045 44.299 25.9602 45.0916 24.8864C45.8928 23.8125 46.9496 22.973 48.2621 22.3679C49.5746 21.7628 51.032 21.4602 52.6342 21.4602C54.3132 21.4602 55.7621 21.7884 56.9808 22.4446C58.2081 23.0923 59.1541 23.9574 59.8189 25.0398C60.4922 26.1222 60.8246 27.3068 60.8161 28.5938C60.8246 30.0597 60.4155 31.304 59.5888 32.3267C58.7706 33.3494 57.6797 34.0355 56.3161 34.3849V34.5895C58.0547 34.8537 59.4013 35.544 60.3558 36.6605C61.3189 37.777 61.7962 39.1619 61.7876 40.8153C61.7962 42.2557 61.3956 43.5469 60.5859 44.6889C59.7848 45.831 58.6896 46.7301 57.3004 47.3864C55.9112 48.0341 54.3217 48.358 52.532 48.358Z" fill="black"/>
<defs>
<linearGradient id="paint0_linear_2386_226" x1="53" y1="10.9736" x2="53" y2="58.9999" gradientUnits="userSpaceOnUse">
<stop stop-color="white"/>
<stop offset="1" stop-color="#F6E4C9"/>
</linearGradient>
</defs>
</svg>
